%TF.GenerationSoftware,KiCad,Pcbnew,10.0.1*%
%TF.CreationDate,2026-04-24T02:35:25+03:00*%
%TF.ProjectId,airbox,61697262-6f78-42e6-9b69-6361645f7063,rev?*%
%TF.SameCoordinates,Original*%
%TF.FileFunction,Soldermask,Bot*%
%TF.FilePolarity,Negative*%
%FSLAX46Y46*%
G04 Gerber Fmt 4.6, Leading zero omitted, Abs format (unit mm)*
G04 Created by KiCad (PCBNEW 10.0.1) date 2026-04-24 02:35:25*
%MOMM*%
%LPD*%
G01*
G04 APERTURE LIST*
G04 Aperture macros list*
%AMRoundRect*
0 Rectangle with rounded corners*
0 $1 Rounding radius*
0 $2 $3 $4 $5 $6 $7 $8 $9 X,Y pos of 4 corners*
0 Add a 4 corners polygon primitive as box body*
4,1,4,$2,$3,$4,$5,$6,$7,$8,$9,$2,$3,0*
0 Add four circle primitives for the rounded corners*
1,1,$1+$1,$2,$3*
1,1,$1+$1,$4,$5*
1,1,$1+$1,$6,$7*
1,1,$1+$1,$8,$9*
0 Add four rect primitives between the rounded corners*
20,1,$1+$1,$2,$3,$4,$5,0*
20,1,$1+$1,$4,$5,$6,$7,0*
20,1,$1+$1,$6,$7,$8,$9,0*
20,1,$1+$1,$8,$9,$2,$3,0*%
%AMFreePoly0*
4,1,6,1.000000,0.000000,0.500000,-0.750000,-0.500000,-0.750000,-0.500000,0.750000,0.500000,0.750000,1.000000,0.000000,1.000000,0.000000,$1*%
%AMFreePoly1*
4,1,6,0.500000,-0.750000,-0.650000,-0.750000,-0.150000,0.000000,-0.650000,0.750000,0.500000,0.750000,0.500000,-0.750000,0.500000,-0.750000,$1*%
%AMFreePoly2*
4,1,19,-0.850000,0.510000,-0.510000,0.850000,0.255000,0.850000,0.408997,0.829726,0.552500,0.770285,0.675729,0.675729,0.770285,0.552500,0.829726,0.408997,0.850000,0.255000,0.850000,-0.510000,0.510000,-0.850000,-0.255000,-0.850000,-0.408997,-0.829726,-0.552500,-0.770285,-0.675729,-0.675729,-0.770285,-0.552500,-0.829726,-0.408997,-0.850000,-0.255000,-0.850000,0.510000,-0.850000,0.510000,
$1*%
G04 Aperture macros list end*
%ADD10FreePoly0,270.000000*%
%ADD11FreePoly1,270.000000*%
%ADD12C,0.800000*%
%ADD13C,6.400000*%
%ADD14FreePoly2,180.000000*%
%ADD15C,1.700000*%
%ADD16RoundRect,0.250000X-0.625000X0.350000X-0.625000X-0.350000X0.625000X-0.350000X0.625000X0.350000X0*%
%ADD17O,1.750000X1.200000*%
%ADD18C,0.600000*%
%ADD19RoundRect,0.250000X0.350000X0.625000X-0.350000X0.625000X-0.350000X-0.625000X0.350000X-0.625000X0*%
%ADD20O,1.200000X1.750000*%
%ADD21FreePoly0,180.000000*%
%ADD22FreePoly1,180.000000*%
G04 APERTURE END LIST*
%TO.C,JP3*%
G36*
X174941800Y-76346600D02*
G01*
X176441800Y-76346600D01*
X176441800Y-78796600D01*
X174941800Y-78796600D01*
X174941800Y-76346600D01*
G37*
%TO.C,JP2*%
G36*
X131109000Y-77736000D02*
G01*
X133559000Y-77736000D01*
X133559000Y-79236000D01*
X131109000Y-79236000D01*
X131109000Y-77736000D01*
G37*
%TO.C,JP1*%
G36*
X131109000Y-80276000D02*
G01*
X133559000Y-80276000D01*
X133559000Y-81776000D01*
X131109000Y-81776000D01*
X131109000Y-80276000D01*
G37*
%TD*%
D10*
%TO.C,JP3*%
X175691800Y-76846600D03*
D11*
X175691800Y-78296600D03*
%TD*%
D12*
%TO.C,H1*%
X99962000Y-86868000D03*
X100664944Y-85170944D03*
X100664944Y-88565056D03*
X102362000Y-84468000D03*
D13*
X102362000Y-86868000D03*
D12*
X102362000Y-89268000D03*
X104059056Y-85170944D03*
X104059056Y-88565056D03*
X104762000Y-86868000D03*
%TD*%
D14*
%TO.C,U1*%
X138012500Y-80945000D03*
D15*
X138012500Y-78405000D03*
X138012500Y-75865000D03*
X138012500Y-73325000D03*
X138012500Y-70785000D03*
X138012500Y-68245000D03*
X138012500Y-65705000D03*
X138012500Y-63165000D03*
X115152500Y-63165000D03*
X115152500Y-65705000D03*
X115152500Y-68245000D03*
X115152500Y-70785000D03*
X115152500Y-73325000D03*
X115152500Y-75865000D03*
X115152500Y-78405000D03*
X115152500Y-80945000D03*
X135472500Y-80945000D03*
X135472500Y-78405000D03*
X135472500Y-75865000D03*
X135472500Y-73325000D03*
X135472500Y-70785000D03*
X135472500Y-68245000D03*
X135472500Y-65705000D03*
X135472500Y-63165000D03*
X117692500Y-63165000D03*
X117692500Y-65705000D03*
X117692500Y-68245000D03*
X117692500Y-70785000D03*
X117692500Y-73325000D03*
X117692500Y-75865000D03*
X117692500Y-78405000D03*
X117692500Y-80945000D03*
%TD*%
D16*
%TO.C,J5*%
X109220000Y-57214000D03*
D17*
X109220000Y-59214000D03*
X109220000Y-61214000D03*
X109220000Y-63214000D03*
X109220000Y-65214000D03*
%TD*%
D16*
%TO.C,J3*%
X166150000Y-61600000D03*
D17*
X166150000Y-63600000D03*
%TD*%
D18*
%TO.C,U3*%
X154040000Y-64575000D03*
X154040000Y-66025000D03*
X154500000Y-65300000D03*
X154960000Y-64575000D03*
X154960000Y-66025000D03*
%TD*%
D16*
%TO.C,J1*%
X109220000Y-70390000D03*
D17*
X109220000Y-72390000D03*
X109220000Y-74390000D03*
X109220000Y-76390000D03*
X109220000Y-78390000D03*
X109220000Y-80390000D03*
%TD*%
D19*
%TO.C,J4*%
X149590000Y-59224000D03*
D20*
X147590000Y-59224000D03*
%TD*%
D12*
%TO.C,H2*%
X99962000Y-58293000D03*
X100664944Y-56595944D03*
X100664944Y-59990056D03*
X102362000Y-55893000D03*
D13*
X102362000Y-58293000D03*
D12*
X102362000Y-60693000D03*
X104059056Y-56595944D03*
X104059056Y-59990056D03*
X104762000Y-58293000D03*
%TD*%
D16*
%TO.C,J7*%
X103378000Y-76359000D03*
D17*
X103378000Y-78359000D03*
X103378000Y-80359000D03*
%TD*%
D12*
%TO.C,H3*%
X171844000Y-86868000D03*
X172546944Y-85170944D03*
X172546944Y-88565056D03*
X174244000Y-84468000D03*
D13*
X174244000Y-86868000D03*
D12*
X174244000Y-89268000D03*
X175941056Y-85170944D03*
X175941056Y-88565056D03*
X176644000Y-86868000D03*
%TD*%
D21*
%TO.C,JP2*%
X133059000Y-78486000D03*
D22*
X131609000Y-78486000D03*
%TD*%
D21*
%TO.C,JP1*%
X133059000Y-81026000D03*
D22*
X131609000Y-81026000D03*
%TD*%
M02*
