%TF.GenerationSoftware,KiCad,Pcbnew,10.0.1*%
%TF.CreationDate,2026-04-24T02:35:25+03:00*%
%TF.ProjectId,airbox,61697262-6f78-42e6-9b69-6361645f7063,rev?*%
%TF.SameCoordinates,Original*%
%TF.FileFunction,Copper,L2,Bot*%
%TF.FilePolarity,Positive*%
%FSLAX46Y46*%
G04 Gerber Fmt 4.6, Leading zero omitted, Abs format (unit mm)*
G04 Created by KiCad (PCBNEW 10.0.1) date 2026-04-24 02:35:25*
%MOMM*%
%LPD*%
G01*
G04 APERTURE LIST*
G04 Aperture macros list*
%AMRoundRect*
0 Rectangle with rounded corners*
0 $1 Rounding radius*
0 $2 $3 $4 $5 $6 $7 $8 $9 X,Y pos of 4 corners*
0 Add a 4 corners polygon primitive as box body*
4,1,4,$2,$3,$4,$5,$6,$7,$8,$9,$2,$3,0*
0 Add four circle primitives for the rounded corners*
1,1,$1+$1,$2,$3*
1,1,$1+$1,$4,$5*
1,1,$1+$1,$6,$7*
1,1,$1+$1,$8,$9*
0 Add four rect primitives between the rounded corners*
20,1,$1+$1,$2,$3,$4,$5,0*
20,1,$1+$1,$4,$5,$6,$7,0*
20,1,$1+$1,$6,$7,$8,$9,0*
20,1,$1+$1,$8,$9,$2,$3,0*%
%AMFreePoly0*
4,1,6,1.000000,0.000000,0.500000,-0.750000,-0.500000,-0.750000,-0.500000,0.750000,0.500000,0.750000,1.000000,0.000000,1.000000,0.000000,$1*%
%AMFreePoly1*
4,1,6,0.500000,-0.750000,-0.650000,-0.750000,-0.150000,0.000000,-0.650000,0.750000,0.500000,0.750000,0.500000,-0.750000,0.500000,-0.750000,$1*%
%AMFreePoly2*
4,1,19,-0.850000,0.510000,-0.510000,0.850000,0.255000,0.850000,0.408997,0.829726,0.552500,0.770285,0.675729,0.675729,0.770285,0.552500,0.829726,0.408997,0.850000,0.255000,0.850000,-0.510000,0.510000,-0.850000,-0.255000,-0.850000,-0.408997,-0.829726,-0.552500,-0.770285,-0.675729,-0.675729,-0.770285,-0.552500,-0.829726,-0.408997,-0.850000,-0.255000,-0.850000,0.510000,-0.850000,0.510000,
$1*%
G04 Aperture macros list end*
%TA.AperFunction,SMDPad,CuDef*%
%ADD10FreePoly0,270.000000*%
%TD*%
%TA.AperFunction,SMDPad,CuDef*%
%ADD11FreePoly1,270.000000*%
%TD*%
%TA.AperFunction,ComponentPad*%
%ADD12C,0.800000*%
%TD*%
%TA.AperFunction,ComponentPad*%
%ADD13C,6.400000*%
%TD*%
%TA.AperFunction,ComponentPad*%
%ADD14FreePoly2,180.000000*%
%TD*%
%TA.AperFunction,ComponentPad*%
%ADD15C,1.700000*%
%TD*%
%TA.AperFunction,ComponentPad*%
%ADD16RoundRect,0.250000X-0.625000X0.350000X-0.625000X-0.350000X0.625000X-0.350000X0.625000X0.350000X0*%
%TD*%
%TA.AperFunction,ComponentPad*%
%ADD17O,1.750000X1.200000*%
%TD*%
%TA.AperFunction,ComponentPad*%
%ADD18C,0.600000*%
%TD*%
%TA.AperFunction,ComponentPad*%
%ADD19RoundRect,0.250000X0.350000X0.625000X-0.350000X0.625000X-0.350000X-0.625000X0.350000X-0.625000X0*%
%TD*%
%TA.AperFunction,ComponentPad*%
%ADD20O,1.200000X1.750000*%
%TD*%
%TA.AperFunction,SMDPad,CuDef*%
%ADD21FreePoly0,180.000000*%
%TD*%
%TA.AperFunction,SMDPad,CuDef*%
%ADD22FreePoly1,180.000000*%
%TD*%
%TA.AperFunction,ViaPad*%
%ADD23C,0.600000*%
%TD*%
%TA.AperFunction,Conductor*%
%ADD24C,0.400000*%
%TD*%
%TA.AperFunction,Conductor*%
%ADD25C,0.700000*%
%TD*%
%TA.AperFunction,Conductor*%
%ADD26C,0.200000*%
%TD*%
G04 APERTURE END LIST*
D10*
%TO.P,JP3,1,A_1*%
%TO.N,/SYSREG*%
X175691800Y-76846600D03*
D11*
%TO.P,JP3,2,B_2*%
%TO.N,Net-(D1-K)*%
X175691800Y-78296600D03*
%TD*%
D12*
%TO.P,H1,1,1_1*%
%TO.N,GND*%
X99962000Y-86868000D03*
X100664944Y-85170944D03*
X100664944Y-88565056D03*
X102362000Y-84468000D03*
D13*
X102362000Y-86868000D03*
D12*
X102362000Y-89268000D03*
X104059056Y-85170944D03*
X104059056Y-88565056D03*
X104762000Y-86868000D03*
%TD*%
D14*
%TO.P,U1,1,EN_1*%
%TO.N,unconnected-(U1-EN-Pad1)*%
X138012500Y-80945000D03*
D15*
%TO.P,U1,2,GPIO3_2*%
%TO.N,unconnected-(U1-GPIO3-Pad2)*%
X138012500Y-78405000D03*
%TO.P,U1,3,GPIO5_3*%
%TO.N,SENSE-SOLAR*%
X138012500Y-75865000D03*
%TO.P,U1,4,GPIO7_4*%
%TO.N,SENSOR-POWER*%
X138012500Y-73325000D03*
%TO.P,U1,5,GPIO9_5*%
%TO.N,SCL*%
X138012500Y-70785000D03*
%TO.P,U1,6,GPIO11_6*%
%TO.N,CHR-STAT2*%
X138012500Y-68245000D03*
%TO.P,U1,7,GPIO12_7*%
%TO.N,CHR-DISABLE*%
X138012500Y-65705000D03*
%TO.P,U1,8,3V3_8*%
%TO.N,+3V3*%
X138012500Y-63165000D03*
%TO.P,U1,9,VBUS_9*%
%TO.N,VBUS*%
X115152500Y-63165000D03*
%TO.P,U1,10,GND_10*%
%TO.N,GND*%
X115152500Y-65705000D03*
%TO.P,U1,11,XTAL_32K_N_11*%
%TO.N,unconnected-(U1-XTAL_32K_N-Pad11)*%
X115152500Y-68245000D03*
%TO.P,U1,12,DAC_2_12*%
%TO.N,GPIO18*%
X115152500Y-70785000D03*
%TO.P,U1,13,GPIO33_13*%
%TO.N,DS18B20-DATA*%
X115152500Y-73325000D03*
%TO.P,U1,14,GPIO35_14*%
%TO.N,unconnected-(U1-GPIO35-Pad14)*%
X115152500Y-75865000D03*
%TO.P,U1,15,GPIO37_15*%
%TO.N,unconnected-(U1-GPIO37-Pad15)*%
X115152500Y-78405000D03*
%TO.P,U1,16,GPIO39_16*%
%TO.N,GPIO39*%
X115152500Y-80945000D03*
%TO.P,U1,17,GPIO1_17*%
%TO.N,Net-(JP1-A)*%
X135472500Y-80945000D03*
%TO.P,U1,18,GPIO2_18*%
%TO.N,Net-(JP2-A)*%
X135472500Y-78405000D03*
%TO.P,U1,19,GPIO4_19*%
%TO.N,GPIO4*%
X135472500Y-75865000D03*
%TO.P,U1,20,GPIO6_20*%
%TO.N,SENSE-BAT*%
X135472500Y-73325000D03*
%TO.P,U1,21,GPIO8_21*%
%TO.N,SDA*%
X135472500Y-70785000D03*
%TO.P,U1,22,GPIO10_22*%
%TO.N,CHR-STAT1*%
X135472500Y-68245000D03*
%TO.P,U1,23,GPIO13_23*%
%TO.N,LED*%
X135472500Y-65705000D03*
%TO.P,U1,24,GPIO14_24*%
%TO.N,GPIO14*%
X135472500Y-63165000D03*
%TO.P,U1,25,XTAL_32K_P_25*%
%TO.N,unconnected-(U1-XTAL_32K_P-Pad25)*%
X117692500Y-63165000D03*
%TO.P,U1,26,GND_26*%
%TO.N,GND*%
X117692500Y-65705000D03*
%TO.P,U1,27,DAC_1_27*%
%TO.N,GPIO17*%
X117692500Y-68245000D03*
%TO.P,U1,28,GPIO21_28*%
%TO.N,SCD30RDY*%
X117692500Y-70785000D03*
%TO.P,U1,29,GPIO34_29*%
%TO.N,unconnected-(U1-GPIO34-Pad29)*%
X117692500Y-73325000D03*
%TO.P,U1,30,GPIO36_30*%
%TO.N,unconnected-(U1-GPIO36-Pad30)*%
X117692500Y-75865000D03*
%TO.P,U1,31,GPIO38_31*%
%TO.N,unconnected-(U1-GPIO38-Pad31)*%
X117692500Y-78405000D03*
%TO.P,U1,32,GPIO40_32*%
%TO.N,GPIO40*%
X117692500Y-80945000D03*
%TD*%
D16*
%TO.P,J5,1,Pin_1_1*%
%TO.N,/3V3-SENSOR*%
X109220000Y-57214000D03*
D17*
%TO.P,J5,2,Pin_2_2*%
%TO.N,GND*%
X109220000Y-59214000D03*
%TO.P,J5,3,Pin_3_3*%
%TO.N,SCL*%
X109220000Y-61214000D03*
%TO.P,J5,4,Pin_4_4*%
%TO.N,SDA*%
X109220000Y-63214000D03*
%TO.P,J5,5,Pin_5_5*%
%TO.N,SCD30RDY*%
X109220000Y-65214000D03*
%TD*%
D16*
%TO.P,J3,1,Pin_1_1*%
%TO.N,VSOLAR*%
X166150000Y-61600000D03*
D17*
%TO.P,J3,2,Pin_2_2*%
%TO.N,GND*%
X166150000Y-63600000D03*
%TD*%
D18*
%TO.P,U3,15,PGND_15*%
%TO.N,GND*%
X154040000Y-64575000D03*
X154040000Y-66025000D03*
X154500000Y-65300000D03*
X154960000Y-64575000D03*
X154960000Y-66025000D03*
%TD*%
D16*
%TO.P,J1,1,Pin_1_1*%
%TO.N,/3V3-SENSOR*%
X109220000Y-70390000D03*
D17*
%TO.P,J1,2,Pin_2_2*%
%TO.N,GND*%
X109220000Y-72390000D03*
%TO.P,J1,3,Pin_3_3*%
%TO.N,SDA*%
X109220000Y-74390000D03*
%TO.P,J1,4,Pin_4_4*%
%TO.N,SCL*%
X109220000Y-76390000D03*
%TO.P,J1,5,Pin_5_5*%
%TO.N,unconnected-(J1-Pin_5-Pad5)*%
X109220000Y-78390000D03*
%TO.P,J1,6,Pin_6_6*%
%TO.N,unconnected-(J1-Pin_6-Pad6)*%
X109220000Y-80390000D03*
%TD*%
D19*
%TO.P,J4,1,Pin_1_1*%
%TO.N,VBAT*%
X149590000Y-59224000D03*
D20*
%TO.P,J4,2,Pin_2_2*%
%TO.N,GND*%
X147590000Y-59224000D03*
%TD*%
D12*
%TO.P,H2,1,1_1*%
%TO.N,GND*%
X99962000Y-58293000D03*
X100664944Y-56595944D03*
X100664944Y-59990056D03*
X102362000Y-55893000D03*
D13*
X102362000Y-58293000D03*
D12*
X102362000Y-60693000D03*
X104059056Y-56595944D03*
X104059056Y-59990056D03*
X104762000Y-58293000D03*
%TD*%
D16*
%TO.P,J7,1,Pin_1_1*%
%TO.N,DS18B20-DATA*%
X103378000Y-76359000D03*
D17*
%TO.P,J7,2,Pin_2_2*%
%TO.N,GND*%
X103378000Y-78359000D03*
%TO.P,J7,3,Pin_3_3*%
%TO.N,+3V3*%
X103378000Y-80359000D03*
%TD*%
D12*
%TO.P,H3,1,1_1*%
%TO.N,GND*%
X171844000Y-86868000D03*
X172546944Y-85170944D03*
X172546944Y-88565056D03*
X174244000Y-84468000D03*
D13*
X174244000Y-86868000D03*
D12*
X174244000Y-89268000D03*
X175941056Y-85170944D03*
X175941056Y-88565056D03*
X176644000Y-86868000D03*
%TD*%
D21*
%TO.P,JP2,1,A_1*%
%TO.N,Net-(JP2-A)*%
X133059000Y-78486000D03*
D22*
%TO.P,JP2,2,B_2*%
%TO.N,SCL*%
X131609000Y-78486000D03*
%TD*%
D21*
%TO.P,JP1,1,A_1*%
%TO.N,Net-(JP1-A)*%
X133059000Y-81026000D03*
D22*
%TO.P,JP1,2,B_2*%
%TO.N,SDA*%
X131609000Y-81026000D03*
%TD*%
D23*
%TO.N,/SYSREG*%
X163638131Y-73369480D03*
%TO.N,Net-(D1-K)*%
X175133000Y-80746600D03*
%TO.N,+3V3*%
X142900000Y-65300000D03*
X152300000Y-65780000D03*
X143700000Y-65300000D03*
X137922000Y-56769000D03*
X149900000Y-65300000D03*
X119634000Y-73152000D03*
X144500000Y-65300000D03*
X142240000Y-56769000D03*
X141605000Y-56769000D03*
X121920000Y-67818000D03*
X138557000Y-56769000D03*
X148300000Y-65300000D03*
X149100000Y-65300000D03*
%TO.N,GND*%
X121920000Y-60768000D03*
X125408000Y-67818000D03*
X128270000Y-76962000D03*
X132969000Y-68072000D03*
X153900000Y-62200000D03*
X164200000Y-72800000D03*
X148336000Y-77724000D03*
X115951000Y-74549000D03*
X107188000Y-79818000D03*
X163068000Y-66356000D03*
X140335000Y-58166000D03*
X147500000Y-68800000D03*
X149606000Y-73914000D03*
X120015000Y-64956000D03*
X121920000Y-62162000D03*
X128905000Y-78105000D03*
X156900000Y-65100000D03*
X168656000Y-66040000D03*
X162560000Y-85979000D03*
X147252000Y-85344000D03*
X149100000Y-63700000D03*
X163300000Y-74100000D03*
X165200000Y-80600000D03*
X111506000Y-75438000D03*
X142100000Y-68700000D03*
X154400000Y-68400000D03*
X112776000Y-63500000D03*
X166200000Y-70900000D03*
X129475000Y-59182000D03*
X166624000Y-83693000D03*
X116967000Y-64389000D03*
X112014000Y-69150000D03*
X132080000Y-75692000D03*
X152200000Y-66600000D03*
X128075000Y-59182000D03*
X170180000Y-78232000D03*
X151300000Y-70600000D03*
X128524000Y-80899000D03*
X146700000Y-64500000D03*
X173482000Y-60898000D03*
X112268000Y-62992000D03*
X150808000Y-59944000D03*
X147300000Y-72500000D03*
X143764000Y-56769000D03*
X126108000Y-67818000D03*
X136525000Y-56515000D03*
X120446800Y-60248800D03*
X144272000Y-60198000D03*
X142240000Y-77024000D03*
X110998000Y-75946000D03*
X173482000Y-68704000D03*
X127762000Y-76454000D03*
X142240000Y-76324000D03*
X111760000Y-77851000D03*
X121920000Y-63562000D03*
X157300000Y-76100000D03*
X158050000Y-56642000D03*
X123698000Y-63562000D03*
X146812000Y-76200000D03*
X126746000Y-75438000D03*
X128524000Y-66548000D03*
X144780000Y-59690000D03*
X163068000Y-65656000D03*
X109220000Y-68388000D03*
X133604000Y-59309000D03*
X150500000Y-67900000D03*
X115502000Y-56134000D03*
X126238000Y-64643000D03*
X165862000Y-82931000D03*
X140400000Y-68600000D03*
X144399000Y-57404000D03*
X118110000Y-61722000D03*
X140462000Y-77792000D03*
X165200000Y-79100000D03*
X171450000Y-81915000D03*
X140462000Y-77092000D03*
X119938800Y-60756800D03*
X123952000Y-74168000D03*
X171450000Y-81153000D03*
X141097000Y-58166000D03*
X147828000Y-77216000D03*
X128905000Y-78867000D03*
X142300000Y-72500000D03*
X142100000Y-63900000D03*
X149668000Y-56642000D03*
X111506000Y-64516000D03*
X153924000Y-71944000D03*
X130175000Y-56515000D03*
X157300000Y-59800000D03*
X122936000Y-75184000D03*
X150368000Y-74676000D03*
X106934000Y-66734000D03*
X128270000Y-64262000D03*
X159512000Y-58166000D03*
X162600000Y-79100000D03*
X130680000Y-75692000D03*
X116967000Y-74549000D03*
X144907000Y-56896000D03*
X131380000Y-75692000D03*
X168529000Y-76073000D03*
X140462000Y-76392000D03*
X106934000Y-67434000D03*
X159400000Y-70500000D03*
X153600000Y-79300000D03*
X124079000Y-73025000D03*
X160600000Y-81700000D03*
X140300000Y-63900000D03*
X116967000Y-77089000D03*
X112522000Y-74422000D03*
X158112000Y-58166000D03*
X123698000Y-60068000D03*
X161290000Y-64324000D03*
X135001000Y-57912000D03*
X114300000Y-61214000D03*
X127762000Y-63754000D03*
X161036000Y-83185000D03*
X112014000Y-65024000D03*
X123698000Y-62862000D03*
X153200000Y-82800000D03*
X151800000Y-63000000D03*
X119126000Y-81407000D03*
X161300000Y-75300000D03*
X165862000Y-85725000D03*
X136525000Y-59436000D03*
X149100000Y-67900000D03*
X121920000Y-61468000D03*
X156500000Y-76100000D03*
X128775000Y-56515000D03*
X149352000Y-85344000D03*
X106934000Y-59114000D03*
X151300000Y-72200000D03*
X166624000Y-76835000D03*
X154700000Y-62200000D03*
X157600000Y-70600000D03*
X107188000Y-79118000D03*
X142240000Y-73914000D03*
X160600000Y-82500000D03*
X140300000Y-64600000D03*
X107188000Y-73784000D03*
X170180000Y-78994000D03*
X168529000Y-76835000D03*
X128778000Y-70798000D03*
X112014000Y-69850000D03*
X160020000Y-86868000D03*
X142100000Y-64600000D03*
X112014000Y-68450000D03*
X112014000Y-67750000D03*
X157300000Y-60500000D03*
X152016000Y-58166000D03*
X132080000Y-64516000D03*
X122936000Y-79502000D03*
X159900000Y-81900000D03*
X133731000Y-68072000D03*
X154940000Y-71244000D03*
X129475000Y-56515000D03*
X152900000Y-79300000D03*
X151700000Y-68400000D03*
X140462000Y-75692000D03*
X151316000Y-58166000D03*
X124460000Y-76708000D03*
X143764000Y-60706000D03*
X157734000Y-74422000D03*
X160147000Y-83058000D03*
X161290000Y-63624000D03*
X147500000Y-68100000D03*
X168656000Y-65340000D03*
X129980000Y-64516000D03*
X157000000Y-68400000D03*
X154940000Y-72644000D03*
X130680000Y-64516000D03*
X113284000Y-64008000D03*
X151300000Y-71400000D03*
X158496000Y-73660000D03*
X168656000Y-64640000D03*
X163322000Y-83566000D03*
X162600000Y-80600000D03*
X148652000Y-83820000D03*
X112522000Y-65532000D03*
X160400000Y-76300000D03*
X162560000Y-83947000D03*
X159512000Y-89154000D03*
X160500000Y-80200000D03*
X164700000Y-70900000D03*
X116205000Y-64389000D03*
X163068000Y-85471000D03*
X130175000Y-59182000D03*
X120836000Y-79502000D03*
X117602000Y-56134000D03*
X124968000Y-75184000D03*
X107188000Y-74484000D03*
X173482000Y-70104000D03*
X159100000Y-75400000D03*
X127254000Y-63246000D03*
X157300000Y-61900000D03*
X148652000Y-85344000D03*
X128075000Y-56515000D03*
X116902000Y-56134000D03*
X149800000Y-67900000D03*
X143256000Y-61214000D03*
X157600000Y-71400000D03*
X154500000Y-74300000D03*
X146939000Y-73914000D03*
X121920000Y-60068000D03*
X142100000Y-68000000D03*
X114300000Y-60514000D03*
X153600000Y-74300000D03*
X123952000Y-76200000D03*
X113284000Y-76327000D03*
X125346000Y-79502000D03*
X107188000Y-80518000D03*
X149352000Y-83820000D03*
X161036000Y-88519000D03*
X166624000Y-85725000D03*
X170180000Y-79756000D03*
X160100000Y-70800000D03*
X123698000Y-59368000D03*
X131380000Y-64516000D03*
X143891000Y-57912000D03*
X126046000Y-79502000D03*
X124460000Y-74676000D03*
X149600000Y-79300000D03*
X152200000Y-79300000D03*
X123444000Y-75692000D03*
X163068000Y-67056000D03*
X123698000Y-62162000D03*
X160500000Y-79200000D03*
X129980000Y-75692000D03*
X113538000Y-73084000D03*
X115951000Y-77089000D03*
X153924000Y-72644000D03*
X153200000Y-85500000D03*
X134620000Y-60325000D03*
X139573000Y-58166000D03*
X161036000Y-87884000D03*
X106934000Y-68834000D03*
X128778000Y-71498000D03*
X142875000Y-58928000D03*
X168800000Y-71700000D03*
X157300000Y-61200000D03*
X123698000Y-61468000D03*
X166200000Y-71700000D03*
X151700000Y-65100000D03*
X161600000Y-82500000D03*
X145900000Y-64500000D03*
X147952000Y-83820000D03*
X147952000Y-85344000D03*
X136017000Y-58928000D03*
X142240000Y-75624000D03*
X142240000Y-77724000D03*
X109220000Y-69088000D03*
X119126000Y-80137000D03*
X159400000Y-71200000D03*
X147252000Y-83820000D03*
X152716000Y-58166000D03*
X118618000Y-74549000D03*
X120015000Y-65656000D03*
X154940000Y-71944000D03*
X157412000Y-58166000D03*
X127508000Y-67818000D03*
X121920000Y-64262000D03*
X148268000Y-56642000D03*
X106934000Y-61214000D03*
X126746000Y-79502000D03*
X112776000Y-76835000D03*
X163068000Y-64956000D03*
X107188000Y-78418000D03*
X160274000Y-89154000D03*
X134112000Y-59817000D03*
X161290000Y-65024000D03*
X158750000Y-56642000D03*
X127889000Y-80391000D03*
X118618000Y-77089000D03*
X120015000Y-67056000D03*
X168656000Y-63940000D03*
X144600000Y-72500000D03*
X143383000Y-58420000D03*
X170300000Y-70900000D03*
X120396000Y-74549000D03*
X173482000Y-68004000D03*
X115316000Y-61722000D03*
X145600000Y-68800000D03*
X145600000Y-68100000D03*
X126746000Y-62738000D03*
X121536000Y-79502000D03*
X121920000Y-59368000D03*
X122301000Y-68707000D03*
X165100000Y-85725000D03*
X106934000Y-59814000D03*
X168800000Y-70900000D03*
X154300000Y-79300000D03*
X153700000Y-68400000D03*
X161036000Y-87249000D03*
X152208000Y-59944000D03*
X130048000Y-68072000D03*
X143700000Y-63700000D03*
X120015000Y-66356000D03*
X173482000Y-69404000D03*
X164700000Y-71700000D03*
X116967000Y-67056000D03*
X170300000Y-71700000D03*
X124714000Y-64643000D03*
X110998000Y-64008000D03*
X155400000Y-74300000D03*
X150800000Y-65300000D03*
X128778000Y-72198000D03*
X147320000Y-76708000D03*
X173482000Y-62298000D03*
X173482000Y-61598000D03*
X116205000Y-67056000D03*
X111760000Y-62484000D03*
X158812000Y-58166000D03*
X141859000Y-59944000D03*
X142367000Y-59436000D03*
X107188000Y-73084000D03*
X160200000Y-74400000D03*
X135509000Y-58420000D03*
X112014000Y-74930000D03*
X159450000Y-56642000D03*
X121920000Y-62862000D03*
X126808000Y-67818000D03*
X127254000Y-75946000D03*
X141859000Y-58166000D03*
X155100000Y-68400000D03*
X148968000Y-56642000D03*
X169926000Y-81788000D03*
X112268000Y-77343000D03*
X169926000Y-82550000D03*
X124646000Y-79502000D03*
X166624000Y-76073000D03*
X123698000Y-60768000D03*
X128778000Y-72898000D03*
X145900000Y-63700000D03*
X151508000Y-59944000D03*
X146700000Y-63700000D03*
X144907000Y-74041000D03*
X109220000Y-66988000D03*
X154940000Y-70544000D03*
X153924000Y-70544000D03*
X109220000Y-67688000D03*
X106934000Y-68134000D03*
X173482000Y-60198000D03*
X135128000Y-60833000D03*
X107188000Y-75184000D03*
X125476000Y-75692000D03*
X149700000Y-80700000D03*
X114300000Y-59814000D03*
X135890000Y-56515000D03*
X140400000Y-67900000D03*
X115951000Y-61087000D03*
X106934000Y-60514000D03*
X114300000Y-59114000D03*
X116202000Y-56134000D03*
X128775000Y-59182000D03*
X157600000Y-72200000D03*
X122236000Y-79502000D03*
X153924000Y-71244000D03*
X150368000Y-56642000D03*
X153416000Y-58166000D03*
X123698000Y-64262000D03*
X152300000Y-63700000D03*
X125476000Y-64643000D03*
X132207000Y-68072000D03*
X157350000Y-56642000D03*
%TO.N,/SYSREG*%
X156755389Y-66344611D03*
X159899950Y-77599950D03*
%TO.N,VBUS*%
X174752000Y-72644000D03*
X174752000Y-74930000D03*
X174752000Y-74168000D03*
X174752000Y-73406000D03*
%TO.N,Net-(U2-TS{slash}MR)*%
X156999125Y-80000875D03*
%TO.N,Net-(U3-EN)*%
X157000000Y-63300000D03*
%TO.N,Net-(U2-ISET)*%
X157700000Y-82499999D03*
%TO.N,SENSOR-POWER*%
X125476000Y-60452000D03*
%TO.N,SCL*%
X124460000Y-72136000D03*
X113538000Y-71120000D03*
X113792000Y-67056000D03*
%TO.N,CHR-STAT2*%
X156350000Y-77900000D03*
%TO.N,SDA*%
X119888000Y-71120000D03*
%TO.N,CHR-STAT1*%
X159319525Y-82617043D03*
%TO.N,LED*%
X145542000Y-59182000D03*
%TO.N,SCD30RDY*%
X111252000Y-70866000D03*
%TO.N,VSOLAR*%
X163830000Y-84328000D03*
X170688000Y-82804000D03*
%TO.N,VBAT*%
X161417000Y-84582000D03*
X156100000Y-76800000D03*
%TO.N,Net-(U2-ILIM{slash}VSET)*%
X157108600Y-81291400D03*
%TO.N,Net-(L1-Pad1)*%
X156275000Y-67500000D03*
%TO.N,Net-(L1-Pad2)*%
X152575000Y-67600000D03*
%TO.N,Net-(U3-FB)*%
X151100000Y-64400000D03*
%TO.N,CHR-DISABLE*%
X157147749Y-77840000D03*
%TO.N,GPIO18*%
X137490894Y-60334634D03*
%TO.N,GPIO17*%
X137012717Y-60976001D03*
%TO.N,GPIO4*%
X138470324Y-74594998D03*
%TO.N,GPIO39*%
X116459000Y-81996000D03*
X157099000Y-88992000D03*
%TD*%
%TO.N,/SYSREG*%
D24*
X174154000Y-76846600D02*
X171043600Y-73736200D01*
X175691800Y-76846600D02*
X174154000Y-76846600D01*
X171043600Y-73736200D02*
X164004851Y-73736200D01*
X164004851Y-73736200D02*
X163638131Y-73369480D01*
%TO.N,Net-(D1-K)*%
X175691800Y-80187800D02*
X175133000Y-80746600D01*
X175691800Y-78296600D02*
X175691800Y-80187800D01*
%TO.N,+3V3*%
X119188000Y-70550000D02*
X121920000Y-67818000D01*
X119188000Y-72706000D02*
X119188000Y-70550000D01*
X119634000Y-73152000D02*
X119188000Y-72706000D01*
X142900000Y-65300000D02*
X149900000Y-65300000D01*
%TO.N,VBUS*%
D25*
X170688000Y-55626000D02*
X174752000Y-59690000D01*
X174752000Y-74930000D02*
X174752000Y-75184000D01*
X174752000Y-72644000D02*
X174752000Y-73406000D01*
X122691500Y-55626000D02*
X170688000Y-55626000D01*
X115152500Y-63165000D02*
X122691500Y-55626000D01*
X174752000Y-73406000D02*
X174752000Y-74168000D01*
X174752000Y-59690000D02*
X174752000Y-72644000D01*
X174752000Y-74168000D02*
X174752000Y-74930000D01*
%TO.N,SENSOR-POWER*%
D24*
X134954733Y-72035000D02*
X125476000Y-62556267D01*
X135990267Y-72035000D02*
X134954733Y-72035000D01*
X125476000Y-62556267D02*
X125476000Y-60452000D01*
X137280267Y-73325000D02*
X135990267Y-72035000D01*
X138012500Y-73325000D02*
X137280267Y-73325000D01*
%TO.N,SCL*%
X131609000Y-78486000D02*
X130810000Y-78486000D01*
X130810000Y-78486000D02*
X124460000Y-72136000D01*
X113538000Y-67310000D02*
X113792000Y-67056000D01*
X113538000Y-71120000D02*
X113538000Y-67310000D01*
%TO.N,CHR-STAT2*%
X138938000Y-68326000D02*
X138093500Y-68326000D01*
X140208000Y-69596000D02*
X138938000Y-68326000D01*
X156350000Y-77900000D02*
X154354000Y-77900000D01*
X154354000Y-77900000D02*
X151924975Y-75470975D01*
X138093500Y-68326000D02*
X138012500Y-68245000D01*
X147385950Y-69596000D02*
X140208000Y-69596000D01*
X151924975Y-74135025D02*
X147385950Y-69596000D01*
X151924975Y-75470975D02*
X151924975Y-74135025D01*
%TO.N,Net-(JP1-A)*%
X135472500Y-80945000D02*
X133140000Y-80945000D01*
X133140000Y-80945000D02*
X133059000Y-81026000D01*
%TO.N,Net-(JP2-A)*%
X133140000Y-78405000D02*
X133059000Y-78486000D01*
X135472500Y-78405000D02*
X133140000Y-78405000D01*
%TO.N,SDA*%
X129794000Y-81026000D02*
X119888000Y-71120000D01*
X131609000Y-81026000D02*
X129794000Y-81026000D01*
%TO.N,CHR-STAT1*%
X139655267Y-73200000D02*
X138490267Y-72035000D01*
X138490267Y-72035000D02*
X137494733Y-72035000D01*
X158736569Y-83199999D02*
X155110049Y-83199999D01*
X155110049Y-83199999D02*
X145110050Y-73200000D01*
X136722500Y-70267233D02*
X135472500Y-69017233D01*
X159319525Y-82617043D02*
X158736569Y-83199999D01*
X137494733Y-72035000D02*
X136722500Y-71262767D01*
X135472500Y-69017233D02*
X135472500Y-68245000D01*
X136722500Y-71262767D02*
X136722500Y-70267233D01*
X145110050Y-73200000D02*
X139655267Y-73200000D01*
%TO.N,LED*%
X145542000Y-60047950D02*
X142389950Y-63200000D01*
X138530267Y-64415000D02*
X136762500Y-64415000D01*
X136762500Y-64415000D02*
X135472500Y-65705000D01*
X139745267Y-63200000D02*
X138530267Y-64415000D01*
X145542000Y-59182000D02*
X145542000Y-60047950D01*
X142389950Y-63200000D02*
X139745267Y-63200000D01*
%TO.N,SCD30RDY*%
X112421000Y-72035000D02*
X116442500Y-72035000D01*
X111252000Y-70866000D02*
X112421000Y-72035000D01*
X116442500Y-72035000D02*
X117692500Y-70785000D01*
%TO.N,VSOLAR*%
X164465000Y-84963000D02*
X168529000Y-84963000D01*
X163830000Y-84328000D02*
X164465000Y-84963000D01*
X168529000Y-84963000D02*
X170688000Y-82804000D01*
%TO.N,VBAT*%
X162300000Y-81364000D02*
X161836000Y-80900000D01*
X161836000Y-80900000D02*
X160210050Y-80900000D01*
X149714000Y-59100000D02*
X160192000Y-59100000D01*
X161777950Y-84221050D02*
X161777950Y-83312000D01*
X160210050Y-80900000D02*
X158810050Y-79500000D01*
X156100000Y-76800000D02*
X158242000Y-76800000D01*
X158810050Y-76800000D02*
X158242000Y-76800000D01*
X149590000Y-59224000D02*
X149714000Y-59100000D01*
X160192000Y-59100000D02*
X162306000Y-61214000D01*
X158810050Y-79500000D02*
X158810050Y-76800000D01*
X161777950Y-83312000D02*
X162300000Y-82789950D01*
X162306000Y-61214000D02*
X162306000Y-70866000D01*
X158242000Y-74930000D02*
X158242000Y-76800000D01*
X161417000Y-84582000D02*
X161777950Y-84221050D01*
X162306000Y-70866000D02*
X158242000Y-74930000D01*
X162300000Y-82789950D02*
X162300000Y-81364000D01*
%TO.N,CHR-DISABLE*%
X139258472Y-69495000D02*
X137494733Y-69495000D01*
X157147749Y-78092201D02*
X156639950Y-78600000D01*
X156060050Y-78600000D02*
X155960050Y-78500000D01*
X155960050Y-78500000D02*
X154105472Y-78500000D01*
X151324975Y-74383553D02*
X147137422Y-70196000D01*
X147137422Y-70196000D02*
X139959472Y-70196000D01*
X154105472Y-78500000D02*
X151324975Y-75719503D01*
X139959472Y-70196000D02*
X139258472Y-69495000D01*
X136762500Y-68762767D02*
X136762500Y-66955000D01*
X137494733Y-69495000D02*
X136762500Y-68762767D01*
X157147749Y-77840000D02*
X157147749Y-78092201D01*
X156639950Y-78600000D02*
X156060050Y-78600000D01*
X151324975Y-75719503D02*
X151324975Y-74383553D01*
X136762500Y-66955000D02*
X138012500Y-65705000D01*
%TO.N,GPIO18*%
D26*
X137261246Y-61576001D02*
X136633001Y-61576001D01*
X136398000Y-61341000D02*
X136398000Y-60926970D01*
X133910030Y-58439000D02*
X121363424Y-58439000D01*
X136398000Y-60926970D02*
X133910030Y-58439000D01*
X137612717Y-60456457D02*
X137612717Y-61224530D01*
X137612717Y-61224530D02*
X137261246Y-61576001D01*
X137490894Y-60334634D02*
X137612717Y-60456457D01*
X136633001Y-61576001D02*
X136398000Y-61341000D01*
X119242500Y-60559924D02*
X119242500Y-68321346D01*
X117928846Y-69635000D02*
X116302500Y-69635000D01*
X121363424Y-58439000D02*
X119242500Y-60559924D01*
X119242500Y-68321346D02*
X117928846Y-69635000D01*
X116302500Y-69635000D02*
X115152500Y-70785000D01*
%TO.N,GPIO17*%
X137012717Y-60976001D02*
X134075716Y-58039000D01*
X121197738Y-58039000D02*
X118842500Y-60394238D01*
X118618000Y-67319500D02*
X117692500Y-68245000D01*
X118842500Y-66958500D02*
X118618000Y-67183000D01*
X134075716Y-58039000D02*
X121197738Y-58039000D01*
X118842500Y-60394238D02*
X118842500Y-66958500D01*
X118618000Y-67183000D02*
X118618000Y-67319500D01*
%TO.N,GPIO4*%
X135844000Y-75865000D02*
X135472500Y-75865000D01*
X137114002Y-74594998D02*
X135844000Y-75865000D01*
X138470324Y-74594998D02*
X137114002Y-74594998D01*
%TO.N,GPIO39*%
X116459000Y-81996000D02*
X116558000Y-82095000D01*
X146537422Y-88992000D02*
X157099000Y-88992000D01*
X139640422Y-82095000D02*
X146537422Y-88992000D01*
X116558000Y-82095000D02*
X139640422Y-82095000D01*
%TD*%
%TA.AperFunction,Conductor*%
%TO.N,GND*%
G36*
X122247659Y-55129407D02*
G01*
X122283623Y-55178907D01*
X122283623Y-55240093D01*
X122259473Y-55279501D01*
X118839474Y-58699500D01*
X115433934Y-62105039D01*
X115379417Y-62132816D01*
X115344617Y-62132133D01*
X115255969Y-62114500D01*
X115255965Y-62114500D01*
X115049035Y-62114500D01*
X115049032Y-62114500D01*
X114846081Y-62154869D01*
X114654902Y-62234058D01*
X114482848Y-62349020D01*
X114336520Y-62495348D01*
X114221558Y-62667402D01*
X114203558Y-62710859D01*
X114142370Y-62858580D01*
X114102000Y-63061532D01*
X114102000Y-63268467D01*
X114142369Y-63471418D01*
X114221558Y-63662597D01*
X114333583Y-63830255D01*
X114336523Y-63834655D01*
X114482845Y-63980977D01*
X114654902Y-64095941D01*
X114846080Y-64175130D01*
X115049035Y-64215500D01*
X115049036Y-64215500D01*
X115255964Y-64215500D01*
X115255965Y-64215500D01*
X115458920Y-64175130D01*
X115650098Y-64095941D01*
X115822155Y-63980977D01*
X115968477Y-63834655D01*
X116083441Y-63662598D01*
X116162630Y-63471420D01*
X116203000Y-63268465D01*
X116203000Y-63061535D01*
X116185365Y-62972880D01*
X116192556Y-62912122D01*
X116212456Y-62883567D01*
X116721220Y-62374803D01*
X116775737Y-62347027D01*
X116836169Y-62356598D01*
X116879434Y-62399863D01*
X116889005Y-62460295D01*
X116873540Y-62499809D01*
X116761558Y-62667402D01*
X116743558Y-62710859D01*
X116682370Y-62858580D01*
X116642000Y-63061532D01*
X116642000Y-63268467D01*
X116682369Y-63471418D01*
X116761558Y-63662597D01*
X116873583Y-63830255D01*
X116876523Y-63834655D01*
X117022845Y-63980977D01*
X117194902Y-64095941D01*
X117386080Y-64175130D01*
X117589035Y-64215500D01*
X117589036Y-64215500D01*
X117795964Y-64215500D01*
X117795965Y-64215500D01*
X117998920Y-64175130D01*
X118190098Y-64095941D01*
X118362155Y-63980977D01*
X118372998Y-63970133D01*
X118427513Y-63942358D01*
X118487945Y-63951929D01*
X118531210Y-63995194D01*
X118542000Y-64040139D01*
X118542000Y-64706421D01*
X118523093Y-64764612D01*
X118473593Y-64800576D01*
X118412407Y-64800576D01*
X118384810Y-64786514D01*
X118295234Y-64721433D01*
X118295230Y-64721431D01*
X118133940Y-64639250D01*
X117961789Y-64583316D01*
X117783010Y-64555000D01*
X117601990Y-64555000D01*
X117423210Y-64583316D01*
X117251059Y-64639250D01*
X117089764Y-64721434D01*
X117073966Y-64732911D01*
X117563091Y-65222037D01*
X117499507Y-65239075D01*
X117385493Y-65304901D01*
X117292401Y-65397993D01*
X117226575Y-65512007D01*
X117209537Y-65575592D01*
X116720411Y-65086466D01*
X116708934Y-65102264D01*
X116626750Y-65263559D01*
X116570816Y-65435710D01*
X116542500Y-65614489D01*
X116542500Y-65795510D01*
X116570816Y-65974289D01*
X116626750Y-66146440D01*
X116708932Y-66307730D01*
X116720411Y-66323531D01*
X117209536Y-65834406D01*
X117226575Y-65897993D01*
X117292401Y-66012007D01*
X117385493Y-66105099D01*
X117499507Y-66170925D01*
X117563090Y-66187962D01*
X117073966Y-66677087D01*
X117089766Y-66688566D01*
X117251059Y-66770749D01*
X117423210Y-66826683D01*
X117601990Y-66855000D01*
X117783010Y-66855000D01*
X117961789Y-66826683D01*
X118133940Y-66770749D01*
X118295228Y-66688569D01*
X118384809Y-66623485D01*
X118399721Y-66618639D01*
X118412407Y-66609423D01*
X118428088Y-66609423D01*
X118443000Y-66604578D01*
X118457912Y-66609423D01*
X118473593Y-66609423D01*
X118486278Y-66618639D01*
X118501191Y-66623485D01*
X118510407Y-66636170D01*
X118523093Y-66645387D01*
X118527938Y-66660299D01*
X118537155Y-66672985D01*
X118542000Y-66703578D01*
X118542000Y-66793021D01*
X118523093Y-66851212D01*
X118513004Y-66863025D01*
X118433489Y-66942540D01*
X118433488Y-66942539D01*
X118377539Y-66998489D01*
X118337980Y-67067007D01*
X118337978Y-67067011D01*
X118317500Y-67143435D01*
X118317500Y-67154021D01*
X118315031Y-67161618D01*
X118316281Y-67169509D01*
X118305757Y-67190162D01*
X118298593Y-67212212D01*
X118288503Y-67224025D01*
X118242791Y-67269736D01*
X118188274Y-67297513D01*
X118134902Y-67291196D01*
X118117459Y-67283971D01*
X118095398Y-67274832D01*
X117998918Y-67234869D01*
X117795967Y-67194500D01*
X117795965Y-67194500D01*
X117589035Y-67194500D01*
X117589032Y-67194500D01*
X117386081Y-67234869D01*
X117194902Y-67314058D01*
X117022848Y-67429020D01*
X116876520Y-67575348D01*
X116761558Y-67747402D01*
X116682369Y-67938581D01*
X116642000Y-68141532D01*
X116642000Y-68348467D01*
X116682369Y-68551418D01*
X116761558Y-68742597D01*
X116810266Y-68815494D01*
X116876523Y-68914655D01*
X117022845Y-69060977D01*
X117090559Y-69106222D01*
X117160844Y-69153184D01*
X117198724Y-69201234D01*
X117201126Y-69262372D01*
X117167134Y-69313246D01*
X117109730Y-69334424D01*
X117105843Y-69334500D01*
X116342062Y-69334500D01*
X116262938Y-69334500D01*
X116216161Y-69347033D01*
X116186507Y-69354979D01*
X116117993Y-69394536D01*
X116117988Y-69394540D01*
X115702791Y-69809736D01*
X115648275Y-69837513D01*
X115594902Y-69831196D01*
X115458918Y-69774869D01*
X115255967Y-69734500D01*
X115255965Y-69734500D01*
X115049035Y-69734500D01*
X115049032Y-69734500D01*
X114846081Y-69774869D01*
X114654902Y-69854058D01*
X114482848Y-69969020D01*
X114336520Y-70115348D01*
X114221558Y-70287402D01*
X114142369Y-70478581D01*
X114134598Y-70517653D01*
X114104701Y-70571037D01*
X114049136Y-70596653D01*
X113989126Y-70584716D01*
X113947594Y-70539786D01*
X113938500Y-70498339D01*
X113938500Y-68531660D01*
X113957407Y-68473469D01*
X114006907Y-68437505D01*
X114068093Y-68437505D01*
X114117593Y-68473469D01*
X114134598Y-68512346D01*
X114142369Y-68551418D01*
X114221558Y-68742597D01*
X114270266Y-68815494D01*
X114336523Y-68914655D01*
X114482845Y-69060977D01*
X114654902Y-69175941D01*
X114846080Y-69255130D01*
X115049035Y-69295500D01*
X115049036Y-69295500D01*
X115255964Y-69295500D01*
X115255965Y-69295500D01*
X115458920Y-69255130D01*
X115650098Y-69175941D01*
X115822155Y-69060977D01*
X115968477Y-68914655D01*
X116083441Y-68742598D01*
X116162630Y-68551420D01*
X116203000Y-68348465D01*
X116203000Y-68141535D01*
X116162630Y-67938580D01*
X116083441Y-67747402D01*
X115968477Y-67575345D01*
X115822155Y-67429023D01*
X115822151Y-67429020D01*
X115650097Y-67314058D01*
X115458918Y-67234869D01*
X115255967Y-67194500D01*
X115255965Y-67194500D01*
X115049035Y-67194500D01*
X115049032Y-67194500D01*
X114846081Y-67234869D01*
X114654902Y-67314058D01*
X114482848Y-67429020D01*
X114336520Y-67575348D01*
X114221558Y-67747402D01*
X114142369Y-67938581D01*
X114134598Y-67977653D01*
X114104701Y-68031037D01*
X114049136Y-68056653D01*
X113989126Y-68044716D01*
X113947594Y-67999786D01*
X113938500Y-67958339D01*
X113938500Y-67606503D01*
X113957407Y-67548312D01*
X113987995Y-67520769D01*
X114099314Y-67456500D01*
X114192500Y-67363314D01*
X114199258Y-67351609D01*
X114258391Y-67249189D01*
X114281780Y-67161899D01*
X114292500Y-67121892D01*
X114292500Y-66990108D01*
X114258392Y-66862814D01*
X114258390Y-66862810D01*
X114258390Y-66862809D01*
X114192503Y-66748690D01*
X114192501Y-66748688D01*
X114192500Y-66748686D01*
X114099314Y-66655500D01*
X114099311Y-66655498D01*
X114099309Y-66655496D01*
X113985189Y-66589609D01*
X113985191Y-66589609D01*
X113935799Y-66576375D01*
X113857892Y-66555500D01*
X113726108Y-66555500D01*
X113648200Y-66576375D01*
X113598809Y-66589609D01*
X113484690Y-66655496D01*
X113391496Y-66748690D01*
X113325609Y-66862810D01*
X113325607Y-66862814D01*
X113298364Y-66964484D01*
X113272743Y-67008862D01*
X113217521Y-67064085D01*
X113217516Y-67064091D01*
X113164795Y-67155406D01*
X113164793Y-67155410D01*
X113164793Y-67155412D01*
X113139667Y-67249186D01*
X113137500Y-67257273D01*
X113137500Y-67257275D01*
X113137500Y-70786159D01*
X113124236Y-70835659D01*
X113071609Y-70926809D01*
X113071608Y-70926814D01*
X113037500Y-71054108D01*
X113037500Y-71185892D01*
X113063412Y-71282597D01*
X113071609Y-71313190D01*
X113137496Y-71427309D01*
X113137498Y-71427311D01*
X113137500Y-71427314D01*
X113175684Y-71465498D01*
X113203460Y-71520013D01*
X113193889Y-71580445D01*
X113150624Y-71623710D01*
X113105679Y-71634500D01*
X112627900Y-71634500D01*
X112569709Y-71615593D01*
X112557896Y-71605504D01*
X111771256Y-70818863D01*
X111745633Y-70774482D01*
X111718392Y-70672814D01*
X111652500Y-70558686D01*
X111559314Y-70465500D01*
X111559311Y-70465498D01*
X111559309Y-70465496D01*
X111445189Y-70399609D01*
X111445191Y-70399609D01*
X111394989Y-70386158D01*
X111317892Y-70365500D01*
X111186108Y-70365500D01*
X111109011Y-70386158D01*
X111058809Y-70399609D01*
X110944690Y-70465496D01*
X110851496Y-70558690D01*
X110785609Y-70672809D01*
X110766539Y-70743978D01*
X110751500Y-70800108D01*
X110751500Y-70931892D01*
X110775266Y-71020588D01*
X110785609Y-71059190D01*
X110851496Y-71173309D01*
X110851498Y-71173311D01*
X110851500Y-71173314D01*
X110944686Y-71266500D01*
X111058814Y-71332392D01*
X111160482Y-71359633D01*
X111204863Y-71385256D01*
X111655107Y-71835499D01*
X112100518Y-72280910D01*
X112100520Y-72280913D01*
X112175087Y-72355480D01*
X112227118Y-72385520D01*
X112266413Y-72408207D01*
X112368270Y-72435500D01*
X112368272Y-72435501D01*
X112368273Y-72435501D01*
X112479790Y-72435501D01*
X112479806Y-72435500D01*
X114317361Y-72435500D01*
X114375552Y-72454407D01*
X114411516Y-72503907D01*
X114411516Y-72565093D01*
X114387366Y-72604501D01*
X114359125Y-72632743D01*
X114336520Y-72655348D01*
X114221558Y-72827402D01*
X114142369Y-73018581D01*
X114102000Y-73221532D01*
X114102000Y-73428467D01*
X114142369Y-73631418D01*
X114221558Y-73822597D01*
X114336520Y-73994651D01*
X114336523Y-73994655D01*
X114482845Y-74140977D01*
X114654902Y-74255941D01*
X114846080Y-74335130D01*
X115049035Y-74375500D01*
X115049036Y-74375500D01*
X115255964Y-74375500D01*
X115255965Y-74375500D01*
X115458920Y-74335130D01*
X115650098Y-74255941D01*
X115822155Y-74140977D01*
X115968477Y-73994655D01*
X116083441Y-73822598D01*
X116162630Y-73631420D01*
X116203000Y-73428465D01*
X116203000Y-73221535D01*
X116162630Y-73018580D01*
X116083441Y-72827402D01*
X115968477Y-72655345D01*
X115917633Y-72604501D01*
X115889858Y-72549987D01*
X115899429Y-72489555D01*
X115942694Y-72446290D01*
X115987639Y-72435500D01*
X116495225Y-72435500D01*
X116495227Y-72435500D01*
X116597088Y-72408207D01*
X116597090Y-72408205D01*
X116597092Y-72408205D01*
X116688408Y-72355483D01*
X116688408Y-72355482D01*
X116688413Y-72355480D01*
X117242208Y-71801683D01*
X117296723Y-71773908D01*
X117350095Y-71780225D01*
X117386072Y-71795127D01*
X117386074Y-71795127D01*
X117386080Y-71795130D01*
X117589035Y-71835500D01*
X117589036Y-71835500D01*
X117795964Y-71835500D01*
X117795965Y-71835500D01*
X117998920Y-71795130D01*
X118190098Y-71715941D01*
X118362155Y-71600977D01*
X118508477Y-71454655D01*
X118606184Y-71308424D01*
X118654234Y-71270545D01*
X118715372Y-71268143D01*
X118766246Y-71302135D01*
X118787424Y-71359539D01*
X118787500Y-71363426D01*
X118787500Y-72746573D01*
X118768593Y-72804764D01*
X118719093Y-72840728D01*
X118657907Y-72840728D01*
X118608407Y-72804764D01*
X118606184Y-72801574D01*
X118508479Y-72655348D01*
X118508477Y-72655345D01*
X118362155Y-72509023D01*
X118362151Y-72509020D01*
X118190097Y-72394058D01*
X117998918Y-72314869D01*
X117795967Y-72274500D01*
X117795965Y-72274500D01*
X117589035Y-72274500D01*
X117589032Y-72274500D01*
X117386081Y-72314869D01*
X117194902Y-72394058D01*
X117022848Y-72509020D01*
X116876520Y-72655348D01*
X116761558Y-72827402D01*
X116682369Y-73018581D01*
X116642000Y-73221532D01*
X116642000Y-73428467D01*
X116682369Y-73631418D01*
X116761558Y-73822597D01*
X116876520Y-73994651D01*
X116876523Y-73994655D01*
X117022845Y-74140977D01*
X117194902Y-74255941D01*
X117386080Y-74335130D01*
X117589035Y-74375500D01*
X117589036Y-74375500D01*
X117795964Y-74375500D01*
X117795965Y-74375500D01*
X117998920Y-74335130D01*
X118190098Y-74255941D01*
X118362155Y-74140977D01*
X118508477Y-73994655D01*
X118623441Y-73822598D01*
X118702630Y-73631420D01*
X118743000Y-73428465D01*
X118743000Y-73221535D01*
X118708803Y-73049614D01*
X118715995Y-72988854D01*
X118757527Y-72943924D01*
X118817537Y-72931987D01*
X118873102Y-72957603D01*
X118875905Y-72960298D01*
X119114742Y-73199136D01*
X119140364Y-73243515D01*
X119167607Y-73345185D01*
X119167609Y-73345189D01*
X119233496Y-73459309D01*
X119233498Y-73459311D01*
X119233500Y-73459314D01*
X119326686Y-73552500D01*
X119326688Y-73552501D01*
X119326690Y-73552503D01*
X119440810Y-73618390D01*
X119440808Y-73618390D01*
X119440812Y-73618391D01*
X119440814Y-73618392D01*
X119568108Y-73652500D01*
X119568110Y-73652500D01*
X119699890Y-73652500D01*
X119699892Y-73652500D01*
X119827186Y-73618392D01*
X119827188Y-73618390D01*
X119827190Y-73618390D01*
X119941309Y-73552503D01*
X119941309Y-73552502D01*
X119941314Y-73552500D01*
X120034500Y-73459314D01*
X120059671Y-73415717D01*
X120100390Y-73345190D01*
X120100390Y-73345188D01*
X120100392Y-73345186D01*
X120134500Y-73217892D01*
X120134500Y-73086108D01*
X120100392Y-72958814D01*
X120100390Y-72958811D01*
X120100390Y-72958809D01*
X120034503Y-72844690D01*
X120034501Y-72844688D01*
X120034500Y-72844686D01*
X119941314Y-72751500D01*
X119941311Y-72751498D01*
X119941309Y-72751496D01*
X119827189Y-72685609D01*
X119827190Y-72685609D01*
X119725517Y-72658366D01*
X119681136Y-72632743D01*
X119617496Y-72569103D01*
X119589719Y-72514586D01*
X119588500Y-72499099D01*
X119588500Y-71686924D01*
X119607407Y-71628733D01*
X119656907Y-71592769D01*
X119713120Y-71591297D01*
X119796482Y-71613633D01*
X119840863Y-71639256D01*
X129473518Y-81271910D01*
X129473520Y-81271913D01*
X129548087Y-81346480D01*
X129602917Y-81378136D01*
X129639413Y-81399207D01*
X129741270Y-81426500D01*
X129741272Y-81426501D01*
X129741273Y-81426501D01*
X129852790Y-81426501D01*
X129852806Y-81426500D01*
X130804500Y-81426500D01*
X130819412Y-81431345D01*
X130835093Y-81431345D01*
X130847778Y-81440561D01*
X130862691Y-81445407D01*
X130871907Y-81458092D01*
X130884593Y-81467309D01*
X130889438Y-81482221D01*
X130898655Y-81494907D01*
X130903500Y-81525500D01*
X130903500Y-81695500D01*
X130884593Y-81753691D01*
X130835093Y-81789655D01*
X130804500Y-81794500D01*
X118567639Y-81794500D01*
X118509448Y-81775593D01*
X118473484Y-81726093D01*
X118473484Y-81664907D01*
X118497633Y-81625498D01*
X118508477Y-81614655D01*
X118623441Y-81442598D01*
X118702630Y-81251420D01*
X118743000Y-81048465D01*
X118743000Y-80841535D01*
X118702630Y-80638580D01*
X118623441Y-80447402D01*
X118508477Y-80275345D01*
X118362155Y-80129023D01*
X118362151Y-80129020D01*
X118190097Y-80014058D01*
X117998918Y-79934869D01*
X117795967Y-79894500D01*
X117795965Y-79894500D01*
X117589035Y-79894500D01*
X117589032Y-79894500D01*
X117386081Y-79934869D01*
X117194902Y-80014058D01*
X117022848Y-80129020D01*
X116876520Y-80275348D01*
X116761558Y-80447402D01*
X116682369Y-80638581D01*
X116642000Y-80841532D01*
X116642000Y-81048467D01*
X116682369Y-81251418D01*
X116702700Y-81300500D01*
X116734855Y-81378130D01*
X116738929Y-81387964D01*
X116743730Y-81448961D01*
X116711760Y-81501130D01*
X116655233Y-81524545D01*
X116621843Y-81521477D01*
X116551868Y-81502728D01*
X116524892Y-81495500D01*
X116393108Y-81495500D01*
X116296160Y-81521477D01*
X116265810Y-81529609D01*
X116231320Y-81549522D01*
X116171471Y-81562243D01*
X116115576Y-81537356D01*
X116084984Y-81484367D01*
X116090356Y-81425902D01*
X116162630Y-81251420D01*
X116203000Y-81048465D01*
X116203000Y-80841535D01*
X116162630Y-80638580D01*
X116083441Y-80447402D01*
X115968477Y-80275345D01*
X115822155Y-80129023D01*
X115822151Y-80129020D01*
X115650097Y-80014058D01*
X115458918Y-79934869D01*
X115255967Y-79894500D01*
X115255965Y-79894500D01*
X115049035Y-79894500D01*
X115049032Y-79894500D01*
X114846081Y-79934869D01*
X114654902Y-80014058D01*
X114482848Y-80129020D01*
X114336520Y-80275348D01*
X114221558Y-80447402D01*
X114142369Y-80638581D01*
X114102000Y-80841532D01*
X114102000Y-81048467D01*
X114142369Y-81251418D01*
X114221558Y-81442597D01*
X114336520Y-81614651D01*
X114336523Y-81614655D01*
X114482845Y-81760977D01*
X114654902Y-81875941D01*
X114846080Y-81955130D01*
X115049035Y-81995500D01*
X115049036Y-81995500D01*
X115255964Y-81995500D01*
X115255965Y-81995500D01*
X115458920Y-81955130D01*
X115650098Y-81875941D01*
X115822155Y-81760977D01*
X115822157Y-81760974D01*
X115824728Y-81759257D01*
X115883617Y-81742648D01*
X115941020Y-81763826D01*
X115975013Y-81814699D01*
X115975357Y-81867194D01*
X115958500Y-81930108D01*
X115958500Y-82061892D01*
X115987836Y-82171379D01*
X115984634Y-82232478D01*
X115946129Y-82280028D01*
X115892210Y-82296000D01*
X113538000Y-82296000D01*
X107342500Y-88491500D01*
X104923496Y-90910504D01*
X104868979Y-90938281D01*
X104853492Y-90939500D01*
X99405500Y-90939500D01*
X99347309Y-90920593D01*
X99311345Y-90871093D01*
X99306500Y-90840500D01*
X99306500Y-80280155D01*
X102302500Y-80280155D01*
X102302500Y-80437844D01*
X102333263Y-80592496D01*
X102333263Y-80592498D01*
X102393603Y-80738174D01*
X102393609Y-80738185D01*
X102428833Y-80790900D01*
X102481211Y-80869289D01*
X102592711Y-80980789D01*
X102639106Y-81011789D01*
X102723814Y-81068390D01*
X102723825Y-81068396D01*
X102777638Y-81090685D01*
X102869503Y-81128737D01*
X103024158Y-81159500D01*
X103024159Y-81159500D01*
X103731841Y-81159500D01*
X103731842Y-81159500D01*
X103886497Y-81128737D01*
X104032179Y-81068394D01*
X104163289Y-80980789D01*
X104274789Y-80869289D01*
X104362394Y-80738179D01*
X104422737Y-80592497D01*
X104453500Y-80437842D01*
X104453500Y-80311155D01*
X108144500Y-80311155D01*
X108144500Y-80468844D01*
X108165008Y-80571945D01*
X108169096Y-80592496D01*
X108175263Y-80623496D01*
X108175263Y-80623498D01*
X108235603Y-80769174D01*
X108235609Y-80769185D01*
X108272910Y-80825009D01*
X108323211Y-80900289D01*
X108434711Y-81011789D01*
X108512876Y-81064017D01*
X108565814Y-81099390D01*
X108565825Y-81099396D01*
X108610950Y-81118087D01*
X108711503Y-81159737D01*
X108866158Y-81190500D01*
X108866159Y-81190500D01*
X109573841Y-81190500D01*
X109573842Y-81190500D01*
X109728497Y-81159737D01*
X109874179Y-81099394D01*
X110005289Y-81011789D01*
X110116789Y-80900289D01*
X110204394Y-80769179D01*
X110264737Y-80623497D01*
X110295500Y-80468842D01*
X110295500Y-80311158D01*
X110264737Y-80156503D01*
X110239548Y-80095690D01*
X110204396Y-80010825D01*
X110204390Y-80010814D01*
X110153721Y-79934984D01*
X110116789Y-79879711D01*
X110005289Y-79768211D01*
X109953059Y-79733312D01*
X109874185Y-79680609D01*
X109874174Y-79680603D01*
X109728497Y-79620263D01*
X109573844Y-79589500D01*
X109573842Y-79589500D01*
X108866158Y-79589500D01*
X108866155Y-79589500D01*
X108711503Y-79620263D01*
X108711501Y-79620263D01*
X108565825Y-79680603D01*
X108565814Y-79680609D01*
X108434711Y-79768211D01*
X108434707Y-79768214D01*
X108323214Y-79879707D01*
X108323211Y-79879711D01*
X108235609Y-80010814D01*
X108235603Y-80010825D01*
X108175263Y-80156501D01*
X108175263Y-80156503D01*
X108144500Y-80311155D01*
X104453500Y-80311155D01*
X104453500Y-80280158D01*
X104422737Y-80125503D01*
X104386944Y-80039090D01*
X104362396Y-79979825D01*
X104362390Y-79979814D01*
X104315432Y-79909538D01*
X104274789Y-79848711D01*
X104163289Y-79737211D01*
X104097962Y-79693561D01*
X104032185Y-79649609D01*
X104032174Y-79649603D01*
X103886497Y-79589263D01*
X103731844Y-79558500D01*
X103731842Y-79558500D01*
X103024158Y-79558500D01*
X103024155Y-79558500D01*
X102869503Y-79589263D01*
X102869501Y-79589263D01*
X102723825Y-79649603D01*
X102723814Y-79649609D01*
X102592711Y-79737211D01*
X102592707Y-79737214D01*
X102481214Y-79848707D01*
X102481211Y-79848711D01*
X102393609Y-79979814D01*
X102393603Y-79979825D01*
X102333263Y-80125501D01*
X102333263Y-80125503D01*
X102302500Y-80280155D01*
X99306500Y-80280155D01*
X99306500Y-78109000D01*
X102235095Y-78109000D01*
X103097670Y-78109000D01*
X103077925Y-78128745D01*
X103028556Y-78214255D01*
X103003000Y-78309630D01*
X103003000Y-78408370D01*
X103028556Y-78503745D01*
X103077925Y-78589255D01*
X103097670Y-78609000D01*
X102235096Y-78609000D01*
X102237586Y-78621523D01*
X102305430Y-78785310D01*
X102403923Y-78932715D01*
X102529284Y-79058076D01*
X102676691Y-79156570D01*
X102840479Y-79224413D01*
X103014355Y-79258999D01*
X103014359Y-79259000D01*
X103127999Y-79259000D01*
X103128000Y-79258999D01*
X103128000Y-78639330D01*
X103147745Y-78659075D01*
X103233255Y-78708444D01*
X103328630Y-78734000D01*
X103427370Y-78734000D01*
X103522745Y-78708444D01*
X103608255Y-78659075D01*
X103628000Y-78639330D01*
X103628000Y-79258999D01*
X103628001Y-79259000D01*
X103741641Y-79259000D01*
X103741644Y-79258999D01*
X103915519Y-79224413D01*
X103915521Y-79224413D01*
X104079308Y-79156570D01*
X104226715Y-79058076D01*
X104352076Y-78932715D01*
X104450569Y-78785310D01*
X104518413Y-78621523D01*
X104520904Y-78609000D01*
X103658330Y-78609000D01*
X103678075Y-78589255D01*
X103727444Y-78503745D01*
X103753000Y-78408370D01*
X103753000Y-78311155D01*
X108144500Y-78311155D01*
X108144500Y-78468844D01*
X108152382Y-78508467D01*
X108174870Y-78621523D01*
X108175263Y-78623496D01*
X108175263Y-78623498D01*
X108235603Y-78769174D01*
X108235609Y-78769185D01*
X108263112Y-78810345D01*
X108323211Y-78900289D01*
X108434711Y-79011789D01*
X108503984Y-79058076D01*
X108565814Y-79099390D01*
X108565825Y-79099396D01*
X108619638Y-79121685D01*
X108711503Y-79159737D01*
X108866158Y-79190500D01*
X108866159Y-79190500D01*
X109573841Y-79190500D01*
X109573842Y-79190500D01*
X109728497Y-79159737D01*
X109874179Y-79099394D01*
X110005289Y-79011789D01*
X110116789Y-78900289D01*
X110204394Y-78769179D01*
X110264737Y-78623497D01*
X110295500Y-78468842D01*
X110295500Y-78311158D01*
X110295499Y-78311155D01*
X110293585Y-78301532D01*
X114102000Y-78301532D01*
X114102000Y-78508467D01*
X114142369Y-78711418D01*
X114221558Y-78902597D01*
X114315311Y-79042909D01*
X114336523Y-79074655D01*
X114482845Y-79220977D01*
X114654902Y-79335941D01*
X114846080Y-79415130D01*
X115049035Y-79455500D01*
X115049036Y-79455500D01*
X115255964Y-79455500D01*
X115255965Y-79455500D01*
X115458920Y-79415130D01*
X115650098Y-79335941D01*
X115822155Y-79220977D01*
X115968477Y-79074655D01*
X116083441Y-78902598D01*
X116162630Y-78711420D01*
X116203000Y-78508465D01*
X116203000Y-78301535D01*
X116202999Y-78301532D01*
X116642000Y-78301532D01*
X116642000Y-78508467D01*
X116682369Y-78711418D01*
X116761558Y-78902597D01*
X116855311Y-79042909D01*
X116876523Y-79074655D01*
X117022845Y-79220977D01*
X117194902Y-79335941D01*
X117386080Y-79415130D01*
X117589035Y-79455500D01*
X117589036Y-79455500D01*
X117795964Y-79455500D01*
X117795965Y-79455500D01*
X117998920Y-79415130D01*
X118190098Y-79335941D01*
X118362155Y-79220977D01*
X118508477Y-79074655D01*
X118623441Y-78902598D01*
X118702630Y-78711420D01*
X118743000Y-78508465D01*
X118743000Y-78301535D01*
X118702630Y-78098580D01*
X118623441Y-77907402D01*
X118508477Y-77735345D01*
X118362155Y-77589023D01*
X118362151Y-77589020D01*
X118190097Y-77474058D01*
X117998918Y-77394869D01*
X117795967Y-77354500D01*
X117795965Y-77354500D01*
X117589035Y-77354500D01*
X117589032Y-77354500D01*
X117386081Y-77394869D01*
X117194902Y-77474058D01*
X117022848Y-77589020D01*
X116876520Y-77735348D01*
X116761558Y-77907402D01*
X116682369Y-78098581D01*
X116642000Y-78301532D01*
X116202999Y-78301532D01*
X116162630Y-78098580D01*
X116083441Y-77907402D01*
X115968477Y-77735345D01*
X115822155Y-77589023D01*
X115822151Y-77589020D01*
X115650097Y-77474058D01*
X115458918Y-77394869D01*
X115255967Y-77354500D01*
X115255965Y-77354500D01*
X115049035Y-77354500D01*
X115049032Y-77354500D01*
X114846081Y-77394869D01*
X114654902Y-77474058D01*
X114482848Y-77589020D01*
X114336520Y-77735348D01*
X114221558Y-77907402D01*
X114142369Y-78098581D01*
X114102000Y-78301532D01*
X110293585Y-78301532D01*
X110282695Y-78246783D01*
X110264737Y-78156503D01*
X110239873Y-78096476D01*
X110204396Y-78010825D01*
X110204390Y-78010814D01*
X110169017Y-77957876D01*
X110116789Y-77879711D01*
X110005289Y-77768211D01*
X109922415Y-77712836D01*
X109874185Y-77680609D01*
X109874174Y-77680603D01*
X109728497Y-77620263D01*
X109573844Y-77589500D01*
X109573842Y-77589500D01*
X108866158Y-77589500D01*
X108866155Y-77589500D01*
X108711503Y-77620263D01*
X108711501Y-77620263D01*
X108565825Y-77680603D01*
X108565814Y-77680609D01*
X108434711Y-77768211D01*
X108434707Y-77768214D01*
X108323214Y-77879707D01*
X108323211Y-77879711D01*
X108235609Y-78010814D01*
X108235603Y-78010825D01*
X108175263Y-78156501D01*
X108175263Y-78156503D01*
X108144500Y-78311155D01*
X103753000Y-78311155D01*
X103753000Y-78309630D01*
X103727444Y-78214255D01*
X103678075Y-78128745D01*
X103658330Y-78109000D01*
X104520904Y-78109000D01*
X104518413Y-78096476D01*
X104450569Y-77932689D01*
X104352076Y-77785284D01*
X104226715Y-77659923D01*
X104079308Y-77561429D01*
X103915520Y-77493586D01*
X103741644Y-77459000D01*
X103628001Y-77459000D01*
X103628000Y-77459001D01*
X103628000Y-78078670D01*
X103608255Y-78058925D01*
X103522745Y-78009556D01*
X103427370Y-77984000D01*
X103328630Y-77984000D01*
X103233255Y-78009556D01*
X103147745Y-78058925D01*
X103128000Y-78078670D01*
X103128000Y-77459001D01*
X103127999Y-77459000D01*
X103014355Y-77459000D01*
X102840480Y-77493586D01*
X102840478Y-77493586D01*
X102676691Y-77561429D01*
X102529284Y-77659923D01*
X102403923Y-77785284D01*
X102305430Y-77932689D01*
X102237586Y-78096476D01*
X102235095Y-78109000D01*
X99306500Y-78109000D01*
X99306500Y-75954725D01*
X102302500Y-75954725D01*
X102302500Y-76763274D01*
X102305353Y-76793694D01*
X102305355Y-76793703D01*
X102350207Y-76921883D01*
X102430845Y-77031144D01*
X102430847Y-77031146D01*
X102430850Y-77031150D01*
X102430853Y-77031152D01*
X102430855Y-77031154D01*
X102540116Y-77111792D01*
X102540117Y-77111792D01*
X102540118Y-77111793D01*
X102668301Y-77156646D01*
X102698725Y-77159499D01*
X102698727Y-77159500D01*
X102698734Y-77159500D01*
X104057273Y-77159500D01*
X104057273Y-77159499D01*
X104087699Y-77156646D01*
X104215882Y-77111793D01*
X104325150Y-77031150D01*
X104405793Y-76921882D01*
X104450646Y-76793699D01*
X104453499Y-76763273D01*
X104453500Y-76763273D01*
X104453500Y-76311155D01*
X108144500Y-76311155D01*
X108144500Y-76468844D01*
X108175263Y-76623496D01*
X108175263Y-76623498D01*
X108235603Y-76769174D01*
X108235609Y-76769185D01*
X108288312Y-76848059D01*
X108323211Y-76900289D01*
X108434711Y-77011789D01*
X108512876Y-77064017D01*
X108565814Y-77099390D01*
X108565825Y-77099396D01*
X108595755Y-77111793D01*
X108711503Y-77159737D01*
X108866158Y-77190500D01*
X108866159Y-77190500D01*
X109573841Y-77190500D01*
X109573842Y-77190500D01*
X109728497Y-77159737D01*
X109874179Y-77099394D01*
X110005289Y-77011789D01*
X110116789Y-76900289D01*
X110204394Y-76769179D01*
X110264737Y-76623497D01*
X110295500Y-76468842D01*
X110295500Y-76311158D01*
X110264737Y-76156503D01*
X110204394Y-76010821D01*
X110204393Y-76010819D01*
X110204390Y-76010814D01*
X110166912Y-75954725D01*
X110116789Y-75879711D01*
X110005289Y-75768211D01*
X109995293Y-75761532D01*
X114102000Y-75761532D01*
X114102000Y-75968467D01*
X114142369Y-76171418D01*
X114221558Y-76362597D01*
X114299682Y-76479518D01*
X114336523Y-76534655D01*
X114482845Y-76680977D01*
X114654902Y-76795941D01*
X114846080Y-76875130D01*
X115049035Y-76915500D01*
X115049036Y-76915500D01*
X115255964Y-76915500D01*
X115255965Y-76915500D01*
X115458920Y-76875130D01*
X115650098Y-76795941D01*
X115822155Y-76680977D01*
X115968477Y-76534655D01*
X116083441Y-76362598D01*
X116162630Y-76171420D01*
X116203000Y-75968465D01*
X116203000Y-75761535D01*
X116202999Y-75761532D01*
X116642000Y-75761532D01*
X116642000Y-75968467D01*
X116682369Y-76171418D01*
X116761558Y-76362597D01*
X116839682Y-76479518D01*
X116876523Y-76534655D01*
X117022845Y-76680977D01*
X117194902Y-76795941D01*
X117386080Y-76875130D01*
X117589035Y-76915500D01*
X117589036Y-76915500D01*
X117795964Y-76915500D01*
X117795965Y-76915500D01*
X117998920Y-76875130D01*
X118190098Y-76795941D01*
X118362155Y-76680977D01*
X118508477Y-76534655D01*
X118623441Y-76362598D01*
X118702630Y-76171420D01*
X118743000Y-75968465D01*
X118743000Y-75761535D01*
X118702630Y-75558580D01*
X118623441Y-75367402D01*
X118508477Y-75195345D01*
X118362155Y-75049023D01*
X118331834Y-75028763D01*
X118190097Y-74934058D01*
X117998918Y-74854869D01*
X117795967Y-74814500D01*
X117795965Y-74814500D01*
X117589035Y-74814500D01*
X117589032Y-74814500D01*
X117386081Y-74854869D01*
X117194902Y-74934058D01*
X117022848Y-75049020D01*
X116876520Y-75195348D01*
X116761558Y-75367402D01*
X116682369Y-75558581D01*
X116642000Y-75761532D01*
X116202999Y-75761532D01*
X116162630Y-75558580D01*
X116083441Y-75367402D01*
X115968477Y-75195345D01*
X115822155Y-75049023D01*
X115791834Y-75028763D01*
X115650097Y-74934058D01*
X115458918Y-74854869D01*
X115255967Y-74814500D01*
X115255965Y-74814500D01*
X115049035Y-74814500D01*
X115049032Y-74814500D01*
X114846081Y-74854869D01*
X114654902Y-74934058D01*
X114482848Y-75049020D01*
X114336520Y-75195348D01*
X114221558Y-75367402D01*
X114142369Y-75558581D01*
X114102000Y-75761532D01*
X109995293Y-75761532D01*
X109953059Y-75733312D01*
X109874185Y-75680609D01*
X109874174Y-75680603D01*
X109728497Y-75620263D01*
X109573844Y-75589500D01*
X109573842Y-75589500D01*
X108866158Y-75589500D01*
X108866155Y-75589500D01*
X108711503Y-75620263D01*
X108711501Y-75620263D01*
X108565825Y-75680603D01*
X108565814Y-75680609D01*
X108434711Y-75768211D01*
X108434707Y-75768214D01*
X108323214Y-75879707D01*
X108323211Y-75879711D01*
X108235609Y-76010814D01*
X108235603Y-76010825D01*
X108175263Y-76156501D01*
X108175263Y-76156503D01*
X108144500Y-76311155D01*
X104453500Y-76311155D01*
X104453500Y-75954727D01*
X104453499Y-75954725D01*
X104450646Y-75924305D01*
X104450646Y-75924301D01*
X104405793Y-75796118D01*
X104388161Y-75772228D01*
X104325154Y-75686855D01*
X104325152Y-75686853D01*
X104325150Y-75686850D01*
X104325146Y-75686847D01*
X104325144Y-75686845D01*
X104215883Y-75606207D01*
X104087703Y-75561355D01*
X104087694Y-75561353D01*
X104057274Y-75558500D01*
X104057266Y-75558500D01*
X102698734Y-75558500D01*
X102698725Y-75558500D01*
X102668305Y-75561353D01*
X102668296Y-75561355D01*
X102540116Y-75606207D01*
X102430855Y-75686845D01*
X102430845Y-75686855D01*
X102350207Y-75796116D01*
X102305355Y-75924296D01*
X102305353Y-75924305D01*
X102302500Y-75954725D01*
X99306500Y-75954725D01*
X99306500Y-74311155D01*
X108144500Y-74311155D01*
X108144500Y-74468844D01*
X108175263Y-74623496D01*
X108175263Y-74623498D01*
X108235603Y-74769174D01*
X108235609Y-74769185D01*
X108288312Y-74848059D01*
X108323211Y-74900289D01*
X108434711Y-75011789D01*
X108478541Y-75041075D01*
X108565814Y-75099390D01*
X108565825Y-75099396D01*
X108593070Y-75110681D01*
X108711503Y-75159737D01*
X108866158Y-75190500D01*
X108866159Y-75190500D01*
X109573841Y-75190500D01*
X109573842Y-75190500D01*
X109728497Y-75159737D01*
X109874179Y-75099394D01*
X110005289Y-75011789D01*
X110116789Y-74900289D01*
X110204394Y-74769179D01*
X110264737Y-74623497D01*
X110295500Y-74468842D01*
X110295500Y-74311158D01*
X110264737Y-74156503D01*
X110204394Y-74010821D01*
X110204393Y-74010819D01*
X110204390Y-74010814D01*
X110145104Y-73922088D01*
X110116789Y-73879711D01*
X110005289Y-73768211D01*
X109953059Y-73733312D01*
X109874185Y-73680609D01*
X109874174Y-73680603D01*
X109728497Y-73620263D01*
X109573844Y-73589500D01*
X109573842Y-73589500D01*
X108866158Y-73589500D01*
X108866155Y-73589500D01*
X108711503Y-73620263D01*
X108711501Y-73620263D01*
X108565825Y-73680603D01*
X108565814Y-73680609D01*
X108434711Y-73768211D01*
X108434707Y-73768214D01*
X108323214Y-73879707D01*
X108323211Y-73879711D01*
X108235609Y-74010814D01*
X108235603Y-74010825D01*
X108175263Y-74156501D01*
X108175263Y-74156503D01*
X108144500Y-74311155D01*
X99306500Y-74311155D01*
X99306500Y-72140000D01*
X108077095Y-72140000D01*
X108939670Y-72140000D01*
X108919925Y-72159745D01*
X108870556Y-72245255D01*
X108845000Y-72340630D01*
X108845000Y-72439370D01*
X108870556Y-72534745D01*
X108919925Y-72620255D01*
X108939670Y-72640000D01*
X108077096Y-72640000D01*
X108079586Y-72652523D01*
X108147430Y-72816310D01*
X108245923Y-72963715D01*
X108371284Y-73089076D01*
X108518691Y-73187570D01*
X108682479Y-73255413D01*
X108856355Y-73289999D01*
X108856359Y-73290000D01*
X108969999Y-73290000D01*
X108970000Y-73289999D01*
X108970000Y-72670330D01*
X108989745Y-72690075D01*
X109075255Y-72739444D01*
X109170630Y-72765000D01*
X109269370Y-72765000D01*
X109364745Y-72739444D01*
X109450255Y-72690075D01*
X109470000Y-72670330D01*
X109470000Y-73289999D01*
X109470001Y-73290000D01*
X109583641Y-73290000D01*
X109583644Y-73289999D01*
X109757519Y-73255413D01*
X109757521Y-73255413D01*
X109921308Y-73187570D01*
X110068715Y-73089076D01*
X110194076Y-72963715D01*
X110292569Y-72816310D01*
X110360413Y-72652523D01*
X110362904Y-72640000D01*
X109500330Y-72640000D01*
X109520075Y-72620255D01*
X109569444Y-72534745D01*
X109595000Y-72439370D01*
X109595000Y-72340630D01*
X109569444Y-72245255D01*
X109520075Y-72159745D01*
X109500330Y-72140000D01*
X110362904Y-72140000D01*
X110360413Y-72127476D01*
X110292569Y-71963689D01*
X110194076Y-71816284D01*
X110068715Y-71690923D01*
X109921308Y-71592429D01*
X109757520Y-71524586D01*
X109583644Y-71490000D01*
X109470001Y-71490000D01*
X109470000Y-71490001D01*
X109470000Y-72109670D01*
X109450255Y-72089925D01*
X109364745Y-72040556D01*
X109269370Y-72015000D01*
X109170630Y-72015000D01*
X109075255Y-72040556D01*
X108989745Y-72089925D01*
X108970000Y-72109670D01*
X108970000Y-71490001D01*
X108969999Y-71490000D01*
X108856355Y-71490000D01*
X108682480Y-71524586D01*
X108682478Y-71524586D01*
X108518691Y-71592429D01*
X108371284Y-71690923D01*
X108245923Y-71816284D01*
X108147430Y-71963689D01*
X108079586Y-72127476D01*
X108077095Y-72140000D01*
X99306500Y-72140000D01*
X99306500Y-69985725D01*
X108144500Y-69985725D01*
X108144500Y-70794274D01*
X108147353Y-70824694D01*
X108147355Y-70824703D01*
X108192207Y-70952883D01*
X108272845Y-71062144D01*
X108272847Y-71062146D01*
X108272850Y-71062150D01*
X108272853Y-71062152D01*
X108272855Y-71062154D01*
X108382116Y-71142792D01*
X108382117Y-71142792D01*
X108382118Y-71142793D01*
X108510301Y-71187646D01*
X108540725Y-71190499D01*
X108540727Y-71190500D01*
X108540734Y-71190500D01*
X109899273Y-71190500D01*
X109899273Y-71190499D01*
X109929699Y-71187646D01*
X110057882Y-71142793D01*
X110167150Y-71062150D01*
X110247793Y-70952882D01*
X110292646Y-70824699D01*
X110295499Y-70794273D01*
X110295500Y-70794273D01*
X110295500Y-69985727D01*
X110295499Y-69985725D01*
X110293933Y-69969023D01*
X110292646Y-69955301D01*
X110247793Y-69827118D01*
X110220194Y-69789723D01*
X110167154Y-69717855D01*
X110167152Y-69717853D01*
X110167150Y-69717850D01*
X110167146Y-69717847D01*
X110167144Y-69717845D01*
X110057883Y-69637207D01*
X109929703Y-69592355D01*
X109929694Y-69592353D01*
X109899274Y-69589500D01*
X109899266Y-69589500D01*
X108540734Y-69589500D01*
X108540725Y-69589500D01*
X108510305Y-69592353D01*
X108510296Y-69592355D01*
X108382116Y-69637207D01*
X108272855Y-69717845D01*
X108272845Y-69717855D01*
X108192207Y-69827116D01*
X108147355Y-69955296D01*
X108147353Y-69955305D01*
X108144500Y-69985725D01*
X99306500Y-69985725D01*
X99306500Y-65135155D01*
X108144500Y-65135155D01*
X108144500Y-65292844D01*
X108148631Y-65313609D01*
X108172918Y-65435710D01*
X108175263Y-65447496D01*
X108175263Y-65447498D01*
X108235603Y-65593174D01*
X108235609Y-65593185D01*
X108288312Y-65672059D01*
X108323211Y-65724289D01*
X108434711Y-65835789D01*
X108512876Y-65888017D01*
X108565814Y-65923390D01*
X108565825Y-65923396D01*
X108605989Y-65940032D01*
X108711503Y-65983737D01*
X108866158Y-66014500D01*
X108866159Y-66014500D01*
X109573841Y-66014500D01*
X109573842Y-66014500D01*
X109728497Y-65983737D01*
X109874179Y-65923394D01*
X110005289Y-65835789D01*
X110116789Y-65724289D01*
X110190155Y-65614489D01*
X114002500Y-65614489D01*
X114002500Y-65795510D01*
X114030816Y-65974289D01*
X114086750Y-66146440D01*
X114168932Y-66307730D01*
X114180411Y-66323531D01*
X114669536Y-65834406D01*
X114686575Y-65897993D01*
X114752401Y-66012007D01*
X114845493Y-66105099D01*
X114959507Y-66170925D01*
X115023091Y-66187962D01*
X114533966Y-66677087D01*
X114549766Y-66688566D01*
X114711059Y-66770749D01*
X114883210Y-66826683D01*
X115061990Y-66855000D01*
X115243010Y-66855000D01*
X115421789Y-66826683D01*
X115593940Y-66770749D01*
X115755230Y-66688568D01*
X115755235Y-66688564D01*
X115771032Y-66677087D01*
X115771032Y-66677086D01*
X115281908Y-66187962D01*
X115345493Y-66170925D01*
X115459507Y-66105099D01*
X115552599Y-66012007D01*
X115618425Y-65897993D01*
X115635462Y-65834408D01*
X116124586Y-66323532D01*
X116124587Y-66323532D01*
X116136064Y-66307735D01*
X116136068Y-66307730D01*
X116218249Y-66146440D01*
X116274183Y-65974289D01*
X116302500Y-65795510D01*
X116302500Y-65614489D01*
X116274183Y-65435710D01*
X116218249Y-65263559D01*
X116136066Y-65102266D01*
X116124587Y-65086466D01*
X115635462Y-65575591D01*
X115618425Y-65512007D01*
X115552599Y-65397993D01*
X115459507Y-65304901D01*
X115345493Y-65239075D01*
X115281906Y-65222036D01*
X115771032Y-64732911D01*
X115755230Y-64721432D01*
X115593940Y-64639250D01*
X115421789Y-64583316D01*
X115243010Y-64555000D01*
X115061990Y-64555000D01*
X114883210Y-64583316D01*
X114711059Y-64639250D01*
X114549764Y-64721434D01*
X114533966Y-64732911D01*
X115023092Y-65222037D01*
X114959507Y-65239075D01*
X114845493Y-65304901D01*
X114752401Y-65397993D01*
X114686575Y-65512007D01*
X114669537Y-65575592D01*
X114180411Y-65086466D01*
X114168934Y-65102264D01*
X114086750Y-65263559D01*
X114030816Y-65435710D01*
X114002500Y-65614489D01*
X110190155Y-65614489D01*
X110204394Y-65593179D01*
X110264737Y-65447497D01*
X110295500Y-65292842D01*
X110295500Y-65135158D01*
X110264737Y-64980503D01*
X110217470Y-64866390D01*
X110204396Y-64834825D01*
X110204387Y-64834808D01*
X110198265Y-64825646D01*
X110198263Y-64825644D01*
X110137755Y-64735089D01*
X110116789Y-64703711D01*
X110005289Y-64592211D01*
X109934877Y-64545163D01*
X109874185Y-64504609D01*
X109874174Y-64504603D01*
X109728497Y-64444263D01*
X109573844Y-64413500D01*
X109573842Y-64413500D01*
X108866158Y-64413500D01*
X108866155Y-64413500D01*
X108711503Y-64444263D01*
X108711501Y-64444263D01*
X108565825Y-64504603D01*
X108565814Y-64504609D01*
X108434711Y-64592211D01*
X108434707Y-64592214D01*
X108323214Y-64703707D01*
X108323211Y-64703711D01*
X108235609Y-64834814D01*
X108235603Y-64834825D01*
X108175263Y-64980501D01*
X108175263Y-64980503D01*
X108144500Y-65135155D01*
X99306500Y-65135155D01*
X99306500Y-63135155D01*
X108144500Y-63135155D01*
X108144500Y-63292844D01*
X108175263Y-63447496D01*
X108175263Y-63447498D01*
X108235603Y-63593174D01*
X108235609Y-63593185D01*
X108281990Y-63662597D01*
X108323211Y-63724289D01*
X108434711Y-63835789D01*
X108512876Y-63888017D01*
X108565814Y-63923390D01*
X108565825Y-63923396D01*
X108590480Y-63933608D01*
X108711503Y-63983737D01*
X108866158Y-64014500D01*
X108866159Y-64014500D01*
X109573841Y-64014500D01*
X109573842Y-64014500D01*
X109728497Y-63983737D01*
X109874179Y-63923394D01*
X110005289Y-63835789D01*
X110116789Y-63724289D01*
X110204394Y-63593179D01*
X110264737Y-63447497D01*
X110295500Y-63292842D01*
X110295500Y-63135158D01*
X110264737Y-62980503D01*
X110214235Y-62858579D01*
X110204396Y-62834825D01*
X110204390Y-62834814D01*
X110161419Y-62770504D01*
X110116789Y-62703711D01*
X110005289Y-62592211D01*
X109935405Y-62545516D01*
X109874185Y-62504609D01*
X109874174Y-62504603D01*
X109728497Y-62444263D01*
X109573844Y-62413500D01*
X109573842Y-62413500D01*
X108866158Y-62413500D01*
X108866155Y-62413500D01*
X108711503Y-62444263D01*
X108711501Y-62444263D01*
X108565825Y-62504603D01*
X108565814Y-62504609D01*
X108434711Y-62592211D01*
X108434707Y-62592214D01*
X108323214Y-62703707D01*
X108323211Y-62703711D01*
X108235609Y-62834814D01*
X108235603Y-62834825D01*
X108175263Y-62980501D01*
X108175263Y-62980503D01*
X108144500Y-63135155D01*
X99306500Y-63135155D01*
X99306500Y-61135155D01*
X108144500Y-61135155D01*
X108144500Y-61292844D01*
X108175263Y-61447496D01*
X108175263Y-61447498D01*
X108235603Y-61593174D01*
X108235609Y-61593185D01*
X108288312Y-61672059D01*
X108323211Y-61724289D01*
X108434711Y-61835789D01*
X108495641Y-61876501D01*
X108565814Y-61923390D01*
X108565825Y-61923396D01*
X108619638Y-61945685D01*
X108711503Y-61983737D01*
X108866158Y-62014500D01*
X108866159Y-62014500D01*
X109573841Y-62014500D01*
X109573842Y-62014500D01*
X109728497Y-61983737D01*
X109874179Y-61923394D01*
X110005289Y-61835789D01*
X110116789Y-61724289D01*
X110204394Y-61593179D01*
X110264737Y-61447497D01*
X110295500Y-61292842D01*
X110295500Y-61135158D01*
X110264737Y-60980503D01*
X110228707Y-60893519D01*
X110204396Y-60834825D01*
X110204390Y-60834814D01*
X110169017Y-60781876D01*
X110116789Y-60703711D01*
X110005289Y-60592211D01*
X109948140Y-60554025D01*
X109874185Y-60504609D01*
X109874174Y-60504603D01*
X109728497Y-60444263D01*
X109573844Y-60413500D01*
X109573842Y-60413500D01*
X108866158Y-60413500D01*
X108866155Y-60413500D01*
X108711503Y-60444263D01*
X108711501Y-60444263D01*
X108565825Y-60504603D01*
X108565814Y-60504609D01*
X108434711Y-60592211D01*
X108434707Y-60592214D01*
X108323214Y-60703707D01*
X108323211Y-60703711D01*
X108235609Y-60834814D01*
X108235603Y-60834825D01*
X108175263Y-60980501D01*
X108175263Y-60980503D01*
X108144500Y-61135155D01*
X99306500Y-61135155D01*
X99306500Y-58964000D01*
X108077095Y-58964000D01*
X108939670Y-58964000D01*
X108919925Y-58983745D01*
X108870556Y-59069255D01*
X108845000Y-59164630D01*
X108845000Y-59263370D01*
X108870556Y-59358745D01*
X108919925Y-59444255D01*
X108939670Y-59464000D01*
X108077096Y-59464000D01*
X108079586Y-59476523D01*
X108147430Y-59640310D01*
X108245923Y-59787715D01*
X108371284Y-59913076D01*
X108518691Y-60011570D01*
X108682479Y-60079413D01*
X108856355Y-60113999D01*
X108856359Y-60114000D01*
X108969999Y-60114000D01*
X108970000Y-60113999D01*
X108970000Y-59494330D01*
X108989745Y-59514075D01*
X109075255Y-59563444D01*
X109170630Y-59589000D01*
X109269370Y-59589000D01*
X109364745Y-59563444D01*
X109450255Y-59514075D01*
X109470000Y-59494330D01*
X109470000Y-60113999D01*
X109470001Y-60114000D01*
X109583641Y-60114000D01*
X109583644Y-60113999D01*
X109757519Y-60079413D01*
X109757521Y-60079413D01*
X109921308Y-60011570D01*
X110068715Y-59913076D01*
X110194076Y-59787715D01*
X110292569Y-59640310D01*
X110360413Y-59476523D01*
X110362904Y-59464000D01*
X109500330Y-59464000D01*
X109520075Y-59444255D01*
X109569444Y-59358745D01*
X109595000Y-59263370D01*
X109595000Y-59164630D01*
X109569444Y-59069255D01*
X109520075Y-58983745D01*
X109500330Y-58964000D01*
X110362904Y-58964000D01*
X110360413Y-58951476D01*
X110292569Y-58787689D01*
X110194076Y-58640284D01*
X110068715Y-58514923D01*
X109921308Y-58416429D01*
X109757520Y-58348586D01*
X109583644Y-58314000D01*
X109470001Y-58314000D01*
X109470000Y-58314001D01*
X109470000Y-58933670D01*
X109450255Y-58913925D01*
X109364745Y-58864556D01*
X109269370Y-58839000D01*
X109170630Y-58839000D01*
X109075255Y-58864556D01*
X108989745Y-58913925D01*
X108970000Y-58933670D01*
X108970000Y-58314001D01*
X108969999Y-58314000D01*
X108856355Y-58314000D01*
X108682480Y-58348586D01*
X108682478Y-58348586D01*
X108518691Y-58416429D01*
X108371284Y-58514923D01*
X108245923Y-58640284D01*
X108147430Y-58787689D01*
X108079586Y-58951476D01*
X108077095Y-58964000D01*
X99306500Y-58964000D01*
X99306500Y-56809725D01*
X108144500Y-56809725D01*
X108144500Y-57618274D01*
X108147353Y-57648694D01*
X108147355Y-57648703D01*
X108192207Y-57776882D01*
X108192207Y-57776883D01*
X108272845Y-57886144D01*
X108272847Y-57886146D01*
X108272850Y-57886150D01*
X108272853Y-57886152D01*
X108272855Y-57886154D01*
X108382116Y-57966792D01*
X108382117Y-57966792D01*
X108382118Y-57966793D01*
X108510301Y-58011646D01*
X108540725Y-58014499D01*
X108540727Y-58014500D01*
X108540734Y-58014500D01*
X109899273Y-58014500D01*
X109899273Y-58014499D01*
X109929699Y-58011646D01*
X110057882Y-57966793D01*
X110167150Y-57886150D01*
X110247793Y-57776882D01*
X110292646Y-57648699D01*
X110295499Y-57618273D01*
X110295500Y-57618273D01*
X110295500Y-56809727D01*
X110295499Y-56809725D01*
X110292646Y-56779305D01*
X110292646Y-56779301D01*
X110247793Y-56651118D01*
X110192216Y-56575814D01*
X110167154Y-56541855D01*
X110167152Y-56541853D01*
X110167150Y-56541850D01*
X110167146Y-56541847D01*
X110167144Y-56541845D01*
X110057883Y-56461207D01*
X109929703Y-56416355D01*
X109929694Y-56416353D01*
X109899274Y-56413500D01*
X109899266Y-56413500D01*
X108540734Y-56413500D01*
X108540725Y-56413500D01*
X108510305Y-56416353D01*
X108510296Y-56416355D01*
X108382116Y-56461207D01*
X108272855Y-56541845D01*
X108272845Y-56541855D01*
X108192207Y-56651116D01*
X108147355Y-56779296D01*
X108147353Y-56779305D01*
X108144500Y-56809725D01*
X99306500Y-56809725D01*
X99306500Y-55209500D01*
X99325407Y-55151309D01*
X99374907Y-55115345D01*
X99405500Y-55110500D01*
X122189468Y-55110500D01*
X122247659Y-55129407D01*
G37*
%TD.AperFunction*%
%TA.AperFunction,Conductor*%
G36*
X177258691Y-55129407D02*
G01*
X177294655Y-55178907D01*
X177299500Y-55209500D01*
X177299500Y-90840500D01*
X177280593Y-90898691D01*
X177231093Y-90934655D01*
X177200500Y-90939500D01*
X148384508Y-90939500D01*
X148326317Y-90920593D01*
X148314504Y-90910504D01*
X146865504Y-89461504D01*
X146837727Y-89406987D01*
X146847298Y-89346555D01*
X146890563Y-89303290D01*
X146935508Y-89292500D01*
X156650679Y-89292500D01*
X156708870Y-89311407D01*
X156720676Y-89321490D01*
X156791686Y-89392500D01*
X156791688Y-89392501D01*
X156791690Y-89392503D01*
X156905810Y-89458390D01*
X156905808Y-89458390D01*
X156905812Y-89458391D01*
X156905814Y-89458392D01*
X157033108Y-89492500D01*
X157033110Y-89492500D01*
X157164890Y-89492500D01*
X157164892Y-89492500D01*
X157292186Y-89458392D01*
X157292188Y-89458390D01*
X157292190Y-89458390D01*
X157406309Y-89392503D01*
X157406309Y-89392502D01*
X157406314Y-89392500D01*
X157499500Y-89299314D01*
X157565392Y-89185186D01*
X157599500Y-89057892D01*
X157599500Y-88926108D01*
X157565392Y-88798814D01*
X157565390Y-88798811D01*
X157565390Y-88798809D01*
X157499503Y-88684690D01*
X157499501Y-88684688D01*
X157499500Y-88684686D01*
X157406314Y-88591500D01*
X157406311Y-88591498D01*
X157406309Y-88591496D01*
X157292189Y-88525609D01*
X157292191Y-88525609D01*
X157242799Y-88512375D01*
X157164892Y-88491500D01*
X157033108Y-88491500D01*
X156955200Y-88512375D01*
X156905809Y-88525609D01*
X156791690Y-88591496D01*
X156791689Y-88591497D01*
X156791686Y-88591499D01*
X156791686Y-88591500D01*
X156720680Y-88662505D01*
X156666166Y-88690281D01*
X156650679Y-88691500D01*
X146702901Y-88691500D01*
X146644710Y-88672593D01*
X146632897Y-88662504D01*
X143253873Y-85283480D01*
X139824933Y-81854540D01*
X139818281Y-81850700D01*
X139775297Y-81825882D01*
X139775295Y-81825882D01*
X139756411Y-81814979D01*
X139756408Y-81814978D01*
X139679986Y-81794500D01*
X139679984Y-81794500D01*
X139045556Y-81794500D01*
X138987365Y-81775593D01*
X138951401Y-81726093D01*
X138951401Y-81664907D01*
X138975549Y-81625499D01*
X139063000Y-81538049D01*
X139063000Y-80645322D01*
X139062999Y-80645305D01*
X139047964Y-80511869D01*
X139047961Y-80511857D01*
X139009301Y-80401375D01*
X138988756Y-80342661D01*
X138968961Y-80311158D01*
X138893385Y-80190878D01*
X138893384Y-80190877D01*
X138893383Y-80190875D01*
X138766625Y-80064117D01*
X138766622Y-80064115D01*
X138766621Y-80064114D01*
X138614840Y-79968744D01*
X138445642Y-79909538D01*
X138445630Y-79909535D01*
X138312194Y-79894500D01*
X138312178Y-79894500D01*
X137419450Y-79894500D01*
X137419449Y-79894500D01*
X136962000Y-80351950D01*
X136962000Y-81244694D01*
X136977035Y-81378130D01*
X136977037Y-81378137D01*
X137036244Y-81547339D01*
X137036244Y-81547340D01*
X137096244Y-81642829D01*
X137111194Y-81702160D01*
X137088415Y-81758947D01*
X137036608Y-81791499D01*
X137012418Y-81794500D01*
X136347639Y-81794500D01*
X136289448Y-81775593D01*
X136253484Y-81726093D01*
X136253484Y-81664907D01*
X136277633Y-81625498D01*
X136288477Y-81614655D01*
X136403441Y-81442598D01*
X136482630Y-81251420D01*
X136523000Y-81048465D01*
X136523000Y-80841535D01*
X136482630Y-80638580D01*
X136403441Y-80447402D01*
X136288477Y-80275345D01*
X136142155Y-80129023D01*
X136142151Y-80129020D01*
X135970097Y-80014058D01*
X135778918Y-79934869D01*
X135575967Y-79894500D01*
X135575965Y-79894500D01*
X135369035Y-79894500D01*
X135369032Y-79894500D01*
X135166081Y-79934869D01*
X134974902Y-80014058D01*
X134802848Y-80129020D01*
X134656520Y-80275348D01*
X134541557Y-80447404D01*
X134526654Y-80483385D01*
X134486918Y-80529911D01*
X134435190Y-80544500D01*
X133863500Y-80544500D01*
X133805309Y-80525593D01*
X133769345Y-80476093D01*
X133764500Y-80445500D01*
X133764500Y-80276000D01*
X133759348Y-80230272D01*
X133719666Y-80147873D01*
X133703616Y-80135073D01*
X133648162Y-80090850D01*
X133559000Y-80070500D01*
X132559000Y-80070500D01*
X132558991Y-80070500D01*
X132541515Y-80071244D01*
X132541512Y-80071244D01*
X132443781Y-80102508D01*
X132443069Y-80100284D01*
X132398381Y-80110270D01*
X132358873Y-80094316D01*
X132358212Y-80095690D01*
X132348163Y-80090850D01*
X132259000Y-80070500D01*
X131109000Y-80070500D01*
X131108998Y-80070500D01*
X131063272Y-80075651D01*
X130980872Y-80115334D01*
X130923850Y-80186837D01*
X130903500Y-80276000D01*
X130903500Y-80526500D01*
X130884593Y-80584691D01*
X130835093Y-80620655D01*
X130804500Y-80625500D01*
X130000900Y-80625500D01*
X129942709Y-80606593D01*
X129930896Y-80596504D01*
X121468016Y-72133623D01*
X121404501Y-72070108D01*
X123959500Y-72070108D01*
X123959500Y-72201892D01*
X123989579Y-72314151D01*
X123993609Y-72329190D01*
X124059496Y-72443309D01*
X124059498Y-72443311D01*
X124059500Y-72443314D01*
X124152686Y-72536500D01*
X124266814Y-72602392D01*
X124368482Y-72629633D01*
X124412863Y-72655256D01*
X130564087Y-78806480D01*
X130564089Y-78806481D01*
X130564090Y-78806482D01*
X130564091Y-78806483D01*
X130655408Y-78859205D01*
X130655406Y-78859205D01*
X130655410Y-78859206D01*
X130655412Y-78859207D01*
X130757273Y-78886500D01*
X130804500Y-78886500D01*
X130862691Y-78905407D01*
X130898655Y-78954907D01*
X130903500Y-78985500D01*
X130903500Y-79236001D01*
X130908651Y-79281727D01*
X130933877Y-79334107D01*
X130948334Y-79364127D01*
X131019837Y-79421149D01*
X131109000Y-79441500D01*
X132259000Y-79441500D01*
X132259011Y-79441498D01*
X132287026Y-79436348D01*
X132332085Y-79428065D01*
X132351702Y-79414986D01*
X132410606Y-79398439D01*
X132459652Y-79416590D01*
X132459788Y-79416310D01*
X132462750Y-79417736D01*
X132467988Y-79419675D01*
X132468346Y-79419960D01*
X132469837Y-79421149D01*
X132559000Y-79441500D01*
X133558999Y-79441500D01*
X133559000Y-79441500D01*
X133604728Y-79436348D01*
X133687127Y-79396666D01*
X133744149Y-79325163D01*
X133764500Y-79236000D01*
X133764500Y-78904500D01*
X133783407Y-78846309D01*
X133832907Y-78810345D01*
X133863500Y-78805500D01*
X134435190Y-78805500D01*
X134493381Y-78824407D01*
X134526654Y-78866615D01*
X134541557Y-78902595D01*
X134614517Y-79011789D01*
X134656523Y-79074655D01*
X134802845Y-79220977D01*
X134974902Y-79335941D01*
X135166080Y-79415130D01*
X135369035Y-79455500D01*
X135369036Y-79455500D01*
X135575964Y-79455500D01*
X135575965Y-79455500D01*
X135778920Y-79415130D01*
X135970098Y-79335941D01*
X136142155Y-79220977D01*
X136288477Y-79074655D01*
X136403441Y-78902598D01*
X136482630Y-78711420D01*
X136523000Y-78508465D01*
X136523000Y-78301535D01*
X136522999Y-78301532D01*
X136962000Y-78301532D01*
X136962000Y-78508467D01*
X137002369Y-78711418D01*
X137081558Y-78902597D01*
X137175311Y-79042909D01*
X137196523Y-79074655D01*
X137342845Y-79220977D01*
X137514902Y-79335941D01*
X137706080Y-79415130D01*
X137909035Y-79455500D01*
X137909036Y-79455500D01*
X138115964Y-79455500D01*
X138115965Y-79455500D01*
X138318920Y-79415130D01*
X138510098Y-79335941D01*
X138682155Y-79220977D01*
X138828477Y-79074655D01*
X138943441Y-78902598D01*
X139022630Y-78711420D01*
X139063000Y-78508465D01*
X139063000Y-78301535D01*
X139022630Y-78098580D01*
X138943441Y-77907402D01*
X138828477Y-77735345D01*
X138682155Y-77589023D01*
X138682151Y-77589020D01*
X138510097Y-77474058D01*
X138318918Y-77394869D01*
X138115967Y-77354500D01*
X138115965Y-77354500D01*
X137909035Y-77354500D01*
X137909032Y-77354500D01*
X137706081Y-77394869D01*
X137514902Y-77474058D01*
X137342848Y-77589020D01*
X137196520Y-77735348D01*
X137081558Y-77907402D01*
X137002369Y-78098581D01*
X136962000Y-78301532D01*
X136522999Y-78301532D01*
X136482630Y-78098580D01*
X136403441Y-77907402D01*
X136288477Y-77735345D01*
X136142155Y-77589023D01*
X136142151Y-77589020D01*
X135970097Y-77474058D01*
X135778918Y-77394869D01*
X135575967Y-77354500D01*
X135575965Y-77354500D01*
X135369035Y-77354500D01*
X135369032Y-77354500D01*
X135166081Y-77394869D01*
X134974902Y-77474058D01*
X134802848Y-77589020D01*
X134656520Y-77735348D01*
X134541557Y-77907404D01*
X134526654Y-77943385D01*
X134486918Y-77989911D01*
X134435190Y-78004500D01*
X133863500Y-78004500D01*
X133805309Y-77985593D01*
X133769345Y-77936093D01*
X133764500Y-77905500D01*
X133764500Y-77736000D01*
X133759348Y-77690272D01*
X133719666Y-77607873D01*
X133676582Y-77573514D01*
X133648162Y-77550850D01*
X133559000Y-77530500D01*
X132559000Y-77530500D01*
X132558991Y-77530500D01*
X132541515Y-77531244D01*
X132541512Y-77531244D01*
X132443781Y-77562508D01*
X132443069Y-77560284D01*
X132398381Y-77570270D01*
X132358873Y-77554316D01*
X132358212Y-77555690D01*
X132348163Y-77550850D01*
X132259000Y-77530500D01*
X131109000Y-77530500D01*
X131108998Y-77530500D01*
X131063272Y-77535651D01*
X130980872Y-77575334D01*
X130923850Y-77646837D01*
X130903500Y-77736000D01*
X130903500Y-77774099D01*
X130884593Y-77832290D01*
X130835093Y-77868254D01*
X130773907Y-77868254D01*
X130734496Y-77844103D01*
X124979256Y-72088863D01*
X124953633Y-72044482D01*
X124952581Y-72040556D01*
X124926392Y-71942814D01*
X124860500Y-71828686D01*
X124767314Y-71735500D01*
X124767311Y-71735498D01*
X124767309Y-71735496D01*
X124653189Y-71669609D01*
X124653191Y-71669609D01*
X124585676Y-71651519D01*
X124525892Y-71635500D01*
X124394108Y-71635500D01*
X124334324Y-71651519D01*
X124266809Y-71669609D01*
X124152690Y-71735496D01*
X124059496Y-71828690D01*
X123993609Y-71942809D01*
X123974539Y-72013978D01*
X123959500Y-72070108D01*
X121404501Y-72070108D01*
X120407256Y-71072863D01*
X120381633Y-71028482D01*
X120379518Y-71020588D01*
X120354392Y-70926814D01*
X120288500Y-70812686D01*
X120195314Y-70719500D01*
X120195311Y-70719498D01*
X120195309Y-70719496D01*
X120081189Y-70653609D01*
X120081191Y-70653609D01*
X120031799Y-70640375D01*
X119953892Y-70619500D01*
X119923900Y-70619500D01*
X119865709Y-70600593D01*
X119829745Y-70551093D01*
X119829745Y-70489907D01*
X119853896Y-70450496D01*
X120909856Y-69394536D01*
X121967138Y-68337253D01*
X122011514Y-68311633D01*
X122113186Y-68284392D01*
X122227314Y-68218500D01*
X122320500Y-68125314D01*
X122320503Y-68125309D01*
X122386390Y-68011190D01*
X122386390Y-68011188D01*
X122386392Y-68011186D01*
X122420500Y-67883892D01*
X122420500Y-67752108D01*
X122386392Y-67624814D01*
X122386390Y-67624810D01*
X122386390Y-67624809D01*
X122320503Y-67510690D01*
X122320501Y-67510688D01*
X122320500Y-67510686D01*
X122227314Y-67417500D01*
X122227311Y-67417498D01*
X122227309Y-67417496D01*
X122113189Y-67351609D01*
X122113191Y-67351609D01*
X122063799Y-67338375D01*
X121985892Y-67317500D01*
X121854108Y-67317500D01*
X121776200Y-67338375D01*
X121726809Y-67351609D01*
X121612690Y-67417496D01*
X121519496Y-67510690D01*
X121453609Y-67624810D01*
X121453607Y-67624814D01*
X121426365Y-67726482D01*
X121400743Y-67770862D01*
X118867518Y-70304089D01*
X118829801Y-70369416D01*
X118784331Y-70410356D01*
X118723481Y-70416751D01*
X118670493Y-70386158D01*
X118652601Y-70357800D01*
X118623442Y-70287404D01*
X118581999Y-70225380D01*
X118508477Y-70115345D01*
X118362155Y-69969023D01*
X118362151Y-69969020D01*
X118362150Y-69969019D01*
X118257226Y-69898911D01*
X118219347Y-69850861D01*
X118216945Y-69789723D01*
X118242222Y-69746594D01*
X119482960Y-68505857D01*
X119497549Y-68480588D01*
X119522521Y-68437335D01*
X119543000Y-68360908D01*
X119543000Y-60725403D01*
X119561907Y-60667212D01*
X119571996Y-60655399D01*
X119841287Y-60386108D01*
X124975500Y-60386108D01*
X124975500Y-60517892D01*
X125009608Y-60645186D01*
X125062236Y-60736341D01*
X125075500Y-60785840D01*
X125075500Y-62503540D01*
X125075500Y-62608994D01*
X125091150Y-62667402D01*
X125102794Y-62710859D01*
X125155516Y-62802175D01*
X125155518Y-62802177D01*
X125155520Y-62802180D01*
X134634251Y-72280910D01*
X134634253Y-72280913D01*
X134708820Y-72355480D01*
X134754037Y-72381586D01*
X134794979Y-72427054D01*
X134801375Y-72487904D01*
X134774542Y-72537325D01*
X134656522Y-72655345D01*
X134541558Y-72827402D01*
X134462369Y-73018581D01*
X134422000Y-73221532D01*
X134422000Y-73428467D01*
X134462369Y-73631418D01*
X134541558Y-73822597D01*
X134656520Y-73994651D01*
X134656523Y-73994655D01*
X134802845Y-74140977D01*
X134974902Y-74255941D01*
X135166080Y-74335130D01*
X135369035Y-74375500D01*
X135369036Y-74375500D01*
X135575964Y-74375500D01*
X135575965Y-74375500D01*
X135778920Y-74335130D01*
X135970098Y-74255941D01*
X136142155Y-74140977D01*
X136288477Y-73994655D01*
X136403441Y-73822598D01*
X136482630Y-73631420D01*
X136523000Y-73428465D01*
X136523000Y-73373134D01*
X136541907Y-73314943D01*
X136591407Y-73278979D01*
X136652593Y-73278979D01*
X136692004Y-73303130D01*
X136977030Y-73588156D01*
X137000318Y-73627005D01*
X137000509Y-73626927D01*
X137001041Y-73628211D01*
X137001760Y-73629411D01*
X137002368Y-73631416D01*
X137081558Y-73822597D01*
X137196520Y-73994651D01*
X137196523Y-73994655D01*
X137327364Y-74125496D01*
X137355140Y-74180011D01*
X137345569Y-74240443D01*
X137302304Y-74283708D01*
X137257359Y-74294498D01*
X137074437Y-74294498D01*
X136998013Y-74314976D01*
X136974241Y-74328701D01*
X136970562Y-74330826D01*
X136929491Y-74354538D01*
X136929488Y-74354540D01*
X136255264Y-75028763D01*
X136200748Y-75056540D01*
X136140316Y-75046969D01*
X136130260Y-75041075D01*
X135970097Y-74934058D01*
X135778918Y-74854869D01*
X135575967Y-74814500D01*
X135575965Y-74814500D01*
X135369035Y-74814500D01*
X135369032Y-74814500D01*
X135166081Y-74854869D01*
X134974902Y-74934058D01*
X134802848Y-75049020D01*
X134656520Y-75195348D01*
X134541558Y-75367402D01*
X134462369Y-75558581D01*
X134422000Y-75761532D01*
X134422000Y-75968467D01*
X134462369Y-76171418D01*
X134541558Y-76362597D01*
X134619682Y-76479518D01*
X134656523Y-76534655D01*
X134802845Y-76680977D01*
X134974902Y-76795941D01*
X135166080Y-76875130D01*
X135369035Y-76915500D01*
X135369036Y-76915500D01*
X135575964Y-76915500D01*
X135575965Y-76915500D01*
X135778920Y-76875130D01*
X135970098Y-76795941D01*
X136142155Y-76680977D01*
X136288477Y-76534655D01*
X136403441Y-76362598D01*
X136482630Y-76171420D01*
X136523000Y-75968465D01*
X136523000Y-75761535D01*
X136508343Y-75687850D01*
X136515535Y-75627089D01*
X136535434Y-75598535D01*
X137005085Y-75128885D01*
X137059599Y-75101110D01*
X137120031Y-75110681D01*
X137163296Y-75153946D01*
X137172867Y-75214378D01*
X137157402Y-75253891D01*
X137081559Y-75367399D01*
X137002369Y-75558581D01*
X136962000Y-75761532D01*
X136962000Y-75968467D01*
X137002369Y-76171418D01*
X137081558Y-76362597D01*
X137159682Y-76479518D01*
X137196523Y-76534655D01*
X137342845Y-76680977D01*
X137514902Y-76795941D01*
X137706080Y-76875130D01*
X137909035Y-76915500D01*
X137909036Y-76915500D01*
X138115964Y-76915500D01*
X138115965Y-76915500D01*
X138318920Y-76875130D01*
X138510098Y-76795941D01*
X138682155Y-76680977D01*
X138828477Y-76534655D01*
X138943441Y-76362598D01*
X139022630Y-76171420D01*
X139063000Y-75968465D01*
X139063000Y-75761535D01*
X139022630Y-75558580D01*
X138943441Y-75367402D01*
X138828477Y-75195345D01*
X138823631Y-75190499D01*
X138773137Y-75140004D01*
X138745360Y-75085487D01*
X138754932Y-75025055D01*
X138773138Y-74999997D01*
X138777635Y-74995499D01*
X138777638Y-74995498D01*
X138870824Y-74902312D01*
X138885281Y-74877272D01*
X138936714Y-74788188D01*
X138936714Y-74788186D01*
X138936716Y-74788184D01*
X138970824Y-74660890D01*
X138970824Y-74529106D01*
X138936716Y-74401812D01*
X138936714Y-74401809D01*
X138936714Y-74401807D01*
X138870827Y-74287688D01*
X138870825Y-74287686D01*
X138870824Y-74287684D01*
X138777638Y-74194498D01*
X138777635Y-74194496D01*
X138773139Y-74190000D01*
X138745362Y-74135483D01*
X138754933Y-74075051D01*
X138773140Y-74049992D01*
X138828472Y-73994660D01*
X138828472Y-73994659D01*
X138828477Y-73994655D01*
X138943441Y-73822598D01*
X139022630Y-73631420D01*
X139063000Y-73428465D01*
X139063000Y-73413133D01*
X139081907Y-73354942D01*
X139131407Y-73318978D01*
X139192593Y-73318978D01*
X139232001Y-73343127D01*
X139409354Y-73520480D01*
X139409356Y-73520481D01*
X139409358Y-73520483D01*
X139500675Y-73573205D01*
X139500673Y-73573205D01*
X139500677Y-73573206D01*
X139500679Y-73573207D01*
X139602540Y-73600500D01*
X144903149Y-73600500D01*
X144961340Y-73619407D01*
X144973153Y-73629496D01*
X154864136Y-83520479D01*
X154864138Y-83520480D01*
X154864139Y-83520481D01*
X154864140Y-83520482D01*
X154955457Y-83573204D01*
X154955455Y-83573204D01*
X154955459Y-83573205D01*
X154955461Y-83573206D01*
X155057322Y-83600499D01*
X155057324Y-83600499D01*
X158789294Y-83600499D01*
X158789296Y-83600499D01*
X158891157Y-83573206D01*
X158891159Y-83573204D01*
X158891161Y-83573204D01*
X158982477Y-83520482D01*
X158982477Y-83520481D01*
X158982482Y-83520479D01*
X159366661Y-83136298D01*
X159411039Y-83110677D01*
X159512711Y-83083435D01*
X159626839Y-83017543D01*
X159720025Y-82924357D01*
X159720028Y-82924352D01*
X159785915Y-82810233D01*
X159785915Y-82810231D01*
X159785917Y-82810229D01*
X159820025Y-82682935D01*
X159820025Y-82551151D01*
X159785917Y-82423857D01*
X159785915Y-82423853D01*
X159785915Y-82423852D01*
X159720028Y-82309733D01*
X159720026Y-82309731D01*
X159720025Y-82309729D01*
X159626839Y-82216543D01*
X159626836Y-82216541D01*
X159626834Y-82216539D01*
X159512714Y-82150652D01*
X159512716Y-82150652D01*
X159463324Y-82137418D01*
X159385417Y-82116543D01*
X159253633Y-82116543D01*
X159175725Y-82137418D01*
X159126334Y-82150652D01*
X159012215Y-82216539D01*
X158919021Y-82309733D01*
X158853134Y-82423853D01*
X158853132Y-82423857D01*
X158825889Y-82525527D01*
X158800267Y-82569906D01*
X158599673Y-82770502D01*
X158545156Y-82798280D01*
X158529669Y-82799499D01*
X158266924Y-82799499D01*
X158208733Y-82780592D01*
X158172769Y-82731092D01*
X158171297Y-82674878D01*
X158200500Y-82565891D01*
X158200500Y-82434107D01*
X158166392Y-82306813D01*
X158166390Y-82306810D01*
X158166390Y-82306808D01*
X158100503Y-82192689D01*
X158100501Y-82192687D01*
X158100500Y-82192685D01*
X158007314Y-82099499D01*
X158007311Y-82099497D01*
X158007309Y-82099495D01*
X157893189Y-82033608D01*
X157893191Y-82033608D01*
X157843799Y-82020374D01*
X157765892Y-81999499D01*
X157634108Y-81999499D01*
X157556200Y-82020374D01*
X157506809Y-82033608D01*
X157392690Y-82099495D01*
X157299496Y-82192689D01*
X157233609Y-82306808D01*
X157225356Y-82337609D01*
X157199500Y-82434107D01*
X157199500Y-82565891D01*
X157228702Y-82674878D01*
X157225500Y-82735977D01*
X157186995Y-82783527D01*
X157133076Y-82799499D01*
X155316950Y-82799499D01*
X155258759Y-82780592D01*
X155246946Y-82770503D01*
X153701951Y-81225508D01*
X156608100Y-81225508D01*
X156608100Y-81357292D01*
X156631467Y-81444500D01*
X156642209Y-81484590D01*
X156708096Y-81598709D01*
X156708098Y-81598711D01*
X156708100Y-81598714D01*
X156801286Y-81691900D01*
X156801288Y-81691901D01*
X156801290Y-81691903D01*
X156915410Y-81757790D01*
X156915408Y-81757790D01*
X156915412Y-81757791D01*
X156915414Y-81757792D01*
X157042708Y-81791900D01*
X157042710Y-81791900D01*
X157174490Y-81791900D01*
X157174492Y-81791900D01*
X157301786Y-81757792D01*
X157301788Y-81757790D01*
X157301790Y-81757790D01*
X157415909Y-81691903D01*
X157415909Y-81691902D01*
X157415914Y-81691900D01*
X157509100Y-81598714D01*
X157530157Y-81562243D01*
X157574990Y-81484590D01*
X157574990Y-81484588D01*
X157574992Y-81484586D01*
X157609100Y-81357292D01*
X157609100Y-81225508D01*
X157574992Y-81098214D01*
X157574990Y-81098211D01*
X157574990Y-81098209D01*
X157509103Y-80984090D01*
X157509101Y-80984088D01*
X157509100Y-80984086D01*
X157415914Y-80890900D01*
X157415911Y-80890898D01*
X157415909Y-80890896D01*
X157301789Y-80825009D01*
X157301791Y-80825009D01*
X157252399Y-80811775D01*
X157174492Y-80790900D01*
X157042708Y-80790900D01*
X156964800Y-80811775D01*
X156915409Y-80825009D01*
X156801290Y-80890896D01*
X156708096Y-80984090D01*
X156642209Y-81098209D01*
X156641891Y-81099396D01*
X156608100Y-81225508D01*
X153701951Y-81225508D01*
X152474941Y-79998498D01*
X152411426Y-79934983D01*
X156498625Y-79934983D01*
X156498625Y-80066767D01*
X156528704Y-80179026D01*
X156532734Y-80194065D01*
X156598621Y-80308184D01*
X156598623Y-80308186D01*
X156598625Y-80308189D01*
X156691811Y-80401375D01*
X156691813Y-80401376D01*
X156691815Y-80401378D01*
X156805935Y-80467265D01*
X156805933Y-80467265D01*
X156805937Y-80467266D01*
X156805939Y-80467267D01*
X156933233Y-80501375D01*
X156933235Y-80501375D01*
X157065015Y-80501375D01*
X157065017Y-80501375D01*
X157192311Y-80467267D01*
X157192313Y-80467265D01*
X157192315Y-80467265D01*
X157306434Y-80401378D01*
X157306434Y-80401377D01*
X157306439Y-80401375D01*
X157399625Y-80308189D01*
X157415809Y-80280158D01*
X157465515Y-80194065D01*
X157465515Y-80194063D01*
X157465517Y-80194061D01*
X157499625Y-80066767D01*
X157499625Y-79934983D01*
X157465517Y-79807689D01*
X157465515Y-79807686D01*
X157465515Y-79807684D01*
X157399628Y-79693565D01*
X157399626Y-79693563D01*
X157399625Y-79693561D01*
X157306439Y-79600375D01*
X157306436Y-79600373D01*
X157306434Y-79600371D01*
X157192314Y-79534484D01*
X157192316Y-79534484D01*
X157142924Y-79521250D01*
X157065017Y-79500375D01*
X156933233Y-79500375D01*
X156855325Y-79521250D01*
X156805934Y-79534484D01*
X156691815Y-79600371D01*
X156598621Y-79693565D01*
X156532734Y-79807684D01*
X156532733Y-79807689D01*
X156498625Y-79934983D01*
X152411426Y-79934983D01*
X148917698Y-76441255D01*
X145355963Y-72879520D01*
X145355960Y-72879518D01*
X145355959Y-72879517D01*
X145355958Y-72879516D01*
X145264641Y-72826794D01*
X145264643Y-72826794D01*
X145225120Y-72816204D01*
X145162777Y-72799500D01*
X145162775Y-72799500D01*
X139862168Y-72799500D01*
X139803977Y-72780593D01*
X139792164Y-72770504D01*
X139266915Y-72245255D01*
X138736180Y-71714520D01*
X138736177Y-71714518D01*
X138736176Y-71714517D01*
X138731031Y-71710569D01*
X138732929Y-71708094D01*
X138700560Y-71671820D01*
X138694436Y-71610942D01*
X138721175Y-71561956D01*
X138828477Y-71454655D01*
X138943441Y-71282598D01*
X139022630Y-71091420D01*
X139063000Y-70888465D01*
X139063000Y-70681535D01*
X139022630Y-70478580D01*
X138943441Y-70287402D01*
X138828477Y-70115345D01*
X138777633Y-70064501D01*
X138749858Y-70009987D01*
X138759429Y-69949555D01*
X138802694Y-69906290D01*
X138847639Y-69895500D01*
X139051571Y-69895500D01*
X139109762Y-69914407D01*
X139121575Y-69924496D01*
X139638990Y-70441910D01*
X139638992Y-70441913D01*
X139713559Y-70516480D01*
X139752716Y-70539087D01*
X139804885Y-70569207D01*
X139906742Y-70596500D01*
X139906744Y-70596501D01*
X139906745Y-70596501D01*
X140018262Y-70596501D01*
X140018278Y-70596500D01*
X146930521Y-70596500D01*
X146988712Y-70615407D01*
X147000525Y-70625496D01*
X150895479Y-74520450D01*
X150923256Y-74574967D01*
X150924475Y-74590454D01*
X150924475Y-75666776D01*
X150924475Y-75772230D01*
X150930875Y-75796116D01*
X150951769Y-75874095D01*
X151004491Y-75965411D01*
X151004493Y-75965413D01*
X151004495Y-75965416D01*
X153784990Y-78745910D01*
X153784992Y-78745913D01*
X153859559Y-78820480D01*
X153859561Y-78820481D01*
X153950881Y-78873205D01*
X153950885Y-78873207D01*
X154052742Y-78900500D01*
X154052744Y-78900501D01*
X154052745Y-78900501D01*
X154164262Y-78900501D01*
X154164278Y-78900500D01*
X155754493Y-78900500D01*
X155808120Y-78917924D01*
X155808518Y-78917236D01*
X155811756Y-78919105D01*
X155812684Y-78919407D01*
X155814064Y-78920438D01*
X155814137Y-78920480D01*
X155905463Y-78973207D01*
X156007323Y-79000500D01*
X156007325Y-79000500D01*
X156692675Y-79000500D01*
X156692677Y-79000500D01*
X156794538Y-78973207D01*
X156794540Y-78973205D01*
X156794542Y-78973205D01*
X156885858Y-78920483D01*
X156885858Y-78920482D01*
X156885863Y-78920480D01*
X157468229Y-78338114D01*
X157520956Y-78246789D01*
X157543681Y-78161971D01*
X157553570Y-78138097D01*
X157614141Y-78033186D01*
X157648249Y-77905892D01*
X157648249Y-77774108D01*
X157614141Y-77646814D01*
X157614139Y-77646811D01*
X157614139Y-77646809D01*
X157548252Y-77532690D01*
X157548250Y-77532688D01*
X157548249Y-77532686D01*
X157455063Y-77439500D01*
X157455060Y-77439498D01*
X157455058Y-77439496D01*
X157361077Y-77385236D01*
X157320136Y-77339767D01*
X157313740Y-77278916D01*
X157344333Y-77225928D01*
X157400229Y-77201042D01*
X157410577Y-77200500D01*
X158189273Y-77200500D01*
X158294727Y-77200500D01*
X158310550Y-77200500D01*
X158368741Y-77219407D01*
X158404705Y-77268907D01*
X158409550Y-77299500D01*
X158409550Y-79447273D01*
X158409550Y-79552727D01*
X158411097Y-79558500D01*
X158436844Y-79654592D01*
X158489566Y-79745908D01*
X158489568Y-79745910D01*
X158489570Y-79745913D01*
X159964137Y-81220480D01*
X159964139Y-81220481D01*
X159964141Y-81220483D01*
X160055458Y-81273205D01*
X160055456Y-81273205D01*
X160055460Y-81273206D01*
X160055462Y-81273207D01*
X160157323Y-81300500D01*
X160262777Y-81300500D01*
X161629099Y-81300500D01*
X161687290Y-81319407D01*
X161699103Y-81329496D01*
X161870504Y-81500897D01*
X161898281Y-81555414D01*
X161899500Y-81570901D01*
X161899500Y-82583049D01*
X161880593Y-82641240D01*
X161870504Y-82653052D01*
X161457470Y-83066086D01*
X161457466Y-83066091D01*
X161404743Y-83157411D01*
X161404742Y-83157411D01*
X161404743Y-83157412D01*
X161377450Y-83259273D01*
X161377450Y-83998475D01*
X161358543Y-84056666D01*
X161309043Y-84092630D01*
X161304074Y-84094101D01*
X161223814Y-84115607D01*
X161223810Y-84115609D01*
X161109690Y-84181496D01*
X161016496Y-84274690D01*
X160950609Y-84388809D01*
X160950608Y-84388814D01*
X160916500Y-84516108D01*
X160916500Y-84647892D01*
X160923366Y-84673516D01*
X160950609Y-84775190D01*
X161016496Y-84889309D01*
X161016498Y-84889311D01*
X161016500Y-84889314D01*
X161109686Y-84982500D01*
X161109688Y-84982501D01*
X161109690Y-84982503D01*
X161223810Y-85048390D01*
X161223808Y-85048390D01*
X161223812Y-85048391D01*
X161223814Y-85048392D01*
X161351108Y-85082500D01*
X161351110Y-85082500D01*
X161482890Y-85082500D01*
X161482892Y-85082500D01*
X161610186Y-85048392D01*
X161610188Y-85048390D01*
X161610190Y-85048390D01*
X161724309Y-84982503D01*
X161724309Y-84982502D01*
X161724314Y-84982500D01*
X161817500Y-84889314D01*
X161883392Y-84775186D01*
X161910634Y-84673514D01*
X161936255Y-84629136D01*
X162098430Y-84466963D01*
X162151156Y-84375638D01*
X162151157Y-84375637D01*
X162178450Y-84273777D01*
X162178450Y-84262108D01*
X163329500Y-84262108D01*
X163329500Y-84393892D01*
X163349079Y-84466962D01*
X163363609Y-84521190D01*
X163429496Y-84635309D01*
X163429498Y-84635311D01*
X163429500Y-84635314D01*
X163522686Y-84728500D01*
X163636814Y-84794392D01*
X163738483Y-84821633D01*
X163782863Y-84847255D01*
X164144518Y-85208910D01*
X164144520Y-85208913D01*
X164219087Y-85283480D01*
X164219089Y-85283481D01*
X164310409Y-85336205D01*
X164310413Y-85336207D01*
X164412270Y-85363500D01*
X164412272Y-85363501D01*
X164412273Y-85363501D01*
X164523790Y-85363501D01*
X164523806Y-85363500D01*
X168581725Y-85363500D01*
X168581727Y-85363500D01*
X168683588Y-85336207D01*
X168683590Y-85336205D01*
X168683592Y-85336205D01*
X168774908Y-85283483D01*
X168774908Y-85283482D01*
X168774913Y-85283480D01*
X170735138Y-83323253D01*
X170779514Y-83297633D01*
X170881186Y-83270392D01*
X170995314Y-83204500D01*
X171088500Y-83111314D01*
X171114612Y-83066087D01*
X171154390Y-82997190D01*
X171154390Y-82997188D01*
X171154392Y-82997186D01*
X171188500Y-82869892D01*
X171188500Y-82738108D01*
X171154392Y-82610814D01*
X171154390Y-82610810D01*
X171154390Y-82610809D01*
X171088503Y-82496690D01*
X171088501Y-82496688D01*
X171088500Y-82496686D01*
X170995314Y-82403500D01*
X170995311Y-82403498D01*
X170995309Y-82403496D01*
X170881189Y-82337609D01*
X170881191Y-82337609D01*
X170831799Y-82324375D01*
X170753892Y-82303500D01*
X170622108Y-82303500D01*
X170544200Y-82324375D01*
X170494809Y-82337609D01*
X170380690Y-82403496D01*
X170287496Y-82496690D01*
X170221609Y-82610810D01*
X170221607Y-82610814D01*
X170194365Y-82712482D01*
X170168743Y-82756862D01*
X168392103Y-84533504D01*
X168337586Y-84561281D01*
X168322099Y-84562500D01*
X164671900Y-84562500D01*
X164613709Y-84543593D01*
X164601896Y-84533504D01*
X164349255Y-84280863D01*
X164323633Y-84236483D01*
X164296392Y-84134814D01*
X164230500Y-84020686D01*
X164137314Y-83927500D01*
X164137311Y-83927498D01*
X164137309Y-83927496D01*
X164023189Y-83861609D01*
X164023191Y-83861609D01*
X163973799Y-83848375D01*
X163895892Y-83827500D01*
X163764108Y-83827500D01*
X163686200Y-83848375D01*
X163636809Y-83861609D01*
X163522690Y-83927496D01*
X163429496Y-84020690D01*
X163363609Y-84134809D01*
X163363608Y-84134814D01*
X163329500Y-84262108D01*
X162178450Y-84262108D01*
X162178450Y-83518900D01*
X162197357Y-83460709D01*
X162207440Y-83448902D01*
X162620480Y-83035863D01*
X162642808Y-82997190D01*
X162673205Y-82944542D01*
X162673205Y-82944540D01*
X162673207Y-82944538D01*
X162700500Y-82842677D01*
X162700500Y-82737223D01*
X162700500Y-81311273D01*
X162682375Y-81243631D01*
X162677520Y-81225507D01*
X162677520Y-81225506D01*
X162674166Y-81212992D01*
X162673207Y-81209412D01*
X162662288Y-81190500D01*
X162620483Y-81118091D01*
X162620481Y-81118089D01*
X162620480Y-81118087D01*
X162081913Y-80579520D01*
X162081910Y-80579518D01*
X162081908Y-80579516D01*
X161990591Y-80526794D01*
X161990593Y-80526794D01*
X161951070Y-80516204D01*
X161888727Y-80499500D01*
X161888725Y-80499500D01*
X160416951Y-80499500D01*
X160358760Y-80480593D01*
X160346947Y-80470504D01*
X159239546Y-79363103D01*
X159211769Y-79308586D01*
X159210550Y-79293099D01*
X159210550Y-77712836D01*
X159229457Y-77654645D01*
X159278957Y-77618681D01*
X159340143Y-77618681D01*
X159389643Y-77654645D01*
X159405175Y-77687209D01*
X159426880Y-77768214D01*
X159433559Y-77793140D01*
X159499446Y-77907259D01*
X159499448Y-77907261D01*
X159499450Y-77907264D01*
X159592636Y-78000450D01*
X159592638Y-78000451D01*
X159592640Y-78000453D01*
X159706760Y-78066340D01*
X159706758Y-78066340D01*
X159706762Y-78066341D01*
X159706764Y-78066342D01*
X159834058Y-78100450D01*
X159834060Y-78100450D01*
X159965840Y-78100450D01*
X159965842Y-78100450D01*
X160093136Y-78066342D01*
X160093138Y-78066340D01*
X160093140Y-78066340D01*
X160207259Y-78000453D01*
X160207259Y-78000452D01*
X160207264Y-78000450D01*
X160300450Y-77907264D01*
X160301243Y-77905890D01*
X160366340Y-77793140D01*
X160366340Y-77793138D01*
X160366342Y-77793136D01*
X160400450Y-77665842D01*
X160400450Y-77534058D01*
X160366342Y-77406764D01*
X160366340Y-77406761D01*
X160366340Y-77406759D01*
X160300453Y-77292640D01*
X160300451Y-77292638D01*
X160300450Y-77292636D01*
X160207264Y-77199450D01*
X160207261Y-77199448D01*
X160207259Y-77199446D01*
X160093139Y-77133559D01*
X160093141Y-77133559D01*
X160043749Y-77120325D01*
X159965842Y-77099450D01*
X159834058Y-77099450D01*
X159756150Y-77120325D01*
X159706759Y-77133559D01*
X159592640Y-77199446D01*
X159499446Y-77292640D01*
X159433559Y-77406759D01*
X159424786Y-77439500D01*
X159405959Y-77509769D01*
X159405177Y-77512686D01*
X159371853Y-77564000D01*
X159314731Y-77585927D01*
X159255631Y-77570091D01*
X159217126Y-77522542D01*
X159210550Y-77487063D01*
X159210550Y-76747274D01*
X159210550Y-76747273D01*
X159183257Y-76645413D01*
X159170604Y-76623498D01*
X159130531Y-76554089D01*
X159130530Y-76554087D01*
X159055963Y-76479520D01*
X159037468Y-76468842D01*
X158964639Y-76426794D01*
X158964638Y-76426793D01*
X158964637Y-76426793D01*
X158862777Y-76399500D01*
X158862775Y-76399500D01*
X158741500Y-76399500D01*
X158683309Y-76380593D01*
X158647345Y-76331093D01*
X158642500Y-76300500D01*
X158642500Y-75136900D01*
X158661407Y-75078709D01*
X158671490Y-75066902D01*
X160434804Y-73303588D01*
X163137631Y-73303588D01*
X163137631Y-73435372D01*
X163160436Y-73520483D01*
X163171740Y-73562670D01*
X163237627Y-73676789D01*
X163237629Y-73676791D01*
X163237631Y-73676794D01*
X163330817Y-73769980D01*
X163444945Y-73835872D01*
X163546613Y-73863113D01*
X163590994Y-73888736D01*
X163684371Y-73982113D01*
X163684370Y-73982113D01*
X163752250Y-74049992D01*
X163758938Y-74056680D01*
X163850264Y-74109407D01*
X163952124Y-74136700D01*
X164057578Y-74136700D01*
X170836699Y-74136700D01*
X170894890Y-74155607D01*
X170906703Y-74165696D01*
X173908087Y-77167080D01*
X173908089Y-77167081D01*
X173908090Y-77167082D01*
X173908091Y-77167083D01*
X173999408Y-77219805D01*
X173999406Y-77219805D01*
X173999410Y-77219806D01*
X173999412Y-77219807D01*
X174101273Y-77247100D01*
X174637300Y-77247100D01*
X174695491Y-77266007D01*
X174731455Y-77315507D01*
X174732999Y-77320749D01*
X174736300Y-77333210D01*
X174736300Y-77346600D01*
X174737045Y-77364087D01*
X174764910Y-77451195D01*
X174768580Y-77455069D01*
X174773209Y-77472542D01*
X174772239Y-77490080D01*
X174776069Y-77507224D01*
X174770535Y-77520928D01*
X174769833Y-77533634D01*
X174761051Y-77544416D01*
X174760117Y-77546729D01*
X174761489Y-77547390D01*
X174756651Y-77557435D01*
X174736300Y-77646600D01*
X174736300Y-78796601D01*
X174741451Y-78842327D01*
X174770477Y-78902598D01*
X174781134Y-78924727D01*
X174852637Y-78981749D01*
X174941800Y-79002100D01*
X175192300Y-79002100D01*
X175250491Y-79021007D01*
X175286455Y-79070507D01*
X175291300Y-79101100D01*
X175291300Y-79980899D01*
X175272393Y-80039090D01*
X175262303Y-80050903D01*
X175085862Y-80227343D01*
X175041483Y-80252965D01*
X174939814Y-80280208D01*
X174939812Y-80280208D01*
X174939808Y-80280210D01*
X174825690Y-80346096D01*
X174732496Y-80439290D01*
X174666609Y-80553409D01*
X174655062Y-80596504D01*
X174632500Y-80680708D01*
X174632500Y-80812492D01*
X174653508Y-80890896D01*
X174666609Y-80939790D01*
X174732496Y-81053909D01*
X174732498Y-81053911D01*
X174732500Y-81053914D01*
X174825686Y-81147100D01*
X174825688Y-81147101D01*
X174825690Y-81147103D01*
X174939810Y-81212990D01*
X174939808Y-81212990D01*
X174939812Y-81212991D01*
X174939814Y-81212992D01*
X175067108Y-81247100D01*
X175067110Y-81247100D01*
X175198890Y-81247100D01*
X175198892Y-81247100D01*
X175326186Y-81212992D01*
X175326188Y-81212990D01*
X175326190Y-81212990D01*
X175440309Y-81147103D01*
X175440309Y-81147102D01*
X175440314Y-81147100D01*
X175533500Y-81053914D01*
X175599392Y-80939786D01*
X175626633Y-80838113D01*
X175652253Y-80793737D01*
X175937710Y-80508281D01*
X175937713Y-80508280D01*
X176012280Y-80433713D01*
X176065007Y-80342387D01*
X176092301Y-80240527D01*
X176092301Y-80135073D01*
X176092301Y-80129011D01*
X176092300Y-80128993D01*
X176092300Y-79101100D01*
X176111207Y-79042909D01*
X176160707Y-79006945D01*
X176191300Y-79002100D01*
X176441799Y-79002100D01*
X176441800Y-79002100D01*
X176487528Y-78996948D01*
X176569927Y-78957266D01*
X176626949Y-78885763D01*
X176647300Y-78796600D01*
X176647300Y-77646600D01*
X176636803Y-77589500D01*
X176633866Y-77573520D01*
X176633865Y-77573519D01*
X176633865Y-77573515D01*
X176620785Y-77553896D01*
X176604239Y-77494992D01*
X176622390Y-77445947D01*
X176622110Y-77445812D01*
X176623537Y-77442848D01*
X176625476Y-77437610D01*
X176626949Y-77435763D01*
X176647300Y-77346600D01*
X176647300Y-76346600D01*
X176642148Y-76300872D01*
X176602466Y-76218473D01*
X176530963Y-76161451D01*
X176530962Y-76161450D01*
X176441800Y-76141100D01*
X174941800Y-76141100D01*
X174941798Y-76141100D01*
X174896072Y-76146251D01*
X174813672Y-76185934D01*
X174756650Y-76257437D01*
X174736300Y-76346600D01*
X174736300Y-76347100D01*
X174736213Y-76347367D01*
X174735677Y-76352125D01*
X174734702Y-76352015D01*
X174717393Y-76405291D01*
X174667893Y-76441255D01*
X174637300Y-76446100D01*
X174360901Y-76446100D01*
X174302710Y-76427193D01*
X174290897Y-76417104D01*
X172807851Y-74934058D01*
X171289513Y-73415720D01*
X171289510Y-73415718D01*
X171289509Y-73415717D01*
X171289508Y-73415716D01*
X171198191Y-73362994D01*
X171198193Y-73362994D01*
X171158670Y-73352404D01*
X171096327Y-73335700D01*
X171096325Y-73335700D01*
X164223201Y-73335700D01*
X164165010Y-73316793D01*
X164129046Y-73267293D01*
X164127574Y-73262323D01*
X164107544Y-73187570D01*
X164104523Y-73176294D01*
X164038631Y-73062166D01*
X163945445Y-72968980D01*
X163945442Y-72968978D01*
X163945440Y-72968976D01*
X163831320Y-72903089D01*
X163831322Y-72903089D01*
X163781930Y-72889855D01*
X163704023Y-72868980D01*
X163572239Y-72868980D01*
X163494331Y-72889855D01*
X163444940Y-72903089D01*
X163330821Y-72968976D01*
X163237627Y-73062170D01*
X163171740Y-73176289D01*
X163158127Y-73227095D01*
X163137631Y-73303588D01*
X160434804Y-73303588D01*
X162626480Y-71111913D01*
X162655211Y-71062150D01*
X162679205Y-71020592D01*
X162679205Y-71020590D01*
X162679207Y-71020588D01*
X162706500Y-70918727D01*
X162706500Y-70813273D01*
X162706500Y-63350000D01*
X165007095Y-63350000D01*
X165869670Y-63350000D01*
X165849925Y-63369745D01*
X165800556Y-63455255D01*
X165775000Y-63550630D01*
X165775000Y-63649370D01*
X165800556Y-63744745D01*
X165849925Y-63830255D01*
X165869670Y-63850000D01*
X165007096Y-63850000D01*
X165009586Y-63862523D01*
X165077430Y-64026310D01*
X165175923Y-64173715D01*
X165301284Y-64299076D01*
X165448691Y-64397570D01*
X165612479Y-64465413D01*
X165786355Y-64499999D01*
X165786359Y-64500000D01*
X165899999Y-64500000D01*
X165900000Y-64499999D01*
X165900000Y-63880330D01*
X165919745Y-63900075D01*
X166005255Y-63949444D01*
X166100630Y-63975000D01*
X166199370Y-63975000D01*
X166294745Y-63949444D01*
X166380255Y-63900075D01*
X166400000Y-63880330D01*
X166400000Y-64499999D01*
X166400001Y-64500000D01*
X166513641Y-64500000D01*
X166513644Y-64499999D01*
X166687519Y-64465413D01*
X166687521Y-64465413D01*
X166851308Y-64397570D01*
X166998715Y-64299076D01*
X167124076Y-64173715D01*
X167222569Y-64026310D01*
X167290413Y-63862523D01*
X167292904Y-63850000D01*
X166430330Y-63850000D01*
X166450075Y-63830255D01*
X166499444Y-63744745D01*
X166525000Y-63649370D01*
X166525000Y-63550630D01*
X166499444Y-63455255D01*
X166450075Y-63369745D01*
X166430330Y-63350000D01*
X167292904Y-63350000D01*
X167290413Y-63337476D01*
X167222569Y-63173689D01*
X167124076Y-63026284D01*
X166998715Y-62900923D01*
X166851308Y-62802429D01*
X166687520Y-62734586D01*
X166513644Y-62700000D01*
X166400001Y-62700000D01*
X166400000Y-62700001D01*
X166400000Y-63319670D01*
X166380255Y-63299925D01*
X166294745Y-63250556D01*
X166199370Y-63225000D01*
X166100630Y-63225000D01*
X166005255Y-63250556D01*
X165919745Y-63299925D01*
X165900000Y-63319670D01*
X165900000Y-62700001D01*
X165899999Y-62700000D01*
X165786355Y-62700000D01*
X165612480Y-62734586D01*
X165612478Y-62734586D01*
X165448691Y-62802429D01*
X165301284Y-62900923D01*
X165175923Y-63026284D01*
X165077430Y-63173689D01*
X165009586Y-63337476D01*
X165007095Y-63350000D01*
X162706500Y-63350000D01*
X162706500Y-61195725D01*
X165074500Y-61195725D01*
X165074500Y-62004274D01*
X165077353Y-62034694D01*
X165077355Y-62034703D01*
X165122207Y-62162883D01*
X165202845Y-62272144D01*
X165202847Y-62272146D01*
X165202850Y-62272150D01*
X165202853Y-62272152D01*
X165202855Y-62272154D01*
X165312116Y-62352792D01*
X165312117Y-62352792D01*
X165312118Y-62352793D01*
X165440301Y-62397646D01*
X165470725Y-62400499D01*
X165470727Y-62400500D01*
X165470734Y-62400500D01*
X166829273Y-62400500D01*
X166829273Y-62400499D01*
X166859699Y-62397646D01*
X166987882Y-62352793D01*
X167097150Y-62272150D01*
X167177793Y-62162882D01*
X167222646Y-62034699D01*
X167225499Y-62004273D01*
X167225500Y-62004273D01*
X167225500Y-61195727D01*
X167225499Y-61195725D01*
X167222646Y-61165305D01*
X167222646Y-61165301D01*
X167177793Y-61037118D01*
X167136009Y-60980503D01*
X167097154Y-60927855D01*
X167097152Y-60927853D01*
X167097150Y-60927850D01*
X167097146Y-60927847D01*
X167097144Y-60927845D01*
X166987883Y-60847207D01*
X166859703Y-60802355D01*
X166859694Y-60802353D01*
X166829274Y-60799500D01*
X166829266Y-60799500D01*
X165470734Y-60799500D01*
X165470725Y-60799500D01*
X165440305Y-60802353D01*
X165440296Y-60802355D01*
X165312116Y-60847207D01*
X165202855Y-60927845D01*
X165202845Y-60927855D01*
X165122207Y-61037116D01*
X165077355Y-61165296D01*
X165077353Y-61165305D01*
X165074500Y-61195725D01*
X162706500Y-61195725D01*
X162706500Y-61161273D01*
X162679207Y-61059413D01*
X162674604Y-61051441D01*
X162626480Y-60968087D01*
X162551913Y-60893519D01*
X162551913Y-60893520D01*
X160437913Y-58779520D01*
X160437910Y-58779518D01*
X160437909Y-58779517D01*
X160437908Y-58779516D01*
X160346591Y-58726794D01*
X160346593Y-58726794D01*
X160304844Y-58715608D01*
X160244727Y-58699500D01*
X160244725Y-58699500D01*
X150489500Y-58699500D01*
X150431309Y-58680593D01*
X150395345Y-58631093D01*
X150390500Y-58600500D01*
X150390500Y-58544727D01*
X150390499Y-58544725D01*
X150387646Y-58514301D01*
X150342793Y-58386118D01*
X150334797Y-58375284D01*
X150262154Y-58276855D01*
X150262152Y-58276853D01*
X150262150Y-58276850D01*
X150262146Y-58276847D01*
X150262144Y-58276845D01*
X150152883Y-58196207D01*
X150024703Y-58151355D01*
X150024694Y-58151353D01*
X149994274Y-58148500D01*
X149994266Y-58148500D01*
X149185734Y-58148500D01*
X149185725Y-58148500D01*
X149155305Y-58151353D01*
X149155296Y-58151355D01*
X149027116Y-58196207D01*
X148917855Y-58276845D01*
X148917845Y-58276855D01*
X148837207Y-58386116D01*
X148792355Y-58514296D01*
X148792353Y-58514305D01*
X148789500Y-58544725D01*
X148789500Y-59903274D01*
X148792353Y-59933694D01*
X148792355Y-59933703D01*
X148837207Y-60061883D01*
X148917845Y-60171144D01*
X148917847Y-60171146D01*
X148917850Y-60171150D01*
X148917853Y-60171152D01*
X148917855Y-60171154D01*
X149027116Y-60251792D01*
X149027117Y-60251792D01*
X149027118Y-60251793D01*
X149155301Y-60296646D01*
X149185725Y-60299499D01*
X149185727Y-60299500D01*
X149185734Y-60299500D01*
X149994273Y-60299500D01*
X149994273Y-60299499D01*
X150024699Y-60296646D01*
X150152882Y-60251793D01*
X150262150Y-60171150D01*
X150342793Y-60061882D01*
X150387646Y-59933699D01*
X150390499Y-59903273D01*
X150390500Y-59903273D01*
X150390500Y-59599500D01*
X150409407Y-59541309D01*
X150458907Y-59505345D01*
X150489500Y-59500500D01*
X159985099Y-59500500D01*
X160043290Y-59519407D01*
X160055103Y-59529496D01*
X161876504Y-61350897D01*
X161904281Y-61405414D01*
X161905500Y-61420901D01*
X161905500Y-70659099D01*
X161886593Y-70717290D01*
X161876504Y-70729103D01*
X157921516Y-74684091D01*
X157868795Y-74775406D01*
X157868793Y-74775410D01*
X157868793Y-74775412D01*
X157846792Y-74857525D01*
X157842105Y-74875017D01*
X157842103Y-74875023D01*
X157841500Y-74877272D01*
X157841500Y-76300500D01*
X157822593Y-76358691D01*
X157773093Y-76394655D01*
X157742500Y-76399500D01*
X156433840Y-76399500D01*
X156384341Y-76386236D01*
X156293186Y-76333608D01*
X156165892Y-76299500D01*
X156034108Y-76299500D01*
X155990596Y-76311159D01*
X155906809Y-76333609D01*
X155792690Y-76399496D01*
X155699496Y-76492690D01*
X155633609Y-76606809D01*
X155614539Y-76677978D01*
X155599500Y-76734108D01*
X155599500Y-76865892D01*
X155614503Y-76921883D01*
X155633609Y-76993190D01*
X155699496Y-77107309D01*
X155699498Y-77107311D01*
X155699500Y-77107314D01*
X155792686Y-77200500D01*
X155792688Y-77200501D01*
X155792690Y-77200503D01*
X155906810Y-77266390D01*
X155906808Y-77266390D01*
X155906812Y-77266391D01*
X155906814Y-77266392D01*
X156034108Y-77300500D01*
X156034110Y-77300500D01*
X156040376Y-77302179D01*
X156039942Y-77303796D01*
X156059119Y-77312943D01*
X156085927Y-77324873D01*
X156086610Y-77326056D01*
X156087846Y-77326646D01*
X156101851Y-77352443D01*
X156116530Y-77377855D01*
X156116387Y-77379215D01*
X156117040Y-77380418D01*
X156113208Y-77409515D01*
X156110146Y-77438706D01*
X156109230Y-77439722D01*
X156109052Y-77441080D01*
X156069213Y-77484184D01*
X156065674Y-77486227D01*
X156016160Y-77499500D01*
X154560901Y-77499500D01*
X154502710Y-77480593D01*
X154490897Y-77470504D01*
X152354471Y-75334078D01*
X152326694Y-75279561D01*
X152325475Y-75264074D01*
X152325475Y-74195739D01*
X152325476Y-74195726D01*
X152325476Y-74082297D01*
X152325475Y-74082295D01*
X152318611Y-74056680D01*
X152298182Y-73980438D01*
X152264493Y-73922087D01*
X152245455Y-73889112D01*
X152170888Y-73814545D01*
X152170885Y-73814543D01*
X147631863Y-69275520D01*
X147631860Y-69275518D01*
X147631858Y-69275516D01*
X147540541Y-69222794D01*
X147540543Y-69222794D01*
X147501020Y-69212204D01*
X147438677Y-69195500D01*
X147438675Y-69195500D01*
X140414901Y-69195500D01*
X140356710Y-69176593D01*
X140344897Y-69166504D01*
X139920990Y-68742597D01*
X139183913Y-68005520D01*
X139183910Y-68005518D01*
X139183909Y-68005517D01*
X139183908Y-68005516D01*
X139092591Y-67952794D01*
X139092592Y-67952794D01*
X139088669Y-67951743D01*
X139067673Y-67946117D01*
X139016360Y-67912794D01*
X139001834Y-67888376D01*
X138943442Y-67747404D01*
X138901999Y-67685380D01*
X138828477Y-67575345D01*
X138787240Y-67534108D01*
X152074500Y-67534108D01*
X152074500Y-67665892D01*
X152082221Y-67694706D01*
X152108609Y-67793190D01*
X152174496Y-67907309D01*
X152174498Y-67907311D01*
X152174500Y-67907314D01*
X152267686Y-68000500D01*
X152267688Y-68000501D01*
X152267690Y-68000503D01*
X152381810Y-68066390D01*
X152381808Y-68066390D01*
X152381812Y-68066391D01*
X152381814Y-68066392D01*
X152509108Y-68100500D01*
X152509110Y-68100500D01*
X152640890Y-68100500D01*
X152640892Y-68100500D01*
X152768186Y-68066392D01*
X152768188Y-68066390D01*
X152768190Y-68066390D01*
X152882309Y-68000503D01*
X152882309Y-68000502D01*
X152882314Y-68000500D01*
X152975500Y-67907314D01*
X153041392Y-67793186D01*
X153075500Y-67665892D01*
X153075500Y-67534108D01*
X153048705Y-67434108D01*
X155774500Y-67434108D01*
X155774500Y-67565892D01*
X155785382Y-67606503D01*
X155808609Y-67693190D01*
X155874496Y-67807309D01*
X155874498Y-67807311D01*
X155874500Y-67807314D01*
X155967686Y-67900500D01*
X155967688Y-67900501D01*
X155967690Y-67900503D01*
X156081810Y-67966390D01*
X156081808Y-67966390D01*
X156081812Y-67966391D01*
X156081814Y-67966392D01*
X156209108Y-68000500D01*
X156209110Y-68000500D01*
X156340890Y-68000500D01*
X156340892Y-68000500D01*
X156468186Y-67966392D01*
X156468188Y-67966390D01*
X156468190Y-67966390D01*
X156582309Y-67900503D01*
X156582309Y-67900502D01*
X156582314Y-67900500D01*
X156675500Y-67807314D01*
X156707373Y-67752108D01*
X156741390Y-67693190D01*
X156741390Y-67693188D01*
X156741392Y-67693186D01*
X156775500Y-67565892D01*
X156775500Y-67434108D01*
X156741392Y-67306814D01*
X156741390Y-67306811D01*
X156741390Y-67306809D01*
X156675503Y-67192690D01*
X156675501Y-67192688D01*
X156675500Y-67192686D01*
X156582314Y-67099500D01*
X156582311Y-67099498D01*
X156582309Y-67099496D01*
X156468189Y-67033609D01*
X156468191Y-67033609D01*
X156418799Y-67020375D01*
X156340892Y-66999500D01*
X156209108Y-66999500D01*
X156131200Y-67020375D01*
X156081809Y-67033609D01*
X155967690Y-67099496D01*
X155874496Y-67192690D01*
X155808609Y-67306809D01*
X155796605Y-67351609D01*
X155774500Y-67434108D01*
X153048705Y-67434108D01*
X153041392Y-67406814D01*
X153041390Y-67406811D01*
X153041390Y-67406809D01*
X152975503Y-67292690D01*
X152975501Y-67292688D01*
X152975500Y-67292686D01*
X152882314Y-67199500D01*
X152882311Y-67199498D01*
X152882309Y-67199496D01*
X152768189Y-67133609D01*
X152768191Y-67133609D01*
X152718799Y-67120375D01*
X152640892Y-67099500D01*
X152509108Y-67099500D01*
X152431200Y-67120375D01*
X152381809Y-67133609D01*
X152267690Y-67199496D01*
X152174496Y-67292690D01*
X152108609Y-67406809D01*
X152101294Y-67434109D01*
X152074500Y-67534108D01*
X138787240Y-67534108D01*
X138682155Y-67429023D01*
X138682151Y-67429020D01*
X138510097Y-67314058D01*
X138318918Y-67234869D01*
X138115967Y-67194500D01*
X138115965Y-67194500D01*
X137909035Y-67194500D01*
X137909032Y-67194500D01*
X137706081Y-67234869D01*
X137514902Y-67314058D01*
X137342848Y-67429020D01*
X137342845Y-67429022D01*
X137342845Y-67429023D01*
X137332001Y-67439866D01*
X137277487Y-67467642D01*
X137217055Y-67458071D01*
X137173790Y-67414806D01*
X137163000Y-67369861D01*
X137163000Y-67161899D01*
X137181907Y-67103708D01*
X137191990Y-67091902D01*
X137562208Y-66721683D01*
X137616723Y-66693907D01*
X137670097Y-66700225D01*
X137706072Y-66715127D01*
X137706074Y-66715127D01*
X137706080Y-66715130D01*
X137909035Y-66755500D01*
X137909036Y-66755500D01*
X138115964Y-66755500D01*
X138115965Y-66755500D01*
X138318920Y-66715130D01*
X138510098Y-66635941D01*
X138579436Y-66589611D01*
X153828940Y-66589611D01*
X153961011Y-66625000D01*
X154118990Y-66625000D01*
X154251057Y-66589611D01*
X154748940Y-66589611D01*
X154881011Y-66625000D01*
X155038990Y-66625000D01*
X155171057Y-66589611D01*
X154959999Y-66378553D01*
X154748940Y-66589611D01*
X154251057Y-66589611D01*
X154039999Y-66378553D01*
X153828940Y-66589611D01*
X138579436Y-66589611D01*
X138682155Y-66520977D01*
X138828477Y-66374655D01*
X138943441Y-66202598D01*
X139022630Y-66011420D01*
X139063000Y-65808465D01*
X139063000Y-65601535D01*
X139022630Y-65398580D01*
X138954503Y-65234108D01*
X142399500Y-65234108D01*
X142399500Y-65365892D01*
X142424239Y-65458219D01*
X142433609Y-65493190D01*
X142499496Y-65607309D01*
X142499498Y-65607311D01*
X142499500Y-65607314D01*
X142592686Y-65700500D01*
X142592688Y-65700501D01*
X142592690Y-65700503D01*
X142706810Y-65766390D01*
X142706808Y-65766390D01*
X142706812Y-65766391D01*
X142706814Y-65766392D01*
X142834108Y-65800500D01*
X142834110Y-65800500D01*
X142965890Y-65800500D01*
X142965892Y-65800500D01*
X143093186Y-65766392D01*
X143184341Y-65713763D01*
X143233840Y-65700500D01*
X143366160Y-65700500D01*
X143415658Y-65713763D01*
X143506814Y-65766392D01*
X143634108Y-65800500D01*
X143634110Y-65800500D01*
X143765890Y-65800500D01*
X143765892Y-65800500D01*
X143893186Y-65766392D01*
X143984341Y-65713763D01*
X144033840Y-65700500D01*
X144166160Y-65700500D01*
X144215658Y-65713763D01*
X144306814Y-65766392D01*
X144434108Y-65800500D01*
X144434110Y-65800500D01*
X144565890Y-65800500D01*
X144565892Y-65800500D01*
X144693186Y-65766392D01*
X144784341Y-65713763D01*
X144833840Y-65700500D01*
X147966160Y-65700500D01*
X148015658Y-65713763D01*
X148106814Y-65766392D01*
X148234108Y-65800500D01*
X148234110Y-65800500D01*
X148365890Y-65800500D01*
X148365892Y-65800500D01*
X148493186Y-65766392D01*
X148584341Y-65713763D01*
X148633840Y-65700500D01*
X148766160Y-65700500D01*
X148815658Y-65713763D01*
X148906814Y-65766392D01*
X149034108Y-65800500D01*
X149034110Y-65800500D01*
X149165890Y-65800500D01*
X149165892Y-65800500D01*
X149293186Y-65766392D01*
X149384341Y-65713763D01*
X149433840Y-65700500D01*
X149566160Y-65700500D01*
X149615658Y-65713763D01*
X149706814Y-65766392D01*
X149834108Y-65800500D01*
X149834110Y-65800500D01*
X149965890Y-65800500D01*
X149965892Y-65800500D01*
X150093186Y-65766392D01*
X150093188Y-65766390D01*
X150093190Y-65766390D01*
X150183745Y-65714108D01*
X151799500Y-65714108D01*
X151799500Y-65845892D01*
X151826326Y-65946009D01*
X151833609Y-65973190D01*
X151899496Y-66087309D01*
X151899498Y-66087311D01*
X151899500Y-66087314D01*
X151992686Y-66180500D01*
X151992688Y-66180501D01*
X151992690Y-66180503D01*
X152106810Y-66246390D01*
X152106808Y-66246390D01*
X152106812Y-66246391D01*
X152106814Y-66246392D01*
X152234108Y-66280500D01*
X152234110Y-66280500D01*
X152365890Y-66280500D01*
X152365892Y-66280500D01*
X152372539Y-66278719D01*
X156254889Y-66278719D01*
X156254889Y-66410503D01*
X156276196Y-66490021D01*
X156288998Y-66537801D01*
X156354885Y-66651920D01*
X156354887Y-66651922D01*
X156354889Y-66651925D01*
X156448075Y-66745111D01*
X156448077Y-66745112D01*
X156448079Y-66745114D01*
X156562199Y-66811001D01*
X156562197Y-66811001D01*
X156562201Y-66811002D01*
X156562203Y-66811003D01*
X156689497Y-66845111D01*
X156689499Y-66845111D01*
X156821279Y-66845111D01*
X156821281Y-66845111D01*
X156948575Y-66811003D01*
X156948577Y-66811001D01*
X156948579Y-66811001D01*
X157062698Y-66745114D01*
X157062698Y-66745113D01*
X157062703Y-66745111D01*
X157155889Y-66651925D01*
X157164985Y-66636170D01*
X157221779Y-66537801D01*
X157221779Y-66537799D01*
X157221781Y-66537797D01*
X157255889Y-66410503D01*
X157255889Y-66278719D01*
X157221781Y-66151425D01*
X157221779Y-66151422D01*
X157221779Y-66151420D01*
X157155892Y-66037301D01*
X157155890Y-66037299D01*
X157155889Y-66037297D01*
X157062703Y-65944111D01*
X157062700Y-65944109D01*
X157062698Y-65944107D01*
X156948578Y-65878220D01*
X156948580Y-65878220D01*
X156899188Y-65864986D01*
X156821281Y-65844111D01*
X156689497Y-65844111D01*
X156611589Y-65864986D01*
X156562198Y-65878220D01*
X156448079Y-65944107D01*
X156354885Y-66037301D01*
X156288998Y-66151420D01*
X156275286Y-66202597D01*
X156254889Y-66278719D01*
X152372539Y-66278719D01*
X152493186Y-66246392D01*
X152493188Y-66246390D01*
X152493190Y-66246390D01*
X152607309Y-66180503D01*
X152607309Y-66180502D01*
X152607314Y-66180500D01*
X152700500Y-66087314D01*
X152729375Y-66037301D01*
X152766390Y-65973190D01*
X152766390Y-65973188D01*
X152766392Y-65973186D01*
X152773674Y-65946009D01*
X153440000Y-65946009D01*
X153440000Y-66103989D01*
X153475387Y-66236057D01*
X153686446Y-66024999D01*
X153656610Y-65995163D01*
X153890000Y-65995163D01*
X153890000Y-66054837D01*
X153912836Y-66109968D01*
X153955032Y-66152164D01*
X154010163Y-66175000D01*
X154069837Y-66175000D01*
X154124968Y-66152164D01*
X154167164Y-66109968D01*
X154190000Y-66054837D01*
X154190000Y-66025000D01*
X154393553Y-66025000D01*
X154499999Y-66131445D01*
X154606446Y-66024999D01*
X154576610Y-65995163D01*
X154810000Y-65995163D01*
X154810000Y-66054837D01*
X154832836Y-66109968D01*
X154875032Y-66152164D01*
X154930163Y-66175000D01*
X154989837Y-66175000D01*
X155044968Y-66152164D01*
X155087164Y-66109968D01*
X155110000Y-66054837D01*
X155110000Y-66024999D01*
X155313553Y-66024999D01*
X155524611Y-66236057D01*
X155560000Y-66103988D01*
X155560000Y-65946010D01*
X155524611Y-65813940D01*
X155313553Y-66024999D01*
X155110000Y-66024999D01*
X155110000Y-65995163D01*
X155087164Y-65940032D01*
X155044968Y-65897836D01*
X154989837Y-65875000D01*
X154930163Y-65875000D01*
X154875032Y-65897836D01*
X154832836Y-65940032D01*
X154810000Y-65995163D01*
X154576610Y-65995163D01*
X154500001Y-65918553D01*
X154393553Y-66025000D01*
X154190000Y-66025000D01*
X154190000Y-65995163D01*
X154167164Y-65940032D01*
X154124968Y-65897836D01*
X154069837Y-65875000D01*
X154010163Y-65875000D01*
X153955032Y-65897836D01*
X153912836Y-65940032D01*
X153890000Y-65995163D01*
X153656610Y-65995163D01*
X153475387Y-65813940D01*
X153475386Y-65813940D01*
X153440000Y-65946009D01*
X152773674Y-65946009D01*
X152800500Y-65845892D01*
X152800500Y-65714108D01*
X152766392Y-65586814D01*
X152766390Y-65586811D01*
X152766390Y-65586809D01*
X152700503Y-65472690D01*
X152700501Y-65472688D01*
X152700500Y-65472686D01*
X152688201Y-65460387D01*
X153828940Y-65460387D01*
X153907499Y-65538945D01*
X154146446Y-65299999D01*
X154116610Y-65270163D01*
X154350000Y-65270163D01*
X154350000Y-65329837D01*
X154372836Y-65384968D01*
X154415032Y-65427164D01*
X154470163Y-65450000D01*
X154529837Y-65450000D01*
X154584968Y-65427164D01*
X154627164Y-65384968D01*
X154650000Y-65329837D01*
X154650000Y-65299999D01*
X154853553Y-65299999D01*
X155092499Y-65538945D01*
X155171058Y-65460387D01*
X155170831Y-65459536D01*
X155168407Y-65459536D01*
X155145642Y-65442996D01*
X155122063Y-65427684D01*
X155121094Y-65425161D01*
X155118907Y-65423572D01*
X155110213Y-65396814D01*
X155100136Y-65370563D01*
X155100000Y-65365381D01*
X155100000Y-65234617D01*
X155118907Y-65176426D01*
X155168407Y-65140462D01*
X155171039Y-65139682D01*
X155171058Y-65139611D01*
X155092499Y-65061053D01*
X154853553Y-65299999D01*
X154650000Y-65299999D01*
X154650000Y-65270163D01*
X154627164Y-65215032D01*
X154584968Y-65172836D01*
X154529837Y-65150000D01*
X154470163Y-65150000D01*
X154415032Y-65172836D01*
X154372836Y-65215032D01*
X154350000Y-65270163D01*
X154116610Y-65270163D01*
X153907500Y-65061053D01*
X153845723Y-65122828D01*
X153883551Y-65179970D01*
X153890521Y-65205096D01*
X153899864Y-65229436D01*
X153900000Y-65234618D01*
X153900000Y-65365380D01*
X153881093Y-65423571D01*
X153831593Y-65459535D01*
X153828959Y-65460314D01*
X153828940Y-65460387D01*
X152688201Y-65460387D01*
X152607314Y-65379500D01*
X152607311Y-65379498D01*
X152607309Y-65379496D01*
X152493189Y-65313609D01*
X152493191Y-65313609D01*
X152442396Y-65299999D01*
X152365892Y-65279500D01*
X152234108Y-65279500D01*
X152157604Y-65299999D01*
X152106809Y-65313609D01*
X151992690Y-65379496D01*
X151899496Y-65472690D01*
X151833609Y-65586809D01*
X151819996Y-65637615D01*
X151799500Y-65714108D01*
X150183745Y-65714108D01*
X150207309Y-65700503D01*
X150207309Y-65700502D01*
X150207314Y-65700500D01*
X150300500Y-65607314D01*
X150305747Y-65598226D01*
X150366390Y-65493190D01*
X150366390Y-65493188D01*
X150366392Y-65493186D01*
X150400500Y-65365892D01*
X150400500Y-65234108D01*
X150366392Y-65106814D01*
X150366389Y-65106809D01*
X150300503Y-64992690D01*
X150300501Y-64992688D01*
X150300500Y-64992686D01*
X150207314Y-64899500D01*
X150207311Y-64899498D01*
X150207309Y-64899496D01*
X150093189Y-64833609D01*
X150093191Y-64833609D01*
X150043799Y-64820375D01*
X149965892Y-64799500D01*
X149834108Y-64799500D01*
X149706814Y-64833608D01*
X149706813Y-64833608D01*
X149706811Y-64833609D01*
X149687955Y-64844496D01*
X149615658Y-64886236D01*
X149566160Y-64899500D01*
X149433840Y-64899500D01*
X149384341Y-64886236D01*
X149295275Y-64834814D01*
X149293188Y-64833609D01*
X149293187Y-64833608D01*
X149293186Y-64833608D01*
X149165892Y-64799500D01*
X149034108Y-64799500D01*
X148906814Y-64833608D01*
X148906813Y-64833608D01*
X148906811Y-64833609D01*
X148887955Y-64844496D01*
X148815658Y-64886236D01*
X148766160Y-64899500D01*
X148633840Y-64899500D01*
X148584341Y-64886236D01*
X148495275Y-64834814D01*
X148493188Y-64833609D01*
X148493187Y-64833608D01*
X148493186Y-64833608D01*
X148365892Y-64799500D01*
X148234108Y-64799500D01*
X148106814Y-64833608D01*
X148106813Y-64833608D01*
X148106811Y-64833609D01*
X148087955Y-64844496D01*
X148015658Y-64886236D01*
X147966160Y-64899500D01*
X144833840Y-64899500D01*
X144784341Y-64886236D01*
X144695275Y-64834814D01*
X144693188Y-64833609D01*
X144693187Y-64833608D01*
X144693186Y-64833608D01*
X144565892Y-64799500D01*
X144434108Y-64799500D01*
X144306814Y-64833608D01*
X144306813Y-64833608D01*
X144306811Y-64833609D01*
X144287955Y-64844496D01*
X144215658Y-64886236D01*
X144166160Y-64899500D01*
X144033840Y-64899500D01*
X143984341Y-64886236D01*
X143895275Y-64834814D01*
X143893188Y-64833609D01*
X143893187Y-64833608D01*
X143893186Y-64833608D01*
X143765892Y-64799500D01*
X143634108Y-64799500D01*
X143506814Y-64833608D01*
X143506813Y-64833608D01*
X143506811Y-64833609D01*
X143487955Y-64844496D01*
X143415658Y-64886236D01*
X143366160Y-64899500D01*
X143233840Y-64899500D01*
X143184341Y-64886236D01*
X143095275Y-64834814D01*
X143093188Y-64833609D01*
X143093187Y-64833608D01*
X143093186Y-64833608D01*
X142965892Y-64799500D01*
X142834108Y-64799500D01*
X142756200Y-64820375D01*
X142706809Y-64833609D01*
X142592690Y-64899496D01*
X142499496Y-64992690D01*
X142433609Y-65106809D01*
X142433608Y-65106814D01*
X142399500Y-65234108D01*
X138954503Y-65234108D01*
X138943441Y-65207402D01*
X138828477Y-65035345D01*
X138710456Y-64917324D01*
X138682681Y-64862810D01*
X138692252Y-64802378D01*
X138730960Y-64761587D01*
X138776180Y-64735480D01*
X139177552Y-64334108D01*
X150599500Y-64334108D01*
X150599500Y-64465892D01*
X150623376Y-64555000D01*
X150633609Y-64593190D01*
X150699496Y-64707309D01*
X150699498Y-64707311D01*
X150699500Y-64707314D01*
X150792686Y-64800500D01*
X150792688Y-64800501D01*
X150792690Y-64800503D01*
X150906810Y-64866390D01*
X150906808Y-64866390D01*
X150906812Y-64866391D01*
X150906814Y-64866392D01*
X151034108Y-64900500D01*
X151034110Y-64900500D01*
X151165890Y-64900500D01*
X151165892Y-64900500D01*
X151293186Y-64866392D01*
X151293188Y-64866390D01*
X151293190Y-64866390D01*
X151407309Y-64800503D01*
X151407309Y-64800502D01*
X151407314Y-64800500D01*
X151500500Y-64707314D01*
X151539797Y-64639250D01*
X151566390Y-64593190D01*
X151566390Y-64593188D01*
X151566392Y-64593186D01*
X151592430Y-64496009D01*
X153440000Y-64496009D01*
X153440000Y-64653989D01*
X153475387Y-64786057D01*
X153686446Y-64574999D01*
X153656610Y-64545163D01*
X153890000Y-64545163D01*
X153890000Y-64604837D01*
X153912836Y-64659968D01*
X153955032Y-64702164D01*
X154010163Y-64725000D01*
X154069837Y-64725000D01*
X154124968Y-64702164D01*
X154167164Y-64659968D01*
X154190000Y-64604837D01*
X154190000Y-64575000D01*
X154393553Y-64575000D01*
X154499999Y-64681445D01*
X154606446Y-64574999D01*
X154576610Y-64545163D01*
X154810000Y-64545163D01*
X154810000Y-64604837D01*
X154832836Y-64659968D01*
X154875032Y-64702164D01*
X154930163Y-64725000D01*
X154989837Y-64725000D01*
X155044968Y-64702164D01*
X155087164Y-64659968D01*
X155110000Y-64604837D01*
X155110000Y-64574999D01*
X155313553Y-64574999D01*
X155524611Y-64786057D01*
X155560000Y-64653990D01*
X155560000Y-64496010D01*
X155524611Y-64363940D01*
X155313553Y-64574999D01*
X155110000Y-64574999D01*
X155110000Y-64545163D01*
X155087164Y-64490032D01*
X155044968Y-64447836D01*
X154989837Y-64425000D01*
X154930163Y-64425000D01*
X154875032Y-64447836D01*
X154832836Y-64490032D01*
X154810000Y-64545163D01*
X154576610Y-64545163D01*
X154500001Y-64468553D01*
X154393553Y-64575000D01*
X154190000Y-64575000D01*
X154190000Y-64545163D01*
X154167164Y-64490032D01*
X154124968Y-64447836D01*
X154069837Y-64425000D01*
X154010163Y-64425000D01*
X153955032Y-64447836D01*
X153912836Y-64490032D01*
X153890000Y-64545163D01*
X153656610Y-64545163D01*
X153475387Y-64363940D01*
X153475386Y-64363940D01*
X153440000Y-64496009D01*
X151592430Y-64496009D01*
X151600500Y-64465892D01*
X151600500Y-64334108D01*
X151566392Y-64206814D01*
X151566390Y-64206811D01*
X151566390Y-64206809D01*
X151500502Y-64092689D01*
X151500501Y-64092688D01*
X151500500Y-64092686D01*
X151418200Y-64010386D01*
X153828940Y-64010386D01*
X153828940Y-64010387D01*
X154039999Y-64221445D01*
X154251057Y-64010387D01*
X154251053Y-64010386D01*
X154748940Y-64010386D01*
X154748940Y-64010387D01*
X154959999Y-64221445D01*
X155171057Y-64010387D01*
X155038989Y-63975000D01*
X154881010Y-63975000D01*
X154748940Y-64010386D01*
X154251053Y-64010386D01*
X154118989Y-63975000D01*
X153961010Y-63975000D01*
X153828940Y-64010386D01*
X151418200Y-64010386D01*
X151407314Y-63999500D01*
X151407311Y-63999498D01*
X151407309Y-63999496D01*
X151293189Y-63933609D01*
X151293191Y-63933609D01*
X151243799Y-63920375D01*
X151165892Y-63899500D01*
X151034108Y-63899500D01*
X150956200Y-63920375D01*
X150906809Y-63933609D01*
X150792690Y-63999496D01*
X150699496Y-64092690D01*
X150633609Y-64206809D01*
X150619996Y-64257615D01*
X150599500Y-64334108D01*
X139177552Y-64334108D01*
X139882164Y-63629496D01*
X139936681Y-63601719D01*
X139952168Y-63600500D01*
X142442675Y-63600500D01*
X142442677Y-63600500D01*
X142544538Y-63573207D01*
X142544540Y-63573205D01*
X142544542Y-63573205D01*
X142635858Y-63520483D01*
X142635858Y-63520482D01*
X142635863Y-63520480D01*
X142922235Y-63234108D01*
X156499500Y-63234108D01*
X156499500Y-63365892D01*
X156521366Y-63447496D01*
X156533609Y-63493190D01*
X156599496Y-63607309D01*
X156599498Y-63607311D01*
X156599500Y-63607314D01*
X156692686Y-63700500D01*
X156692688Y-63700501D01*
X156692690Y-63700503D01*
X156806810Y-63766390D01*
X156806808Y-63766390D01*
X156806812Y-63766391D01*
X156806814Y-63766392D01*
X156934108Y-63800500D01*
X156934110Y-63800500D01*
X157065890Y-63800500D01*
X157065892Y-63800500D01*
X157193186Y-63766392D01*
X157193188Y-63766390D01*
X157193190Y-63766390D01*
X157307309Y-63700503D01*
X157307309Y-63700502D01*
X157307314Y-63700500D01*
X157400500Y-63607314D01*
X157404434Y-63600500D01*
X157466390Y-63493190D01*
X157466390Y-63493188D01*
X157466392Y-63493186D01*
X157500500Y-63365892D01*
X157500500Y-63234108D01*
X157466392Y-63106814D01*
X157466390Y-63106811D01*
X157466390Y-63106809D01*
X157400503Y-62992690D01*
X157400501Y-62992688D01*
X157400500Y-62992686D01*
X157307314Y-62899500D01*
X157307311Y-62899498D01*
X157307309Y-62899496D01*
X157193189Y-62833609D01*
X157193191Y-62833609D01*
X157143799Y-62820375D01*
X157065892Y-62799500D01*
X156934108Y-62799500D01*
X156856200Y-62820375D01*
X156806809Y-62833609D01*
X156692690Y-62899496D01*
X156599496Y-62992690D01*
X156533609Y-63106809D01*
X156526014Y-63135155D01*
X156499500Y-63234108D01*
X142922235Y-63234108D01*
X145862480Y-60293863D01*
X145882719Y-60258809D01*
X145915205Y-60202542D01*
X145915205Y-60202540D01*
X145915207Y-60202538D01*
X145942500Y-60100677D01*
X145942500Y-59995223D01*
X145942500Y-59515840D01*
X145955763Y-59466341D01*
X146008392Y-59375186D01*
X146042500Y-59247892D01*
X146042500Y-59116108D01*
X146008392Y-58988814D01*
X146005465Y-58983745D01*
X145959999Y-58904995D01*
X145959998Y-58904993D01*
X145942501Y-58874688D01*
X145942500Y-58874686D01*
X145928169Y-58860355D01*
X146690000Y-58860355D01*
X146690000Y-58973999D01*
X146690001Y-58974000D01*
X147309670Y-58974000D01*
X147289925Y-58993745D01*
X147240556Y-59079255D01*
X147215000Y-59174630D01*
X147215000Y-59273370D01*
X147240556Y-59368745D01*
X147289925Y-59454255D01*
X147309670Y-59474000D01*
X146690001Y-59474000D01*
X146690000Y-59474001D01*
X146690000Y-59587644D01*
X146724586Y-59761519D01*
X146724586Y-59761521D01*
X146792429Y-59925308D01*
X146890923Y-60072715D01*
X147016284Y-60198076D01*
X147163689Y-60296569D01*
X147327476Y-60364413D01*
X147340000Y-60366903D01*
X147340000Y-59504330D01*
X147359745Y-59524075D01*
X147445255Y-59573444D01*
X147540630Y-59599000D01*
X147639370Y-59599000D01*
X147734745Y-59573444D01*
X147820255Y-59524075D01*
X147840000Y-59504330D01*
X147840000Y-60366903D01*
X147852523Y-60364413D01*
X148016310Y-60296569D01*
X148163715Y-60198076D01*
X148289076Y-60072715D01*
X148387570Y-59925308D01*
X148455413Y-59761521D01*
X148455413Y-59761519D01*
X148489999Y-59587644D01*
X148490000Y-59587641D01*
X148490000Y-59474001D01*
X148489999Y-59474000D01*
X147870330Y-59474000D01*
X147890075Y-59454255D01*
X147939444Y-59368745D01*
X147965000Y-59273370D01*
X147965000Y-59174630D01*
X147939444Y-59079255D01*
X147890075Y-58993745D01*
X147870330Y-58974000D01*
X148489999Y-58974000D01*
X148490000Y-58973999D01*
X148490000Y-58860358D01*
X148489999Y-58860355D01*
X148455413Y-58686480D01*
X148455413Y-58686478D01*
X148387570Y-58522691D01*
X148289076Y-58375284D01*
X148163715Y-58249923D01*
X148016310Y-58151430D01*
X147852521Y-58083586D01*
X147840000Y-58081095D01*
X147840000Y-58943670D01*
X147820255Y-58923925D01*
X147734745Y-58874556D01*
X147639370Y-58849000D01*
X147540630Y-58849000D01*
X147445255Y-58874556D01*
X147359745Y-58923925D01*
X147340000Y-58943670D01*
X147340000Y-58081095D01*
X147339999Y-58081095D01*
X147327478Y-58083586D01*
X147163689Y-58151430D01*
X147016284Y-58249923D01*
X146890923Y-58375284D01*
X146792429Y-58522691D01*
X146724586Y-58686478D01*
X146724586Y-58686480D01*
X146690000Y-58860355D01*
X145928169Y-58860355D01*
X145849314Y-58781500D01*
X145849311Y-58781498D01*
X145849309Y-58781496D01*
X145735189Y-58715609D01*
X145735191Y-58715609D01*
X145685799Y-58702375D01*
X145607892Y-58681500D01*
X145476108Y-58681500D01*
X145398200Y-58702375D01*
X145348809Y-58715609D01*
X145234690Y-58781496D01*
X145141496Y-58874690D01*
X145075609Y-58988809D01*
X145056539Y-59059978D01*
X145041500Y-59116108D01*
X145041500Y-59247892D01*
X145075608Y-59375186D01*
X145128236Y-59466341D01*
X145141500Y-59515840D01*
X145141500Y-59841049D01*
X145122593Y-59899240D01*
X145112504Y-59911053D01*
X142253053Y-62770504D01*
X142198536Y-62798281D01*
X142183049Y-62799500D01*
X139692540Y-62799500D01*
X139641610Y-62813146D01*
X139590678Y-62826793D01*
X139535623Y-62858578D01*
X139535624Y-62858579D01*
X139499355Y-62879518D01*
X139232003Y-63146870D01*
X139177487Y-63174647D01*
X139117055Y-63165076D01*
X139073790Y-63121811D01*
X139063000Y-63076866D01*
X139063000Y-63061536D01*
X139062999Y-63061532D01*
X139055988Y-63026284D01*
X139022630Y-62858580D01*
X138943441Y-62667402D01*
X138828477Y-62495345D01*
X138682155Y-62349023D01*
X138679168Y-62347027D01*
X138510097Y-62234058D01*
X138318918Y-62154869D01*
X138115967Y-62114500D01*
X138115965Y-62114500D01*
X137909035Y-62114500D01*
X137909032Y-62114500D01*
X137706081Y-62154869D01*
X137514902Y-62234058D01*
X137342848Y-62349020D01*
X137196520Y-62495348D01*
X137081558Y-62667402D01*
X137063558Y-62710859D01*
X137002370Y-62858580D01*
X136962000Y-63061532D01*
X136962000Y-63268467D01*
X137002369Y-63471418D01*
X137081558Y-63662597D01*
X137193583Y-63830255D01*
X137196523Y-63834655D01*
X137207366Y-63845498D01*
X137235142Y-63900013D01*
X137225571Y-63960445D01*
X137182306Y-64003710D01*
X137137361Y-64014500D01*
X136709773Y-64014500D01*
X136665697Y-64026310D01*
X136607911Y-64041793D01*
X136542568Y-64079520D01*
X136542567Y-64079519D01*
X136516586Y-64094520D01*
X135922790Y-64688314D01*
X135868274Y-64716091D01*
X135814902Y-64709774D01*
X135778920Y-64694870D01*
X135575967Y-64654500D01*
X135575965Y-64654500D01*
X135369035Y-64654500D01*
X135369032Y-64654500D01*
X135166081Y-64694869D01*
X134974902Y-64774058D01*
X134802848Y-64889020D01*
X134656520Y-65035348D01*
X134541558Y-65207402D01*
X134462369Y-65398581D01*
X134422000Y-65601532D01*
X134422000Y-65808467D01*
X134462369Y-66011418D01*
X134541558Y-66202597D01*
X134622363Y-66323531D01*
X134656523Y-66374655D01*
X134802845Y-66520977D01*
X134974902Y-66635941D01*
X135166080Y-66715130D01*
X135369035Y-66755500D01*
X135369036Y-66755500D01*
X135575964Y-66755500D01*
X135575965Y-66755500D01*
X135778920Y-66715130D01*
X135970098Y-66635941D01*
X136142155Y-66520977D01*
X136288477Y-66374655D01*
X136403441Y-66202598D01*
X136482630Y-66011420D01*
X136523000Y-65808465D01*
X136523000Y-65601535D01*
X136482630Y-65398580D01*
X136481898Y-65396814D01*
X136467725Y-65362597D01*
X136462923Y-65301601D01*
X136489183Y-65254708D01*
X136899397Y-64844496D01*
X136953913Y-64816719D01*
X136969400Y-64815500D01*
X137177361Y-64815500D01*
X137235552Y-64834407D01*
X137271516Y-64883907D01*
X137271516Y-64945093D01*
X137247366Y-64984501D01*
X137196523Y-65035345D01*
X137196520Y-65035348D01*
X137081558Y-65207402D01*
X137002369Y-65398581D01*
X136962000Y-65601532D01*
X136962000Y-65808467D01*
X137002370Y-66011419D01*
X137002370Y-66011421D01*
X137017274Y-66047402D01*
X137022074Y-66108399D01*
X136995814Y-66155290D01*
X136442020Y-66709086D01*
X136442016Y-66709091D01*
X136389294Y-66800408D01*
X136389292Y-66800413D01*
X136386454Y-66811001D01*
X136386455Y-66811002D01*
X136362000Y-66902273D01*
X136362000Y-67409860D01*
X136343093Y-67468051D01*
X136293593Y-67504015D01*
X136232407Y-67504015D01*
X136192997Y-67479864D01*
X136142154Y-67429022D01*
X135970097Y-67314058D01*
X135778918Y-67234869D01*
X135575967Y-67194500D01*
X135575965Y-67194500D01*
X135369035Y-67194500D01*
X135369032Y-67194500D01*
X135166081Y-67234869D01*
X134974902Y-67314058D01*
X134802848Y-67429020D01*
X134656520Y-67575348D01*
X134541558Y-67747402D01*
X134462369Y-67938581D01*
X134422000Y-68141532D01*
X134422000Y-68348467D01*
X134462369Y-68551418D01*
X134541558Y-68742597D01*
X134590266Y-68815494D01*
X134656523Y-68914655D01*
X134802845Y-69060977D01*
X134974902Y-69175941D01*
X134974903Y-69175941D01*
X134974904Y-69175942D01*
X135111942Y-69232705D01*
X135146652Y-69259337D01*
X135147432Y-69258558D01*
X135454370Y-69565496D01*
X135482147Y-69620013D01*
X135472576Y-69680445D01*
X135429311Y-69723710D01*
X135384366Y-69734500D01*
X135369032Y-69734500D01*
X135166081Y-69774869D01*
X134974902Y-69854058D01*
X134802848Y-69969020D01*
X134656520Y-70115348D01*
X134541558Y-70287402D01*
X134462369Y-70478581D01*
X134422000Y-70681532D01*
X134422000Y-70696866D01*
X134403093Y-70755057D01*
X134353593Y-70791021D01*
X134292407Y-70791021D01*
X134252996Y-70766870D01*
X126547658Y-63061532D01*
X134422000Y-63061532D01*
X134422000Y-63268467D01*
X134462369Y-63471418D01*
X134541558Y-63662597D01*
X134653583Y-63830255D01*
X134656523Y-63834655D01*
X134802845Y-63980977D01*
X134974902Y-64095941D01*
X135166080Y-64175130D01*
X135369035Y-64215500D01*
X135369036Y-64215500D01*
X135575964Y-64215500D01*
X135575965Y-64215500D01*
X135778920Y-64175130D01*
X135970098Y-64095941D01*
X136142155Y-63980977D01*
X136288477Y-63834655D01*
X136403441Y-63662598D01*
X136482630Y-63471420D01*
X136523000Y-63268465D01*
X136523000Y-63061535D01*
X136482630Y-62858580D01*
X136403441Y-62667402D01*
X136288477Y-62495345D01*
X136142155Y-62349023D01*
X136139168Y-62347027D01*
X135970097Y-62234058D01*
X135778918Y-62154869D01*
X135575967Y-62114500D01*
X135575965Y-62114500D01*
X135369035Y-62114500D01*
X135369032Y-62114500D01*
X135166081Y-62154869D01*
X134974902Y-62234058D01*
X134802848Y-62349020D01*
X134656520Y-62495348D01*
X134541558Y-62667402D01*
X134523558Y-62710859D01*
X134462370Y-62858580D01*
X134422000Y-63061532D01*
X126547658Y-63061532D01*
X125905496Y-62419370D01*
X125877719Y-62364853D01*
X125876500Y-62349366D01*
X125876500Y-60785840D01*
X125889763Y-60736341D01*
X125942392Y-60645186D01*
X125976500Y-60517892D01*
X125976500Y-60386108D01*
X125942392Y-60258814D01*
X125942390Y-60258811D01*
X125942390Y-60258809D01*
X125876503Y-60144690D01*
X125876501Y-60144688D01*
X125876500Y-60144686D01*
X125783314Y-60051500D01*
X125783311Y-60051498D01*
X125783309Y-60051496D01*
X125669189Y-59985609D01*
X125669191Y-59985609D01*
X125619799Y-59972375D01*
X125541892Y-59951500D01*
X125410108Y-59951500D01*
X125332200Y-59972375D01*
X125282809Y-59985609D01*
X125168690Y-60051496D01*
X125075496Y-60144690D01*
X125009609Y-60258809D01*
X124998706Y-60299500D01*
X124975500Y-60386108D01*
X119841287Y-60386108D01*
X121458899Y-58768496D01*
X121513416Y-58740719D01*
X121528903Y-58739500D01*
X133744551Y-58739500D01*
X133802742Y-58758407D01*
X133814555Y-58768496D01*
X136068504Y-61022445D01*
X136096281Y-61076962D01*
X136097500Y-61092449D01*
X136097500Y-61380564D01*
X136117978Y-61456988D01*
X136117979Y-61456989D01*
X136145438Y-61504550D01*
X136145439Y-61504552D01*
X136145440Y-61504552D01*
X136157540Y-61525511D01*
X136448490Y-61816461D01*
X136448492Y-61816462D01*
X136448494Y-61816464D01*
X136517009Y-61856021D01*
X136517007Y-61856021D01*
X136517011Y-61856022D01*
X136517013Y-61856023D01*
X136593439Y-61876501D01*
X136593441Y-61876501D01*
X137300809Y-61876501D01*
X137300809Y-61876500D01*
X137377235Y-61856022D01*
X137445757Y-61816461D01*
X137473731Y-61788486D01*
X137501707Y-61760512D01*
X137757670Y-61504548D01*
X137853177Y-61409041D01*
X137887721Y-61349208D01*
X137892738Y-61340519D01*
X137913217Y-61264092D01*
X137913217Y-60630675D01*
X137926480Y-60581176D01*
X137957286Y-60527820D01*
X137991394Y-60400526D01*
X137991394Y-60268742D01*
X137957286Y-60141448D01*
X137957284Y-60141445D01*
X137957284Y-60141443D01*
X137891397Y-60027324D01*
X137891395Y-60027322D01*
X137891394Y-60027320D01*
X137798208Y-59934134D01*
X137798205Y-59934132D01*
X137798203Y-59934130D01*
X137684083Y-59868243D01*
X137684085Y-59868243D01*
X137634693Y-59855009D01*
X137556786Y-59834134D01*
X137425002Y-59834134D01*
X137347094Y-59855009D01*
X137297703Y-59868243D01*
X137183584Y-59934130D01*
X137090390Y-60027324D01*
X137024503Y-60141443D01*
X137024502Y-60141448D01*
X136994936Y-60251793D01*
X136990394Y-60268743D01*
X136990394Y-60289699D01*
X136971487Y-60347890D01*
X136921987Y-60383854D01*
X136860801Y-60383854D01*
X136821390Y-60359703D01*
X135540942Y-59079255D01*
X134260227Y-57798540D01*
X134255199Y-57795637D01*
X134222714Y-57776881D01*
X134222714Y-57776882D01*
X134191705Y-57758979D01*
X134191704Y-57758978D01*
X134191703Y-57758978D01*
X134115280Y-57738500D01*
X134115278Y-57738500D01*
X121596533Y-57738500D01*
X121538342Y-57719593D01*
X121502378Y-57670093D01*
X121502378Y-57608907D01*
X121526529Y-57569496D01*
X122890529Y-56205496D01*
X122945046Y-56177719D01*
X122960533Y-56176500D01*
X137577766Y-56176500D01*
X137635957Y-56195407D01*
X137671921Y-56244907D01*
X137671921Y-56306093D01*
X137635957Y-56355593D01*
X137627267Y-56361236D01*
X137614688Y-56368498D01*
X137521496Y-56461690D01*
X137455609Y-56575809D01*
X137455608Y-56575814D01*
X137421500Y-56703108D01*
X137421500Y-56834892D01*
X137451579Y-56947151D01*
X137455609Y-56962190D01*
X137521496Y-57076309D01*
X137521498Y-57076311D01*
X137521500Y-57076314D01*
X137614686Y-57169500D01*
X137614688Y-57169501D01*
X137614690Y-57169503D01*
X137728810Y-57235390D01*
X137728808Y-57235390D01*
X137728812Y-57235391D01*
X137728814Y-57235392D01*
X137856108Y-57269500D01*
X137856110Y-57269500D01*
X137987890Y-57269500D01*
X137987892Y-57269500D01*
X138115186Y-57235392D01*
X138190000Y-57192197D01*
X138249847Y-57179476D01*
X138288998Y-57192197D01*
X138363814Y-57235392D01*
X138491108Y-57269500D01*
X138491110Y-57269500D01*
X138622890Y-57269500D01*
X138622892Y-57269500D01*
X138750186Y-57235392D01*
X138750188Y-57235390D01*
X138750190Y-57235390D01*
X138864309Y-57169503D01*
X138864309Y-57169502D01*
X138864314Y-57169500D01*
X138957500Y-57076314D01*
X139023392Y-56962186D01*
X139057500Y-56834892D01*
X139057500Y-56703108D01*
X139023392Y-56575814D01*
X139023390Y-56575811D01*
X139023390Y-56575809D01*
X138957503Y-56461690D01*
X138957501Y-56461688D01*
X138957500Y-56461686D01*
X138864314Y-56368500D01*
X138864311Y-56368498D01*
X138851733Y-56361236D01*
X138810793Y-56315766D01*
X138804398Y-56254916D01*
X138834991Y-56201928D01*
X138890887Y-56177042D01*
X138901234Y-56176500D01*
X141260766Y-56176500D01*
X141318957Y-56195407D01*
X141354921Y-56244907D01*
X141354921Y-56306093D01*
X141318957Y-56355593D01*
X141310267Y-56361236D01*
X141297688Y-56368498D01*
X141204496Y-56461690D01*
X141138609Y-56575809D01*
X141138608Y-56575814D01*
X141104500Y-56703108D01*
X141104500Y-56834892D01*
X141134579Y-56947151D01*
X141138609Y-56962190D01*
X141204496Y-57076309D01*
X141204498Y-57076311D01*
X141204500Y-57076314D01*
X141297686Y-57169500D01*
X141297688Y-57169501D01*
X141297690Y-57169503D01*
X141411810Y-57235390D01*
X141411808Y-57235390D01*
X141411812Y-57235391D01*
X141411814Y-57235392D01*
X141539108Y-57269500D01*
X141539110Y-57269500D01*
X141670890Y-57269500D01*
X141670892Y-57269500D01*
X141798186Y-57235392D01*
X141873000Y-57192197D01*
X141932847Y-57179476D01*
X141971998Y-57192197D01*
X142046814Y-57235392D01*
X142174108Y-57269500D01*
X142174110Y-57269500D01*
X142305890Y-57269500D01*
X142305892Y-57269500D01*
X142433186Y-57235392D01*
X142433188Y-57235390D01*
X142433190Y-57235390D01*
X142547309Y-57169503D01*
X142547309Y-57169502D01*
X142547314Y-57169500D01*
X142640500Y-57076314D01*
X142706392Y-56962186D01*
X142740500Y-56834892D01*
X142740500Y-56703108D01*
X142706392Y-56575814D01*
X142706390Y-56575811D01*
X142706390Y-56575809D01*
X142640503Y-56461690D01*
X142640501Y-56461688D01*
X142640500Y-56461686D01*
X142547314Y-56368500D01*
X142547311Y-56368498D01*
X142534733Y-56361236D01*
X142493793Y-56315766D01*
X142487398Y-56254916D01*
X142517991Y-56201928D01*
X142573887Y-56177042D01*
X142584234Y-56176500D01*
X170418967Y-56176500D01*
X170477158Y-56195407D01*
X170488971Y-56205496D01*
X174172504Y-59889029D01*
X174200281Y-59943546D01*
X174201500Y-59959033D01*
X174201500Y-72571525D01*
X174201500Y-73333525D01*
X174201500Y-74095525D01*
X174201500Y-74857525D01*
X174201500Y-75256475D01*
X174222294Y-75334078D01*
X174239017Y-75396489D01*
X174311487Y-75522010D01*
X174311489Y-75522012D01*
X174311491Y-75522015D01*
X174413985Y-75624509D01*
X174413987Y-75624510D01*
X174413989Y-75624512D01*
X174539511Y-75696982D01*
X174539512Y-75696982D01*
X174539515Y-75696984D01*
X174679525Y-75734500D01*
X174679526Y-75734500D01*
X174824474Y-75734500D01*
X174824475Y-75734500D01*
X174964485Y-75696984D01*
X174964487Y-75696982D01*
X174964489Y-75696982D01*
X175090010Y-75624512D01*
X175090010Y-75624511D01*
X175090015Y-75624509D01*
X175192509Y-75522015D01*
X175264984Y-75396485D01*
X175302500Y-75256475D01*
X175302500Y-74857525D01*
X175302500Y-74095525D01*
X175302500Y-73333525D01*
X175302500Y-72571525D01*
X175302500Y-59617525D01*
X175264984Y-59477515D01*
X175260595Y-59469913D01*
X175260593Y-59469909D01*
X175260593Y-59469908D01*
X175192511Y-59351987D01*
X175192510Y-59351985D01*
X171120026Y-55279501D01*
X171092251Y-55224987D01*
X171101822Y-55164555D01*
X171145087Y-55121290D01*
X171190032Y-55110500D01*
X177200500Y-55110500D01*
X177258691Y-55129407D01*
G37*
%TD.AperFunction*%
%TA.AperFunction,Conductor*%
G36*
X118487945Y-60704822D02*
G01*
X118531210Y-60748087D01*
X118542000Y-60793032D01*
X118542000Y-62289861D01*
X118523093Y-62348052D01*
X118473593Y-62384016D01*
X118412407Y-62384016D01*
X118372998Y-62359866D01*
X118362155Y-62349023D01*
X118359168Y-62347027D01*
X118190097Y-62234058D01*
X117998918Y-62154869D01*
X117795967Y-62114500D01*
X117795965Y-62114500D01*
X117589035Y-62114500D01*
X117589032Y-62114500D01*
X117386081Y-62154869D01*
X117194902Y-62234058D01*
X117027309Y-62346039D01*
X116968420Y-62362647D01*
X116911017Y-62341469D01*
X116877025Y-62290595D01*
X116879427Y-62229457D01*
X116902301Y-62193722D01*
X118372997Y-60723027D01*
X118427513Y-60695251D01*
X118487945Y-60704822D01*
G37*
%TD.AperFunction*%
%TD*%
M02*
