%TF.GenerationSoftware,KiCad,Pcbnew,10.0.3*%
%TF.CreationDate,2026-06-20T01:06:26+03:00*%
%TF.ProjectId,airbox,61697262-6f78-42e6-9b69-6361645f7063,rev?*%
%TF.SameCoordinates,Original*%
%TF.FileFunction,Legend,Top*%
%TF.FilePolarity,Positive*%
%FSLAX46Y46*%
G04 Gerber Fmt 4.6, Leading zero omitted, Abs format (unit mm)*
G04 Created by KiCad (PCBNEW 10.0.3) date 2026-06-20 01:06:26*
%MOMM*%
%LPD*%
G01*
G04 APERTURE LIST*
G04 Aperture macros list*
%AMRoundRect*
0 Rectangle with rounded corners*
0 $1 Rounding radius*
0 $2 $3 $4 $5 $6 $7 $8 $9 X,Y pos of 4 corners*
0 Add a 4 corners polygon primitive as box body*
4,1,4,$2,$3,$4,$5,$6,$7,$8,$9,$2,$3,0*
0 Add four circle primitives for the rounded corners*
1,1,$1+$1,$2,$3*
1,1,$1+$1,$4,$5*
1,1,$1+$1,$6,$7*
1,1,$1+$1,$8,$9*
0 Add four rect primitives between the rounded corners*
20,1,$1+$1,$2,$3,$4,$5,0*
20,1,$1+$1,$4,$5,$6,$7,0*
20,1,$1+$1,$6,$7,$8,$9,0*
20,1,$1+$1,$8,$9,$2,$3,0*%
%AMFreePoly0*
4,1,19,-0.850000,0.510000,-0.510000,0.850000,0.255000,0.850000,0.408997,0.829726,0.552500,0.770285,0.675729,0.675729,0.770285,0.552500,0.829726,0.408997,0.850000,0.255000,0.850000,-0.510000,0.510000,-0.850000,-0.255000,-0.850000,-0.408997,-0.829726,-0.552500,-0.770285,-0.675729,-0.675729,-0.770285,-0.552500,-0.829726,-0.408997,-0.850000,-0.255000,-0.850000,0.510000,-0.850000,0.510000,
$1*%
%AMFreePoly1*
4,1,29,-0.590000,1.425000,-0.330000,1.425000,-0.330000,2.200000,-0.130000,2.200000,-0.130000,1.425000,0.130000,1.425000,0.130000,2.200000,0.330000,2.200000,0.330000,1.425000,0.590000,1.425000,0.590000,2.200000,0.790000,2.200000,0.790000,-2.200000,0.590000,-2.200000,0.590000,-1.425000,0.330000,-1.425000,0.330000,-2.200000,0.130000,-2.200000,0.130000,-1.425000,-0.130000,-1.425000,
-0.130000,-2.200000,-0.330000,-2.200000,-0.330000,-1.425000,-0.590000,-1.425000,-0.590000,-2.200000,-0.790000,-2.200000,-0.790000,2.200000,-0.590000,2.200000,-0.590000,1.425000,-0.590000,1.425000,$1*%
G04 Aperture macros list end*
%ADD10C,0.200000*%
%ADD11C,0.400000*%
%ADD12C,0.300000*%
%ADD13C,0.700000*%
%ADD14C,0.299983*%
%ADD15C,0.300006*%
%ADD16C,0.299976*%
%ADD17C,0.140000*%
%ADD18C,0.300011*%
%ADD19C,0.299975*%
%ADD20C,0.299951*%
%ADD21C,0.300050*%
%ADD22C,0.299969*%
%ADD23RoundRect,0.150000X0.150000X-0.587500X0.150000X0.587500X-0.150000X0.587500X-0.150000X-0.587500X0*%
%ADD24RoundRect,0.249999X1.450001X-0.450001X1.450001X0.450001X-1.450001X0.450001X-1.450001X-0.450001X0*%
%ADD25C,0.800000*%
%ADD26C,6.400000*%
%ADD27RoundRect,0.249999X-0.450001X-1.450001X0.450001X-1.450001X0.450001X1.450001X-0.450001X1.450001X0*%
%ADD28RoundRect,0.250000X0.900000X-1.500000X0.900000X1.500000X-0.900000X1.500000X-0.900000X-1.500000X0*%
%ADD29RoundRect,0.249999X1.075001X-0.450001X1.075001X0.450001X-1.075001X0.450001X-1.075001X-0.450001X0*%
%ADD30RoundRect,0.249999X-0.450001X-1.075001X0.450001X-1.075001X0.450001X1.075001X-0.450001X1.075001X0*%
%ADD31FreePoly0,180.000000*%
%ADD32C,1.700000*%
%ADD33C,1.500000*%
%ADD34RoundRect,0.249999X-1.075001X0.450001X-1.075001X-0.450001X1.075001X-0.450001X1.075001X0.450001X0*%
%ADD35RoundRect,0.250000X-0.625000X0.350000X-0.625000X-0.350000X0.625000X-0.350000X0.625000X0.350000X0*%
%ADD36O,1.750000X1.200000*%
%ADD37R,0.203200X0.762000*%
%ADD38R,1.600200X0.990600*%
%ADD39RoundRect,0.250001X0.499999X0.999999X-0.499999X0.999999X-0.499999X-0.999999X0.499999X-0.999999X0*%
%ADD40RoundRect,0.249999X-1.450001X0.450001X-1.450001X-0.450001X1.450001X-0.450001X1.450001X0.450001X0*%
%ADD41RoundRect,0.060000X-0.240000X-0.060000X0.240000X-0.060000X0.240000X0.060000X-0.240000X0.060000X0*%
%ADD42C,0.600000*%
%ADD43FreePoly1,0.000000*%
%ADD44R,0.300000X1.600000*%
%ADD45RoundRect,0.250000X0.400000X1.075000X-0.400000X1.075000X-0.400000X-1.075000X0.400000X-1.075000X0*%
%ADD46RoundRect,0.250000X0.350000X0.625000X-0.350000X0.625000X-0.350000X-0.625000X0.350000X-0.625000X0*%
%ADD47O,1.200000X1.750000*%
%ADD48RoundRect,0.249999X0.450001X1.075001X-0.450001X1.075001X-0.450001X-1.075001X0.450001X-1.075001X0*%
G04 APERTURE END LIST*
D10*
X148777079Y-89869764D02*
X149348508Y-89869764D01*
X148662793Y-90212621D02*
X149062793Y-89012621D01*
X149062793Y-89012621D02*
X149462793Y-90212621D01*
X150034221Y-90212621D02*
X149919936Y-90155479D01*
X149919936Y-90155479D02*
X149862793Y-90041193D01*
X149862793Y-90041193D02*
X149862793Y-89012621D01*
X151005650Y-90212621D02*
X151005650Y-89584050D01*
X151005650Y-89584050D02*
X150948507Y-89469764D01*
X150948507Y-89469764D02*
X150834221Y-89412621D01*
X150834221Y-89412621D02*
X150605650Y-89412621D01*
X150605650Y-89412621D02*
X150491364Y-89469764D01*
X151005650Y-90155479D02*
X150891364Y-90212621D01*
X150891364Y-90212621D02*
X150605650Y-90212621D01*
X150605650Y-90212621D02*
X150491364Y-90155479D01*
X150491364Y-90155479D02*
X150434221Y-90041193D01*
X150434221Y-90041193D02*
X150434221Y-89926907D01*
X150434221Y-89926907D02*
X150491364Y-89812621D01*
X150491364Y-89812621D02*
X150605650Y-89755479D01*
X150605650Y-89755479D02*
X150891364Y-89755479D01*
X150891364Y-89755479D02*
X151005650Y-89698336D01*
X152091364Y-90155479D02*
X151977078Y-90212621D01*
X151977078Y-90212621D02*
X151748506Y-90212621D01*
X151748506Y-90212621D02*
X151634221Y-90155479D01*
X151634221Y-90155479D02*
X151577078Y-90098336D01*
X151577078Y-90098336D02*
X151519935Y-89984050D01*
X151519935Y-89984050D02*
X151519935Y-89641193D01*
X151519935Y-89641193D02*
X151577078Y-89526907D01*
X151577078Y-89526907D02*
X151634221Y-89469764D01*
X151634221Y-89469764D02*
X151748506Y-89412621D01*
X151748506Y-89412621D02*
X151977078Y-89412621D01*
X151977078Y-89412621D02*
X152091364Y-89469764D01*
X152605649Y-90212621D02*
X152605649Y-89412621D01*
X152605649Y-89641193D02*
X152662792Y-89526907D01*
X152662792Y-89526907D02*
X152719935Y-89469764D01*
X152719935Y-89469764D02*
X152834220Y-89412621D01*
X152834220Y-89412621D02*
X152948506Y-89412621D01*
X153348506Y-90212621D02*
X153348506Y-89412621D01*
X153348506Y-89012621D02*
X153291363Y-89069764D01*
X153291363Y-89069764D02*
X153348506Y-89126907D01*
X153348506Y-89126907D02*
X153405649Y-89069764D01*
X153405649Y-89069764D02*
X153348506Y-89012621D01*
X153348506Y-89012621D02*
X153348506Y-89126907D01*
X153748506Y-89412621D02*
X154205649Y-89412621D01*
X153919935Y-89012621D02*
X153919935Y-90041193D01*
X153919935Y-90041193D02*
X153977078Y-90155479D01*
X153977078Y-90155479D02*
X154091363Y-90212621D01*
X154091363Y-90212621D02*
X154205649Y-90212621D01*
X154491363Y-89412621D02*
X154777077Y-90212621D01*
X155062792Y-89412621D02*
X154777077Y-90212621D01*
X154777077Y-90212621D02*
X154662792Y-90498336D01*
X154662792Y-90498336D02*
X154605649Y-90555479D01*
X154605649Y-90555479D02*
X154491363Y-90612621D01*
X156377078Y-89869764D02*
X156948507Y-89869764D01*
X156262792Y-90212621D02*
X156662792Y-89012621D01*
X156662792Y-89012621D02*
X157062792Y-90212621D01*
X157462792Y-90212621D02*
X157462792Y-89412621D01*
X157462792Y-89012621D02*
X157405649Y-89069764D01*
X157405649Y-89069764D02*
X157462792Y-89126907D01*
X157462792Y-89126907D02*
X157519935Y-89069764D01*
X157519935Y-89069764D02*
X157462792Y-89012621D01*
X157462792Y-89012621D02*
X157462792Y-89126907D01*
X158034221Y-90212621D02*
X158034221Y-89412621D01*
X158034221Y-89641193D02*
X158091364Y-89526907D01*
X158091364Y-89526907D02*
X158148507Y-89469764D01*
X158148507Y-89469764D02*
X158262792Y-89412621D01*
X158262792Y-89412621D02*
X158377078Y-89412621D01*
X158777078Y-90212621D02*
X158777078Y-89012621D01*
X158777078Y-89469764D02*
X158891364Y-89412621D01*
X158891364Y-89412621D02*
X159119935Y-89412621D01*
X159119935Y-89412621D02*
X159234221Y-89469764D01*
X159234221Y-89469764D02*
X159291364Y-89526907D01*
X159291364Y-89526907D02*
X159348506Y-89641193D01*
X159348506Y-89641193D02*
X159348506Y-89984050D01*
X159348506Y-89984050D02*
X159291364Y-90098336D01*
X159291364Y-90098336D02*
X159234221Y-90155479D01*
X159234221Y-90155479D02*
X159119935Y-90212621D01*
X159119935Y-90212621D02*
X158891364Y-90212621D01*
X158891364Y-90212621D02*
X158777078Y-90155479D01*
X160034220Y-90212621D02*
X159919935Y-90155479D01*
X159919935Y-90155479D02*
X159862792Y-90098336D01*
X159862792Y-90098336D02*
X159805649Y-89984050D01*
X159805649Y-89984050D02*
X159805649Y-89641193D01*
X159805649Y-89641193D02*
X159862792Y-89526907D01*
X159862792Y-89526907D02*
X159919935Y-89469764D01*
X159919935Y-89469764D02*
X160034220Y-89412621D01*
X160034220Y-89412621D02*
X160205649Y-89412621D01*
X160205649Y-89412621D02*
X160319935Y-89469764D01*
X160319935Y-89469764D02*
X160377078Y-89526907D01*
X160377078Y-89526907D02*
X160434220Y-89641193D01*
X160434220Y-89641193D02*
X160434220Y-89984050D01*
X160434220Y-89984050D02*
X160377078Y-90098336D01*
X160377078Y-90098336D02*
X160319935Y-90155479D01*
X160319935Y-90155479D02*
X160205649Y-90212621D01*
X160205649Y-90212621D02*
X160034220Y-90212621D01*
X160834220Y-90212621D02*
X161462792Y-89412621D01*
X160834220Y-89412621D02*
X161462792Y-90212621D01*
X163234221Y-89584050D02*
X163405649Y-89641193D01*
X163405649Y-89641193D02*
X163462792Y-89698336D01*
X163462792Y-89698336D02*
X163519935Y-89812621D01*
X163519935Y-89812621D02*
X163519935Y-89984050D01*
X163519935Y-89984050D02*
X163462792Y-90098336D01*
X163462792Y-90098336D02*
X163405649Y-90155479D01*
X163405649Y-90155479D02*
X163291364Y-90212621D01*
X163291364Y-90212621D02*
X162834221Y-90212621D01*
X162834221Y-90212621D02*
X162834221Y-89012621D01*
X162834221Y-89012621D02*
X163234221Y-89012621D01*
X163234221Y-89012621D02*
X163348507Y-89069764D01*
X163348507Y-89069764D02*
X163405649Y-89126907D01*
X163405649Y-89126907D02*
X163462792Y-89241193D01*
X163462792Y-89241193D02*
X163462792Y-89355479D01*
X163462792Y-89355479D02*
X163405649Y-89469764D01*
X163405649Y-89469764D02*
X163348507Y-89526907D01*
X163348507Y-89526907D02*
X163234221Y-89584050D01*
X163234221Y-89584050D02*
X162834221Y-89584050D01*
X164205649Y-90212621D02*
X164091364Y-90155479D01*
X164091364Y-90155479D02*
X164034221Y-90098336D01*
X164034221Y-90098336D02*
X163977078Y-89984050D01*
X163977078Y-89984050D02*
X163977078Y-89641193D01*
X163977078Y-89641193D02*
X164034221Y-89526907D01*
X164034221Y-89526907D02*
X164091364Y-89469764D01*
X164091364Y-89469764D02*
X164205649Y-89412621D01*
X164205649Y-89412621D02*
X164377078Y-89412621D01*
X164377078Y-89412621D02*
X164491364Y-89469764D01*
X164491364Y-89469764D02*
X164548507Y-89526907D01*
X164548507Y-89526907D02*
X164605649Y-89641193D01*
X164605649Y-89641193D02*
X164605649Y-89984050D01*
X164605649Y-89984050D02*
X164548507Y-90098336D01*
X164548507Y-90098336D02*
X164491364Y-90155479D01*
X164491364Y-90155479D02*
X164377078Y-90212621D01*
X164377078Y-90212621D02*
X164205649Y-90212621D01*
X165291363Y-90212621D02*
X165177078Y-90155479D01*
X165177078Y-90155479D02*
X165119935Y-90098336D01*
X165119935Y-90098336D02*
X165062792Y-89984050D01*
X165062792Y-89984050D02*
X165062792Y-89641193D01*
X165062792Y-89641193D02*
X165119935Y-89526907D01*
X165119935Y-89526907D02*
X165177078Y-89469764D01*
X165177078Y-89469764D02*
X165291363Y-89412621D01*
X165291363Y-89412621D02*
X165462792Y-89412621D01*
X165462792Y-89412621D02*
X165577078Y-89469764D01*
X165577078Y-89469764D02*
X165634221Y-89526907D01*
X165634221Y-89526907D02*
X165691363Y-89641193D01*
X165691363Y-89641193D02*
X165691363Y-89984050D01*
X165691363Y-89984050D02*
X165634221Y-90098336D01*
X165634221Y-90098336D02*
X165577078Y-90155479D01*
X165577078Y-90155479D02*
X165462792Y-90212621D01*
X165462792Y-90212621D02*
X165291363Y-90212621D01*
X166034220Y-89412621D02*
X166491363Y-89412621D01*
X166205649Y-89012621D02*
X166205649Y-90041193D01*
X166205649Y-90041193D02*
X166262792Y-90155479D01*
X166262792Y-90155479D02*
X166377077Y-90212621D01*
X166377077Y-90212621D02*
X166491363Y-90212621D01*
X167405649Y-90155479D02*
X167291363Y-90212621D01*
X167291363Y-90212621D02*
X167062791Y-90212621D01*
X167062791Y-90212621D02*
X166948506Y-90155479D01*
X166948506Y-90155479D02*
X166891363Y-90098336D01*
X166891363Y-90098336D02*
X166834220Y-89984050D01*
X166834220Y-89984050D02*
X166834220Y-89641193D01*
X166834220Y-89641193D02*
X166891363Y-89526907D01*
X166891363Y-89526907D02*
X166948506Y-89469764D01*
X166948506Y-89469764D02*
X167062791Y-89412621D01*
X167062791Y-89412621D02*
X167291363Y-89412621D01*
X167291363Y-89412621D02*
X167405649Y-89469764D01*
X168434220Y-90212621D02*
X168434220Y-89584050D01*
X168434220Y-89584050D02*
X168377077Y-89469764D01*
X168377077Y-89469764D02*
X168262791Y-89412621D01*
X168262791Y-89412621D02*
X168034220Y-89412621D01*
X168034220Y-89412621D02*
X167919934Y-89469764D01*
X168434220Y-90155479D02*
X168319934Y-90212621D01*
X168319934Y-90212621D02*
X168034220Y-90212621D01*
X168034220Y-90212621D02*
X167919934Y-90155479D01*
X167919934Y-90155479D02*
X167862791Y-90041193D01*
X167862791Y-90041193D02*
X167862791Y-89926907D01*
X167862791Y-89926907D02*
X167919934Y-89812621D01*
X167919934Y-89812621D02*
X168034220Y-89755479D01*
X168034220Y-89755479D02*
X168319934Y-89755479D01*
X168319934Y-89755479D02*
X168434220Y-89698336D01*
X169005648Y-90212621D02*
X169005648Y-89412621D01*
X169005648Y-89526907D02*
X169062791Y-89469764D01*
X169062791Y-89469764D02*
X169177076Y-89412621D01*
X169177076Y-89412621D02*
X169348505Y-89412621D01*
X169348505Y-89412621D02*
X169462791Y-89469764D01*
X169462791Y-89469764D02*
X169519934Y-89584050D01*
X169519934Y-89584050D02*
X169519934Y-90212621D01*
X169519934Y-89584050D02*
X169577076Y-89469764D01*
X169577076Y-89469764D02*
X169691362Y-89412621D01*
X169691362Y-89412621D02*
X169862791Y-89412621D01*
X169862791Y-89412621D02*
X169977076Y-89469764D01*
X169977076Y-89469764D02*
X170034219Y-89584050D01*
X170034219Y-89584050D02*
X170034219Y-90212621D01*
X170605648Y-89412621D02*
X170605648Y-90612621D01*
X170605648Y-89469764D02*
X170719934Y-89412621D01*
X170719934Y-89412621D02*
X170948505Y-89412621D01*
X170948505Y-89412621D02*
X171062791Y-89469764D01*
X171062791Y-89469764D02*
X171119934Y-89526907D01*
X171119934Y-89526907D02*
X171177076Y-89641193D01*
X171177076Y-89641193D02*
X171177076Y-89984050D01*
X171177076Y-89984050D02*
X171119934Y-90098336D01*
X171119934Y-90098336D02*
X171062791Y-90155479D01*
X171062791Y-90155479D02*
X170948505Y-90212621D01*
X170948505Y-90212621D02*
X170719934Y-90212621D01*
X170719934Y-90212621D02*
X170605648Y-90155479D01*
G36*
X139208390Y-83077549D02*
G01*
X139228494Y-83093353D01*
X146313484Y-89956938D01*
X146347938Y-90017722D01*
X146344060Y-90087484D01*
X146303082Y-90144075D01*
X146238013Y-90169528D01*
X146227205Y-90170000D01*
X112827362Y-90170000D01*
X112760323Y-90150315D01*
X112739681Y-90133681D01*
X109256319Y-86650319D01*
X109222834Y-86588996D01*
X109220000Y-86562638D01*
X109220000Y-83428681D01*
X109239685Y-83361642D01*
X109292489Y-83315887D01*
X109342975Y-83304685D01*
X139141190Y-83058419D01*
X139208390Y-83077549D01*
G37*
G36*
X108655039Y-83331685D02*
G01*
X108700794Y-83384489D01*
X108712000Y-83436000D01*
X108712000Y-86868000D01*
X111802319Y-89958319D01*
X111835804Y-90019642D01*
X111830820Y-90089334D01*
X111788948Y-90145267D01*
X111723484Y-90169684D01*
X111714638Y-90170000D01*
X111046234Y-90170000D01*
X110979195Y-90150315D01*
X110962444Y-90137407D01*
X107990210Y-87412859D01*
X107954093Y-87353048D01*
X107950000Y-87321452D01*
X107950000Y-83436000D01*
X107969685Y-83368961D01*
X108022489Y-83323206D01*
X108074000Y-83312000D01*
X108588000Y-83312000D01*
X108655039Y-83331685D01*
G37*
%LPC*%
D11*
X102103000Y-72268000D02*
X104094000Y-70277000D01*
X102103000Y-78773214D02*
X102103000Y-72268000D01*
X102704786Y-79375000D02*
X102103000Y-78773214D01*
X103378000Y-76359000D02*
X104409000Y-77390000D01*
X103378000Y-80359000D02*
X104409000Y-81390000D01*
X104094000Y-70277000D02*
X104094000Y-68012000D01*
X104094000Y-72812000D02*
X105029000Y-73747000D01*
X104394000Y-79375000D02*
X102704786Y-79375000D01*
X104409000Y-77390000D02*
X105029000Y-77390000D01*
X104409000Y-81390000D02*
X105029000Y-81390000D01*
X105029000Y-73747000D02*
X105029000Y-77390000D01*
X105029000Y-77390000D02*
X111087500Y-77390000D01*
X105029000Y-80010000D02*
X104394000Y-79375000D01*
X105029000Y-81390000D02*
X105029000Y-80010000D01*
X105029000Y-81390000D02*
X112939733Y-81390000D01*
X107945000Y-58799786D02*
X107945000Y-69115000D01*
X107945000Y-69115000D02*
X109220000Y-70390000D01*
X108578786Y-58166000D02*
X107945000Y-58799786D01*
X109220000Y-57214000D02*
X110300000Y-57214000D01*
X109220000Y-65214000D02*
X111252000Y-67246000D01*
X110300000Y-57214000D02*
X111252000Y-58166000D01*
X111087500Y-77390000D02*
X115152500Y-73325000D01*
X111252000Y-58166000D02*
X108578786Y-58166000D01*
X111252000Y-67246000D02*
X111252000Y-70866000D01*
D12*
X111402000Y-70866000D02*
G75*
G02*
X111102000Y-70866000I-150000J0D01*
G01*
X111102000Y-70866000D02*
G75*
G02*
X111402000Y-70866000I150000J0D01*
G01*
D11*
X112939733Y-81390000D02*
X114674733Y-79655000D01*
X113030000Y-67024000D02*
X109220000Y-63214000D01*
X113030000Y-68410000D02*
X113030000Y-67024000D01*
X113379000Y-72231000D02*
X109220000Y-76390000D01*
X113379000Y-72231000D02*
X113535000Y-72075000D01*
X113379000Y-72231000D02*
X113538000Y-72072000D01*
X113535000Y-72075000D02*
X123129000Y-72075000D01*
D12*
X113688000Y-71120000D02*
G75*
G02*
X113388000Y-71120000I-150000J0D01*
G01*
X113388000Y-71120000D02*
G75*
G02*
X113688000Y-71120000I150000J0D01*
G01*
D11*
X113538000Y-72072000D02*
X113538000Y-71120000D01*
X113792000Y-65786000D02*
X109220000Y-61214000D01*
X113792000Y-67056000D02*
X113792000Y-65786000D01*
D12*
X113942000Y-67056000D02*
G75*
G02*
X113642000Y-67056000I-150000J0D01*
G01*
X113642000Y-67056000D02*
G75*
G02*
X113942000Y-67056000I150000J0D01*
G01*
D11*
X114115000Y-69495000D02*
X109220000Y-74390000D01*
X114115000Y-69495000D02*
X113030000Y-68410000D01*
X114115000Y-69495000D02*
X119888000Y-69495000D01*
X114674733Y-79655000D02*
X118210267Y-79655000D01*
D10*
X115152500Y-80945000D02*
X115408000Y-80945000D01*
X115408000Y-80945000D02*
X116459000Y-81996000D01*
D11*
X115636000Y-59611500D02*
X116984500Y-60960000D01*
X116156500Y-58166000D02*
X111252000Y-58166000D01*
D12*
X116609000Y-81996000D02*
G75*
G02*
X116309000Y-81996000I-150000J0D01*
G01*
X116309000Y-81996000D02*
G75*
G02*
X116609000Y-81996000I150000J0D01*
G01*
D11*
X116586000Y-57736500D02*
X116156500Y-58166000D01*
X116984500Y-60960000D02*
X117742000Y-60960000D01*
D13*
X117536000Y-58502702D02*
X120412702Y-55626000D01*
X117536000Y-59611500D02*
X117536000Y-58502702D01*
D10*
X117692500Y-80945000D02*
X118842500Y-82095000D01*
D11*
X117742000Y-60960000D02*
X118307000Y-60395000D01*
X118210267Y-79655000D02*
X119634000Y-78231267D01*
X118307000Y-60395000D02*
X120536000Y-58166000D01*
X118307000Y-60509000D02*
X118307000Y-60395000D01*
D10*
X118842500Y-82095000D02*
X140371672Y-82095000D01*
D12*
X119784000Y-73152000D02*
G75*
G02*
X119484000Y-73152000I-150000J0D01*
G01*
X119484000Y-73152000D02*
G75*
G02*
X119784000Y-73152000I150000J0D01*
G01*
D11*
X119634000Y-75806000D02*
X119634000Y-73152000D01*
X119634000Y-78231267D02*
X119634000Y-75806000D01*
X119888000Y-69495000D02*
X123151000Y-69495000D01*
X119888000Y-71120000D02*
X119888000Y-69495000D01*
D12*
X120038000Y-71120000D02*
G75*
G02*
X119738000Y-71120000I-150000J0D01*
G01*
X119738000Y-71120000D02*
G75*
G02*
X120038000Y-71120000I150000J0D01*
G01*
D13*
X120412702Y-55626000D02*
X122682000Y-55626000D01*
D11*
X120536000Y-62738000D02*
X118307000Y-60509000D01*
X121920000Y-67818000D02*
X121920000Y-65926000D01*
D12*
X122070000Y-67818000D02*
G75*
G02*
X121770000Y-67818000I-150000J0D01*
G01*
X121770000Y-67818000D02*
G75*
G02*
X122070000Y-67818000I150000J0D01*
G01*
D11*
X121920000Y-78092000D02*
X119634000Y-75806000D01*
X122682000Y-55626000D02*
X122682000Y-65786000D01*
D13*
X122682000Y-55626000D02*
X141607000Y-55626000D01*
D11*
X123129000Y-72075000D02*
X123133000Y-72079000D01*
X123133000Y-72079000D02*
X121920000Y-73292000D01*
X123151000Y-69495000D02*
X121920000Y-70726000D01*
X123650000Y-68996000D02*
X123151000Y-69495000D01*
X123768000Y-71444000D02*
X123133000Y-72079000D01*
X124206000Y-70358000D02*
X124206000Y-71006000D01*
X124206000Y-71006000D02*
X123768000Y-71444000D01*
X124460000Y-72136000D02*
X123768000Y-71444000D01*
D12*
X124610000Y-72136000D02*
G75*
G02*
X124310000Y-72136000I-150000J0D01*
G01*
X124310000Y-72136000D02*
G75*
G02*
X124610000Y-72136000I150000J0D01*
G01*
D11*
X124968000Y-69596000D02*
X124206000Y-70358000D01*
X125476000Y-58306000D02*
X125336000Y-58166000D01*
X125476000Y-60452000D02*
X125476000Y-58306000D01*
D12*
X125626000Y-60452000D02*
G75*
G02*
X125326000Y-60452000I-150000J0D01*
G01*
X125326000Y-60452000D02*
G75*
G02*
X125626000Y-60452000I150000J0D01*
G01*
D11*
X126492000Y-70840000D02*
X126492000Y-73406000D01*
X126492000Y-73406000D02*
X127701000Y-74615000D01*
X127701000Y-74615000D02*
X136762500Y-74615000D01*
X128095000Y-79695000D02*
X126492000Y-78092000D01*
X129159000Y-62344000D02*
X129159000Y-65019834D01*
X129159000Y-65019834D02*
X129339000Y-65199834D01*
X129339000Y-65199834D02*
X129339000Y-66652166D01*
X129339000Y-66652166D02*
X129742834Y-67056000D01*
X129742834Y-67056000D02*
X134893733Y-67056000D01*
X131064000Y-70866000D02*
X131064000Y-73432000D01*
X131064000Y-73432000D02*
X135365500Y-73432000D01*
X132041000Y-77115000D02*
X131064000Y-78092000D01*
X132385166Y-69596000D02*
X124968000Y-69596000D01*
X133683500Y-68996000D02*
X123650000Y-68996000D01*
D10*
X134322500Y-62654500D02*
X134322500Y-63881346D01*
X134322500Y-63881346D02*
X134996154Y-64555000D01*
D11*
X134366000Y-71576834D02*
X132385166Y-69596000D01*
X134366000Y-71628000D02*
X134366000Y-71576834D01*
X134773000Y-72035000D02*
X134366000Y-71628000D01*
X134893733Y-67056000D02*
X134994733Y-66955000D01*
X134994733Y-66955000D02*
X136762500Y-66955000D01*
D10*
X134996154Y-64555000D02*
X138488846Y-64555000D01*
D11*
X135365500Y-73432000D02*
X135472500Y-73325000D01*
X135472500Y-70785000D02*
X133683500Y-68996000D01*
X136762500Y-66955000D02*
X138012500Y-65705000D01*
X136762500Y-72035000D02*
X134773000Y-72035000D01*
X136762500Y-74615000D02*
X138012500Y-75865000D01*
D14*
X137162708Y-60976001D02*
G75*
G02*
X136862726Y-60976001I-149991J0D01*
G01*
X136862726Y-60976001D02*
G75*
G02*
X137162708Y-60976001I149991J0D01*
G01*
D10*
X137063666Y-61573834D02*
X135472500Y-63165000D01*
X137102716Y-61066000D02*
X137012717Y-60976001D01*
D15*
X137640897Y-60334634D02*
G75*
G02*
X137340891Y-60334634I-150003J0D01*
G01*
X137340891Y-60334634D02*
G75*
G02*
X137640897Y-60334634I150003J0D01*
G01*
D10*
X137859528Y-59966000D02*
X137490894Y-60334634D01*
D12*
X138072000Y-56769000D02*
G75*
G02*
X137772000Y-56769000I-150000J0D01*
G01*
X137772000Y-56769000D02*
G75*
G02*
X138072000Y-56769000I150000J0D01*
G01*
D13*
X138012500Y-63165000D02*
X138953666Y-62223834D01*
D11*
X138012500Y-70785000D02*
X136762500Y-72035000D01*
D10*
X138111000Y-58866000D02*
X134322500Y-62654500D01*
D16*
X138620312Y-74594998D02*
G75*
G02*
X138320336Y-74594998I-149988J0D01*
G01*
X138320336Y-74594998D02*
G75*
G02*
X138620312Y-74594998I149988J0D01*
G01*
D10*
X138488846Y-64555000D02*
X139162500Y-65228654D01*
D11*
X138505417Y-77115000D02*
X132041000Y-77115000D01*
D12*
X138707000Y-56769000D02*
G75*
G02*
X138407000Y-56769000I-150000J0D01*
G01*
X138407000Y-56769000D02*
G75*
G02*
X138707000Y-56769000I150000J0D01*
G01*
D11*
X138679644Y-79695000D02*
X128095000Y-79695000D01*
D13*
X138953666Y-62223834D02*
X140462000Y-62223834D01*
D10*
X139081000Y-59966000D02*
X137859528Y-59966000D01*
X139162500Y-65228654D02*
X139162500Y-73902822D01*
X139162500Y-73902822D02*
X138470324Y-74594998D01*
X139531000Y-61066000D02*
X137102716Y-61066000D01*
X139581000Y-59966000D02*
X139581000Y-61016000D01*
X139581000Y-61016000D02*
X139531000Y-61066000D01*
X140031000Y-58866000D02*
X138111000Y-58866000D01*
X140081000Y-58916000D02*
X140031000Y-58866000D01*
X140081000Y-59966000D02*
X140081000Y-58916000D01*
D11*
X140138417Y-81153773D02*
X138679644Y-79695000D01*
X140138417Y-81154639D02*
X140138417Y-81153773D01*
D10*
X140234332Y-61573834D02*
X137063666Y-61573834D01*
X140371672Y-82095000D02*
X146668672Y-88392000D01*
D13*
X140462000Y-62223834D02*
X140987868Y-62223834D01*
X140462000Y-62223834D02*
X141200000Y-62223834D01*
D10*
X140581000Y-59966000D02*
X140581000Y-61227166D01*
X140581000Y-61227166D02*
X140234332Y-61573834D01*
D11*
X140738417Y-79348000D02*
X138505417Y-77115000D01*
X140738417Y-80906111D02*
X140738417Y-79348000D01*
D13*
X140987868Y-62223834D02*
X147411702Y-55800000D01*
X141200000Y-62223834D02*
X141200000Y-65849999D01*
X141200000Y-65849999D02*
X142000001Y-66650000D01*
D11*
X141200000Y-66200000D02*
X141200000Y-62223834D01*
D13*
X141200000Y-67200000D02*
X141250000Y-67250000D01*
X141250000Y-67250000D02*
X141250000Y-69052082D01*
X141250000Y-69052082D02*
X142997918Y-70800000D01*
D12*
X141755000Y-56769000D02*
G75*
G02*
X141455000Y-56769000I-150000J0D01*
G01*
X141455000Y-56769000D02*
G75*
G02*
X141755000Y-56769000I150000J0D01*
G01*
D13*
X141607000Y-55626000D02*
X141781000Y-55800000D01*
D11*
X141700000Y-66700000D02*
X141200000Y-66200000D01*
X141700000Y-66700000D02*
X141200000Y-67200000D01*
X141700000Y-66700000D02*
X141750000Y-66650000D01*
D13*
X141750000Y-66650000D02*
X141200000Y-67200000D01*
X141781000Y-55800000D02*
X146939000Y-55800000D01*
X142000001Y-66650000D02*
X143700000Y-66650000D01*
D12*
X142390000Y-56769000D02*
G75*
G02*
X142090000Y-56769000I-150000J0D01*
G01*
X142090000Y-56769000D02*
G75*
G02*
X142390000Y-56769000I150000J0D01*
G01*
D11*
X142900000Y-65300000D02*
X142900000Y-65850000D01*
D12*
X143050000Y-65300000D02*
G75*
G02*
X142750000Y-65300000I-150000J0D01*
G01*
X142750000Y-65300000D02*
G75*
G02*
X143050000Y-65300000I150000J0D01*
G01*
D11*
X142900000Y-65300000D02*
X144500000Y-65300000D01*
X142900000Y-65850000D02*
X143700000Y-66650000D01*
D13*
X142997918Y-70800000D02*
X143500000Y-70800000D01*
D11*
X143700000Y-65300000D02*
X143700000Y-66650000D01*
D12*
X143850000Y-65300000D02*
G75*
G02*
X143550000Y-65300000I-150000J0D01*
G01*
X143550000Y-65300000D02*
G75*
G02*
X143850000Y-65300000I150000J0D01*
G01*
D13*
X143700000Y-66650000D02*
X141750000Y-66650000D01*
D11*
X144470153Y-84637847D02*
X140738417Y-80906111D01*
X144500000Y-65300000D02*
X144500000Y-65850000D01*
D12*
X144650000Y-65300000D02*
G75*
G02*
X144350000Y-65300000I-150000J0D01*
G01*
X144350000Y-65300000D02*
G75*
G02*
X144650000Y-65300000I150000J0D01*
G01*
D11*
X144500000Y-65850000D02*
X143700000Y-66650000D01*
D12*
X145692000Y-59182000D02*
G75*
G02*
X145392000Y-59182000I-150000J0D01*
G01*
X145392000Y-59182000D02*
G75*
G02*
X145692000Y-59182000I150000J0D01*
G01*
D11*
X146400000Y-65800000D02*
X147800000Y-64400000D01*
X146400000Y-68900000D02*
X146400000Y-65800000D01*
D10*
X146668672Y-88392000D02*
X158115107Y-88392000D01*
D11*
X146867778Y-87884000D02*
X140138417Y-81154639D01*
D13*
X146939000Y-55800000D02*
X146947000Y-55792000D01*
X146939000Y-55800000D02*
X147623834Y-55800000D01*
X146947000Y-55792000D02*
X154992000Y-55792000D01*
D11*
X147382000Y-57342000D02*
X145542000Y-59182000D01*
D13*
X147411702Y-55800000D02*
X147623834Y-55800000D01*
D11*
X147623834Y-55800000D02*
X155000000Y-55800000D01*
X147800000Y-64400000D02*
X151100000Y-64400000D01*
X148300000Y-65300000D02*
X148300000Y-65850000D01*
D12*
X148450000Y-65300000D02*
G75*
G02*
X148150000Y-65300000I-150000J0D01*
G01*
X148150000Y-65300000D02*
G75*
G02*
X148450000Y-65300000I150000J0D01*
G01*
D11*
X148300000Y-65850000D02*
X149100000Y-66650000D01*
X148300000Y-70800000D02*
X146400000Y-68900000D01*
X148300000Y-74200000D02*
X148300000Y-70800000D01*
X148300000Y-80200000D02*
X148500000Y-80000000D01*
X148500000Y-80000000D02*
X156998250Y-80000000D01*
X148700000Y-65300000D02*
X148300000Y-65300000D01*
X148700000Y-65300000D02*
X149900000Y-65300000D01*
X149100000Y-65300000D02*
X148700000Y-65300000D01*
D12*
X149250000Y-65300000D02*
G75*
G02*
X148950000Y-65300000I-150000J0D01*
G01*
X148950000Y-65300000D02*
G75*
G02*
X149250000Y-65300000I150000J0D01*
G01*
D11*
X149100000Y-66650000D02*
X149100000Y-65300000D01*
X149100000Y-66650000D02*
X151050000Y-66650000D01*
X149900000Y-65300000D02*
X149900000Y-65850000D01*
D12*
X150050000Y-65300000D02*
G75*
G02*
X149750000Y-65300000I-150000J0D01*
G01*
X149750000Y-65300000D02*
G75*
G02*
X150050000Y-65300000I150000J0D01*
G01*
D11*
X149900000Y-65850000D02*
X149100000Y-66650000D01*
X151050000Y-66650000D02*
X151920000Y-65780000D01*
D12*
X151250000Y-64400000D02*
G75*
G02*
X150950000Y-64400000I-150000J0D01*
G01*
X150950000Y-64400000D02*
G75*
G02*
X151250000Y-64400000I150000J0D01*
G01*
D11*
X151100000Y-64400000D02*
X152247800Y-64400000D01*
X151920000Y-65780000D02*
X152300000Y-65780000D01*
X152247800Y-64400000D02*
X152647800Y-64800000D01*
D12*
X152450000Y-65780000D02*
G75*
G02*
X152150000Y-65780000I-150000J0D01*
G01*
X152150000Y-65780000D02*
G75*
G02*
X152450000Y-65780000I150000J0D01*
G01*
D11*
X152300000Y-65780000D02*
X153100000Y-65780000D01*
X152575000Y-67325000D02*
X153100000Y-66800000D01*
X152575000Y-67600000D02*
X152575000Y-67325000D01*
D12*
X152725000Y-67600000D02*
G75*
G02*
X152425000Y-67600000I-150000J0D01*
G01*
X152425000Y-67600000D02*
G75*
G02*
X152725000Y-67600000I150000J0D01*
G01*
D11*
X152575000Y-71625000D02*
X152575000Y-67600000D01*
X152700000Y-80600000D02*
X151500000Y-81800000D01*
D10*
X153100000Y-60190256D02*
X153690256Y-59600000D01*
X153100000Y-63800000D02*
X153100000Y-60190256D01*
D17*
X153100000Y-64300000D02*
X153765000Y-64300000D01*
D10*
X153100000Y-65300000D02*
X153100000Y-65800000D01*
D11*
X153100000Y-66800000D02*
X153100000Y-66380000D01*
D10*
X153690256Y-59600000D02*
X156309744Y-59600000D01*
D17*
X153700000Y-67500000D02*
X153800000Y-67400000D01*
X153700000Y-68400000D02*
X153700000Y-67500000D01*
X153765000Y-64300000D02*
X154040000Y-64575000D01*
X153800000Y-62300000D02*
X153800000Y-63200000D01*
X153900000Y-62200000D02*
X153800000Y-62300000D01*
X153900000Y-62200000D02*
X153900000Y-62300000D01*
X153900000Y-62300000D02*
X154300000Y-62700000D01*
X154300000Y-62700000D02*
X154300000Y-63200000D01*
X154300000Y-67600000D02*
X154300000Y-67300000D01*
X154400000Y-67700000D02*
X154300000Y-67600000D01*
X154400000Y-68400000D02*
X154400000Y-67700000D01*
X154700000Y-62200000D02*
X154700000Y-62300000D01*
X154700000Y-62200000D02*
X154700000Y-63100000D01*
X154700000Y-62300000D02*
X155200000Y-62800000D01*
X154700000Y-67600000D02*
X154700000Y-67300000D01*
D11*
X154900000Y-81800000D02*
X155599999Y-82499999D01*
D13*
X154992000Y-55792000D02*
X155000000Y-55800000D01*
D10*
X155000000Y-60600000D02*
X155900000Y-61500000D01*
D17*
X155100000Y-67700000D02*
X155200000Y-67600000D01*
X155100000Y-68000000D02*
X154700000Y-67600000D01*
X155100000Y-68400000D02*
X155100000Y-67700000D01*
X155100000Y-68400000D02*
X155100000Y-68000000D01*
D11*
X155150000Y-77200000D02*
X155550000Y-76800000D01*
D17*
X155200000Y-62800000D02*
X155200000Y-63200000D01*
X155200000Y-67600000D02*
X155200000Y-67400000D01*
D11*
X155550000Y-76800000D02*
X156100000Y-76800000D01*
X155599999Y-82499999D02*
X157700000Y-82499999D01*
D10*
X155900000Y-61500000D02*
X155900000Y-63800000D01*
X155900000Y-64300000D02*
X155900000Y-64800000D01*
X155900000Y-65300000D02*
X155900000Y-65800000D01*
D11*
X155900000Y-65800000D02*
X156210778Y-65800000D01*
X155900000Y-66800000D02*
X155900000Y-66320000D01*
X155980000Y-64320000D02*
X155900000Y-64320000D01*
D12*
X156250000Y-76800000D02*
G75*
G02*
X155950000Y-76800000I-150000J0D01*
G01*
X155950000Y-76800000D02*
G75*
G02*
X156250000Y-76800000I150000J0D01*
G01*
D11*
X156100000Y-76800000D02*
X158243150Y-76800000D01*
X156210778Y-65800000D02*
X156755389Y-66344611D01*
X156275000Y-67175000D02*
X155900000Y-66800000D01*
X156275000Y-67500000D02*
X156275000Y-67175000D01*
D12*
X156425000Y-67500000D02*
G75*
G02*
X156125000Y-67500000I-150000J0D01*
G01*
X156125000Y-67500000D02*
G75*
G02*
X156425000Y-67500000I150000J0D01*
G01*
D11*
X156275000Y-71625000D02*
X156275000Y-67500000D01*
D10*
X156309744Y-59600000D02*
X156625000Y-59915256D01*
D11*
X156332200Y-64320000D02*
X155980000Y-64320000D01*
D17*
X156350000Y-77450000D02*
X156350000Y-77900000D01*
D12*
X156500000Y-77900000D02*
G75*
G02*
X156200000Y-77900000I-150000J0D01*
G01*
X156200000Y-77900000D02*
G75*
G02*
X156500000Y-77900000I150000J0D01*
G01*
D11*
X156417200Y-80600000D02*
X152700000Y-80600000D01*
D17*
X156530000Y-77270000D02*
X156350000Y-77450000D01*
D11*
X156600000Y-63700000D02*
X156600000Y-64052200D01*
X156600000Y-64052200D02*
X156332200Y-64320000D01*
D10*
X156625000Y-59915256D02*
X156625000Y-63675000D01*
D11*
X156625000Y-63675000D02*
X156600000Y-63700000D01*
D18*
X156905394Y-66344611D02*
G75*
G02*
X156605384Y-66344611I-150005J0D01*
G01*
X156605384Y-66344611D02*
G75*
G02*
X156905394Y-66344611I150005J0D01*
G01*
D11*
X156755389Y-66344611D02*
X157500000Y-67089222D01*
X156998250Y-80000000D02*
X156999125Y-80000875D01*
D19*
X157149112Y-80000875D02*
G75*
G02*
X156849138Y-80000875I-149987J0D01*
G01*
X156849138Y-80000875D02*
G75*
G02*
X157149112Y-80000875I149987J0D01*
G01*
D11*
X156999125Y-80000875D02*
X157998250Y-81000000D01*
X157000000Y-63300000D02*
X156625000Y-63675000D01*
D12*
X157150000Y-63300000D02*
G75*
G02*
X156850000Y-63300000I-150000J0D01*
G01*
X156850000Y-63300000D02*
G75*
G02*
X157150000Y-63300000I150000J0D01*
G01*
D11*
X157108600Y-81291400D02*
X156417200Y-80600000D01*
D12*
X157258600Y-81291400D02*
G75*
G02*
X156958600Y-81291400I-150000J0D01*
G01*
X156958600Y-81291400D02*
G75*
G02*
X157258600Y-81291400I150000J0D01*
G01*
D20*
X157297724Y-77840000D02*
G75*
G02*
X156997774Y-77840000I-149975J0D01*
G01*
X156997774Y-77840000D02*
G75*
G02*
X157297724Y-77840000I149975J0D01*
G01*
D11*
X157500000Y-67089222D02*
X157500000Y-67900000D01*
X157500000Y-67900000D02*
X158600000Y-69000000D01*
X157598200Y-81781000D02*
X157108600Y-81291400D01*
D17*
X157598200Y-81781000D02*
X158341400Y-81781000D01*
D12*
X157850000Y-82499999D02*
G75*
G02*
X157550000Y-82499999I-150000J0D01*
G01*
X157550000Y-82499999D02*
G75*
G02*
X157850000Y-82499999I150000J0D01*
G01*
D11*
X157700000Y-82499999D02*
X158629379Y-82499999D01*
X157900000Y-62400000D02*
X157000000Y-63300000D01*
X157916000Y-84637847D02*
X144470153Y-84637847D01*
X157916000Y-85456000D02*
X157916000Y-84637847D01*
X157916000Y-86106000D02*
X157916000Y-87884000D01*
X157916000Y-87884000D02*
X146867778Y-87884000D01*
D10*
X158115107Y-88392000D02*
X158466000Y-88041107D01*
D17*
X158240000Y-77840000D02*
X157147749Y-77840000D01*
X158341400Y-81781000D02*
X158499850Y-81622550D01*
D11*
X158416000Y-85456000D02*
X157916000Y-85456000D01*
D17*
X158424488Y-77270000D02*
X156530000Y-77270000D01*
X158435320Y-76800000D02*
X158243150Y-76800000D01*
D10*
X158466000Y-88041107D02*
X158466000Y-87856000D01*
D17*
X158499850Y-78099850D02*
X158240000Y-77840000D01*
X158499850Y-78637800D02*
X158499850Y-78099850D01*
X158499850Y-81622550D02*
X158499850Y-81000000D01*
D11*
X158600000Y-69000000D02*
X158600000Y-72500000D01*
X158600000Y-72500000D02*
X159150000Y-73050000D01*
D17*
X158899900Y-77745412D02*
X158424488Y-77270000D01*
X158899900Y-78637800D02*
X158899900Y-77745412D01*
X158899900Y-81000000D02*
X158899900Y-82229478D01*
X158899900Y-82229478D02*
X158629379Y-82499999D01*
D11*
X159016000Y-85456000D02*
X158416000Y-85456000D01*
X159150000Y-73050000D02*
X161100000Y-73050000D01*
D17*
X159299950Y-77856800D02*
X159300000Y-77856750D01*
X159299950Y-78637800D02*
X159299950Y-77856800D01*
X159299950Y-82597468D02*
X159299950Y-81000000D01*
X159300000Y-77664680D02*
X158435320Y-76800000D01*
X159300000Y-77856750D02*
X159300000Y-77664680D01*
X159319525Y-82617043D02*
X159299950Y-82597468D01*
D19*
X159469512Y-82617043D02*
G75*
G02*
X159169538Y-82617043I-149987J0D01*
G01*
X159169538Y-82617043D02*
G75*
G02*
X159469512Y-82617043I149987J0D01*
G01*
D11*
X159600000Y-76000000D02*
X161100000Y-74500000D01*
X159600000Y-77300000D02*
X159600000Y-76000000D01*
X159600000Y-77300000D02*
X159899950Y-77599950D01*
D17*
X159700000Y-78637800D02*
X159769950Y-78567850D01*
X159769950Y-77469950D02*
X159600000Y-77300000D01*
X159769950Y-78567850D02*
X159769950Y-77469950D01*
D11*
X159850000Y-62400000D02*
X157900000Y-62400000D01*
X159899950Y-77599950D02*
X159899950Y-78401600D01*
D21*
X160049975Y-77599950D02*
G75*
G02*
X159749925Y-77599950I-150025J0D01*
G01*
X159749925Y-77599950D02*
G75*
G02*
X160049975Y-77599950I150025J0D01*
G01*
D11*
X159899950Y-78401600D02*
X159801550Y-78500000D01*
X159900000Y-62350000D02*
X159850000Y-62400000D01*
D17*
X160800000Y-81000000D02*
X159700000Y-81000000D01*
D11*
X160818000Y-57342000D02*
X147382000Y-57342000D01*
X160883000Y-57277000D02*
X160818000Y-57342000D01*
X161016000Y-84983000D02*
X161016000Y-85456000D01*
X161016000Y-85456000D02*
X159016000Y-85456000D01*
X161100000Y-73050000D02*
X163350000Y-73050000D01*
X161100000Y-74500000D02*
X161100000Y-73050000D01*
X161417000Y-84582000D02*
X161016000Y-84983000D01*
D12*
X161567000Y-84582000D02*
G75*
G02*
X161267000Y-84582000I-150000J0D01*
G01*
X161267000Y-84582000D02*
G75*
G02*
X161567000Y-84582000I150000J0D01*
G01*
D11*
X161417000Y-86106000D02*
X157916000Y-86106000D01*
D17*
X161650000Y-81850000D02*
X160800000Y-81000000D01*
D11*
X163195000Y-84328000D02*
X161417000Y-86106000D01*
X163350000Y-73050000D02*
X164200000Y-73900000D01*
D22*
X163788115Y-73369480D02*
G75*
G02*
X163488147Y-73369480I-149984J0D01*
G01*
X163488147Y-73369480D02*
G75*
G02*
X163788115Y-73369480I149984J0D01*
G01*
D11*
X163830000Y-84328000D02*
X163195000Y-84328000D01*
D12*
X163980000Y-84328000D02*
G75*
G02*
X163680000Y-84328000I-150000J0D01*
G01*
X163680000Y-84328000D02*
G75*
G02*
X163980000Y-84328000I150000J0D01*
G01*
D17*
X163900000Y-81850000D02*
X161650000Y-81850000D01*
D13*
X163900000Y-81850000D02*
X163900000Y-82300000D01*
X163900000Y-82300000D02*
X166200000Y-84600000D01*
X163983000Y-57277000D02*
X166383000Y-57277000D01*
D11*
X164200000Y-73900000D02*
X165450000Y-73900000D01*
X165450000Y-68700000D02*
X165450000Y-73900000D01*
D13*
X166200000Y-84600000D02*
X168400000Y-84600000D01*
X167575000Y-63025000D02*
X166150000Y-61600000D01*
X167575000Y-78375000D02*
X167575000Y-63025000D01*
X168400000Y-79200000D02*
X167575000Y-78375000D01*
X168400000Y-84600000D02*
X170094082Y-84600000D01*
X170094082Y-84600000D02*
X173101000Y-81593082D01*
D11*
X170688000Y-81488000D02*
X168400000Y-79200000D01*
X170688000Y-82804000D02*
X170688000Y-81488000D01*
D12*
X170838000Y-82804000D02*
G75*
G02*
X170538000Y-82804000I-150000J0D01*
G01*
X170538000Y-82804000D02*
G75*
G02*
X170838000Y-82804000I150000J0D01*
G01*
D13*
X173101000Y-81593082D02*
X173101000Y-81186000D01*
D11*
X173540400Y-80746600D02*
X173101000Y-81186000D01*
D13*
X173957000Y-74930000D02*
X173101000Y-75786000D01*
X174752000Y-72644000D02*
X174752000Y-74930000D01*
D12*
X174902000Y-72644000D02*
G75*
G02*
X174602000Y-72644000I-150000J0D01*
G01*
X174602000Y-72644000D02*
G75*
G02*
X174902000Y-72644000I150000J0D01*
G01*
X174902000Y-73406000D02*
G75*
G02*
X174602000Y-73406000I-150000J0D01*
G01*
X174602000Y-73406000D02*
G75*
G02*
X174902000Y-73406000I150000J0D01*
G01*
X174902000Y-74168000D02*
G75*
G02*
X174602000Y-74168000I-150000J0D01*
G01*
X174602000Y-74168000D02*
G75*
G02*
X174902000Y-74168000I150000J0D01*
G01*
D13*
X174752000Y-74930000D02*
X173957000Y-74930000D01*
D12*
X174902000Y-74930000D02*
G75*
G02*
X174602000Y-74930000I-150000J0D01*
G01*
X174602000Y-74930000D02*
G75*
G02*
X174902000Y-74930000I150000J0D01*
G01*
D11*
X175133000Y-80746600D02*
X173540400Y-80746600D01*
D12*
X175283000Y-80746600D02*
G75*
G02*
X174983000Y-80746600I-150000J0D01*
G01*
X174983000Y-80746600D02*
G75*
G02*
X175283000Y-80746600I150000J0D01*
G01*
D23*
%TO.C,Q1*%
X115636000Y-59611500D03*
X117536000Y-59611500D03*
X116586000Y-57736500D03*
%TD*%
D24*
%TO.C,C7*%
X143700000Y-66650000D03*
X143700000Y-62550000D03*
%TD*%
D25*
%TO.C,H1*%
X99962000Y-86868000D03*
X100664944Y-85170944D03*
X100664944Y-88565056D03*
X102362000Y-84468000D03*
D26*
X102362000Y-86868000D03*
D25*
X102362000Y-89268000D03*
X104059056Y-85170944D03*
X104059056Y-88565056D03*
X104762000Y-86868000D03*
%TD*%
D27*
%TO.C,C5*%
X165450000Y-68700000D03*
X169550000Y-68700000D03*
%TD*%
D28*
%TO.C,D2*%
X173101000Y-81186000D03*
X173101000Y-75786000D03*
%TD*%
D29*
%TO.C,R21*%
X104094000Y-72812000D03*
X104094000Y-68012000D03*
%TD*%
D30*
%TO.C,R8*%
X143500000Y-80200000D03*
X148300000Y-80200000D03*
%TD*%
D24*
%TO.C,C4*%
X159900000Y-66450000D03*
X159900000Y-62350000D03*
%TD*%
D29*
%TO.C,R9*%
X154900000Y-86600000D03*
X154900000Y-81800000D03*
%TD*%
D31*
%TO.C,U1*%
X138012500Y-80945000D03*
D32*
X138012500Y-78405000D03*
X138012500Y-75865000D03*
X138012500Y-73325000D03*
X138012500Y-70785000D03*
X138012500Y-68245000D03*
X138012500Y-65705000D03*
X138012500Y-63165000D03*
X115152500Y-63165000D03*
X115152500Y-65705000D03*
X115152500Y-68245000D03*
X115152500Y-70785000D03*
X115152500Y-73325000D03*
X115152500Y-75865000D03*
X115152500Y-78405000D03*
X115152500Y-80945000D03*
X135472500Y-80945000D03*
X135472500Y-78405000D03*
X135472500Y-75865000D03*
X135472500Y-73325000D03*
X135472500Y-70785000D03*
X135472500Y-68245000D03*
X135472500Y-65705000D03*
X135472500Y-63165000D03*
X117692500Y-63165000D03*
X117692500Y-65705000D03*
X117692500Y-68245000D03*
X117692500Y-70785000D03*
X117692500Y-73325000D03*
X117692500Y-75865000D03*
X117692500Y-78405000D03*
X117692500Y-80945000D03*
%TD*%
D33*
%TO.C,J6*%
X107188000Y-86868000D03*
%TD*%
%TO.C,J2*%
X175895000Y-56388000D03*
%TD*%
D30*
%TO.C,R13*%
X120536000Y-58166000D03*
X125336000Y-58166000D03*
%TD*%
%TO.C,R12*%
X120536000Y-62738000D03*
X125336000Y-62738000D03*
%TD*%
D34*
%TO.C,R14*%
X121920000Y-65926000D03*
X121920000Y-70726000D03*
%TD*%
D35*
%TO.C,J5*%
X109220000Y-57214000D03*
D36*
X109220000Y-59214000D03*
X109220000Y-61214000D03*
X109220000Y-63214000D03*
X109220000Y-65214000D03*
%TD*%
D29*
%TO.C,R18*%
X126492000Y-78092000D03*
X126492000Y-73292000D03*
%TD*%
D37*
%TO.C,U2*%
X159700000Y-78637800D03*
X159299950Y-78637800D03*
X158899900Y-78637800D03*
X158499850Y-78637800D03*
X158099800Y-78637800D03*
X158099800Y-81000000D03*
X158499850Y-81000000D03*
X158899900Y-81000000D03*
X159299950Y-81000000D03*
X159700000Y-81000000D03*
D38*
X158899900Y-79818900D03*
%TD*%
D35*
%TO.C,J3*%
X166150000Y-61600000D03*
D36*
X166150000Y-63600000D03*
%TD*%
D29*
%TO.C,R10*%
X151500000Y-86600000D03*
X151500000Y-81800000D03*
%TD*%
D39*
%TO.C,L1*%
X156275000Y-71625000D03*
X152575000Y-71625000D03*
%TD*%
D40*
%TO.C,C10*%
X161100000Y-68950000D03*
X161100000Y-73050000D03*
%TD*%
D41*
%TO.C,U3*%
X153100000Y-63800000D03*
X153100000Y-64300000D03*
X153100000Y-64800000D03*
X153100000Y-65300000D03*
X153100000Y-65800000D03*
X153100000Y-66300000D03*
X153100000Y-66800000D03*
X155900000Y-66800000D03*
X155900000Y-66300000D03*
X155900000Y-65800000D03*
X155900000Y-65300000D03*
X155900000Y-64800000D03*
X155900000Y-64300000D03*
X155900000Y-63800000D03*
D42*
X154040000Y-64575000D03*
X154040000Y-66025000D03*
X154500000Y-65300000D03*
D43*
X154500000Y-65300000D03*
D42*
X154960000Y-64575000D03*
X154960000Y-66025000D03*
%TD*%
D29*
%TO.C,R17*%
X131064000Y-70726000D03*
X131064000Y-65926000D03*
%TD*%
D27*
%TO.C,C6*%
X165450000Y-73900000D03*
X169550000Y-73900000D03*
%TD*%
D44*
%TO.C,J10*%
X158466000Y-87856000D03*
X158966000Y-87856000D03*
X159466000Y-87856000D03*
X159966000Y-87856000D03*
X160466000Y-87856000D03*
X158466000Y-84256000D03*
X158966000Y-84256000D03*
X159466000Y-84256000D03*
X159966000Y-84256000D03*
X160466000Y-84256000D03*
%TD*%
D24*
%TO.C,C8*%
X163900000Y-81850000D03*
X163900000Y-77750000D03*
%TD*%
D27*
%TO.C,C9*%
X151050000Y-77200000D03*
X155150000Y-77200000D03*
%TD*%
D45*
%TO.C,D3*%
X163983000Y-57277000D03*
X160883000Y-57277000D03*
%TD*%
D29*
%TO.C,R15*%
X121920000Y-78092000D03*
X121920000Y-73292000D03*
%TD*%
D35*
%TO.C,J1*%
X109220000Y-70390000D03*
D36*
X109220000Y-72390000D03*
X109220000Y-74390000D03*
X109220000Y-76390000D03*
X109220000Y-78390000D03*
X109220000Y-80390000D03*
%TD*%
D44*
%TO.C,J9*%
X139081000Y-59966000D03*
X139581000Y-59966000D03*
X140081000Y-59966000D03*
X140581000Y-59966000D03*
X141081000Y-59966000D03*
X139081000Y-56366000D03*
X139581000Y-56366000D03*
X140081000Y-56366000D03*
X140581000Y-56366000D03*
X141081000Y-56366000D03*
%TD*%
D46*
%TO.C,J4*%
X149590000Y-59224000D03*
D47*
X147590000Y-59224000D03*
%TD*%
D24*
%TO.C,C3*%
X149100000Y-66650000D03*
X149100000Y-62550000D03*
%TD*%
D25*
%TO.C,H2*%
X99962000Y-58293000D03*
X100664944Y-56595944D03*
X100664944Y-59990056D03*
X102362000Y-55893000D03*
D26*
X102362000Y-58293000D03*
D25*
X102362000Y-60693000D03*
X104059056Y-56595944D03*
X104059056Y-59990056D03*
X104762000Y-58293000D03*
%TD*%
D48*
%TO.C,R11*%
X171183000Y-57277000D03*
X166383000Y-57277000D03*
%TD*%
D29*
%TO.C,R5*%
X155000000Y-60600000D03*
X155000000Y-55800000D03*
%TD*%
D35*
%TO.C,J7*%
X103378000Y-76359000D03*
D36*
X103378000Y-78359000D03*
X103378000Y-80359000D03*
%TD*%
D25*
%TO.C,H3*%
X171844000Y-86868000D03*
X172546944Y-85170944D03*
X172546944Y-88565056D03*
X174244000Y-84468000D03*
D26*
X174244000Y-86868000D03*
D25*
X174244000Y-89268000D03*
X175941056Y-85170944D03*
X175941056Y-88565056D03*
X176644000Y-86868000D03*
%TD*%
D28*
%TO.C,D1*%
X168400000Y-84600000D03*
X168400000Y-79200000D03*
%TD*%
D48*
%TO.C,R7*%
X148300000Y-74200000D03*
X143500000Y-74200000D03*
%TD*%
D29*
%TO.C,R20*%
X129159000Y-62344000D03*
X129159000Y-57544000D03*
%TD*%
%TO.C,R19*%
X126492000Y-70726000D03*
X126492000Y-65926000D03*
%TD*%
%TO.C,R16*%
X131064000Y-78092000D03*
X131064000Y-73292000D03*
%TD*%
D48*
%TO.C,R6*%
X148300000Y-70800000D03*
X143500000Y-70800000D03*
%TD*%
%LPD*%
M02*
