M48
; DRILL file KiCad 10.0.1 date 2026-04-24T02:35:25
; FORMAT={-:-/ absolute / inch / decimal}
; #@! TF.CreationDate,2026-04-24T02:35:25+03:00
; #@! TF.GenerationSoftware,Kicad,Pcbnew,10.0.1
; #@! TF.FileFunction,Plated,1,2,PTH
FMAT,2
INCH
; #@! TA.AperFunction,Plated,PTH,ViaDrill
T1C0.0118
; #@! TA.AperFunction,Plated,PTH,ComponentDrill
T2C0.0118
; #@! TA.AperFunction,Plated,PTH,ComponentDrill
T3C0.0197
; #@! TA.AperFunction,Plated,PTH,ComponentDrill
T4C0.0295
; #@! TA.AperFunction,Plated,PTH,ComponentDrill
T5C0.0394
; #@! TA.AperFunction,Plated,PTH,ComponentDrill
T6C0.1260
%
G90
G05
T1
X4.21Y-2.3273
X4.21Y-2.3549
X4.21Y-2.3824
X4.21Y-2.41
X4.21Y-2.6273
X4.21Y-2.6549
X4.21Y-2.6824
X4.21Y-2.71
X4.22Y-2.8773
X4.22Y-2.9049
X4.22Y-2.9324
X4.22Y-2.96
X4.22Y-3.0873
X4.22Y-3.1149
X4.22Y-3.1424
X4.22Y-3.17
X4.3Y-2.6373
X4.3Y-2.6649
X4.3Y-2.6924
X4.3Y-2.72
X4.37Y-2.52
X4.37Y-2.99
X4.38Y-2.79
X4.39Y-2.54
X4.39Y-2.97
X4.4Y-2.46
X4.4Y-3.065
X4.41Y-2.56
X4.41Y-2.6673
X4.41Y-2.6949
X4.41Y-2.7224
X4.41Y-2.75
X4.41Y-2.95
X4.42Y-2.48
X4.42Y-3.045
X4.43Y-2.58
X4.43Y-2.93
X4.44Y-2.5
X4.44Y-3.025
X4.46Y-2.52
X4.46Y-3.005
X4.47Y-2.8
X4.47Y-2.8773
X4.48Y-2.64
X4.5Y-2.3273
X4.5Y-2.3549
X4.5Y-2.3824
X4.5Y-2.41
X4.54Y-2.43
X4.5473Y-2.21
X4.565Y-2.405
X4.565Y-2.935
X4.565Y-3.035
X4.5749Y-2.21
X4.575Y-2.535
X4.575Y-2.64
X4.585Y-3.2282
X4.6024Y-2.21
X4.605Y-2.535
X4.605Y-2.64
X4.605Y-2.935
X4.605Y-3.035
X4.63Y-2.21
X4.65Y-2.43
X4.67Y-2.935
X4.67Y-3.035
X4.69Y-3.155
X4.69Y-3.205
X4.71Y-2.88
X4.72Y-2.8
X4.722Y-2.392
X4.725Y-2.5573
X4.725Y-2.5849
X4.725Y-2.6124
X4.725Y-2.64
X4.74Y-2.935
X4.742Y-2.372
X4.7573Y-3.13
X4.7849Y-3.13
X4.8Y-2.3373
X4.8Y-2.3649
X4.8Y-2.3924
X4.8Y-2.42
X4.8Y-2.4473
X4.8Y-2.4749
X4.8Y-2.5024
X4.8Y-2.53
X4.8Y-2.67
X4.8124Y-3.13
X4.815Y-2.705
X4.84Y-2.96
X4.84Y-3.13
X4.86Y-2.98
X4.87Y-2.3373
X4.87Y-2.3649
X4.87Y-2.3924
X4.87Y-2.42
X4.87Y-2.4473
X4.87Y-2.4749
X4.87Y-2.5024
X4.87Y-2.53
X4.88Y-2.92
X4.88Y-3.0
X4.885Y-2.875
X4.9Y-2.84
X4.9Y-2.94
X4.9Y-3.02
X4.9073Y-3.13
X4.91Y-2.545
X4.92Y-2.96
X4.9349Y-3.13
X4.9373Y-2.67
X4.94Y-2.38
X4.94Y-2.545
X4.94Y-2.98
X4.9624Y-3.13
X4.9649Y-2.67
X4.97Y-2.545
X4.99Y-2.47
X4.99Y-2.97
X4.99Y-3.13
X4.9924Y-2.67
X5.01Y-2.49
X5.01Y-2.99
X5.02Y-2.67
X5.03Y-2.51
X5.03Y-3.01
X5.035Y-3.165
X5.0423Y-2.225
X5.0423Y-2.33
X5.05Y-2.53
X5.05Y-3.03
X5.06Y-2.62
X5.06Y-3.185
X5.0699Y-2.225
X5.0699Y-2.33
X5.07Y-2.7873
X5.07Y-2.8149
X5.07Y-2.8424
X5.07Y-2.87
X5.075Y-3.075
X5.075Y-3.105
X5.0974Y-2.225
X5.0974Y-2.33
X5.1173Y-2.54
X5.1173Y-2.98
X5.12Y-2.68
X5.125Y-2.225
X5.125Y-2.33
X5.1449Y-2.54
X5.1449Y-2.98
X5.1724Y-2.54
X5.1724Y-2.98
X5.2Y-2.54
X5.2Y-2.98
X5.205Y-2.68
X5.235Y-2.68
X5.26Y-2.335
X5.265Y-2.68
X5.28Y-2.355
X5.3Y-2.375
X5.315Y-2.28
X5.32Y-2.395
X5.335Y-2.3
X5.35Y-2.225
X5.355Y-2.32
X5.375Y-2.225
X5.375Y-2.34
X5.3942Y-2.4006
X5.413Y-2.3754
X5.43Y-2.235
X5.4516Y-2.9368
X5.455Y-2.235
X5.495Y-2.29
X5.5236Y-2.5157
X5.5236Y-2.5433
X5.525Y-2.29
X5.5276Y-2.6732
X5.5276Y-2.7008
X5.53Y-2.98
X5.53Y-3.0076
X5.53Y-3.0351
X5.53Y-3.0627
X5.555Y-2.29
X5.575Y-2.235
X5.585Y-2.29
X5.585Y-2.36
X5.5945Y-2.5157
X5.5945Y-2.5433
X5.5945Y-2.6772
X5.5945Y-2.7047
X5.6Y-2.235
X5.6Y-2.91
X5.6Y-2.9773
X5.6Y-3.0049
X5.6Y-3.0324
X5.6Y-3.06
X5.6024Y-2.8543
X5.605Y-2.34
X5.625Y-2.32
X5.626Y-2.5709
X5.64Y-2.41
X5.645Y-2.3
X5.6575Y-2.5079
X5.6575Y-2.5709
X5.66Y-2.235
X5.66Y-2.39
X5.665Y-2.28
X5.68Y-2.37
X5.685Y-2.26
X5.689Y-2.5709
X5.6929Y-2.8543
X5.7Y-2.35
X5.705Y-2.24
X5.705Y-2.915
X5.73Y-2.33
X5.7323Y-2.6811
X5.7323Y-2.7087
X5.7441Y-2.5079
X5.7441Y-2.5394
X5.7756Y-2.5079
X5.7756Y-2.5394
X5.78Y-3.0
X5.785Y-2.91
X5.7973Y-3.3
X5.7973Y-3.36
X5.7992Y-2.8543
X5.8Y-3.02
X5.8071Y-2.6811
X5.8071Y-2.7087
X5.82Y-3.04
X5.8249Y-3.3
X5.8249Y-3.36
X5.8373Y-2.23
X5.8386Y-2.5709
X5.84Y-3.06
X5.8524Y-3.3
X5.8524Y-3.36
X5.8649Y-2.23
X5.8701Y-2.5079
X5.8701Y-2.5709
X5.8701Y-2.6732
X5.88Y-3.3
X5.88Y-3.36
X5.8898Y-3.122
X5.89Y-2.91
X5.8924Y-2.23
X5.8937Y-3.1772
X5.8976Y-2.6732
X5.9016Y-2.5709
X5.92Y-2.23
X5.92Y-2.94
X5.9252Y-2.6732
X5.937Y-2.5709
X5.9373Y-2.36
X5.9488Y-2.5354
X5.9567Y-2.7795
X5.9567Y-2.811
X5.9567Y-2.8425
X5.9573Y-2.29
X5.9649Y-2.36
X5.9724Y-2.563
X5.9724Y-2.6929
X5.9764Y-2.4803
X5.9849Y-2.29
X5.9921Y-2.622
X5.9921Y-3.122
X5.9924Y-2.36
X5.9961Y-2.5079
X5.9961Y-2.5898
X6.0069Y-2.6614
X6.0124Y-2.29
X6.0197Y-3.122
X6.0315Y-3.2598
X6.0315Y-3.3661
X6.04Y-2.29
X6.0472Y-2.9252
X6.0472Y-3.122
X6.0512Y-2.6929
X6.0591Y-2.4488
X6.06Y-2.7773
X6.06Y-2.8049
X6.06Y-2.8324
X6.06Y-2.86
X6.0748Y-3.122
X6.0787Y-2.6929
X6.0827Y-2.9252
X6.0906Y-2.4488
X6.1Y-2.7773
X6.1Y-2.8049
X6.1Y-2.8324
X6.1Y-2.86
X6.1063Y-2.6929
X6.1181Y-2.9252
X6.1457Y-3.0236
X6.1526Y-2.6575
X6.1555Y-3.0669
X6.1614Y-2.9961
X6.1715Y-2.612
X6.1772Y-2.563
X6.1811Y-3.1496
X6.1811Y-2.4921
X6.1811Y-2.6929
X6.185Y-3.5036
X6.1854Y-3.2004
X6.1869Y-3.0646
X6.1929Y-2.3543
X6.1929Y-2.3819
X6.1929Y-2.4094
X6.1929Y-2.437
X6.1929Y-2.9961
X6.1949Y-2.23
X6.1973Y-2.29
X6.2047Y-2.7795
X6.2047Y-2.811
X6.2047Y-2.8425
X6.2087Y-3.248
X6.21Y-2.93
X6.2224Y-2.23
X6.2249Y-2.29
X6.24Y-2.9
X6.25Y-2.23
X6.2524Y-2.29
X6.2638Y-2.9685
X6.2724Y-3.2526
X6.2756Y-2.7756
X6.2756Y-2.8031
X6.2776Y-2.23
X6.28Y-2.29
X6.28Y-3.51
X6.2953Y-3.0551
X6.2953Y-3.2244
X6.3Y-3.42
X6.3031Y-2.7874
X6.305Y-3.27
X6.3071Y-2.9291
X6.31Y-3.51
X6.315Y-3.0039
X6.3189Y-3.1181
X6.3189Y-3.1575
X6.3228Y-3.2165
X6.3228Y-3.248
X6.34Y-3.275
X6.34Y-3.435
X6.34Y-3.46
X6.34Y-3.485
X6.35Y-2.5049
X6.35Y-2.5324
X6.35Y-2.56
X6.3504Y-2.9646
X6.355Y-3.33
X6.3622Y-3.248
X6.4Y-3.305
X6.4Y-3.385
X6.4016Y-3.1142
X6.4016Y-3.1732
X6.42Y-2.5573
X6.42Y-2.5849
X6.42Y-2.6124
X6.42Y-2.64
X6.42Y-3.365
X6.4291Y-2.9173
X6.43Y-3.29
X6.4424Y-2.8886
X6.45Y-3.32
X6.4646Y-2.8661
X6.4843Y-2.7913
X6.4843Y-2.8228
X6.5Y-3.375
X6.5039Y-3.1142
X6.5039Y-3.1732
X6.53Y-3.265
X6.53Y-3.375
X6.5433Y-2.7913
X6.5433Y-2.8228
X6.56Y-2.995
X6.56Y-3.025
X6.56Y-3.295
X6.56Y-3.375
X6.635Y-2.995
X6.635Y-3.025
X6.64Y-2.5173
X6.64Y-2.5449
X6.64Y-2.5724
X6.64Y-2.6
X6.6457Y-2.7913
X6.6457Y-2.8228
X6.69Y-3.22
X6.69Y-3.25
X6.7Y-3.08
X6.7Y-3.11
X6.7Y-3.14
X6.7047Y-2.7913
X6.7047Y-2.8228
X6.72Y-3.26
X6.75Y-3.195
X6.75Y-3.225
X6.83Y-2.37
X6.83Y-2.3976
X6.83Y-2.4251
X6.83Y-2.4527
X6.83Y-2.6773
X6.83Y-2.7049
X6.83Y-2.7324
X6.83Y-2.76
X6.88Y-2.86
X6.88Y-2.89
X6.88Y-2.92
X6.88Y-2.95
X6.895Y-3.179
T2
X6.0646Y-2.5423
X6.0646Y-2.5994
X6.0827Y-2.5709
X6.1008Y-2.5423
X6.1008Y-2.5994
T3
X3.9355Y-2.295
X3.9355Y-3.42
X3.9632Y-2.2282
X3.9632Y-2.3618
X3.9632Y-3.3532
X3.9632Y-3.4868
X4.03Y-2.2005
X4.03Y-2.3895
X4.03Y-3.3255
X4.03Y-3.5145
X4.0968Y-2.2282
X4.0968Y-2.3618
X4.0968Y-3.3532
X4.0968Y-3.4868
X4.1245Y-2.295
X4.1245Y-3.42
X6.7655Y-3.42
X6.7932Y-3.3532
X6.7932Y-3.4868
X6.86Y-3.3255
X6.86Y-3.5145
X6.9268Y-3.3532
X6.9268Y-3.4868
X6.9545Y-3.42
T4
X4.07Y-3.0063
X4.07Y-3.085
X4.07Y-3.1637
X4.3Y-2.2525
X4.3Y-2.3313
X4.3Y-2.41
X4.3Y-2.4887
X4.3Y-2.5675
X4.3Y-2.7713
X4.3Y-2.85
X4.3Y-2.9287
X4.3Y-3.0075
X4.3Y-3.0862
X4.3Y-3.165
X5.8106Y-2.3317
X5.8894Y-2.3317
X6.5413Y-2.4252
X6.5413Y-2.5039
T5
X4.5336Y-2.4868
X4.5336Y-2.5868
X4.5336Y-2.6868
X4.5336Y-2.7868
X4.5336Y-2.8868
X4.5336Y-2.9868
X4.5336Y-3.0868
X4.5336Y-3.1868
X4.6336Y-2.4868
X4.6336Y-2.5868
X4.6336Y-2.6868
X4.6336Y-2.7868
X4.6336Y-2.8868
X4.6336Y-2.9868
X4.6336Y-3.0868
X4.6336Y-3.1868
X5.3336Y-2.4868
X5.3336Y-2.5868
X5.3336Y-2.6868
X5.3336Y-2.7868
X5.3336Y-2.8868
X5.3336Y-2.9868
X5.3336Y-3.0868
X5.3336Y-3.1868
X5.4336Y-2.4868
X5.4336Y-2.5868
X5.4336Y-2.6868
X5.4336Y-2.7868
X5.4336Y-2.8868
X5.4336Y-2.9868
X5.4336Y-3.0868
X5.4336Y-3.1868
T6
X4.03Y-2.295
X4.03Y-3.42
X6.86Y-3.42
M30
