%TF.GenerationSoftware,KiCad,Pcbnew,10.0.1*%
%TF.CreationDate,2026-04-22T06:08:01+03:00*%
%TF.ProjectId,airbox,61697262-6f78-42e6-9b69-6361645f7063,rev?*%
%TF.SameCoordinates,Original*%
%TF.FileFunction,Legend,Top*%
%TF.FilePolarity,Positive*%
%FSLAX46Y46*%
G04 Gerber Fmt 4.6, Leading zero omitted, Abs format (unit mm)*
G04 Created by KiCad (PCBNEW 10.0.1) date 2026-04-22 06:08:01*
%MOMM*%
%LPD*%
G01*
G04 APERTURE LIST*
G04 Aperture macros list*
%AMRoundRect*
0 Rectangle with rounded corners*
0 $1 Rounding radius*
0 $2 $3 $4 $5 $6 $7 $8 $9 X,Y pos of 4 corners*
0 Add a 4 corners polygon primitive as box body*
4,1,4,$2,$3,$4,$5,$6,$7,$8,$9,$2,$3,0*
0 Add four circle primitives for the rounded corners*
1,1,$1+$1,$2,$3*
1,1,$1+$1,$4,$5*
1,1,$1+$1,$6,$7*
1,1,$1+$1,$8,$9*
0 Add four rect primitives between the rounded corners*
20,1,$1+$1,$2,$3,$4,$5,0*
20,1,$1+$1,$4,$5,$6,$7,0*
20,1,$1+$1,$6,$7,$8,$9,0*
20,1,$1+$1,$8,$9,$2,$3,0*%
%AMFreePoly0*
4,1,19,-0.850000,0.510000,-0.510000,0.850000,0.255000,0.850000,0.408997,0.829726,0.552500,0.770285,0.675729,0.675729,0.770285,0.552500,0.829726,0.408997,0.850000,0.255000,0.850000,-0.510000,0.510000,-0.850000,-0.255000,-0.850000,-0.408997,-0.829726,-0.552500,-0.770285,-0.675729,-0.675729,-0.770285,-0.552500,-0.829726,-0.408997,-0.850000,-0.255000,-0.850000,0.510000,-0.850000,0.510000,
$1*%
%AMFreePoly1*
4,1,29,-0.590000,1.425000,-0.330000,1.425000,-0.330000,2.200000,-0.130000,2.200000,-0.130000,1.425000,0.130000,1.425000,0.130000,2.200000,0.330000,2.200000,0.330000,1.425000,0.590000,1.425000,0.590000,2.200000,0.790000,2.200000,0.790000,-2.200000,0.590000,-2.200000,0.590000,-1.425000,0.330000,-1.425000,0.330000,-2.200000,0.130000,-2.200000,0.130000,-1.425000,-0.130000,-1.425000,
-0.130000,-2.200000,-0.330000,-2.200000,-0.330000,-1.425000,-0.590000,-1.425000,-0.590000,-2.200000,-0.790000,-2.200000,-0.790000,2.200000,-0.590000,2.200000,-0.590000,1.425000,-0.590000,1.425000,$1*%
G04 Aperture macros list end*
%ADD10C,0.130000*%
%ADD11C,0.300000*%
%ADD12C,0.150000*%
%ADD13C,0.120000*%
%ADD14C,0.152400*%
%ADD15C,1.500000*%
%ADD16C,0.800000*%
%ADD17C,6.400000*%
%ADD18FreePoly0,180.000000*%
%ADD19C,1.700000*%
%ADD20RoundRect,0.250000X0.900000X-1.500000X0.900000X1.500000X-0.900000X1.500000X-0.900000X-1.500000X0*%
%ADD21RoundRect,0.249999X-0.450001X-1.075001X0.450001X-1.075001X0.450001X1.075001X-0.450001X1.075001X0*%
%ADD22RoundRect,0.249999X1.075001X-0.450001X1.075001X0.450001X-1.075001X0.450001X-1.075001X-0.450001X0*%
%ADD23RoundRect,0.249999X-1.075001X0.450001X-1.075001X-0.450001X1.075001X-0.450001X1.075001X0.450001X0*%
%ADD24RoundRect,0.150000X0.150000X-0.587500X0.150000X0.587500X-0.150000X0.587500X-0.150000X-0.587500X0*%
%ADD25RoundRect,0.250000X-0.625000X0.350000X-0.625000X-0.350000X0.625000X-0.350000X0.625000X0.350000X0*%
%ADD26O,1.750000X1.200000*%
%ADD27RoundRect,0.250000X0.400000X1.075000X-0.400000X1.075000X-0.400000X-1.075000X0.400000X-1.075000X0*%
%ADD28RoundRect,0.249999X1.450001X-0.450001X1.450001X0.450001X-1.450001X0.450001X-1.450001X-0.450001X0*%
%ADD29RoundRect,0.249999X-0.450001X-1.450001X0.450001X-1.450001X0.450001X1.450001X-0.450001X1.450001X0*%
%ADD30R,0.203200X0.762000*%
%ADD31R,1.600200X0.990600*%
%ADD32RoundRect,0.250001X0.499999X0.999999X-0.499999X0.999999X-0.499999X-0.999999X0.499999X-0.999999X0*%
%ADD33RoundRect,0.249999X-1.450001X0.450001X-1.450001X-0.450001X1.450001X-0.450001X1.450001X0.450001X0*%
%ADD34RoundRect,0.060000X-0.240000X-0.060000X0.240000X-0.060000X0.240000X0.060000X-0.240000X0.060000X0*%
%ADD35C,0.600000*%
%ADD36FreePoly1,0.000000*%
%ADD37RoundRect,0.249999X0.450001X1.450001X-0.450001X1.450001X-0.450001X-1.450001X0.450001X-1.450001X0*%
%ADD38RoundRect,0.250000X0.350000X0.625000X-0.350000X0.625000X-0.350000X-0.625000X0.350000X-0.625000X0*%
%ADD39O,1.200000X1.750000*%
%ADD40RoundRect,0.249999X0.450001X1.075001X-0.450001X1.075001X-0.450001X-1.075001X0.450001X-1.075001X0*%
G04 APERTURE END LIST*
D10*
X104394000Y-91440000D02*
X105405163Y-90428837D01*
X105772858Y-90061142D02*
X106784021Y-89049979D01*
X107151716Y-88682284D02*
X108162879Y-87671121D01*
X108530575Y-87303425D02*
X109541737Y-86292263D01*
X109909433Y-85924567D02*
X110920596Y-84913404D01*
X111288291Y-84545709D02*
X112299454Y-83534546D01*
X112667149Y-83166851D02*
X113538000Y-82296000D01*
X113538000Y-82296000D02*
X114968000Y-82296000D01*
X115488000Y-82296000D02*
X116918000Y-82296000D01*
X117438000Y-82296000D02*
X118868000Y-82296000D01*
X119388000Y-82296000D02*
X120818000Y-82296000D01*
X121338000Y-82296000D02*
X122768000Y-82296000D01*
X123288000Y-82296000D02*
X124718000Y-82296000D01*
X125238000Y-82296000D02*
X126668000Y-82296000D01*
X127188000Y-82296000D02*
X128618000Y-82296000D01*
X129138000Y-82296000D02*
X130568000Y-82296000D01*
X131088000Y-82296000D02*
X132518000Y-82296000D01*
X133038000Y-82296000D02*
X134468000Y-82296000D01*
X134988000Y-82296000D02*
X136418000Y-82296000D01*
X136938000Y-82296000D02*
X138368000Y-82296000D01*
X138888000Y-82296000D02*
X139700000Y-82296000D01*
X139700000Y-82296000D02*
X140711163Y-83307163D01*
X141078858Y-83674858D02*
X142090021Y-84686021D01*
X142457716Y-85053716D02*
X143468879Y-86064879D01*
X143836575Y-86432575D02*
X144847737Y-87443737D01*
X145215433Y-87811433D02*
X146226596Y-88822596D01*
X146594291Y-89190291D02*
X147605454Y-90201454D01*
X147973149Y-90569149D02*
X148844000Y-91440000D01*
X148844000Y-91440000D02*
X147414000Y-91440000D01*
X146894000Y-91440000D02*
X145464000Y-91440000D01*
X144944000Y-91440000D02*
X143514000Y-91440000D01*
X142994000Y-91440000D02*
X141564000Y-91440000D01*
X141044000Y-91440000D02*
X139614000Y-91440000D01*
X139094000Y-91440000D02*
X137664000Y-91440000D01*
X137144000Y-91440000D02*
X135714000Y-91440000D01*
X135194000Y-91440000D02*
X133764000Y-91440000D01*
X133244000Y-91440000D02*
X131814000Y-91440000D01*
X131294000Y-91440000D02*
X129864000Y-91440000D01*
X129344000Y-91440000D02*
X127914000Y-91440000D01*
X127394000Y-91440000D02*
X125964000Y-91440000D01*
X125444000Y-91440000D02*
X124014000Y-91440000D01*
X123494000Y-91440000D02*
X122064000Y-91440000D01*
X121544000Y-91440000D02*
X120114000Y-91440000D01*
X119594000Y-91440000D02*
X118164000Y-91440000D01*
X117644000Y-91440000D02*
X116214000Y-91440000D01*
X115694000Y-91440000D02*
X114264000Y-91440000D01*
X113744000Y-91440000D02*
X112314000Y-91440000D01*
X111794000Y-91440000D02*
X110364000Y-91440000D01*
X109844000Y-91440000D02*
X108414000Y-91440000D01*
X107894000Y-91440000D02*
X106464000Y-91440000D01*
X105944000Y-91440000D02*
X104514000Y-91440000D01*
G36*
X113112552Y-83222625D02*
G01*
X113112552Y-83272374D01*
X113098462Y-83293462D01*
X104905962Y-91485962D01*
X104884875Y-91500052D01*
X104835125Y-91500052D01*
X104799948Y-91464875D01*
X104799948Y-91415125D01*
X104814038Y-91394038D01*
X113006538Y-83201538D01*
X113027626Y-83187448D01*
X113077375Y-83187448D01*
X113112552Y-83222625D01*
G37*
G36*
X113112552Y-84522625D02*
G01*
X113112552Y-84572375D01*
X113098462Y-84593462D01*
X106205962Y-91485962D01*
X106184875Y-91500052D01*
X106135125Y-91500052D01*
X106099948Y-91464875D01*
X106099948Y-91415125D01*
X106114038Y-91394038D01*
X113006538Y-84501538D01*
X113027625Y-84487448D01*
X113077375Y-84487448D01*
X113112552Y-84522625D01*
G37*
G36*
X113112552Y-85822626D02*
G01*
X113112552Y-85872375D01*
X113098462Y-85893462D01*
X107505962Y-91485962D01*
X107484875Y-91500052D01*
X107435125Y-91500052D01*
X107399948Y-91464875D01*
X107399948Y-91415125D01*
X107414038Y-91394038D01*
X113006538Y-85801538D01*
X113027625Y-85787448D01*
X113077374Y-85787448D01*
X113112552Y-85822626D01*
G37*
G36*
X113112552Y-87122625D02*
G01*
X113112552Y-87172374D01*
X113098462Y-87193462D01*
X108805962Y-91485962D01*
X108784875Y-91500052D01*
X108735125Y-91500052D01*
X108699948Y-91464875D01*
X108699948Y-91415125D01*
X108714038Y-91394038D01*
X113006538Y-87101538D01*
X113027626Y-87087448D01*
X113077375Y-87087448D01*
X113112552Y-87122625D01*
G37*
G36*
X113303958Y-88231219D02*
G01*
X113303958Y-88280968D01*
X113289869Y-88302055D01*
X110105962Y-91485962D01*
X110084875Y-91500052D01*
X110035125Y-91500052D01*
X109999948Y-91464875D01*
X109999948Y-91415125D01*
X110014038Y-91394038D01*
X113197945Y-88210131D01*
X113219032Y-88196042D01*
X113268781Y-88196042D01*
X113303958Y-88231219D01*
G37*
G36*
X113792188Y-89042991D02*
G01*
X113792188Y-89092740D01*
X113778098Y-89113827D01*
X111405962Y-91485962D01*
X111384875Y-91500052D01*
X111335125Y-91500052D01*
X111299948Y-91464875D01*
X111299948Y-91415125D01*
X111314038Y-91394038D01*
X113686174Y-89021903D01*
X113707261Y-89007813D01*
X113757010Y-89007813D01*
X113792188Y-89042991D01*
G37*
G36*
X114507636Y-89627541D02*
G01*
X114507636Y-89677290D01*
X114493546Y-89698378D01*
X112705962Y-91485962D01*
X112684875Y-91500052D01*
X112635125Y-91500052D01*
X112599948Y-91464875D01*
X112599948Y-91415125D01*
X112614038Y-91394038D01*
X114401622Y-89606454D01*
X114422710Y-89592364D01*
X114472459Y-89592364D01*
X114507636Y-89627541D01*
G37*
G36*
X115479219Y-89955958D02*
G01*
X115479219Y-90005707D01*
X115465129Y-90026795D01*
X114005962Y-91485962D01*
X113984875Y-91500052D01*
X113935125Y-91500052D01*
X113899948Y-91464875D01*
X113899948Y-91415125D01*
X113914038Y-91394038D01*
X115373205Y-89934871D01*
X115394293Y-89920781D01*
X115444042Y-89920781D01*
X115479219Y-89955958D01*
G37*
G36*
X116755051Y-89980126D02*
G01*
X116755051Y-90029875D01*
X116740962Y-90050962D01*
X115305962Y-91485962D01*
X115284875Y-91500052D01*
X115235125Y-91500052D01*
X115199948Y-91464875D01*
X115199948Y-91415125D01*
X115214038Y-91394038D01*
X116649038Y-89959038D01*
X116670125Y-89944949D01*
X116719874Y-89944949D01*
X116755051Y-89980126D01*
G37*
G36*
X118055051Y-89980126D02*
G01*
X118055051Y-90029875D01*
X118040962Y-90050962D01*
X116605962Y-91485962D01*
X116584875Y-91500052D01*
X116535125Y-91500052D01*
X116499948Y-91464875D01*
X116499948Y-91415125D01*
X116514038Y-91394038D01*
X117949038Y-89959038D01*
X117970125Y-89944949D01*
X118019874Y-89944949D01*
X118055051Y-89980126D01*
G37*
G36*
X119355051Y-89980126D02*
G01*
X119355051Y-90029875D01*
X119340962Y-90050962D01*
X117905962Y-91485962D01*
X117884875Y-91500052D01*
X117835125Y-91500052D01*
X117799948Y-91464875D01*
X117799948Y-91415125D01*
X117814038Y-91394038D01*
X119249038Y-89959038D01*
X119270125Y-89944949D01*
X119319874Y-89944949D01*
X119355051Y-89980126D01*
G37*
G36*
X120655051Y-89980126D02*
G01*
X120655051Y-90029875D01*
X120640962Y-90050962D01*
X119205962Y-91485962D01*
X119184875Y-91500052D01*
X119135125Y-91500052D01*
X119099948Y-91464875D01*
X119099948Y-91415125D01*
X119114038Y-91394038D01*
X120549038Y-89959038D01*
X120570125Y-89944949D01*
X120619874Y-89944949D01*
X120655051Y-89980126D01*
G37*
G36*
X121955051Y-89980126D02*
G01*
X121955051Y-90029875D01*
X121940962Y-90050962D01*
X120505962Y-91485962D01*
X120484875Y-91500052D01*
X120435125Y-91500052D01*
X120399948Y-91464875D01*
X120399948Y-91415125D01*
X120414038Y-91394038D01*
X121849038Y-89959038D01*
X121870125Y-89944949D01*
X121919874Y-89944949D01*
X121955051Y-89980126D01*
G37*
G36*
X123255051Y-89980126D02*
G01*
X123255051Y-90029875D01*
X123240962Y-90050962D01*
X121805962Y-91485962D01*
X121784875Y-91500052D01*
X121735125Y-91500052D01*
X121699948Y-91464875D01*
X121699948Y-91415125D01*
X121714038Y-91394038D01*
X123149038Y-89959038D01*
X123170125Y-89944949D01*
X123219874Y-89944949D01*
X123255051Y-89980126D01*
G37*
G36*
X124555051Y-89980126D02*
G01*
X124555051Y-90029875D01*
X124540962Y-90050962D01*
X123105962Y-91485962D01*
X123084875Y-91500052D01*
X123035125Y-91500052D01*
X122999948Y-91464875D01*
X122999948Y-91415125D01*
X123014038Y-91394038D01*
X124449038Y-89959038D01*
X124470125Y-89944949D01*
X124519874Y-89944949D01*
X124555051Y-89980126D01*
G37*
G36*
X125855051Y-89980126D02*
G01*
X125855051Y-90029875D01*
X125840962Y-90050962D01*
X124405962Y-91485962D01*
X124384875Y-91500052D01*
X124335125Y-91500052D01*
X124299948Y-91464875D01*
X124299948Y-91415125D01*
X124314038Y-91394038D01*
X125749038Y-89959038D01*
X125770125Y-89944949D01*
X125819874Y-89944949D01*
X125855051Y-89980126D01*
G37*
G36*
X127155051Y-89980126D02*
G01*
X127155051Y-90029875D01*
X127140962Y-90050962D01*
X125705962Y-91485962D01*
X125684875Y-91500052D01*
X125635125Y-91500052D01*
X125599948Y-91464875D01*
X125599948Y-91415125D01*
X125614038Y-91394038D01*
X127049038Y-89959038D01*
X127070125Y-89944949D01*
X127119874Y-89944949D01*
X127155051Y-89980126D01*
G37*
G36*
X128455051Y-89980126D02*
G01*
X128455051Y-90029875D01*
X128440962Y-90050962D01*
X127005962Y-91485962D01*
X126984875Y-91500052D01*
X126935125Y-91500052D01*
X126899948Y-91464875D01*
X126899948Y-91415125D01*
X126914038Y-91394038D01*
X128349038Y-89959038D01*
X128370125Y-89944949D01*
X128419874Y-89944949D01*
X128455051Y-89980126D01*
G37*
G36*
X129755051Y-89980126D02*
G01*
X129755051Y-90029875D01*
X129740962Y-90050962D01*
X128305962Y-91485962D01*
X128284875Y-91500052D01*
X128235125Y-91500052D01*
X128199948Y-91464875D01*
X128199948Y-91415125D01*
X128214038Y-91394038D01*
X129649038Y-89959038D01*
X129670125Y-89944949D01*
X129719874Y-89944949D01*
X129755051Y-89980126D01*
G37*
G36*
X131055051Y-89980126D02*
G01*
X131055051Y-90029875D01*
X131040962Y-90050962D01*
X129605962Y-91485962D01*
X129584875Y-91500052D01*
X129535125Y-91500052D01*
X129499948Y-91464875D01*
X129499948Y-91415125D01*
X129514038Y-91394038D01*
X130949038Y-89959038D01*
X130970125Y-89944949D01*
X131019874Y-89944949D01*
X131055051Y-89980126D01*
G37*
G36*
X132355051Y-89980126D02*
G01*
X132355051Y-90029875D01*
X132340962Y-90050962D01*
X130905962Y-91485962D01*
X130884875Y-91500052D01*
X130835125Y-91500052D01*
X130799948Y-91464875D01*
X130799948Y-91415125D01*
X130814038Y-91394038D01*
X132249038Y-89959038D01*
X132270125Y-89944949D01*
X132319874Y-89944949D01*
X132355051Y-89980126D01*
G37*
G36*
X133655051Y-89980126D02*
G01*
X133655051Y-90029875D01*
X133640962Y-90050962D01*
X132205962Y-91485962D01*
X132184875Y-91500052D01*
X132135125Y-91500052D01*
X132099948Y-91464875D01*
X132099948Y-91415125D01*
X132114038Y-91394038D01*
X133549038Y-89959038D01*
X133570125Y-89944949D01*
X133619874Y-89944949D01*
X133655051Y-89980126D01*
G37*
G36*
X134955051Y-89980126D02*
G01*
X134955051Y-90029875D01*
X134940962Y-90050962D01*
X133505962Y-91485962D01*
X133484875Y-91500052D01*
X133435125Y-91500052D01*
X133399948Y-91464875D01*
X133399948Y-91415125D01*
X133414038Y-91394038D01*
X134849038Y-89959038D01*
X134870125Y-89944949D01*
X134919874Y-89944949D01*
X134955051Y-89980126D01*
G37*
G36*
X136255051Y-89980126D02*
G01*
X136255051Y-90029875D01*
X136240962Y-90050962D01*
X134805962Y-91485962D01*
X134784875Y-91500052D01*
X134735125Y-91500052D01*
X134699948Y-91464875D01*
X134699948Y-91415125D01*
X134714038Y-91394038D01*
X136149038Y-89959038D01*
X136170125Y-89944949D01*
X136219874Y-89944949D01*
X136255051Y-89980126D01*
G37*
G36*
X137555051Y-89980126D02*
G01*
X137555051Y-90029875D01*
X137540962Y-90050962D01*
X136105962Y-91485962D01*
X136084875Y-91500052D01*
X136035125Y-91500052D01*
X135999948Y-91464875D01*
X135999948Y-91415125D01*
X136014038Y-91394038D01*
X137449038Y-89959038D01*
X137470125Y-89944949D01*
X137519874Y-89944949D01*
X137555051Y-89980126D01*
G37*
G36*
X143162052Y-85673126D02*
G01*
X143162052Y-85722875D01*
X143147962Y-85743962D01*
X137405962Y-91485962D01*
X137384875Y-91500052D01*
X137335125Y-91500052D01*
X137299948Y-91464875D01*
X137299948Y-91415125D01*
X137314038Y-91394038D01*
X143056038Y-85652038D01*
X143077125Y-85637948D01*
X143126874Y-85637948D01*
X143162052Y-85673126D01*
G37*
G36*
X143812051Y-86323126D02*
G01*
X143812051Y-86372875D01*
X143797962Y-86393962D01*
X138705962Y-91485962D01*
X138684875Y-91500052D01*
X138635125Y-91500052D01*
X138599948Y-91464875D01*
X138599948Y-91415125D01*
X138614038Y-91394038D01*
X143706038Y-86302038D01*
X143727125Y-86287949D01*
X143776874Y-86287949D01*
X143812051Y-86323126D01*
G37*
G36*
X144462052Y-86973125D02*
G01*
X144462052Y-87022874D01*
X144447962Y-87043962D01*
X140005962Y-91485962D01*
X139984875Y-91500052D01*
X139935125Y-91500052D01*
X139899948Y-91464875D01*
X139899948Y-91415125D01*
X139914038Y-91394038D01*
X144356038Y-86952038D01*
X144377126Y-86937948D01*
X144426875Y-86937948D01*
X144462052Y-86973125D01*
G37*
G36*
X145112052Y-87623125D02*
G01*
X145112052Y-87672874D01*
X145097962Y-87693962D01*
X141305962Y-91485962D01*
X141284875Y-91500052D01*
X141235125Y-91500052D01*
X141199948Y-91464875D01*
X141199948Y-91415125D01*
X141214038Y-91394038D01*
X145006038Y-87602038D01*
X145027126Y-87587948D01*
X145076875Y-87587948D01*
X145112052Y-87623125D01*
G37*
G36*
X145762052Y-88273125D02*
G01*
X145762052Y-88322875D01*
X145747962Y-88343962D01*
X142605962Y-91485962D01*
X142584875Y-91500052D01*
X142535125Y-91500052D01*
X142499948Y-91464875D01*
X142499948Y-91415125D01*
X142514038Y-91394038D01*
X145656038Y-88252038D01*
X145677125Y-88237948D01*
X145726875Y-88237948D01*
X145762052Y-88273125D01*
G37*
G36*
X146412052Y-88923126D02*
G01*
X146412052Y-88972875D01*
X146397962Y-88993962D01*
X143905962Y-91485962D01*
X143884875Y-91500052D01*
X143835125Y-91500052D01*
X143799948Y-91464875D01*
X143799948Y-91415125D01*
X143814038Y-91394038D01*
X146306038Y-88902038D01*
X146327125Y-88887948D01*
X146376874Y-88887948D01*
X146412052Y-88923126D01*
G37*
G36*
X147062051Y-89573126D02*
G01*
X147062051Y-89622875D01*
X147047962Y-89643962D01*
X145205962Y-91485962D01*
X145184875Y-91500052D01*
X145135125Y-91500052D01*
X145099948Y-91464875D01*
X145099948Y-91415125D01*
X145114038Y-91394038D01*
X146956038Y-89552038D01*
X146977125Y-89537949D01*
X147026874Y-89537949D01*
X147062051Y-89573126D01*
G37*
G36*
X147712052Y-90223125D02*
G01*
X147712052Y-90272874D01*
X147697962Y-90293962D01*
X146505962Y-91485962D01*
X146484875Y-91500052D01*
X146435125Y-91500052D01*
X146399948Y-91464875D01*
X146399948Y-91415125D01*
X146414038Y-91394038D01*
X147606038Y-90202038D01*
X147627126Y-90187948D01*
X147676875Y-90187948D01*
X147712052Y-90223125D01*
G37*
G36*
X148362052Y-90873125D02*
G01*
X148362052Y-90922874D01*
X148347962Y-90943962D01*
X147805962Y-91485962D01*
X147784875Y-91500052D01*
X147735125Y-91500052D01*
X147699948Y-91464875D01*
X147699948Y-91415125D01*
X147714038Y-91394038D01*
X148256038Y-90852038D01*
X148277126Y-90837948D01*
X148326875Y-90837948D01*
X148362052Y-90873125D01*
G37*
G36*
X123164052Y-82271125D02*
G01*
X123164052Y-82320875D01*
X123149962Y-82341962D01*
X116860962Y-88630962D01*
X116839875Y-88645052D01*
X116790125Y-88645052D01*
X116754948Y-88609875D01*
X116754948Y-88560125D01*
X116769038Y-88539038D01*
X123058038Y-82250038D01*
X123079125Y-82235948D01*
X123128875Y-82235948D01*
X123164052Y-82271125D01*
G37*
G36*
X124464052Y-82271125D02*
G01*
X124464052Y-82320875D01*
X124449962Y-82341962D01*
X118160962Y-88630962D01*
X118139875Y-88645052D01*
X118090125Y-88645052D01*
X118054948Y-88609875D01*
X118054948Y-88560125D01*
X118069038Y-88539038D01*
X124358038Y-82250038D01*
X124379125Y-82235948D01*
X124428875Y-82235948D01*
X124464052Y-82271125D01*
G37*
G36*
X125764052Y-82271125D02*
G01*
X125764052Y-82320875D01*
X125749962Y-82341962D01*
X119460962Y-88630962D01*
X119439875Y-88645052D01*
X119390125Y-88645052D01*
X119354948Y-88609875D01*
X119354948Y-88560125D01*
X119369038Y-88539038D01*
X125658038Y-82250038D01*
X125679125Y-82235948D01*
X125728875Y-82235948D01*
X125764052Y-82271125D01*
G37*
G36*
X127064052Y-82271125D02*
G01*
X127064052Y-82320875D01*
X127049962Y-82341962D01*
X120760962Y-88630962D01*
X120739875Y-88645052D01*
X120690125Y-88645052D01*
X120654948Y-88609875D01*
X120654948Y-88560125D01*
X120669038Y-88539038D01*
X126958038Y-82250038D01*
X126979125Y-82235948D01*
X127028875Y-82235948D01*
X127064052Y-82271125D01*
G37*
G36*
X128364052Y-82271125D02*
G01*
X128364052Y-82320875D01*
X128349962Y-82341962D01*
X122060962Y-88630962D01*
X122039875Y-88645052D01*
X121990125Y-88645052D01*
X121954948Y-88609875D01*
X121954948Y-88560125D01*
X121969038Y-88539038D01*
X128258038Y-82250038D01*
X128279125Y-82235948D01*
X128328875Y-82235948D01*
X128364052Y-82271125D01*
G37*
G36*
X129664052Y-82271125D02*
G01*
X129664052Y-82320875D01*
X129649962Y-82341962D01*
X123360962Y-88630962D01*
X123339875Y-88645052D01*
X123290125Y-88645052D01*
X123254948Y-88609875D01*
X123254948Y-88560125D01*
X123269038Y-88539038D01*
X129558038Y-82250038D01*
X129579125Y-82235948D01*
X129628875Y-82235948D01*
X129664052Y-82271125D01*
G37*
G36*
X130964052Y-82271125D02*
G01*
X130964052Y-82320875D01*
X130949962Y-82341962D01*
X124660962Y-88630962D01*
X124639875Y-88645052D01*
X124590125Y-88645052D01*
X124554948Y-88609875D01*
X124554948Y-88560125D01*
X124569038Y-88539038D01*
X130858038Y-82250038D01*
X130879125Y-82235948D01*
X130928875Y-82235948D01*
X130964052Y-82271125D01*
G37*
G36*
X132264052Y-82271125D02*
G01*
X132264052Y-82320875D01*
X132249962Y-82341962D01*
X125960962Y-88630962D01*
X125939875Y-88645052D01*
X125890125Y-88645052D01*
X125854948Y-88609875D01*
X125854948Y-88560125D01*
X125869038Y-88539038D01*
X132158038Y-82250038D01*
X132179125Y-82235948D01*
X132228875Y-82235948D01*
X132264052Y-82271125D01*
G37*
G36*
X133564052Y-82271125D02*
G01*
X133564052Y-82320875D01*
X133549962Y-82341962D01*
X127260962Y-88630962D01*
X127239875Y-88645052D01*
X127190125Y-88645052D01*
X127154948Y-88609875D01*
X127154948Y-88560125D01*
X127169038Y-88539038D01*
X133458038Y-82250038D01*
X133479125Y-82235948D01*
X133528875Y-82235948D01*
X133564052Y-82271125D01*
G37*
G36*
X134864052Y-82271125D02*
G01*
X134864052Y-82320875D01*
X134849962Y-82341962D01*
X128560962Y-88630962D01*
X128539875Y-88645052D01*
X128490125Y-88645052D01*
X128454948Y-88609875D01*
X128454948Y-88560125D01*
X128469038Y-88539038D01*
X134758038Y-82250038D01*
X134779125Y-82235948D01*
X134828875Y-82235948D01*
X134864052Y-82271125D01*
G37*
G36*
X136164052Y-82271125D02*
G01*
X136164052Y-82320875D01*
X136149962Y-82341962D01*
X129860962Y-88630962D01*
X129839875Y-88645052D01*
X129790125Y-88645052D01*
X129754948Y-88609875D01*
X129754948Y-88560125D01*
X129769038Y-88539038D01*
X136058038Y-82250038D01*
X136079125Y-82235948D01*
X136128875Y-82235948D01*
X136164052Y-82271125D01*
G37*
G36*
X137464052Y-82271125D02*
G01*
X137464052Y-82320875D01*
X137449962Y-82341962D01*
X131160962Y-88630962D01*
X131139875Y-88645052D01*
X131090125Y-88645052D01*
X131054948Y-88609875D01*
X131054948Y-88560125D01*
X131069038Y-88539038D01*
X137358038Y-82250038D01*
X137379125Y-82235948D01*
X137428875Y-82235948D01*
X137464052Y-82271125D01*
G37*
G36*
X138764052Y-82271125D02*
G01*
X138764052Y-82320875D01*
X138749962Y-82341962D01*
X132460962Y-88630962D01*
X132439875Y-88645052D01*
X132390125Y-88645052D01*
X132354948Y-88609875D01*
X132354948Y-88560125D01*
X132369038Y-88539038D01*
X138658038Y-82250038D01*
X138679125Y-82235948D01*
X138728875Y-82235948D01*
X138764052Y-82271125D01*
G37*
G36*
X138812552Y-83522625D02*
G01*
X138812552Y-83572374D01*
X138798462Y-83593462D01*
X133760962Y-88630962D01*
X133739875Y-88645052D01*
X133690125Y-88645052D01*
X133654948Y-88609875D01*
X133654948Y-88560125D01*
X133669038Y-88539038D01*
X138706538Y-83501538D01*
X138727626Y-83487448D01*
X138777375Y-83487448D01*
X138812552Y-83522625D01*
G37*
G36*
X138812552Y-84822626D02*
G01*
X138812552Y-84872375D01*
X138798462Y-84893462D01*
X135060962Y-88630962D01*
X135039875Y-88645052D01*
X134990125Y-88645052D01*
X134954948Y-88609875D01*
X134954948Y-88560125D01*
X134969038Y-88539038D01*
X138706538Y-84801538D01*
X138727625Y-84787448D01*
X138777374Y-84787448D01*
X138812552Y-84822626D01*
G37*
G36*
X138812552Y-86122625D02*
G01*
X138812552Y-86172374D01*
X138798462Y-86193462D01*
X136360962Y-88630962D01*
X136339875Y-88645052D01*
X136290125Y-88645052D01*
X136254948Y-88609875D01*
X136254948Y-88560125D01*
X136269038Y-88539038D01*
X138706538Y-86101538D01*
X138727626Y-86087448D01*
X138777375Y-86087448D01*
X138812552Y-86122625D01*
G37*
G36*
X138781850Y-87453327D02*
G01*
X138781850Y-87503076D01*
X138767761Y-87524163D01*
X137691663Y-88600261D01*
X137670576Y-88614351D01*
X137620826Y-88614351D01*
X137585649Y-88579174D01*
X137585649Y-88529424D01*
X137599739Y-88508337D01*
X138675837Y-87432239D01*
X138696924Y-87418150D01*
X138746673Y-87418150D01*
X138781850Y-87453327D01*
G37*
G36*
X121864052Y-82271126D02*
G01*
X121864052Y-82320875D01*
X121849962Y-82341962D01*
X115595572Y-88596352D01*
X115574485Y-88610442D01*
X115524735Y-88610442D01*
X115489558Y-88575265D01*
X115489558Y-88525515D01*
X115503648Y-88504428D01*
X121758038Y-82250038D01*
X121779125Y-82235948D01*
X121828874Y-82235948D01*
X121864052Y-82271126D01*
G37*
G36*
X120564052Y-82271125D02*
G01*
X120564052Y-82320875D01*
X120549962Y-82341962D01*
X114799139Y-88092785D01*
X114778052Y-88106875D01*
X114728302Y-88106875D01*
X114693125Y-88071698D01*
X114693125Y-88021948D01*
X114707215Y-88000861D01*
X120458038Y-82250038D01*
X120479125Y-82235948D01*
X120528875Y-82235948D01*
X120564052Y-82271125D01*
G37*
G36*
X142512052Y-85023125D02*
G01*
X142512052Y-85072874D01*
X142497962Y-85093962D01*
X140218462Y-87373462D01*
X140197375Y-87387552D01*
X140147625Y-87387552D01*
X140112448Y-87352375D01*
X140112448Y-87302625D01*
X140126538Y-87281538D01*
X142406038Y-85002038D01*
X142427126Y-84987948D01*
X142476875Y-84987948D01*
X142512052Y-85023125D01*
G37*
G36*
X119264051Y-82271126D02*
G01*
X119264051Y-82320875D01*
X119249962Y-82341962D01*
X114518462Y-87073462D01*
X114497375Y-87087552D01*
X114447625Y-87087552D01*
X114412448Y-87052375D01*
X114412448Y-87002625D01*
X114426538Y-86981538D01*
X119158038Y-82250038D01*
X119179125Y-82235949D01*
X119228874Y-82235949D01*
X119264051Y-82271126D01*
G37*
G36*
X141862052Y-84373125D02*
G01*
X141862052Y-84422875D01*
X141847962Y-84443962D01*
X140218462Y-86073462D01*
X140197375Y-86087552D01*
X140147625Y-86087552D01*
X140112448Y-86052375D01*
X140112448Y-86002625D01*
X140126538Y-85981538D01*
X141756038Y-84352038D01*
X141777125Y-84337948D01*
X141826875Y-84337948D01*
X141862052Y-84373125D01*
G37*
G36*
X117964052Y-82271125D02*
G01*
X117964052Y-82320874D01*
X117949962Y-82341962D01*
X114518462Y-85773462D01*
X114497375Y-85787552D01*
X114447625Y-85787552D01*
X114412448Y-85752375D01*
X114412448Y-85702625D01*
X114426538Y-85681538D01*
X117858038Y-82250038D01*
X117879126Y-82235948D01*
X117928875Y-82235948D01*
X117964052Y-82271125D01*
G37*
G36*
X141212052Y-83723126D02*
G01*
X141212052Y-83772875D01*
X141197962Y-83793962D01*
X140218462Y-84773462D01*
X140197375Y-84787552D01*
X140147625Y-84787552D01*
X140112448Y-84752375D01*
X140112448Y-84702625D01*
X140126538Y-84681538D01*
X141106038Y-83702038D01*
X141127125Y-83687948D01*
X141176874Y-83687948D01*
X141212052Y-83723126D01*
G37*
G36*
X116664052Y-82271126D02*
G01*
X116664052Y-82320875D01*
X116649962Y-82341962D01*
X114518462Y-84473462D01*
X114497375Y-84487552D01*
X114447625Y-84487552D01*
X114412448Y-84452375D01*
X114412448Y-84402625D01*
X114426538Y-84381538D01*
X116558038Y-82250038D01*
X116579125Y-82235948D01*
X116628874Y-82235948D01*
X116664052Y-82271126D01*
G37*
G36*
X140562051Y-83073126D02*
G01*
X140562051Y-83122875D01*
X140547962Y-83143962D01*
X140218462Y-83473462D01*
X140197375Y-83487552D01*
X140147625Y-83487552D01*
X140112448Y-83452375D01*
X140112448Y-83402625D01*
X140126538Y-83381538D01*
X140456038Y-83052038D01*
X140477125Y-83037949D01*
X140526874Y-83037949D01*
X140562051Y-83073126D01*
G37*
G36*
X115364052Y-82271125D02*
G01*
X115364052Y-82320874D01*
X115349962Y-82341962D01*
X114518462Y-83173462D01*
X114497375Y-83187552D01*
X114447625Y-83187552D01*
X114412448Y-83152375D01*
X114412448Y-83102625D01*
X114426538Y-83081538D01*
X115258038Y-82250038D01*
X115279126Y-82235948D01*
X115328875Y-82235948D01*
X115364052Y-82271125D01*
G37*
D11*
X102100742Y-62840082D02*
X102100742Y-63554368D01*
X101672171Y-62697225D02*
X103172171Y-63197225D01*
X103172171Y-63197225D02*
X101672171Y-63697225D01*
X101672171Y-64411510D02*
X101743600Y-64268653D01*
X101743600Y-64268653D02*
X101886457Y-64197224D01*
X101886457Y-64197224D02*
X103172171Y-64197224D01*
X101672171Y-65625796D02*
X102457885Y-65625796D01*
X102457885Y-65625796D02*
X102600742Y-65554367D01*
X102600742Y-65554367D02*
X102672171Y-65411510D01*
X102672171Y-65411510D02*
X102672171Y-65125796D01*
X102672171Y-65125796D02*
X102600742Y-64982938D01*
X101743600Y-65625796D02*
X101672171Y-65482938D01*
X101672171Y-65482938D02*
X101672171Y-65125796D01*
X101672171Y-65125796D02*
X101743600Y-64982938D01*
X101743600Y-64982938D02*
X101886457Y-64911510D01*
X101886457Y-64911510D02*
X102029314Y-64911510D01*
X102029314Y-64911510D02*
X102172171Y-64982938D01*
X102172171Y-64982938D02*
X102243600Y-65125796D01*
X102243600Y-65125796D02*
X102243600Y-65482938D01*
X102243600Y-65482938D02*
X102315028Y-65625796D01*
X101743600Y-66982939D02*
X101672171Y-66840081D01*
X101672171Y-66840081D02*
X101672171Y-66554367D01*
X101672171Y-66554367D02*
X101743600Y-66411510D01*
X101743600Y-66411510D02*
X101815028Y-66340081D01*
X101815028Y-66340081D02*
X101957885Y-66268653D01*
X101957885Y-66268653D02*
X102386457Y-66268653D01*
X102386457Y-66268653D02*
X102529314Y-66340081D01*
X102529314Y-66340081D02*
X102600742Y-66411510D01*
X102600742Y-66411510D02*
X102672171Y-66554367D01*
X102672171Y-66554367D02*
X102672171Y-66840081D01*
X102672171Y-66840081D02*
X102600742Y-66982939D01*
X101672171Y-67625795D02*
X102672171Y-67625795D01*
X102386457Y-67625795D02*
X102529314Y-67697224D01*
X102529314Y-67697224D02*
X102600742Y-67768653D01*
X102600742Y-67768653D02*
X102672171Y-67911510D01*
X102672171Y-67911510D02*
X102672171Y-68054367D01*
X101672171Y-68554366D02*
X102672171Y-68554366D01*
X103172171Y-68554366D02*
X103100742Y-68482938D01*
X103100742Y-68482938D02*
X103029314Y-68554366D01*
X103029314Y-68554366D02*
X103100742Y-68625795D01*
X103100742Y-68625795D02*
X103172171Y-68554366D01*
X103172171Y-68554366D02*
X103029314Y-68554366D01*
X102672171Y-69054367D02*
X102672171Y-69625795D01*
X103172171Y-69268652D02*
X101886457Y-69268652D01*
X101886457Y-69268652D02*
X101743600Y-69340081D01*
X101743600Y-69340081D02*
X101672171Y-69482938D01*
X101672171Y-69482938D02*
X101672171Y-69625795D01*
X102672171Y-69982938D02*
X101672171Y-70340081D01*
X102672171Y-70697224D02*
X101672171Y-70340081D01*
X101672171Y-70340081D02*
X101315028Y-70197224D01*
X101315028Y-70197224D02*
X101243600Y-70125795D01*
X101243600Y-70125795D02*
X101172171Y-69982938D01*
X102100742Y-72340081D02*
X102100742Y-73054367D01*
X101672171Y-72197224D02*
X103172171Y-72697224D01*
X103172171Y-72697224D02*
X101672171Y-73197224D01*
X101672171Y-73697223D02*
X102672171Y-73697223D01*
X103172171Y-73697223D02*
X103100742Y-73625795D01*
X103100742Y-73625795D02*
X103029314Y-73697223D01*
X103029314Y-73697223D02*
X103100742Y-73768652D01*
X103100742Y-73768652D02*
X103172171Y-73697223D01*
X103172171Y-73697223D02*
X103029314Y-73697223D01*
X101672171Y-74411509D02*
X102672171Y-74411509D01*
X102386457Y-74411509D02*
X102529314Y-74482938D01*
X102529314Y-74482938D02*
X102600742Y-74554367D01*
X102600742Y-74554367D02*
X102672171Y-74697224D01*
X102672171Y-74697224D02*
X102672171Y-74840081D01*
X102457885Y-75840080D02*
X102386457Y-76054366D01*
X102386457Y-76054366D02*
X102315028Y-76125795D01*
X102315028Y-76125795D02*
X102172171Y-76197223D01*
X102172171Y-76197223D02*
X101957885Y-76197223D01*
X101957885Y-76197223D02*
X101815028Y-76125795D01*
X101815028Y-76125795D02*
X101743600Y-76054366D01*
X101743600Y-76054366D02*
X101672171Y-75911509D01*
X101672171Y-75911509D02*
X101672171Y-75340080D01*
X101672171Y-75340080D02*
X103172171Y-75340080D01*
X103172171Y-75340080D02*
X103172171Y-75840080D01*
X103172171Y-75840080D02*
X103100742Y-75982938D01*
X103100742Y-75982938D02*
X103029314Y-76054366D01*
X103029314Y-76054366D02*
X102886457Y-76125795D01*
X102886457Y-76125795D02*
X102743600Y-76125795D01*
X102743600Y-76125795D02*
X102600742Y-76054366D01*
X102600742Y-76054366D02*
X102529314Y-75982938D01*
X102529314Y-75982938D02*
X102457885Y-75840080D01*
X102457885Y-75840080D02*
X102457885Y-75340080D01*
X101672171Y-77054366D02*
X101743600Y-76911509D01*
X101743600Y-76911509D02*
X101815028Y-76840080D01*
X101815028Y-76840080D02*
X101957885Y-76768652D01*
X101957885Y-76768652D02*
X102386457Y-76768652D01*
X102386457Y-76768652D02*
X102529314Y-76840080D01*
X102529314Y-76840080D02*
X102600742Y-76911509D01*
X102600742Y-76911509D02*
X102672171Y-77054366D01*
X102672171Y-77054366D02*
X102672171Y-77268652D01*
X102672171Y-77268652D02*
X102600742Y-77411509D01*
X102600742Y-77411509D02*
X102529314Y-77482938D01*
X102529314Y-77482938D02*
X102386457Y-77554366D01*
X102386457Y-77554366D02*
X101957885Y-77554366D01*
X101957885Y-77554366D02*
X101815028Y-77482938D01*
X101815028Y-77482938D02*
X101743600Y-77411509D01*
X101743600Y-77411509D02*
X101672171Y-77268652D01*
X101672171Y-77268652D02*
X101672171Y-77054366D01*
X101672171Y-78054366D02*
X102672171Y-78840081D01*
X102672171Y-78054366D02*
X101672171Y-78840081D01*
X103172171Y-80340081D02*
X101672171Y-80840081D01*
X101672171Y-80840081D02*
X103172171Y-81340081D01*
X103029314Y-81768652D02*
X103100742Y-81840080D01*
X103100742Y-81840080D02*
X103172171Y-81982938D01*
X103172171Y-81982938D02*
X103172171Y-82340080D01*
X103172171Y-82340080D02*
X103100742Y-82482938D01*
X103100742Y-82482938D02*
X103029314Y-82554366D01*
X103029314Y-82554366D02*
X102886457Y-82625795D01*
X102886457Y-82625795D02*
X102743600Y-82625795D01*
X102743600Y-82625795D02*
X102529314Y-82554366D01*
X102529314Y-82554366D02*
X101672171Y-81697223D01*
X101672171Y-81697223D02*
X101672171Y-82625795D01*
X146518571Y-55490400D02*
X147661429Y-55490400D01*
X149518571Y-55490400D02*
X150661429Y-55490400D01*
X150090000Y-56061828D02*
X150090000Y-54918971D01*
X144240885Y-56934510D02*
X144169457Y-57148796D01*
X144169457Y-57148796D02*
X144098028Y-57220225D01*
X144098028Y-57220225D02*
X143955171Y-57291653D01*
X143955171Y-57291653D02*
X143740885Y-57291653D01*
X143740885Y-57291653D02*
X143598028Y-57220225D01*
X143598028Y-57220225D02*
X143526600Y-57148796D01*
X143526600Y-57148796D02*
X143455171Y-57005939D01*
X143455171Y-57005939D02*
X143455171Y-56434510D01*
X143455171Y-56434510D02*
X144955171Y-56434510D01*
X144955171Y-56434510D02*
X144955171Y-56934510D01*
X144955171Y-56934510D02*
X144883742Y-57077368D01*
X144883742Y-57077368D02*
X144812314Y-57148796D01*
X144812314Y-57148796D02*
X144669457Y-57220225D01*
X144669457Y-57220225D02*
X144526600Y-57220225D01*
X144526600Y-57220225D02*
X144383742Y-57148796D01*
X144383742Y-57148796D02*
X144312314Y-57077368D01*
X144312314Y-57077368D02*
X144240885Y-56934510D01*
X144240885Y-56934510D02*
X144240885Y-56434510D01*
X143883742Y-57863082D02*
X143883742Y-58577368D01*
X143455171Y-57720225D02*
X144955171Y-58220225D01*
X144955171Y-58220225D02*
X143455171Y-58720225D01*
X144955171Y-59005939D02*
X144955171Y-59863082D01*
X143455171Y-59434510D02*
X144955171Y-59434510D01*
X144955171Y-60148796D02*
X144955171Y-61005939D01*
X143455171Y-60577367D02*
X144955171Y-60577367D01*
X171214516Y-59396714D02*
X171143087Y-59611000D01*
X171143087Y-59611000D02*
X171143087Y-59968142D01*
X171143087Y-59968142D02*
X171214516Y-60111000D01*
X171214516Y-60111000D02*
X171285944Y-60182428D01*
X171285944Y-60182428D02*
X171428801Y-60253857D01*
X171428801Y-60253857D02*
X171571658Y-60253857D01*
X171571658Y-60253857D02*
X171714516Y-60182428D01*
X171714516Y-60182428D02*
X171785944Y-60111000D01*
X171785944Y-60111000D02*
X171857373Y-59968142D01*
X171857373Y-59968142D02*
X171928801Y-59682428D01*
X171928801Y-59682428D02*
X172000230Y-59539571D01*
X172000230Y-59539571D02*
X172071658Y-59468142D01*
X172071658Y-59468142D02*
X172214516Y-59396714D01*
X172214516Y-59396714D02*
X172357373Y-59396714D01*
X172357373Y-59396714D02*
X172500230Y-59468142D01*
X172500230Y-59468142D02*
X172571658Y-59539571D01*
X172571658Y-59539571D02*
X172643087Y-59682428D01*
X172643087Y-59682428D02*
X172643087Y-60039571D01*
X172643087Y-60039571D02*
X172571658Y-60253857D01*
X172643087Y-61182428D02*
X172643087Y-61468142D01*
X172643087Y-61468142D02*
X172571658Y-61610999D01*
X172571658Y-61610999D02*
X172428801Y-61753856D01*
X172428801Y-61753856D02*
X172143087Y-61825285D01*
X172143087Y-61825285D02*
X171643087Y-61825285D01*
X171643087Y-61825285D02*
X171357373Y-61753856D01*
X171357373Y-61753856D02*
X171214516Y-61610999D01*
X171214516Y-61610999D02*
X171143087Y-61468142D01*
X171143087Y-61468142D02*
X171143087Y-61182428D01*
X171143087Y-61182428D02*
X171214516Y-61039571D01*
X171214516Y-61039571D02*
X171357373Y-60896713D01*
X171357373Y-60896713D02*
X171643087Y-60825285D01*
X171643087Y-60825285D02*
X172143087Y-60825285D01*
X172143087Y-60825285D02*
X172428801Y-60896713D01*
X172428801Y-60896713D02*
X172571658Y-61039571D01*
X172571658Y-61039571D02*
X172643087Y-61182428D01*
X171143087Y-63182428D02*
X171143087Y-62468142D01*
X171143087Y-62468142D02*
X172643087Y-62468142D01*
X171571658Y-63611000D02*
X171571658Y-64325286D01*
X171143087Y-63468143D02*
X172643087Y-63968143D01*
X172643087Y-63968143D02*
X171143087Y-64468143D01*
X171143087Y-65825285D02*
X171857373Y-65325285D01*
X171143087Y-64968142D02*
X172643087Y-64968142D01*
X172643087Y-64968142D02*
X172643087Y-65539571D01*
X172643087Y-65539571D02*
X172571658Y-65682428D01*
X172571658Y-65682428D02*
X172500230Y-65753857D01*
X172500230Y-65753857D02*
X172357373Y-65825285D01*
X172357373Y-65825285D02*
X172143087Y-65825285D01*
X172143087Y-65825285D02*
X172000230Y-65753857D01*
X172000230Y-65753857D02*
X171928801Y-65682428D01*
X171928801Y-65682428D02*
X171857373Y-65539571D01*
X171857373Y-65539571D02*
X171857373Y-64968142D01*
X169299600Y-60539571D02*
X169299600Y-61682429D01*
X168728171Y-61111000D02*
X169871028Y-61111000D01*
X169299600Y-63539571D02*
X169299600Y-64682429D01*
X111776600Y-72492082D02*
X111705171Y-72706368D01*
X111705171Y-72706368D02*
X111705171Y-73063510D01*
X111705171Y-73063510D02*
X111776600Y-73206368D01*
X111776600Y-73206368D02*
X111848028Y-73277796D01*
X111848028Y-73277796D02*
X111990885Y-73349225D01*
X111990885Y-73349225D02*
X112133742Y-73349225D01*
X112133742Y-73349225D02*
X112276600Y-73277796D01*
X112276600Y-73277796D02*
X112348028Y-73206368D01*
X112348028Y-73206368D02*
X112419457Y-73063510D01*
X112419457Y-73063510D02*
X112490885Y-72777796D01*
X112490885Y-72777796D02*
X112562314Y-72634939D01*
X112562314Y-72634939D02*
X112633742Y-72563510D01*
X112633742Y-72563510D02*
X112776600Y-72492082D01*
X112776600Y-72492082D02*
X112919457Y-72492082D01*
X112919457Y-72492082D02*
X113062314Y-72563510D01*
X113062314Y-72563510D02*
X113133742Y-72634939D01*
X113133742Y-72634939D02*
X113205171Y-72777796D01*
X113205171Y-72777796D02*
X113205171Y-73134939D01*
X113205171Y-73134939D02*
X113133742Y-73349225D01*
X112490885Y-73992081D02*
X112490885Y-74492081D01*
X111705171Y-74706367D02*
X111705171Y-73992081D01*
X111705171Y-73992081D02*
X113205171Y-73992081D01*
X113205171Y-73992081D02*
X113205171Y-74706367D01*
X111705171Y-75349224D02*
X113205171Y-75349224D01*
X113205171Y-75349224D02*
X111705171Y-76206367D01*
X111705171Y-76206367D02*
X113205171Y-76206367D01*
X113205171Y-77563511D02*
X113205171Y-77277796D01*
X113205171Y-77277796D02*
X113133742Y-77134939D01*
X113133742Y-77134939D02*
X113062314Y-77063511D01*
X113062314Y-77063511D02*
X112848028Y-76920653D01*
X112848028Y-76920653D02*
X112562314Y-76849225D01*
X112562314Y-76849225D02*
X111990885Y-76849225D01*
X111990885Y-76849225D02*
X111848028Y-76920653D01*
X111848028Y-76920653D02*
X111776600Y-76992082D01*
X111776600Y-76992082D02*
X111705171Y-77134939D01*
X111705171Y-77134939D02*
X111705171Y-77420653D01*
X111705171Y-77420653D02*
X111776600Y-77563511D01*
X111776600Y-77563511D02*
X111848028Y-77634939D01*
X111848028Y-77634939D02*
X111990885Y-77706368D01*
X111990885Y-77706368D02*
X112348028Y-77706368D01*
X112348028Y-77706368D02*
X112490885Y-77634939D01*
X112490885Y-77634939D02*
X112562314Y-77563511D01*
X112562314Y-77563511D02*
X112633742Y-77420653D01*
X112633742Y-77420653D02*
X112633742Y-77134939D01*
X112633742Y-77134939D02*
X112562314Y-76992082D01*
X112562314Y-76992082D02*
X112490885Y-76920653D01*
X112490885Y-76920653D02*
X112348028Y-76849225D01*
X113205171Y-78992082D02*
X113205171Y-78706367D01*
X113205171Y-78706367D02*
X113133742Y-78563510D01*
X113133742Y-78563510D02*
X113062314Y-78492082D01*
X113062314Y-78492082D02*
X112848028Y-78349224D01*
X112848028Y-78349224D02*
X112562314Y-78277796D01*
X112562314Y-78277796D02*
X111990885Y-78277796D01*
X111990885Y-78277796D02*
X111848028Y-78349224D01*
X111848028Y-78349224D02*
X111776600Y-78420653D01*
X111776600Y-78420653D02*
X111705171Y-78563510D01*
X111705171Y-78563510D02*
X111705171Y-78849224D01*
X111705171Y-78849224D02*
X111776600Y-78992082D01*
X111776600Y-78992082D02*
X111848028Y-79063510D01*
X111848028Y-79063510D02*
X111990885Y-79134939D01*
X111990885Y-79134939D02*
X112348028Y-79134939D01*
X112348028Y-79134939D02*
X112490885Y-79063510D01*
X112490885Y-79063510D02*
X112562314Y-78992082D01*
X112562314Y-78992082D02*
X112633742Y-78849224D01*
X112633742Y-78849224D02*
X112633742Y-78563510D01*
X112633742Y-78563510D02*
X112562314Y-78420653D01*
X112562314Y-78420653D02*
X112490885Y-78349224D01*
X112490885Y-78349224D02*
X112348028Y-78277796D01*
X111903600Y-57760082D02*
X111832171Y-57974368D01*
X111832171Y-57974368D02*
X111832171Y-58331510D01*
X111832171Y-58331510D02*
X111903600Y-58474368D01*
X111903600Y-58474368D02*
X111975028Y-58545796D01*
X111975028Y-58545796D02*
X112117885Y-58617225D01*
X112117885Y-58617225D02*
X112260742Y-58617225D01*
X112260742Y-58617225D02*
X112403600Y-58545796D01*
X112403600Y-58545796D02*
X112475028Y-58474368D01*
X112475028Y-58474368D02*
X112546457Y-58331510D01*
X112546457Y-58331510D02*
X112617885Y-58045796D01*
X112617885Y-58045796D02*
X112689314Y-57902939D01*
X112689314Y-57902939D02*
X112760742Y-57831510D01*
X112760742Y-57831510D02*
X112903600Y-57760082D01*
X112903600Y-57760082D02*
X113046457Y-57760082D01*
X113046457Y-57760082D02*
X113189314Y-57831510D01*
X113189314Y-57831510D02*
X113260742Y-57902939D01*
X113260742Y-57902939D02*
X113332171Y-58045796D01*
X113332171Y-58045796D02*
X113332171Y-58402939D01*
X113332171Y-58402939D02*
X113260742Y-58617225D01*
X111975028Y-60117224D02*
X111903600Y-60045796D01*
X111903600Y-60045796D02*
X111832171Y-59831510D01*
X111832171Y-59831510D02*
X111832171Y-59688653D01*
X111832171Y-59688653D02*
X111903600Y-59474367D01*
X111903600Y-59474367D02*
X112046457Y-59331510D01*
X112046457Y-59331510D02*
X112189314Y-59260081D01*
X112189314Y-59260081D02*
X112475028Y-59188653D01*
X112475028Y-59188653D02*
X112689314Y-59188653D01*
X112689314Y-59188653D02*
X112975028Y-59260081D01*
X112975028Y-59260081D02*
X113117885Y-59331510D01*
X113117885Y-59331510D02*
X113260742Y-59474367D01*
X113260742Y-59474367D02*
X113332171Y-59688653D01*
X113332171Y-59688653D02*
X113332171Y-59831510D01*
X113332171Y-59831510D02*
X113260742Y-60045796D01*
X113260742Y-60045796D02*
X113189314Y-60117224D01*
X111832171Y-60760081D02*
X113332171Y-60760081D01*
X113332171Y-60760081D02*
X113332171Y-61117224D01*
X113332171Y-61117224D02*
X113260742Y-61331510D01*
X113260742Y-61331510D02*
X113117885Y-61474367D01*
X113117885Y-61474367D02*
X112975028Y-61545796D01*
X112975028Y-61545796D02*
X112689314Y-61617224D01*
X112689314Y-61617224D02*
X112475028Y-61617224D01*
X112475028Y-61617224D02*
X112189314Y-61545796D01*
X112189314Y-61545796D02*
X112046457Y-61474367D01*
X112046457Y-61474367D02*
X111903600Y-61331510D01*
X111903600Y-61331510D02*
X111832171Y-61117224D01*
X111832171Y-61117224D02*
X111832171Y-60760081D01*
X113332171Y-62117224D02*
X113332171Y-63045796D01*
X113332171Y-63045796D02*
X112760742Y-62545796D01*
X112760742Y-62545796D02*
X112760742Y-62760081D01*
X112760742Y-62760081D02*
X112689314Y-62902939D01*
X112689314Y-62902939D02*
X112617885Y-62974367D01*
X112617885Y-62974367D02*
X112475028Y-63045796D01*
X112475028Y-63045796D02*
X112117885Y-63045796D01*
X112117885Y-63045796D02*
X111975028Y-62974367D01*
X111975028Y-62974367D02*
X111903600Y-62902939D01*
X111903600Y-62902939D02*
X111832171Y-62760081D01*
X111832171Y-62760081D02*
X111832171Y-62331510D01*
X111832171Y-62331510D02*
X111903600Y-62188653D01*
X111903600Y-62188653D02*
X111975028Y-62117224D01*
X113332171Y-63974367D02*
X113332171Y-64117224D01*
X113332171Y-64117224D02*
X113260742Y-64260081D01*
X113260742Y-64260081D02*
X113189314Y-64331510D01*
X113189314Y-64331510D02*
X113046457Y-64402938D01*
X113046457Y-64402938D02*
X112760742Y-64474367D01*
X112760742Y-64474367D02*
X112403600Y-64474367D01*
X112403600Y-64474367D02*
X112117885Y-64402938D01*
X112117885Y-64402938D02*
X111975028Y-64331510D01*
X111975028Y-64331510D02*
X111903600Y-64260081D01*
X111903600Y-64260081D02*
X111832171Y-64117224D01*
X111832171Y-64117224D02*
X111832171Y-63974367D01*
X111832171Y-63974367D02*
X111903600Y-63831510D01*
X111903600Y-63831510D02*
X111975028Y-63760081D01*
X111975028Y-63760081D02*
X112117885Y-63688652D01*
X112117885Y-63688652D02*
X112403600Y-63617224D01*
X112403600Y-63617224D02*
X112760742Y-63617224D01*
X112760742Y-63617224D02*
X113046457Y-63688652D01*
X113046457Y-63688652D02*
X113189314Y-63760081D01*
X113189314Y-63760081D02*
X113260742Y-63831510D01*
X113260742Y-63831510D02*
X113332171Y-63974367D01*
D12*
X112014095Y-54826819D02*
X112014095Y-55636342D01*
X112014095Y-55636342D02*
X112061714Y-55731580D01*
X112061714Y-55731580D02*
X112109333Y-55779200D01*
X112109333Y-55779200D02*
X112204571Y-55826819D01*
X112204571Y-55826819D02*
X112395047Y-55826819D01*
X112395047Y-55826819D02*
X112490285Y-55779200D01*
X112490285Y-55779200D02*
X112537904Y-55731580D01*
X112537904Y-55731580D02*
X112585523Y-55636342D01*
X112585523Y-55636342D02*
X112585523Y-54826819D01*
X113585523Y-55826819D02*
X113014095Y-55826819D01*
X113299809Y-55826819D02*
X113299809Y-54826819D01*
X113299809Y-54826819D02*
X113204571Y-54969676D01*
X113204571Y-54969676D02*
X113109333Y-55064914D01*
X113109333Y-55064914D02*
X113014095Y-55112533D01*
X170555819Y-79224094D02*
X169555819Y-79224094D01*
X169555819Y-79224094D02*
X169555819Y-78985999D01*
X169555819Y-78985999D02*
X169603438Y-78843142D01*
X169603438Y-78843142D02*
X169698676Y-78747904D01*
X169698676Y-78747904D02*
X169793914Y-78700285D01*
X169793914Y-78700285D02*
X169984390Y-78652666D01*
X169984390Y-78652666D02*
X170127247Y-78652666D01*
X170127247Y-78652666D02*
X170317723Y-78700285D01*
X170317723Y-78700285D02*
X170412961Y-78747904D01*
X170412961Y-78747904D02*
X170508200Y-78843142D01*
X170508200Y-78843142D02*
X170555819Y-78985999D01*
X170555819Y-78985999D02*
X170555819Y-79224094D01*
X169651057Y-78271713D02*
X169603438Y-78224094D01*
X169603438Y-78224094D02*
X169555819Y-78128856D01*
X169555819Y-78128856D02*
X169555819Y-77890761D01*
X169555819Y-77890761D02*
X169603438Y-77795523D01*
X169603438Y-77795523D02*
X169651057Y-77747904D01*
X169651057Y-77747904D02*
X169746295Y-77700285D01*
X169746295Y-77700285D02*
X169841533Y-77700285D01*
X169841533Y-77700285D02*
X169984390Y-77747904D01*
X169984390Y-77747904D02*
X170555819Y-78319332D01*
X170555819Y-78319332D02*
X170555819Y-77700285D01*
X165854819Y-82638094D02*
X164854819Y-82638094D01*
X164854819Y-82638094D02*
X164854819Y-82399999D01*
X164854819Y-82399999D02*
X164902438Y-82257142D01*
X164902438Y-82257142D02*
X164997676Y-82161904D01*
X164997676Y-82161904D02*
X165092914Y-82114285D01*
X165092914Y-82114285D02*
X165283390Y-82066666D01*
X165283390Y-82066666D02*
X165426247Y-82066666D01*
X165426247Y-82066666D02*
X165616723Y-82114285D01*
X165616723Y-82114285D02*
X165711961Y-82161904D01*
X165711961Y-82161904D02*
X165807200Y-82257142D01*
X165807200Y-82257142D02*
X165854819Y-82399999D01*
X165854819Y-82399999D02*
X165854819Y-82638094D01*
X165854819Y-81114285D02*
X165854819Y-81685713D01*
X165854819Y-81399999D02*
X164854819Y-81399999D01*
X164854819Y-81399999D02*
X164997676Y-81495237D01*
X164997676Y-81495237D02*
X165092914Y-81590475D01*
X165092914Y-81590475D02*
X165140533Y-81685713D01*
X129913142Y-57864819D02*
X129579809Y-57388628D01*
X129341714Y-57864819D02*
X129341714Y-56864819D01*
X129341714Y-56864819D02*
X129722666Y-56864819D01*
X129722666Y-56864819D02*
X129817904Y-56912438D01*
X129817904Y-56912438D02*
X129865523Y-56960057D01*
X129865523Y-56960057D02*
X129913142Y-57055295D01*
X129913142Y-57055295D02*
X129913142Y-57198152D01*
X129913142Y-57198152D02*
X129865523Y-57293390D01*
X129865523Y-57293390D02*
X129817904Y-57341009D01*
X129817904Y-57341009D02*
X129722666Y-57388628D01*
X129722666Y-57388628D02*
X129341714Y-57388628D01*
X130294095Y-56960057D02*
X130341714Y-56912438D01*
X130341714Y-56912438D02*
X130436952Y-56864819D01*
X130436952Y-56864819D02*
X130675047Y-56864819D01*
X130675047Y-56864819D02*
X130770285Y-56912438D01*
X130770285Y-56912438D02*
X130817904Y-56960057D01*
X130817904Y-56960057D02*
X130865523Y-57055295D01*
X130865523Y-57055295D02*
X130865523Y-57150533D01*
X130865523Y-57150533D02*
X130817904Y-57293390D01*
X130817904Y-57293390D02*
X130246476Y-57864819D01*
X130246476Y-57864819D02*
X130865523Y-57864819D01*
X131484571Y-56864819D02*
X131579809Y-56864819D01*
X131579809Y-56864819D02*
X131675047Y-56912438D01*
X131675047Y-56912438D02*
X131722666Y-56960057D01*
X131722666Y-56960057D02*
X131770285Y-57055295D01*
X131770285Y-57055295D02*
X131817904Y-57245771D01*
X131817904Y-57245771D02*
X131817904Y-57483866D01*
X131817904Y-57483866D02*
X131770285Y-57674342D01*
X131770285Y-57674342D02*
X131722666Y-57769580D01*
X131722666Y-57769580D02*
X131675047Y-57817200D01*
X131675047Y-57817200D02*
X131579809Y-57864819D01*
X131579809Y-57864819D02*
X131484571Y-57864819D01*
X131484571Y-57864819D02*
X131389333Y-57817200D01*
X131389333Y-57817200D02*
X131341714Y-57769580D01*
X131341714Y-57769580D02*
X131294095Y-57674342D01*
X131294095Y-57674342D02*
X131246476Y-57483866D01*
X131246476Y-57483866D02*
X131246476Y-57245771D01*
X131246476Y-57245771D02*
X131294095Y-57055295D01*
X131294095Y-57055295D02*
X131341714Y-56960057D01*
X131341714Y-56960057D02*
X131389333Y-56912438D01*
X131389333Y-56912438D02*
X131484571Y-56864819D01*
X124666819Y-68968857D02*
X124190628Y-69302190D01*
X124666819Y-69540285D02*
X123666819Y-69540285D01*
X123666819Y-69540285D02*
X123666819Y-69159333D01*
X123666819Y-69159333D02*
X123714438Y-69064095D01*
X123714438Y-69064095D02*
X123762057Y-69016476D01*
X123762057Y-69016476D02*
X123857295Y-68968857D01*
X123857295Y-68968857D02*
X124000152Y-68968857D01*
X124000152Y-68968857D02*
X124095390Y-69016476D01*
X124095390Y-69016476D02*
X124143009Y-69064095D01*
X124143009Y-69064095D02*
X124190628Y-69159333D01*
X124190628Y-69159333D02*
X124190628Y-69540285D01*
X124666819Y-68016476D02*
X124666819Y-68587904D01*
X124666819Y-68302190D02*
X123666819Y-68302190D01*
X123666819Y-68302190D02*
X123809676Y-68397428D01*
X123809676Y-68397428D02*
X123904914Y-68492666D01*
X123904914Y-68492666D02*
X123952533Y-68587904D01*
X124666819Y-67540285D02*
X124666819Y-67349809D01*
X124666819Y-67349809D02*
X124619200Y-67254571D01*
X124619200Y-67254571D02*
X124571580Y-67206952D01*
X124571580Y-67206952D02*
X124428723Y-67111714D01*
X124428723Y-67111714D02*
X124238247Y-67064095D01*
X124238247Y-67064095D02*
X123857295Y-67064095D01*
X123857295Y-67064095D02*
X123762057Y-67111714D01*
X123762057Y-67111714D02*
X123714438Y-67159333D01*
X123714438Y-67159333D02*
X123666819Y-67254571D01*
X123666819Y-67254571D02*
X123666819Y-67445047D01*
X123666819Y-67445047D02*
X123714438Y-67540285D01*
X123714438Y-67540285D02*
X123762057Y-67587904D01*
X123762057Y-67587904D02*
X123857295Y-67635523D01*
X123857295Y-67635523D02*
X124095390Y-67635523D01*
X124095390Y-67635523D02*
X124190628Y-67587904D01*
X124190628Y-67587904D02*
X124238247Y-67540285D01*
X124238247Y-67540285D02*
X124285866Y-67445047D01*
X124285866Y-67445047D02*
X124285866Y-67254571D01*
X124285866Y-67254571D02*
X124238247Y-67159333D01*
X124238247Y-67159333D02*
X124190628Y-67111714D01*
X124190628Y-67111714D02*
X124095390Y-67064095D01*
X124666819Y-76334857D02*
X124190628Y-76668190D01*
X124666819Y-76906285D02*
X123666819Y-76906285D01*
X123666819Y-76906285D02*
X123666819Y-76525333D01*
X123666819Y-76525333D02*
X123714438Y-76430095D01*
X123714438Y-76430095D02*
X123762057Y-76382476D01*
X123762057Y-76382476D02*
X123857295Y-76334857D01*
X123857295Y-76334857D02*
X124000152Y-76334857D01*
X124000152Y-76334857D02*
X124095390Y-76382476D01*
X124095390Y-76382476D02*
X124143009Y-76430095D01*
X124143009Y-76430095D02*
X124190628Y-76525333D01*
X124190628Y-76525333D02*
X124190628Y-76906285D01*
X124666819Y-75382476D02*
X124666819Y-75953904D01*
X124666819Y-75668190D02*
X123666819Y-75668190D01*
X123666819Y-75668190D02*
X123809676Y-75763428D01*
X123809676Y-75763428D02*
X123904914Y-75858666D01*
X123904914Y-75858666D02*
X123952533Y-75953904D01*
X124095390Y-74811047D02*
X124047771Y-74906285D01*
X124047771Y-74906285D02*
X124000152Y-74953904D01*
X124000152Y-74953904D02*
X123904914Y-75001523D01*
X123904914Y-75001523D02*
X123857295Y-75001523D01*
X123857295Y-75001523D02*
X123762057Y-74953904D01*
X123762057Y-74953904D02*
X123714438Y-74906285D01*
X123714438Y-74906285D02*
X123666819Y-74811047D01*
X123666819Y-74811047D02*
X123666819Y-74620571D01*
X123666819Y-74620571D02*
X123714438Y-74525333D01*
X123714438Y-74525333D02*
X123762057Y-74477714D01*
X123762057Y-74477714D02*
X123857295Y-74430095D01*
X123857295Y-74430095D02*
X123904914Y-74430095D01*
X123904914Y-74430095D02*
X124000152Y-74477714D01*
X124000152Y-74477714D02*
X124047771Y-74525333D01*
X124047771Y-74525333D02*
X124095390Y-74620571D01*
X124095390Y-74620571D02*
X124095390Y-74811047D01*
X124095390Y-74811047D02*
X124143009Y-74906285D01*
X124143009Y-74906285D02*
X124190628Y-74953904D01*
X124190628Y-74953904D02*
X124285866Y-75001523D01*
X124285866Y-75001523D02*
X124476342Y-75001523D01*
X124476342Y-75001523D02*
X124571580Y-74953904D01*
X124571580Y-74953904D02*
X124619200Y-74906285D01*
X124619200Y-74906285D02*
X124666819Y-74811047D01*
X124666819Y-74811047D02*
X124666819Y-74620571D01*
X124666819Y-74620571D02*
X124619200Y-74525333D01*
X124619200Y-74525333D02*
X124571580Y-74477714D01*
X124571580Y-74477714D02*
X124476342Y-74430095D01*
X124476342Y-74430095D02*
X124285866Y-74430095D01*
X124285866Y-74430095D02*
X124190628Y-74477714D01*
X124190628Y-74477714D02*
X124143009Y-74525333D01*
X124143009Y-74525333D02*
X124095390Y-74620571D01*
X129238819Y-68968857D02*
X128762628Y-69302190D01*
X129238819Y-69540285D02*
X128238819Y-69540285D01*
X128238819Y-69540285D02*
X128238819Y-69159333D01*
X128238819Y-69159333D02*
X128286438Y-69064095D01*
X128286438Y-69064095D02*
X128334057Y-69016476D01*
X128334057Y-69016476D02*
X128429295Y-68968857D01*
X128429295Y-68968857D02*
X128572152Y-68968857D01*
X128572152Y-68968857D02*
X128667390Y-69016476D01*
X128667390Y-69016476D02*
X128715009Y-69064095D01*
X128715009Y-69064095D02*
X128762628Y-69159333D01*
X128762628Y-69159333D02*
X128762628Y-69540285D01*
X129238819Y-68016476D02*
X129238819Y-68587904D01*
X129238819Y-68302190D02*
X128238819Y-68302190D01*
X128238819Y-68302190D02*
X128381676Y-68397428D01*
X128381676Y-68397428D02*
X128476914Y-68492666D01*
X128476914Y-68492666D02*
X128524533Y-68587904D01*
X128238819Y-67683142D02*
X128238819Y-67016476D01*
X128238819Y-67016476D02*
X129238819Y-67445047D01*
X129238819Y-76334857D02*
X128762628Y-76668190D01*
X129238819Y-76906285D02*
X128238819Y-76906285D01*
X128238819Y-76906285D02*
X128238819Y-76525333D01*
X128238819Y-76525333D02*
X128286438Y-76430095D01*
X128286438Y-76430095D02*
X128334057Y-76382476D01*
X128334057Y-76382476D02*
X128429295Y-76334857D01*
X128429295Y-76334857D02*
X128572152Y-76334857D01*
X128572152Y-76334857D02*
X128667390Y-76382476D01*
X128667390Y-76382476D02*
X128715009Y-76430095D01*
X128715009Y-76430095D02*
X128762628Y-76525333D01*
X128762628Y-76525333D02*
X128762628Y-76906285D01*
X129238819Y-75382476D02*
X129238819Y-75953904D01*
X129238819Y-75668190D02*
X128238819Y-75668190D01*
X128238819Y-75668190D02*
X128381676Y-75763428D01*
X128381676Y-75763428D02*
X128476914Y-75858666D01*
X128476914Y-75858666D02*
X128524533Y-75953904D01*
X128238819Y-74525333D02*
X128238819Y-74715809D01*
X128238819Y-74715809D02*
X128286438Y-74811047D01*
X128286438Y-74811047D02*
X128334057Y-74858666D01*
X128334057Y-74858666D02*
X128476914Y-74953904D01*
X128476914Y-74953904D02*
X128667390Y-75001523D01*
X128667390Y-75001523D02*
X129048342Y-75001523D01*
X129048342Y-75001523D02*
X129143580Y-74953904D01*
X129143580Y-74953904D02*
X129191200Y-74906285D01*
X129191200Y-74906285D02*
X129238819Y-74811047D01*
X129238819Y-74811047D02*
X129238819Y-74620571D01*
X129238819Y-74620571D02*
X129191200Y-74525333D01*
X129191200Y-74525333D02*
X129143580Y-74477714D01*
X129143580Y-74477714D02*
X129048342Y-74430095D01*
X129048342Y-74430095D02*
X128810247Y-74430095D01*
X128810247Y-74430095D02*
X128715009Y-74477714D01*
X128715009Y-74477714D02*
X128667390Y-74525333D01*
X128667390Y-74525333D02*
X128619771Y-74620571D01*
X128619771Y-74620571D02*
X128619771Y-74811047D01*
X128619771Y-74811047D02*
X128667390Y-74906285D01*
X128667390Y-74906285D02*
X128715009Y-74953904D01*
X128715009Y-74953904D02*
X128810247Y-75001523D01*
X120094819Y-76334857D02*
X119618628Y-76668190D01*
X120094819Y-76906285D02*
X119094819Y-76906285D01*
X119094819Y-76906285D02*
X119094819Y-76525333D01*
X119094819Y-76525333D02*
X119142438Y-76430095D01*
X119142438Y-76430095D02*
X119190057Y-76382476D01*
X119190057Y-76382476D02*
X119285295Y-76334857D01*
X119285295Y-76334857D02*
X119428152Y-76334857D01*
X119428152Y-76334857D02*
X119523390Y-76382476D01*
X119523390Y-76382476D02*
X119571009Y-76430095D01*
X119571009Y-76430095D02*
X119618628Y-76525333D01*
X119618628Y-76525333D02*
X119618628Y-76906285D01*
X120094819Y-75382476D02*
X120094819Y-75953904D01*
X120094819Y-75668190D02*
X119094819Y-75668190D01*
X119094819Y-75668190D02*
X119237676Y-75763428D01*
X119237676Y-75763428D02*
X119332914Y-75858666D01*
X119332914Y-75858666D02*
X119380533Y-75953904D01*
X119094819Y-74477714D02*
X119094819Y-74953904D01*
X119094819Y-74953904D02*
X119571009Y-75001523D01*
X119571009Y-75001523D02*
X119523390Y-74953904D01*
X119523390Y-74953904D02*
X119475771Y-74858666D01*
X119475771Y-74858666D02*
X119475771Y-74620571D01*
X119475771Y-74620571D02*
X119523390Y-74525333D01*
X119523390Y-74525333D02*
X119571009Y-74477714D01*
X119571009Y-74477714D02*
X119666247Y-74430095D01*
X119666247Y-74430095D02*
X119904342Y-74430095D01*
X119904342Y-74430095D02*
X119999580Y-74477714D01*
X119999580Y-74477714D02*
X120047200Y-74525333D01*
X120047200Y-74525333D02*
X120094819Y-74620571D01*
X120094819Y-74620571D02*
X120094819Y-74858666D01*
X120094819Y-74858666D02*
X120047200Y-74953904D01*
X120047200Y-74953904D02*
X119999580Y-75001523D01*
X120088819Y-68968857D02*
X119612628Y-69302190D01*
X120088819Y-69540285D02*
X119088819Y-69540285D01*
X119088819Y-69540285D02*
X119088819Y-69159333D01*
X119088819Y-69159333D02*
X119136438Y-69064095D01*
X119136438Y-69064095D02*
X119184057Y-69016476D01*
X119184057Y-69016476D02*
X119279295Y-68968857D01*
X119279295Y-68968857D02*
X119422152Y-68968857D01*
X119422152Y-68968857D02*
X119517390Y-69016476D01*
X119517390Y-69016476D02*
X119565009Y-69064095D01*
X119565009Y-69064095D02*
X119612628Y-69159333D01*
X119612628Y-69159333D02*
X119612628Y-69540285D01*
X120088819Y-68016476D02*
X120088819Y-68587904D01*
X120088819Y-68302190D02*
X119088819Y-68302190D01*
X119088819Y-68302190D02*
X119231676Y-68397428D01*
X119231676Y-68397428D02*
X119326914Y-68492666D01*
X119326914Y-68492666D02*
X119374533Y-68587904D01*
X119422152Y-67159333D02*
X120088819Y-67159333D01*
X119041200Y-67397428D02*
X119755485Y-67635523D01*
X119755485Y-67635523D02*
X119755485Y-67016476D01*
X122293142Y-56340819D02*
X121959809Y-55864628D01*
X121721714Y-56340819D02*
X121721714Y-55340819D01*
X121721714Y-55340819D02*
X122102666Y-55340819D01*
X122102666Y-55340819D02*
X122197904Y-55388438D01*
X122197904Y-55388438D02*
X122245523Y-55436057D01*
X122245523Y-55436057D02*
X122293142Y-55531295D01*
X122293142Y-55531295D02*
X122293142Y-55674152D01*
X122293142Y-55674152D02*
X122245523Y-55769390D01*
X122245523Y-55769390D02*
X122197904Y-55817009D01*
X122197904Y-55817009D02*
X122102666Y-55864628D01*
X122102666Y-55864628D02*
X121721714Y-55864628D01*
X123245523Y-56340819D02*
X122674095Y-56340819D01*
X122959809Y-56340819D02*
X122959809Y-55340819D01*
X122959809Y-55340819D02*
X122864571Y-55483676D01*
X122864571Y-55483676D02*
X122769333Y-55578914D01*
X122769333Y-55578914D02*
X122674095Y-55626533D01*
X123578857Y-55340819D02*
X124197904Y-55340819D01*
X124197904Y-55340819D02*
X123864571Y-55721771D01*
X123864571Y-55721771D02*
X124007428Y-55721771D01*
X124007428Y-55721771D02*
X124102666Y-55769390D01*
X124102666Y-55769390D02*
X124150285Y-55817009D01*
X124150285Y-55817009D02*
X124197904Y-55912247D01*
X124197904Y-55912247D02*
X124197904Y-56150342D01*
X124197904Y-56150342D02*
X124150285Y-56245580D01*
X124150285Y-56245580D02*
X124102666Y-56293200D01*
X124102666Y-56293200D02*
X124007428Y-56340819D01*
X124007428Y-56340819D02*
X123721714Y-56340819D01*
X123721714Y-56340819D02*
X123626476Y-56293200D01*
X123626476Y-56293200D02*
X123578857Y-56245580D01*
X122293142Y-60912819D02*
X121959809Y-60436628D01*
X121721714Y-60912819D02*
X121721714Y-59912819D01*
X121721714Y-59912819D02*
X122102666Y-59912819D01*
X122102666Y-59912819D02*
X122197904Y-59960438D01*
X122197904Y-59960438D02*
X122245523Y-60008057D01*
X122245523Y-60008057D02*
X122293142Y-60103295D01*
X122293142Y-60103295D02*
X122293142Y-60246152D01*
X122293142Y-60246152D02*
X122245523Y-60341390D01*
X122245523Y-60341390D02*
X122197904Y-60389009D01*
X122197904Y-60389009D02*
X122102666Y-60436628D01*
X122102666Y-60436628D02*
X121721714Y-60436628D01*
X123245523Y-60912819D02*
X122674095Y-60912819D01*
X122959809Y-60912819D02*
X122959809Y-59912819D01*
X122959809Y-59912819D02*
X122864571Y-60055676D01*
X122864571Y-60055676D02*
X122769333Y-60150914D01*
X122769333Y-60150914D02*
X122674095Y-60198533D01*
X123626476Y-60008057D02*
X123674095Y-59960438D01*
X123674095Y-59960438D02*
X123769333Y-59912819D01*
X123769333Y-59912819D02*
X124007428Y-59912819D01*
X124007428Y-59912819D02*
X124102666Y-59960438D01*
X124102666Y-59960438D02*
X124150285Y-60008057D01*
X124150285Y-60008057D02*
X124197904Y-60103295D01*
X124197904Y-60103295D02*
X124197904Y-60198533D01*
X124197904Y-60198533D02*
X124150285Y-60341390D01*
X124150285Y-60341390D02*
X123578857Y-60912819D01*
X123578857Y-60912819D02*
X124197904Y-60912819D01*
X115866057Y-56737238D02*
X115818438Y-56832476D01*
X115818438Y-56832476D02*
X115723200Y-56927714D01*
X115723200Y-56927714D02*
X115580342Y-57070571D01*
X115580342Y-57070571D02*
X115532723Y-57165809D01*
X115532723Y-57165809D02*
X115532723Y-57261047D01*
X115770819Y-57213428D02*
X115723200Y-57308666D01*
X115723200Y-57308666D02*
X115627961Y-57403904D01*
X115627961Y-57403904D02*
X115437485Y-57451523D01*
X115437485Y-57451523D02*
X115104152Y-57451523D01*
X115104152Y-57451523D02*
X114913676Y-57403904D01*
X114913676Y-57403904D02*
X114818438Y-57308666D01*
X114818438Y-57308666D02*
X114770819Y-57213428D01*
X114770819Y-57213428D02*
X114770819Y-57022952D01*
X114770819Y-57022952D02*
X114818438Y-56927714D01*
X114818438Y-56927714D02*
X114913676Y-56832476D01*
X114913676Y-56832476D02*
X115104152Y-56784857D01*
X115104152Y-56784857D02*
X115437485Y-56784857D01*
X115437485Y-56784857D02*
X115627961Y-56832476D01*
X115627961Y-56832476D02*
X115723200Y-56927714D01*
X115723200Y-56927714D02*
X115770819Y-57022952D01*
X115770819Y-57022952D02*
X115770819Y-57213428D01*
X115770819Y-55832476D02*
X115770819Y-56403904D01*
X115770819Y-56118190D02*
X114770819Y-56118190D01*
X114770819Y-56118190D02*
X114913676Y-56213428D01*
X114913676Y-56213428D02*
X115008914Y-56308666D01*
X115008914Y-56308666D02*
X115056533Y-56403904D01*
X160805905Y-60017819D02*
X160805905Y-59017819D01*
X160805905Y-59017819D02*
X161044000Y-59017819D01*
X161044000Y-59017819D02*
X161186857Y-59065438D01*
X161186857Y-59065438D02*
X161282095Y-59160676D01*
X161282095Y-59160676D02*
X161329714Y-59255914D01*
X161329714Y-59255914D02*
X161377333Y-59446390D01*
X161377333Y-59446390D02*
X161377333Y-59589247D01*
X161377333Y-59589247D02*
X161329714Y-59779723D01*
X161329714Y-59779723D02*
X161282095Y-59874961D01*
X161282095Y-59874961D02*
X161186857Y-59970200D01*
X161186857Y-59970200D02*
X161044000Y-60017819D01*
X161044000Y-60017819D02*
X160805905Y-60017819D01*
X161710667Y-59017819D02*
X162329714Y-59017819D01*
X162329714Y-59017819D02*
X161996381Y-59398771D01*
X161996381Y-59398771D02*
X162139238Y-59398771D01*
X162139238Y-59398771D02*
X162234476Y-59446390D01*
X162234476Y-59446390D02*
X162282095Y-59494009D01*
X162282095Y-59494009D02*
X162329714Y-59589247D01*
X162329714Y-59589247D02*
X162329714Y-59827342D01*
X162329714Y-59827342D02*
X162282095Y-59922580D01*
X162282095Y-59922580D02*
X162234476Y-59970200D01*
X162234476Y-59970200D02*
X162139238Y-60017819D01*
X162139238Y-60017819D02*
X161853524Y-60017819D01*
X161853524Y-60017819D02*
X161758286Y-59970200D01*
X161758286Y-59970200D02*
X161710667Y-59922580D01*
X141409580Y-64766666D02*
X141457200Y-64814285D01*
X141457200Y-64814285D02*
X141504819Y-64957142D01*
X141504819Y-64957142D02*
X141504819Y-65052380D01*
X141504819Y-65052380D02*
X141457200Y-65195237D01*
X141457200Y-65195237D02*
X141361961Y-65290475D01*
X141361961Y-65290475D02*
X141266723Y-65338094D01*
X141266723Y-65338094D02*
X141076247Y-65385713D01*
X141076247Y-65385713D02*
X140933390Y-65385713D01*
X140933390Y-65385713D02*
X140742914Y-65338094D01*
X140742914Y-65338094D02*
X140647676Y-65290475D01*
X140647676Y-65290475D02*
X140552438Y-65195237D01*
X140552438Y-65195237D02*
X140504819Y-65052380D01*
X140504819Y-65052380D02*
X140504819Y-64957142D01*
X140504819Y-64957142D02*
X140552438Y-64814285D01*
X140552438Y-64814285D02*
X140600057Y-64766666D01*
X140504819Y-64433332D02*
X140504819Y-63766666D01*
X140504819Y-63766666D02*
X141504819Y-64195237D01*
X171283333Y-70463580D02*
X171235714Y-70511200D01*
X171235714Y-70511200D02*
X171092857Y-70558819D01*
X171092857Y-70558819D02*
X170997619Y-70558819D01*
X170997619Y-70558819D02*
X170854762Y-70511200D01*
X170854762Y-70511200D02*
X170759524Y-70415961D01*
X170759524Y-70415961D02*
X170711905Y-70320723D01*
X170711905Y-70320723D02*
X170664286Y-70130247D01*
X170664286Y-70130247D02*
X170664286Y-69987390D01*
X170664286Y-69987390D02*
X170711905Y-69796914D01*
X170711905Y-69796914D02*
X170759524Y-69701676D01*
X170759524Y-69701676D02*
X170854762Y-69606438D01*
X170854762Y-69606438D02*
X170997619Y-69558819D01*
X170997619Y-69558819D02*
X171092857Y-69558819D01*
X171092857Y-69558819D02*
X171235714Y-69606438D01*
X171235714Y-69606438D02*
X171283333Y-69654057D01*
X172188095Y-69558819D02*
X171711905Y-69558819D01*
X171711905Y-69558819D02*
X171664286Y-70035009D01*
X171664286Y-70035009D02*
X171711905Y-69987390D01*
X171711905Y-69987390D02*
X171807143Y-69939771D01*
X171807143Y-69939771D02*
X172045238Y-69939771D01*
X172045238Y-69939771D02*
X172140476Y-69987390D01*
X172140476Y-69987390D02*
X172188095Y-70035009D01*
X172188095Y-70035009D02*
X172235714Y-70130247D01*
X172235714Y-70130247D02*
X172235714Y-70368342D01*
X172235714Y-70368342D02*
X172188095Y-70463580D01*
X172188095Y-70463580D02*
X172140476Y-70511200D01*
X172140476Y-70511200D02*
X172045238Y-70558819D01*
X172045238Y-70558819D02*
X171807143Y-70558819D01*
X171807143Y-70558819D02*
X171711905Y-70511200D01*
X171711905Y-70511200D02*
X171664286Y-70463580D01*
X145733333Y-78374819D02*
X145400000Y-77898628D01*
X145161905Y-78374819D02*
X145161905Y-77374819D01*
X145161905Y-77374819D02*
X145542857Y-77374819D01*
X145542857Y-77374819D02*
X145638095Y-77422438D01*
X145638095Y-77422438D02*
X145685714Y-77470057D01*
X145685714Y-77470057D02*
X145733333Y-77565295D01*
X145733333Y-77565295D02*
X145733333Y-77708152D01*
X145733333Y-77708152D02*
X145685714Y-77803390D01*
X145685714Y-77803390D02*
X145638095Y-77851009D01*
X145638095Y-77851009D02*
X145542857Y-77898628D01*
X145542857Y-77898628D02*
X145161905Y-77898628D01*
X146304762Y-77803390D02*
X146209524Y-77755771D01*
X146209524Y-77755771D02*
X146161905Y-77708152D01*
X146161905Y-77708152D02*
X146114286Y-77612914D01*
X146114286Y-77612914D02*
X146114286Y-77565295D01*
X146114286Y-77565295D02*
X146161905Y-77470057D01*
X146161905Y-77470057D02*
X146209524Y-77422438D01*
X146209524Y-77422438D02*
X146304762Y-77374819D01*
X146304762Y-77374819D02*
X146495238Y-77374819D01*
X146495238Y-77374819D02*
X146590476Y-77422438D01*
X146590476Y-77422438D02*
X146638095Y-77470057D01*
X146638095Y-77470057D02*
X146685714Y-77565295D01*
X146685714Y-77565295D02*
X146685714Y-77612914D01*
X146685714Y-77612914D02*
X146638095Y-77708152D01*
X146638095Y-77708152D02*
X146590476Y-77755771D01*
X146590476Y-77755771D02*
X146495238Y-77803390D01*
X146495238Y-77803390D02*
X146304762Y-77803390D01*
X146304762Y-77803390D02*
X146209524Y-77851009D01*
X146209524Y-77851009D02*
X146161905Y-77898628D01*
X146161905Y-77898628D02*
X146114286Y-77993866D01*
X146114286Y-77993866D02*
X146114286Y-78184342D01*
X146114286Y-78184342D02*
X146161905Y-78279580D01*
X146161905Y-78279580D02*
X146209524Y-78327200D01*
X146209524Y-78327200D02*
X146304762Y-78374819D01*
X146304762Y-78374819D02*
X146495238Y-78374819D01*
X146495238Y-78374819D02*
X146590476Y-78327200D01*
X146590476Y-78327200D02*
X146638095Y-78279580D01*
X146638095Y-78279580D02*
X146685714Y-78184342D01*
X146685714Y-78184342D02*
X146685714Y-77993866D01*
X146685714Y-77993866D02*
X146638095Y-77898628D01*
X146638095Y-77898628D02*
X146590476Y-77851009D01*
X146590476Y-77851009D02*
X146495238Y-77803390D01*
X157609580Y-64566666D02*
X157657200Y-64614285D01*
X157657200Y-64614285D02*
X157704819Y-64757142D01*
X157704819Y-64757142D02*
X157704819Y-64852380D01*
X157704819Y-64852380D02*
X157657200Y-64995237D01*
X157657200Y-64995237D02*
X157561961Y-65090475D01*
X157561961Y-65090475D02*
X157466723Y-65138094D01*
X157466723Y-65138094D02*
X157276247Y-65185713D01*
X157276247Y-65185713D02*
X157133390Y-65185713D01*
X157133390Y-65185713D02*
X156942914Y-65138094D01*
X156942914Y-65138094D02*
X156847676Y-65090475D01*
X156847676Y-65090475D02*
X156752438Y-64995237D01*
X156752438Y-64995237D02*
X156704819Y-64852380D01*
X156704819Y-64852380D02*
X156704819Y-64757142D01*
X156704819Y-64757142D02*
X156752438Y-64614285D01*
X156752438Y-64614285D02*
X156800057Y-64566666D01*
X157038152Y-63709523D02*
X157704819Y-63709523D01*
X156657200Y-63947618D02*
X157371485Y-64185713D01*
X157371485Y-64185713D02*
X157371485Y-63566666D01*
X157654819Y-84366666D02*
X157178628Y-84699999D01*
X157654819Y-84938094D02*
X156654819Y-84938094D01*
X156654819Y-84938094D02*
X156654819Y-84557142D01*
X156654819Y-84557142D02*
X156702438Y-84461904D01*
X156702438Y-84461904D02*
X156750057Y-84414285D01*
X156750057Y-84414285D02*
X156845295Y-84366666D01*
X156845295Y-84366666D02*
X156988152Y-84366666D01*
X156988152Y-84366666D02*
X157083390Y-84414285D01*
X157083390Y-84414285D02*
X157131009Y-84461904D01*
X157131009Y-84461904D02*
X157178628Y-84557142D01*
X157178628Y-84557142D02*
X157178628Y-84938094D01*
X157654819Y-83890475D02*
X157654819Y-83699999D01*
X157654819Y-83699999D02*
X157607200Y-83604761D01*
X157607200Y-83604761D02*
X157559580Y-83557142D01*
X157559580Y-83557142D02*
X157416723Y-83461904D01*
X157416723Y-83461904D02*
X157226247Y-83414285D01*
X157226247Y-83414285D02*
X156845295Y-83414285D01*
X156845295Y-83414285D02*
X156750057Y-83461904D01*
X156750057Y-83461904D02*
X156702438Y-83509523D01*
X156702438Y-83509523D02*
X156654819Y-83604761D01*
X156654819Y-83604761D02*
X156654819Y-83795237D01*
X156654819Y-83795237D02*
X156702438Y-83890475D01*
X156702438Y-83890475D02*
X156750057Y-83938094D01*
X156750057Y-83938094D02*
X156845295Y-83985713D01*
X156845295Y-83985713D02*
X157083390Y-83985713D01*
X157083390Y-83985713D02*
X157178628Y-83938094D01*
X157178628Y-83938094D02*
X157226247Y-83890475D01*
X157226247Y-83890475D02*
X157273866Y-83795237D01*
X157273866Y-83795237D02*
X157273866Y-83604761D01*
X157273866Y-83604761D02*
X157226247Y-83509523D01*
X157226247Y-83509523D02*
X157178628Y-83461904D01*
X157178628Y-83461904D02*
X157083390Y-83414285D01*
X159445080Y-79056995D02*
X158635557Y-79056995D01*
X158635557Y-79056995D02*
X158540319Y-79104614D01*
X158540319Y-79104614D02*
X158492700Y-79152233D01*
X158492700Y-79152233D02*
X158445080Y-79247471D01*
X158445080Y-79247471D02*
X158445080Y-79437947D01*
X158445080Y-79437947D02*
X158492700Y-79533185D01*
X158492700Y-79533185D02*
X158540319Y-79580804D01*
X158540319Y-79580804D02*
X158635557Y-79628423D01*
X158635557Y-79628423D02*
X159445080Y-79628423D01*
X159349842Y-80056995D02*
X159397461Y-80104614D01*
X159397461Y-80104614D02*
X159445080Y-80199852D01*
X159445080Y-80199852D02*
X159445080Y-80437947D01*
X159445080Y-80437947D02*
X159397461Y-80533185D01*
X159397461Y-80533185D02*
X159349842Y-80580804D01*
X159349842Y-80580804D02*
X159254604Y-80628423D01*
X159254604Y-80628423D02*
X159159366Y-80628423D01*
X159159366Y-80628423D02*
X159016509Y-80580804D01*
X159016509Y-80580804D02*
X158445080Y-80009376D01*
X158445080Y-80009376D02*
X158445080Y-80628423D01*
X149674819Y-84842857D02*
X149198628Y-85176190D01*
X149674819Y-85414285D02*
X148674819Y-85414285D01*
X148674819Y-85414285D02*
X148674819Y-85033333D01*
X148674819Y-85033333D02*
X148722438Y-84938095D01*
X148722438Y-84938095D02*
X148770057Y-84890476D01*
X148770057Y-84890476D02*
X148865295Y-84842857D01*
X148865295Y-84842857D02*
X149008152Y-84842857D01*
X149008152Y-84842857D02*
X149103390Y-84890476D01*
X149103390Y-84890476D02*
X149151009Y-84938095D01*
X149151009Y-84938095D02*
X149198628Y-85033333D01*
X149198628Y-85033333D02*
X149198628Y-85414285D01*
X149674819Y-83890476D02*
X149674819Y-84461904D01*
X149674819Y-84176190D02*
X148674819Y-84176190D01*
X148674819Y-84176190D02*
X148817676Y-84271428D01*
X148817676Y-84271428D02*
X148912914Y-84366666D01*
X148912914Y-84366666D02*
X148960533Y-84461904D01*
X148674819Y-83271428D02*
X148674819Y-83176190D01*
X148674819Y-83176190D02*
X148722438Y-83080952D01*
X148722438Y-83080952D02*
X148770057Y-83033333D01*
X148770057Y-83033333D02*
X148865295Y-82985714D01*
X148865295Y-82985714D02*
X149055771Y-82938095D01*
X149055771Y-82938095D02*
X149293866Y-82938095D01*
X149293866Y-82938095D02*
X149484342Y-82985714D01*
X149484342Y-82985714D02*
X149579580Y-83033333D01*
X149579580Y-83033333D02*
X149627200Y-83080952D01*
X149627200Y-83080952D02*
X149674819Y-83176190D01*
X149674819Y-83176190D02*
X149674819Y-83271428D01*
X149674819Y-83271428D02*
X149627200Y-83366666D01*
X149627200Y-83366666D02*
X149579580Y-83414285D01*
X149579580Y-83414285D02*
X149484342Y-83461904D01*
X149484342Y-83461904D02*
X149293866Y-83509523D01*
X149293866Y-83509523D02*
X149055771Y-83509523D01*
X149055771Y-83509523D02*
X148865295Y-83461904D01*
X148865295Y-83461904D02*
X148770057Y-83414285D01*
X148770057Y-83414285D02*
X148722438Y-83366666D01*
X148722438Y-83366666D02*
X148674819Y-83271428D01*
X154258333Y-75129819D02*
X153782143Y-75129819D01*
X153782143Y-75129819D02*
X153782143Y-74129819D01*
X155115476Y-75129819D02*
X154544048Y-75129819D01*
X154829762Y-75129819D02*
X154829762Y-74129819D01*
X154829762Y-74129819D02*
X154734524Y-74272676D01*
X154734524Y-74272676D02*
X154639286Y-74367914D01*
X154639286Y-74367914D02*
X154544048Y-74415533D01*
X164109580Y-71642857D02*
X164157200Y-71690476D01*
X164157200Y-71690476D02*
X164204819Y-71833333D01*
X164204819Y-71833333D02*
X164204819Y-71928571D01*
X164204819Y-71928571D02*
X164157200Y-72071428D01*
X164157200Y-72071428D02*
X164061961Y-72166666D01*
X164061961Y-72166666D02*
X163966723Y-72214285D01*
X163966723Y-72214285D02*
X163776247Y-72261904D01*
X163776247Y-72261904D02*
X163633390Y-72261904D01*
X163633390Y-72261904D02*
X163442914Y-72214285D01*
X163442914Y-72214285D02*
X163347676Y-72166666D01*
X163347676Y-72166666D02*
X163252438Y-72071428D01*
X163252438Y-72071428D02*
X163204819Y-71928571D01*
X163204819Y-71928571D02*
X163204819Y-71833333D01*
X163204819Y-71833333D02*
X163252438Y-71690476D01*
X163252438Y-71690476D02*
X163300057Y-71642857D01*
X164204819Y-70690476D02*
X164204819Y-71261904D01*
X164204819Y-70976190D02*
X163204819Y-70976190D01*
X163204819Y-70976190D02*
X163347676Y-71071428D01*
X163347676Y-71071428D02*
X163442914Y-71166666D01*
X163442914Y-71166666D02*
X163490533Y-71261904D01*
X163204819Y-70071428D02*
X163204819Y-69976190D01*
X163204819Y-69976190D02*
X163252438Y-69880952D01*
X163252438Y-69880952D02*
X163300057Y-69833333D01*
X163300057Y-69833333D02*
X163395295Y-69785714D01*
X163395295Y-69785714D02*
X163585771Y-69738095D01*
X163585771Y-69738095D02*
X163823866Y-69738095D01*
X163823866Y-69738095D02*
X164014342Y-69785714D01*
X164014342Y-69785714D02*
X164109580Y-69833333D01*
X164109580Y-69833333D02*
X164157200Y-69880952D01*
X164157200Y-69880952D02*
X164204819Y-69976190D01*
X164204819Y-69976190D02*
X164204819Y-70071428D01*
X164204819Y-70071428D02*
X164157200Y-70166666D01*
X164157200Y-70166666D02*
X164109580Y-70214285D01*
X164109580Y-70214285D02*
X164014342Y-70261904D01*
X164014342Y-70261904D02*
X163823866Y-70309523D01*
X163823866Y-70309523D02*
X163585771Y-70309523D01*
X163585771Y-70309523D02*
X163395295Y-70261904D01*
X163395295Y-70261904D02*
X163300057Y-70214285D01*
X163300057Y-70214285D02*
X163252438Y-70166666D01*
X163252438Y-70166666D02*
X163204819Y-70071428D01*
X154368095Y-61724819D02*
X154368095Y-62534342D01*
X154368095Y-62534342D02*
X154415714Y-62629580D01*
X154415714Y-62629580D02*
X154463333Y-62677200D01*
X154463333Y-62677200D02*
X154558571Y-62724819D01*
X154558571Y-62724819D02*
X154749047Y-62724819D01*
X154749047Y-62724819D02*
X154844285Y-62677200D01*
X154844285Y-62677200D02*
X154891904Y-62629580D01*
X154891904Y-62629580D02*
X154939523Y-62534342D01*
X154939523Y-62534342D02*
X154939523Y-61724819D01*
X155320476Y-61724819D02*
X155939523Y-61724819D01*
X155939523Y-61724819D02*
X155606190Y-62105771D01*
X155606190Y-62105771D02*
X155749047Y-62105771D01*
X155749047Y-62105771D02*
X155844285Y-62153390D01*
X155844285Y-62153390D02*
X155891904Y-62201009D01*
X155891904Y-62201009D02*
X155939523Y-62296247D01*
X155939523Y-62296247D02*
X155939523Y-62534342D01*
X155939523Y-62534342D02*
X155891904Y-62629580D01*
X155891904Y-62629580D02*
X155844285Y-62677200D01*
X155844285Y-62677200D02*
X155749047Y-62724819D01*
X155749047Y-62724819D02*
X155463333Y-62724819D01*
X155463333Y-62724819D02*
X155368095Y-62677200D01*
X155368095Y-62677200D02*
X155320476Y-62629580D01*
X171283333Y-73003580D02*
X171235714Y-73051200D01*
X171235714Y-73051200D02*
X171092857Y-73098819D01*
X171092857Y-73098819D02*
X170997619Y-73098819D01*
X170997619Y-73098819D02*
X170854762Y-73051200D01*
X170854762Y-73051200D02*
X170759524Y-72955961D01*
X170759524Y-72955961D02*
X170711905Y-72860723D01*
X170711905Y-72860723D02*
X170664286Y-72670247D01*
X170664286Y-72670247D02*
X170664286Y-72527390D01*
X170664286Y-72527390D02*
X170711905Y-72336914D01*
X170711905Y-72336914D02*
X170759524Y-72241676D01*
X170759524Y-72241676D02*
X170854762Y-72146438D01*
X170854762Y-72146438D02*
X170997619Y-72098819D01*
X170997619Y-72098819D02*
X171092857Y-72098819D01*
X171092857Y-72098819D02*
X171235714Y-72146438D01*
X171235714Y-72146438D02*
X171283333Y-72194057D01*
X172140476Y-72098819D02*
X171950000Y-72098819D01*
X171950000Y-72098819D02*
X171854762Y-72146438D01*
X171854762Y-72146438D02*
X171807143Y-72194057D01*
X171807143Y-72194057D02*
X171711905Y-72336914D01*
X171711905Y-72336914D02*
X171664286Y-72527390D01*
X171664286Y-72527390D02*
X171664286Y-72908342D01*
X171664286Y-72908342D02*
X171711905Y-73003580D01*
X171711905Y-73003580D02*
X171759524Y-73051200D01*
X171759524Y-73051200D02*
X171854762Y-73098819D01*
X171854762Y-73098819D02*
X172045238Y-73098819D01*
X172045238Y-73098819D02*
X172140476Y-73051200D01*
X172140476Y-73051200D02*
X172188095Y-73003580D01*
X172188095Y-73003580D02*
X172235714Y-72908342D01*
X172235714Y-72908342D02*
X172235714Y-72670247D01*
X172235714Y-72670247D02*
X172188095Y-72575009D01*
X172188095Y-72575009D02*
X172140476Y-72527390D01*
X172140476Y-72527390D02*
X172045238Y-72479771D01*
X172045238Y-72479771D02*
X171854762Y-72479771D01*
X171854762Y-72479771D02*
X171759524Y-72527390D01*
X171759524Y-72527390D02*
X171711905Y-72575009D01*
X171711905Y-72575009D02*
X171664286Y-72670247D01*
X161609580Y-79966666D02*
X161657200Y-80014285D01*
X161657200Y-80014285D02*
X161704819Y-80157142D01*
X161704819Y-80157142D02*
X161704819Y-80252380D01*
X161704819Y-80252380D02*
X161657200Y-80395237D01*
X161657200Y-80395237D02*
X161561961Y-80490475D01*
X161561961Y-80490475D02*
X161466723Y-80538094D01*
X161466723Y-80538094D02*
X161276247Y-80585713D01*
X161276247Y-80585713D02*
X161133390Y-80585713D01*
X161133390Y-80585713D02*
X160942914Y-80538094D01*
X160942914Y-80538094D02*
X160847676Y-80490475D01*
X160847676Y-80490475D02*
X160752438Y-80395237D01*
X160752438Y-80395237D02*
X160704819Y-80252380D01*
X160704819Y-80252380D02*
X160704819Y-80157142D01*
X160704819Y-80157142D02*
X160752438Y-80014285D01*
X160752438Y-80014285D02*
X160800057Y-79966666D01*
X161133390Y-79395237D02*
X161085771Y-79490475D01*
X161085771Y-79490475D02*
X161038152Y-79538094D01*
X161038152Y-79538094D02*
X160942914Y-79585713D01*
X160942914Y-79585713D02*
X160895295Y-79585713D01*
X160895295Y-79585713D02*
X160800057Y-79538094D01*
X160800057Y-79538094D02*
X160752438Y-79490475D01*
X160752438Y-79490475D02*
X160704819Y-79395237D01*
X160704819Y-79395237D02*
X160704819Y-79204761D01*
X160704819Y-79204761D02*
X160752438Y-79109523D01*
X160752438Y-79109523D02*
X160800057Y-79061904D01*
X160800057Y-79061904D02*
X160895295Y-79014285D01*
X160895295Y-79014285D02*
X160942914Y-79014285D01*
X160942914Y-79014285D02*
X161038152Y-79061904D01*
X161038152Y-79061904D02*
X161085771Y-79109523D01*
X161085771Y-79109523D02*
X161133390Y-79204761D01*
X161133390Y-79204761D02*
X161133390Y-79395237D01*
X161133390Y-79395237D02*
X161181009Y-79490475D01*
X161181009Y-79490475D02*
X161228628Y-79538094D01*
X161228628Y-79538094D02*
X161323866Y-79585713D01*
X161323866Y-79585713D02*
X161514342Y-79585713D01*
X161514342Y-79585713D02*
X161609580Y-79538094D01*
X161609580Y-79538094D02*
X161657200Y-79490475D01*
X161657200Y-79490475D02*
X161704819Y-79395237D01*
X161704819Y-79395237D02*
X161704819Y-79204761D01*
X161704819Y-79204761D02*
X161657200Y-79109523D01*
X161657200Y-79109523D02*
X161609580Y-79061904D01*
X161609580Y-79061904D02*
X161514342Y-79014285D01*
X161514342Y-79014285D02*
X161323866Y-79014285D01*
X161323866Y-79014285D02*
X161228628Y-79061904D01*
X161228628Y-79061904D02*
X161181009Y-79109523D01*
X161181009Y-79109523D02*
X161133390Y-79204761D01*
X152933333Y-80209580D02*
X152885714Y-80257200D01*
X152885714Y-80257200D02*
X152742857Y-80304819D01*
X152742857Y-80304819D02*
X152647619Y-80304819D01*
X152647619Y-80304819D02*
X152504762Y-80257200D01*
X152504762Y-80257200D02*
X152409524Y-80161961D01*
X152409524Y-80161961D02*
X152361905Y-80066723D01*
X152361905Y-80066723D02*
X152314286Y-79876247D01*
X152314286Y-79876247D02*
X152314286Y-79733390D01*
X152314286Y-79733390D02*
X152361905Y-79542914D01*
X152361905Y-79542914D02*
X152409524Y-79447676D01*
X152409524Y-79447676D02*
X152504762Y-79352438D01*
X152504762Y-79352438D02*
X152647619Y-79304819D01*
X152647619Y-79304819D02*
X152742857Y-79304819D01*
X152742857Y-79304819D02*
X152885714Y-79352438D01*
X152885714Y-79352438D02*
X152933333Y-79400057D01*
X153409524Y-80304819D02*
X153600000Y-80304819D01*
X153600000Y-80304819D02*
X153695238Y-80257200D01*
X153695238Y-80257200D02*
X153742857Y-80209580D01*
X153742857Y-80209580D02*
X153838095Y-80066723D01*
X153838095Y-80066723D02*
X153885714Y-79876247D01*
X153885714Y-79876247D02*
X153885714Y-79495295D01*
X153885714Y-79495295D02*
X153838095Y-79400057D01*
X153838095Y-79400057D02*
X153790476Y-79352438D01*
X153790476Y-79352438D02*
X153695238Y-79304819D01*
X153695238Y-79304819D02*
X153504762Y-79304819D01*
X153504762Y-79304819D02*
X153409524Y-79352438D01*
X153409524Y-79352438D02*
X153361905Y-79400057D01*
X153361905Y-79400057D02*
X153314286Y-79495295D01*
X153314286Y-79495295D02*
X153314286Y-79733390D01*
X153314286Y-79733390D02*
X153361905Y-79828628D01*
X153361905Y-79828628D02*
X153409524Y-79876247D01*
X153409524Y-79876247D02*
X153504762Y-79923866D01*
X153504762Y-79923866D02*
X153695238Y-79923866D01*
X153695238Y-79923866D02*
X153790476Y-79876247D01*
X153790476Y-79876247D02*
X153838095Y-79828628D01*
X153838095Y-79828628D02*
X153885714Y-79733390D01*
X148256666Y-61578819D02*
X148256666Y-62293104D01*
X148256666Y-62293104D02*
X148209047Y-62435961D01*
X148209047Y-62435961D02*
X148113809Y-62531200D01*
X148113809Y-62531200D02*
X147970952Y-62578819D01*
X147970952Y-62578819D02*
X147875714Y-62578819D01*
X149161428Y-61912152D02*
X149161428Y-62578819D01*
X148923333Y-61531200D02*
X148685238Y-62245485D01*
X148685238Y-62245485D02*
X149304285Y-62245485D01*
X146809580Y-64766666D02*
X146857200Y-64814285D01*
X146857200Y-64814285D02*
X146904819Y-64957142D01*
X146904819Y-64957142D02*
X146904819Y-65052380D01*
X146904819Y-65052380D02*
X146857200Y-65195237D01*
X146857200Y-65195237D02*
X146761961Y-65290475D01*
X146761961Y-65290475D02*
X146666723Y-65338094D01*
X146666723Y-65338094D02*
X146476247Y-65385713D01*
X146476247Y-65385713D02*
X146333390Y-65385713D01*
X146333390Y-65385713D02*
X146142914Y-65338094D01*
X146142914Y-65338094D02*
X146047676Y-65290475D01*
X146047676Y-65290475D02*
X145952438Y-65195237D01*
X145952438Y-65195237D02*
X145904819Y-65052380D01*
X145904819Y-65052380D02*
X145904819Y-64957142D01*
X145904819Y-64957142D02*
X145952438Y-64814285D01*
X145952438Y-64814285D02*
X146000057Y-64766666D01*
X145904819Y-64433332D02*
X145904819Y-63814285D01*
X145904819Y-63814285D02*
X146285771Y-64147618D01*
X146285771Y-64147618D02*
X146285771Y-64004761D01*
X146285771Y-64004761D02*
X146333390Y-63909523D01*
X146333390Y-63909523D02*
X146381009Y-63861904D01*
X146381009Y-63861904D02*
X146476247Y-63814285D01*
X146476247Y-63814285D02*
X146714342Y-63814285D01*
X146714342Y-63814285D02*
X146809580Y-63861904D01*
X146809580Y-63861904D02*
X146857200Y-63909523D01*
X146857200Y-63909523D02*
X146904819Y-64004761D01*
X146904819Y-64004761D02*
X146904819Y-64290475D01*
X146904819Y-64290475D02*
X146857200Y-64385713D01*
X146857200Y-64385713D02*
X146809580Y-64433332D01*
X173093142Y-57858819D02*
X172759809Y-57382628D01*
X172521714Y-57858819D02*
X172521714Y-56858819D01*
X172521714Y-56858819D02*
X172902666Y-56858819D01*
X172902666Y-56858819D02*
X172997904Y-56906438D01*
X172997904Y-56906438D02*
X173045523Y-56954057D01*
X173045523Y-56954057D02*
X173093142Y-57049295D01*
X173093142Y-57049295D02*
X173093142Y-57192152D01*
X173093142Y-57192152D02*
X173045523Y-57287390D01*
X173045523Y-57287390D02*
X172997904Y-57335009D01*
X172997904Y-57335009D02*
X172902666Y-57382628D01*
X172902666Y-57382628D02*
X172521714Y-57382628D01*
X174045523Y-57858819D02*
X173474095Y-57858819D01*
X173759809Y-57858819D02*
X173759809Y-56858819D01*
X173759809Y-56858819D02*
X173664571Y-57001676D01*
X173664571Y-57001676D02*
X173569333Y-57096914D01*
X173569333Y-57096914D02*
X173474095Y-57144533D01*
X174997904Y-57858819D02*
X174426476Y-57858819D01*
X174712190Y-57858819D02*
X174712190Y-56858819D01*
X174712190Y-56858819D02*
X174616952Y-57001676D01*
X174616952Y-57001676D02*
X174521714Y-57096914D01*
X174521714Y-57096914D02*
X174426476Y-57144533D01*
X157807819Y-58332666D02*
X157331628Y-58665999D01*
X157807819Y-58904094D02*
X156807819Y-58904094D01*
X156807819Y-58904094D02*
X156807819Y-58523142D01*
X156807819Y-58523142D02*
X156855438Y-58427904D01*
X156855438Y-58427904D02*
X156903057Y-58380285D01*
X156903057Y-58380285D02*
X156998295Y-58332666D01*
X156998295Y-58332666D02*
X157141152Y-58332666D01*
X157141152Y-58332666D02*
X157236390Y-58380285D01*
X157236390Y-58380285D02*
X157284009Y-58427904D01*
X157284009Y-58427904D02*
X157331628Y-58523142D01*
X157331628Y-58523142D02*
X157331628Y-58904094D01*
X156807819Y-57427904D02*
X156807819Y-57904094D01*
X156807819Y-57904094D02*
X157284009Y-57951713D01*
X157284009Y-57951713D02*
X157236390Y-57904094D01*
X157236390Y-57904094D02*
X157188771Y-57808856D01*
X157188771Y-57808856D02*
X157188771Y-57570761D01*
X157188771Y-57570761D02*
X157236390Y-57475523D01*
X157236390Y-57475523D02*
X157284009Y-57427904D01*
X157284009Y-57427904D02*
X157379247Y-57380285D01*
X157379247Y-57380285D02*
X157617342Y-57380285D01*
X157617342Y-57380285D02*
X157712580Y-57427904D01*
X157712580Y-57427904D02*
X157760200Y-57475523D01*
X157760200Y-57475523D02*
X157807819Y-57570761D01*
X157807819Y-57570761D02*
X157807819Y-57808856D01*
X157807819Y-57808856D02*
X157760200Y-57904094D01*
X157760200Y-57904094D02*
X157712580Y-57951713D01*
X145733333Y-77054819D02*
X145400000Y-76578628D01*
X145161905Y-77054819D02*
X145161905Y-76054819D01*
X145161905Y-76054819D02*
X145542857Y-76054819D01*
X145542857Y-76054819D02*
X145638095Y-76102438D01*
X145638095Y-76102438D02*
X145685714Y-76150057D01*
X145685714Y-76150057D02*
X145733333Y-76245295D01*
X145733333Y-76245295D02*
X145733333Y-76388152D01*
X145733333Y-76388152D02*
X145685714Y-76483390D01*
X145685714Y-76483390D02*
X145638095Y-76531009D01*
X145638095Y-76531009D02*
X145542857Y-76578628D01*
X145542857Y-76578628D02*
X145161905Y-76578628D01*
X146066667Y-76054819D02*
X146733333Y-76054819D01*
X146733333Y-76054819D02*
X146304762Y-77054819D01*
X145733333Y-69054819D02*
X145400000Y-68578628D01*
X145161905Y-69054819D02*
X145161905Y-68054819D01*
X145161905Y-68054819D02*
X145542857Y-68054819D01*
X145542857Y-68054819D02*
X145638095Y-68102438D01*
X145638095Y-68102438D02*
X145685714Y-68150057D01*
X145685714Y-68150057D02*
X145733333Y-68245295D01*
X145733333Y-68245295D02*
X145733333Y-68388152D01*
X145733333Y-68388152D02*
X145685714Y-68483390D01*
X145685714Y-68483390D02*
X145638095Y-68531009D01*
X145638095Y-68531009D02*
X145542857Y-68578628D01*
X145542857Y-68578628D02*
X145161905Y-68578628D01*
X146590476Y-68054819D02*
X146400000Y-68054819D01*
X146400000Y-68054819D02*
X146304762Y-68102438D01*
X146304762Y-68102438D02*
X146257143Y-68150057D01*
X146257143Y-68150057D02*
X146161905Y-68292914D01*
X146161905Y-68292914D02*
X146114286Y-68483390D01*
X146114286Y-68483390D02*
X146114286Y-68864342D01*
X146114286Y-68864342D02*
X146161905Y-68959580D01*
X146161905Y-68959580D02*
X146209524Y-69007200D01*
X146209524Y-69007200D02*
X146304762Y-69054819D01*
X146304762Y-69054819D02*
X146495238Y-69054819D01*
X146495238Y-69054819D02*
X146590476Y-69007200D01*
X146590476Y-69007200D02*
X146638095Y-68959580D01*
X146638095Y-68959580D02*
X146685714Y-68864342D01*
X146685714Y-68864342D02*
X146685714Y-68626247D01*
X146685714Y-68626247D02*
X146638095Y-68531009D01*
X146638095Y-68531009D02*
X146590476Y-68483390D01*
X146590476Y-68483390D02*
X146495238Y-68435771D01*
X146495238Y-68435771D02*
X146304762Y-68435771D01*
X146304762Y-68435771D02*
X146209524Y-68483390D01*
X146209524Y-68483390D02*
X146161905Y-68531009D01*
X146161905Y-68531009D02*
X146114286Y-68626247D01*
%TO.C,U1*%
D13*
X139462500Y-61695000D02*
X139462500Y-87245000D01*
X139462500Y-61695000D02*
X137012500Y-61695000D01*
X137012500Y-61695000D02*
X137012500Y-54695000D01*
X137012500Y-54695000D02*
X113762500Y-54695000D01*
X115812500Y-89295000D02*
X137412500Y-89295000D01*
X113762500Y-54695000D02*
X113762500Y-87245000D01*
X139462500Y-87245000D02*
G75*
G02*
X137412500Y-89295000I-2050000J0D01*
G01*
X115812500Y-89295000D02*
G75*
G02*
X113762500Y-87245000I0J2050000D01*
G01*
X140552500Y-81580000D02*
X139917500Y-80945000D01*
X140552500Y-80310000D01*
X140552500Y-81580000D01*
G36*
X140552500Y-81580000D02*
G01*
X139917500Y-80945000D01*
X140552500Y-80310000D01*
X140552500Y-81580000D01*
G37*
%TO.C,D2*%
X170951000Y-83196000D02*
X175251000Y-83196000D01*
X170951000Y-83196000D02*
X170951000Y-75786000D01*
X175251000Y-83196000D02*
X175251000Y-75786000D01*
%TO.C,D1*%
X166250000Y-86610000D02*
X170550000Y-86610000D01*
X166250000Y-86610000D02*
X166250000Y-79200000D01*
X170550000Y-86610000D02*
X170550000Y-79200000D01*
%TO.C,R20*%
X129028936Y-58330000D02*
X132083064Y-58330000D01*
X129028936Y-61050000D02*
X132083064Y-61050000D01*
%TO.C,R19*%
X125132000Y-69853064D02*
X125132000Y-66798936D01*
X127852000Y-69853064D02*
X127852000Y-66798936D01*
%TO.C,R18*%
X125132000Y-77219064D02*
X125132000Y-74164936D01*
X127852000Y-77219064D02*
X127852000Y-74164936D01*
%TO.C,R17*%
X129704000Y-69853064D02*
X129704000Y-66798936D01*
X132424000Y-69853064D02*
X132424000Y-66798936D01*
%TO.C,R16*%
X129704000Y-77219064D02*
X129704000Y-74164936D01*
X132424000Y-77219064D02*
X132424000Y-74164936D01*
%TO.C,R15*%
X120560000Y-77219064D02*
X120560000Y-74164936D01*
X123280000Y-77219064D02*
X123280000Y-74164936D01*
%TO.C,R14*%
X123280000Y-66798936D02*
X123280000Y-69853064D01*
X120560000Y-66798936D02*
X120560000Y-69853064D01*
%TO.C,R13*%
X121408936Y-56806000D02*
X124463064Y-56806000D01*
X121408936Y-59526000D02*
X124463064Y-59526000D01*
%TO.C,R12*%
X121408936Y-61378000D02*
X124463064Y-61378000D01*
X121408936Y-64098000D02*
X124463064Y-64098000D01*
%TO.C,Q1*%
X115026000Y-59434000D02*
X115026000Y-57914000D01*
X115076000Y-59434000D02*
X115026000Y-59434000D01*
X116976000Y-59434000D02*
X116196000Y-59434000D01*
X118146000Y-59434000D02*
X118096000Y-59434000D01*
X115026000Y-57914000D02*
X116026000Y-57914000D01*
X117146000Y-57914000D02*
X118146000Y-57914000D01*
X118146000Y-57914000D02*
X118146000Y-59434000D01*
X116536000Y-60214000D02*
X116206000Y-59974000D01*
X116536000Y-59734000D01*
X116536000Y-60214000D01*
G36*
X116536000Y-60214000D02*
G01*
X116206000Y-59974000D01*
X116536000Y-59734000D01*
X116536000Y-60214000D01*
G37*
%TO.C,J5*%
X111330000Y-54854000D02*
X110080000Y-54854000D01*
X109720000Y-55154000D02*
X109720000Y-55764000D01*
X108420000Y-55154000D02*
X108420000Y-55764000D01*
X110420000Y-55764000D02*
X106920000Y-55764000D01*
X106920000Y-55764000D02*
X106920000Y-66664000D01*
X111330000Y-56104000D02*
X111330000Y-54854000D01*
X111230000Y-56614000D02*
X111030000Y-56614000D01*
X111230000Y-56914000D02*
X111230000Y-56614000D01*
X111130000Y-56914000D02*
X111130000Y-56614000D01*
X111030000Y-56914000D02*
X111230000Y-56914000D01*
X111030000Y-57714000D02*
X110420000Y-57714000D01*
X110420000Y-57714000D02*
X110420000Y-55764000D01*
X107420000Y-58114000D02*
X107420000Y-58314000D01*
X106920000Y-58114000D02*
X107420000Y-58114000D01*
X106920000Y-58214000D02*
X107420000Y-58214000D01*
X107420000Y-58314000D02*
X106920000Y-58314000D01*
X107420000Y-60114000D02*
X107420000Y-60314000D01*
X106920000Y-60114000D02*
X107420000Y-60114000D01*
X106920000Y-60214000D02*
X107420000Y-60214000D01*
X107420000Y-60314000D02*
X106920000Y-60314000D01*
X107420000Y-62114000D02*
X107420000Y-62314000D01*
X106920000Y-62114000D02*
X107420000Y-62114000D01*
X106920000Y-62214000D02*
X107420000Y-62214000D01*
X107420000Y-62314000D02*
X106920000Y-62314000D01*
X107420000Y-64114000D02*
X107420000Y-64314000D01*
X106920000Y-64114000D02*
X107420000Y-64114000D01*
X106920000Y-64214000D02*
X107420000Y-64214000D01*
X107420000Y-64314000D02*
X106920000Y-64314000D01*
X110420000Y-64714000D02*
X111030000Y-64714000D01*
X110420000Y-66664000D02*
X110420000Y-64714000D01*
X106920000Y-66664000D02*
X110420000Y-66664000D01*
X109720000Y-67274000D02*
X109720000Y-66664000D01*
X108420000Y-67274000D02*
X108420000Y-66664000D01*
X106310000Y-55154000D02*
X111030000Y-55154000D01*
X111030000Y-67274000D01*
X106310000Y-67274000D01*
X106310000Y-55154000D01*
%TO.C,D3*%
X163156737Y-58632000D02*
X161709263Y-58632000D01*
X163156737Y-55922000D02*
X161709263Y-55922000D01*
%TO.C,C7*%
X141990000Y-65761252D02*
X141990000Y-63438748D01*
X145410000Y-65761252D02*
X145410000Y-63438748D01*
%TO.C,C5*%
X166338748Y-66990000D02*
X168661252Y-66990000D01*
X166338748Y-70410000D02*
X168661252Y-70410000D01*
%TO.C,R8*%
X144372936Y-78840000D02*
X147427064Y-78840000D01*
X144372936Y-81560000D02*
X147427064Y-81560000D01*
%TO.C,C4*%
X158190000Y-65561252D02*
X158190000Y-63238748D01*
X161610000Y-65561252D02*
X161610000Y-63238748D01*
%TO.C,R9*%
X153540000Y-85727064D02*
X153540000Y-82672936D01*
X156260000Y-85727064D02*
X156260000Y-82672936D01*
%TO.C,U2*%
D14*
X157718800Y-79199497D02*
X157718800Y-80438303D01*
X160081000Y-80438303D02*
X160081000Y-79199497D01*
X159801600Y-77805950D02*
G75*
G02*
X159598400Y-77805950I-101600J0D01*
G01*
X159598400Y-77805950D02*
G75*
G02*
X159801600Y-77805950I101600J0D01*
G01*
%TO.C,J3*%
D13*
X168260000Y-59240000D02*
X167010000Y-59240000D01*
X166650000Y-59540000D02*
X166650000Y-60150000D01*
X165350000Y-59540000D02*
X165350000Y-60150000D01*
X167350000Y-60150000D02*
X163850000Y-60150000D01*
X163850000Y-60150000D02*
X163850000Y-65050000D01*
X168260000Y-60490000D02*
X168260000Y-59240000D01*
X168160000Y-61000000D02*
X167960000Y-61000000D01*
X168160000Y-61300000D02*
X168160000Y-61000000D01*
X168060000Y-61300000D02*
X168060000Y-61000000D01*
X167960000Y-61300000D02*
X168160000Y-61300000D01*
X167960000Y-62100000D02*
X167350000Y-62100000D01*
X167350000Y-62100000D02*
X167350000Y-60150000D01*
X164350000Y-62500000D02*
X164350000Y-62700000D01*
X163850000Y-62500000D02*
X164350000Y-62500000D01*
X163850000Y-62600000D02*
X164350000Y-62600000D01*
X164350000Y-62700000D02*
X163850000Y-62700000D01*
X167350000Y-63100000D02*
X167960000Y-63100000D01*
X167350000Y-65050000D02*
X167350000Y-63100000D01*
X163850000Y-65050000D02*
X167350000Y-65050000D01*
X166650000Y-65660000D02*
X166650000Y-65050000D01*
X165350000Y-65660000D02*
X165350000Y-65050000D01*
X163240000Y-59540000D02*
X167960000Y-59540000D01*
X167960000Y-65660000D01*
X163240000Y-65660000D01*
X163240000Y-59540000D01*
%TO.C,R10*%
X150140000Y-85727064D02*
X150140000Y-82672936D01*
X152860000Y-85727064D02*
X152860000Y-82672936D01*
%TO.C,L1*%
X152215000Y-69415000D02*
X156635000Y-69415000D01*
X152215000Y-70115000D02*
X152215000Y-69415000D01*
X152215000Y-73835000D02*
X152215000Y-73135000D01*
X156635000Y-69415000D02*
X156635000Y-70115000D01*
X156635000Y-73135000D02*
X156635000Y-73835000D01*
X156635000Y-73835000D02*
X152215000Y-73835000D01*
%TO.C,C10*%
X159390000Y-69838748D02*
X159390000Y-72161252D01*
X162810000Y-69838748D02*
X162810000Y-72161252D01*
%TO.C,U3*%
X152890000Y-67180000D02*
X152890000Y-67410000D01*
X152890000Y-67410000D02*
X153450000Y-67410000D01*
X155550000Y-63190000D02*
X156110000Y-63190000D01*
X155550000Y-67410000D02*
X156110000Y-67410000D01*
X156110000Y-63190000D02*
X156110000Y-63420000D01*
X156110000Y-67180000D02*
X156110000Y-67410000D01*
X152898095Y-63353870D02*
X152658095Y-63023870D01*
X153138095Y-63023870D01*
X152898095Y-63353870D01*
G36*
X152898095Y-63353870D02*
G01*
X152658095Y-63023870D01*
X153138095Y-63023870D01*
X152898095Y-63353870D01*
G37*
%TO.C,C6*%
X166338748Y-72190000D02*
X168661252Y-72190000D01*
X166338748Y-75610000D02*
X168661252Y-75610000D01*
%TO.C,C8*%
X165610000Y-80961252D02*
X165610000Y-78638748D01*
X162190000Y-80961252D02*
X162190000Y-78638748D01*
%TO.C,C9*%
X154261252Y-75490000D02*
X151938748Y-75490000D01*
X154261252Y-78910000D02*
X151938748Y-78910000D01*
%TO.C,J1*%
X111330000Y-68030000D02*
X110080000Y-68030000D01*
X109720000Y-68330000D02*
X109720000Y-68940000D01*
X108420000Y-68330000D02*
X108420000Y-68940000D01*
X110420000Y-68940000D02*
X106920000Y-68940000D01*
X106920000Y-68940000D02*
X106920000Y-81840000D01*
X111330000Y-69280000D02*
X111330000Y-68030000D01*
X111230000Y-69790000D02*
X111030000Y-69790000D01*
X111230000Y-70090000D02*
X111230000Y-69790000D01*
X111130000Y-70090000D02*
X111130000Y-69790000D01*
X111030000Y-70090000D02*
X111230000Y-70090000D01*
X111030000Y-70890000D02*
X110420000Y-70890000D01*
X110420000Y-70890000D02*
X110420000Y-68940000D01*
X107420000Y-71290000D02*
X107420000Y-71490000D01*
X106920000Y-71290000D02*
X107420000Y-71290000D01*
X106920000Y-71390000D02*
X107420000Y-71390000D01*
X107420000Y-71490000D02*
X106920000Y-71490000D01*
X107420000Y-73290000D02*
X107420000Y-73490000D01*
X106920000Y-73290000D02*
X107420000Y-73290000D01*
X106920000Y-73390000D02*
X107420000Y-73390000D01*
X107420000Y-73490000D02*
X106920000Y-73490000D01*
X107420000Y-75290000D02*
X107420000Y-75490000D01*
X106920000Y-75290000D02*
X107420000Y-75290000D01*
X106920000Y-75390000D02*
X107420000Y-75390000D01*
X107420000Y-75490000D02*
X106920000Y-75490000D01*
X107420000Y-77290000D02*
X107420000Y-77490000D01*
X106920000Y-77290000D02*
X107420000Y-77290000D01*
X106920000Y-77390000D02*
X107420000Y-77390000D01*
X107420000Y-77490000D02*
X106920000Y-77490000D01*
X107420000Y-79290000D02*
X107420000Y-79490000D01*
X106920000Y-79290000D02*
X107420000Y-79290000D01*
X106920000Y-79390000D02*
X107420000Y-79390000D01*
X107420000Y-79490000D02*
X106920000Y-79490000D01*
X110420000Y-79890000D02*
X111030000Y-79890000D01*
X110420000Y-81840000D02*
X110420000Y-79890000D01*
X106920000Y-81840000D02*
X110420000Y-81840000D01*
X109720000Y-82450000D02*
X109720000Y-81840000D01*
X108420000Y-82450000D02*
X108420000Y-81840000D01*
X106310000Y-68330000D02*
X111030000Y-68330000D01*
X111030000Y-82450000D01*
X106310000Y-82450000D01*
X106310000Y-68330000D01*
%TO.C,J4*%
X151950000Y-61334000D02*
X151950000Y-60084000D01*
X151650000Y-59724000D02*
X151040000Y-59724000D01*
X151650000Y-58424000D02*
X151040000Y-58424000D01*
X151040000Y-60424000D02*
X151040000Y-56924000D01*
X151040000Y-56924000D02*
X146140000Y-56924000D01*
X150700000Y-61334000D02*
X151950000Y-61334000D01*
X150190000Y-61234000D02*
X150190000Y-61034000D01*
X149890000Y-61234000D02*
X150190000Y-61234000D01*
X149890000Y-61134000D02*
X150190000Y-61134000D01*
X149890000Y-61034000D02*
X149890000Y-61234000D01*
X149090000Y-61034000D02*
X149090000Y-60424000D01*
X149090000Y-60424000D02*
X151040000Y-60424000D01*
X148690000Y-57424000D02*
X148490000Y-57424000D01*
X148690000Y-56924000D02*
X148690000Y-57424000D01*
X148590000Y-56924000D02*
X148590000Y-57424000D01*
X148490000Y-57424000D02*
X148490000Y-56924000D01*
X148090000Y-60424000D02*
X148090000Y-61034000D01*
X146140000Y-60424000D02*
X148090000Y-60424000D01*
X146140000Y-56924000D02*
X146140000Y-60424000D01*
X145530000Y-59724000D02*
X146140000Y-59724000D01*
X145530000Y-58424000D02*
X146140000Y-58424000D01*
X145530000Y-56314000D02*
X151650000Y-56314000D01*
X151650000Y-61034000D01*
X145530000Y-61034000D01*
X145530000Y-56314000D01*
%TO.C,C3*%
X147390000Y-65761252D02*
X147390000Y-63438748D01*
X150810000Y-65761252D02*
X150810000Y-63438748D01*
%TO.C,R11*%
X170310064Y-58637000D02*
X167255936Y-58637000D01*
X170310064Y-55917000D02*
X167255936Y-55917000D01*
%TO.C,R5*%
X153640000Y-59727064D02*
X153640000Y-56672936D01*
X156360000Y-59727064D02*
X156360000Y-56672936D01*
%TO.C,R7*%
X144372936Y-72840000D02*
X147427064Y-72840000D01*
X144372936Y-75560000D02*
X147427064Y-75560000D01*
%TO.C,R6*%
X147427064Y-69440000D02*
X144372936Y-69440000D01*
X147427064Y-72160000D02*
X144372936Y-72160000D01*
%TD*%
%LPC*%
D15*
%TO.C,J6*%
X107188000Y-86868000D03*
%TD*%
%TO.C,J2*%
X175895000Y-56388000D03*
%TD*%
D16*
%TO.C,H3*%
X171844000Y-86868000D03*
X172546944Y-85170944D03*
X172546944Y-88565056D03*
X174244000Y-84468000D03*
D17*
X174244000Y-86868000D03*
D16*
X174244000Y-89268000D03*
X175941056Y-85170944D03*
X175941056Y-88565056D03*
X176644000Y-86868000D03*
%TD*%
%TO.C,H2*%
X99962000Y-58293000D03*
X100664944Y-56595944D03*
X100664944Y-59990056D03*
X102362000Y-55893000D03*
D17*
X102362000Y-58293000D03*
D16*
X102362000Y-60693000D03*
X104059056Y-56595944D03*
X104059056Y-59990056D03*
X104762000Y-58293000D03*
%TD*%
%TO.C,H1*%
X99962000Y-86868000D03*
X100664944Y-85170944D03*
X100664944Y-88565056D03*
X102362000Y-84468000D03*
D17*
X102362000Y-86868000D03*
D16*
X102362000Y-89268000D03*
X104059056Y-85170944D03*
X104059056Y-88565056D03*
X104762000Y-86868000D03*
%TD*%
D18*
%TO.C,U1*%
X138012500Y-80945000D03*
D19*
X138012500Y-78405000D03*
X138012500Y-75865000D03*
X138012500Y-73325000D03*
X138012500Y-70785000D03*
X138012500Y-68245000D03*
X138012500Y-65705000D03*
X138012500Y-63165000D03*
X115152500Y-63165000D03*
X115152500Y-65705000D03*
X115152500Y-68245000D03*
X115152500Y-70785000D03*
X115152500Y-73325000D03*
X115152500Y-75865000D03*
X115152500Y-78405000D03*
X115152500Y-80945000D03*
X135472500Y-80945000D03*
X135472500Y-78405000D03*
X135472500Y-75865000D03*
X135472500Y-73325000D03*
X135472500Y-70785000D03*
X135472500Y-68245000D03*
X135472500Y-65705000D03*
X135472500Y-63165000D03*
X117692500Y-63165000D03*
X117692500Y-65705000D03*
X117692500Y-68245000D03*
X117692500Y-70785000D03*
X117692500Y-73325000D03*
X117692500Y-75865000D03*
X117692500Y-78405000D03*
X117692500Y-80945000D03*
%TD*%
D20*
%TO.C,D2*%
X173101000Y-81186000D03*
X173101000Y-75786000D03*
%TD*%
%TO.C,D1*%
X168400000Y-84600000D03*
X168400000Y-79200000D03*
%TD*%
D21*
%TO.C,R20*%
X128156000Y-59690000D03*
X132956000Y-59690000D03*
%TD*%
D22*
%TO.C,R19*%
X126492000Y-70726000D03*
X126492000Y-65926000D03*
%TD*%
%TO.C,R18*%
X126492000Y-78092000D03*
X126492000Y-73292000D03*
%TD*%
%TO.C,R17*%
X131064000Y-70726000D03*
X131064000Y-65926000D03*
%TD*%
%TO.C,R16*%
X131064000Y-78092000D03*
X131064000Y-73292000D03*
%TD*%
%TO.C,R15*%
X121920000Y-78092000D03*
X121920000Y-73292000D03*
%TD*%
D23*
%TO.C,R14*%
X121920000Y-65926000D03*
X121920000Y-70726000D03*
%TD*%
D21*
%TO.C,R13*%
X120536000Y-58166000D03*
X125336000Y-58166000D03*
%TD*%
%TO.C,R12*%
X120536000Y-62738000D03*
X125336000Y-62738000D03*
%TD*%
D24*
%TO.C,Q1*%
X115636000Y-59611500D03*
X117536000Y-59611500D03*
X116586000Y-57736500D03*
%TD*%
D25*
%TO.C,J5*%
X109220000Y-57214000D03*
D26*
X109220000Y-59214000D03*
X109220000Y-61214000D03*
X109220000Y-63214000D03*
X109220000Y-65214000D03*
%TD*%
D27*
%TO.C,D3*%
X163983000Y-57277000D03*
X160883000Y-57277000D03*
%TD*%
D28*
%TO.C,C7*%
X143700000Y-66650000D03*
X143700000Y-62550000D03*
%TD*%
D29*
%TO.C,C5*%
X165450000Y-68700000D03*
X169550000Y-68700000D03*
%TD*%
D21*
%TO.C,R8*%
X143500000Y-80200000D03*
X148300000Y-80200000D03*
%TD*%
D28*
%TO.C,C4*%
X159900000Y-66450000D03*
X159900000Y-62350000D03*
%TD*%
D22*
%TO.C,R9*%
X154900000Y-86600000D03*
X154900000Y-81800000D03*
%TD*%
D30*
%TO.C,U2*%
X159700000Y-78637800D03*
X159299950Y-78637800D03*
X158899900Y-78637800D03*
X158499850Y-78637800D03*
X158099800Y-78637800D03*
X158099800Y-81000000D03*
X158499850Y-81000000D03*
X158899900Y-81000000D03*
X159299950Y-81000000D03*
X159700000Y-81000000D03*
D31*
X158899900Y-79818900D03*
%TD*%
D25*
%TO.C,J3*%
X166150000Y-61600000D03*
D26*
X166150000Y-63600000D03*
%TD*%
D22*
%TO.C,R10*%
X151500000Y-86600000D03*
X151500000Y-81800000D03*
%TD*%
D32*
%TO.C,L1*%
X156275000Y-71625000D03*
X152575000Y-71625000D03*
%TD*%
D33*
%TO.C,C10*%
X161100000Y-68950000D03*
X161100000Y-73050000D03*
%TD*%
D34*
%TO.C,U3*%
X153100000Y-63800000D03*
X153100000Y-64300000D03*
X153100000Y-64800000D03*
X153100000Y-65300000D03*
X153100000Y-65800000D03*
X153100000Y-66300000D03*
X153100000Y-66800000D03*
X155900000Y-66800000D03*
X155900000Y-66300000D03*
X155900000Y-65800000D03*
X155900000Y-65300000D03*
X155900000Y-64800000D03*
X155900000Y-64300000D03*
X155900000Y-63800000D03*
D35*
X154040000Y-64575000D03*
X154040000Y-66025000D03*
X154500000Y-65300000D03*
D36*
X154500000Y-65300000D03*
D35*
X154960000Y-64575000D03*
X154960000Y-66025000D03*
%TD*%
D29*
%TO.C,C6*%
X165450000Y-73900000D03*
X169550000Y-73900000D03*
%TD*%
D28*
%TO.C,C8*%
X163900000Y-77750000D03*
X163900000Y-81850000D03*
%TD*%
D37*
%TO.C,C9*%
X155150000Y-77200000D03*
X151050000Y-77200000D03*
%TD*%
D25*
%TO.C,J1*%
X109220000Y-70390000D03*
D26*
X109220000Y-72390000D03*
X109220000Y-74390000D03*
X109220000Y-76390000D03*
X109220000Y-78390000D03*
X109220000Y-80390000D03*
%TD*%
D38*
%TO.C,J4*%
X149590000Y-59224000D03*
D39*
X147590000Y-59224000D03*
%TD*%
D28*
%TO.C,C3*%
X149100000Y-66650000D03*
X149100000Y-62550000D03*
%TD*%
D40*
%TO.C,R11*%
X171183000Y-57277000D03*
X166383000Y-57277000D03*
%TD*%
D22*
%TO.C,R5*%
X155000000Y-60600000D03*
X155000000Y-55800000D03*
%TD*%
D21*
%TO.C,R7*%
X143500000Y-74200000D03*
X148300000Y-74200000D03*
%TD*%
D40*
%TO.C,R6*%
X148300000Y-70800000D03*
X143500000Y-70800000D03*
%TD*%
%LPD*%
M02*
